<?xml version="1.0" encoding="UTF-8" standalone="no"?>
<!-- Created with Inkscape (http://www.inkscape.org/) -->

<svg
   xmlns:dc="http://purl.org/dc/elements/1.1/"
   xmlns:cc="http://creativecommons.org/ns#"
   xmlns:rdf="http://www.w3.org/1999/02/22-rdf-syntax-ns#"
   xmlns:svg="http://www.w3.org/2000/svg"
   xmlns="http://www.w3.org/2000/svg"
   xmlns:sodipodi="http://sodipodi.sourceforge.net/DTD/sodipodi-0.dtd"
   xmlns:inkscape="http://www.inkscape.org/namespaces/inkscape"
   id="svg2985"
   version="1.1"
   inkscape:version="0.48.1 "
   width="100"
   height="100"
   xml:space="preserve"
   sodipodi:docname="datasource-sqlite.svg"
   inkscape:export-filename="C:\Users\gribeiro\Desktop\icones\datasource-sqlite.png"
   inkscape:export-xdpi="43.200001"
   inkscape:export-ydpi="43.200001"><metadata
     id="metadata2991"><rdf:RDF><cc:Work
         rdf:about=""><dc:format>image/svg+xml</dc:format><dc:type
           rdf:resource="http://purl.org/dc/dcmitype/StillImage" /><dc:title></dc:title></cc:Work></rdf:RDF></metadata><defs
     id="defs2989" /><sodipodi:namedview
     pagecolor="#ffffff"
     bordercolor="#666666"
     borderopacity="1"
     objecttolerance="10"
     gridtolerance="10"
     guidetolerance="10"
     inkscape:pageopacity="0"
     inkscape:pageshadow="2"
     inkscape:window-width="1280"
     inkscape:window-height="962"
     id="namedview2987"
     showgrid="false"
     inkscape:zoom="3.4013158"
     inkscape:cx="97.5"
     inkscape:cy="39.500967"
     inkscape:window-x="-8"
     inkscape:window-y="-8"
     inkscape:window-maximized="1"
     inkscape:current-layer="g2993"
     fit-margin-top="10"
     fit-margin-left="10"
     fit-margin-right="10"
     fit-margin-bottom="10" /><g
     id="g2993"
     inkscape:groupmode="layer"
     inkscape:label="ink_ext_XXXXXX"
     transform="matrix(1.25,0,0,-1.25,-41.57475,141.76274)"><path
       inkscape:connector-curvature="0"
       id="path3045"
       style="fill:#003b57;fill-opacity:1;fill-rule:nonzero;stroke:none"
       d="m 87.609162,111.6723 c -3.43796,3.06592 -7.600462,1.83438 -11.708735,-1.81168 -0.609777,-0.54167 -1.218294,-1.14262 -1.823657,-1.78456 -7.027887,-7.45542 -13.551306,-21.265267 -15.578013,-31.811828 0.789492,-1.60107 1.406205,-3.64417 1.812301,-5.20487 0.104044,-0.400416 0.197998,-0.776237 0.273048,-1.095957 0.178469,-0.756643 0.274306,-1.247303 0.274306,-1.247303 0,0 -0.06307,0.238315 -0.3216,0.988129 -0.04918,0.143811 -0.104043,0.300791 -0.169005,0.485552 -0.02775,0.07622 -0.06621,0.168958 -0.108457,0.268017 -0.458439,1.065669 -1.726548,3.314974 -2.284617,4.294285 -0.477354,-1.408107 -0.899218,-2.725403 -1.252346,-3.917195 1.611149,-2.947871 2.592974,-7.999764 2.592974,-7.999764 0,0 -0.08514,0.327392 -0.489968,1.470095 -0.359433,1.010639 -2.149668,4.147309 -2.573738,4.880603 -0.725428,-2.67797 -1.013669,-4.485981 -0.753742,-4.926208 0.504659,-0.852986 0.985294,-2.324787 1.407346,-3.952435 0.953446,-3.666808 1.616193,-8.130661 1.616193,-8.130661 0,0 0.02119,-0.295816 0.05736,-0.751031 -0.132408,-3.079299 -0.05296,-6.271889 0.185378,-9.157587 0.315923,-3.819961 0.910565,-7.101476 1.668529,-8.857709 l 0.514562,0.280545 c -1.112983,3.4601 -1.565118,7.994633 -1.367112,13.2241 0.299527,7.993363 2.138952,17.633022 5.537809,27.680232 5.742126,15.166869 13.708956,27.33594 21.00043,33.14743 C 79.472655,101.74054 70.477969,82.312818 67.785362,75.118455 64.770524,67.062083 62.634097,59.501907 61.346441,52.258558 c 2.221556,6.790597 9.404569,9.709502 9.404569,9.709502 0,0 3.523087,4.344949 7.640187,10.552381 -2.466223,-0.562487 -6.515851,-1.525384 -7.872245,-2.095442 -2.000848,-0.839317 -2.540003,-1.125605 -2.540003,-1.125605 0,0 6.481171,3.946846 12.041688,5.733923 7.647124,12.044226 15.978433,29.154533 7.588479,36.638983" /></g></svg>