<?xml version="1.0" encoding="UTF-8" standalone="no"?>
<svg
   xmlns:dc="http://purl.org/dc/elements/1.1/"
   xmlns:cc="http://creativecommons.org/ns#"
   xmlns:rdf="http://www.w3.org/1999/02/22-rdf-syntax-ns#"
   xmlns:svg="http://www.w3.org/2000/svg"
   xmlns="http://www.w3.org/2000/svg"
   xmlns:sodipodi="http://sodipodi.sourceforge.net/DTD/sodipodi-0.dtd"
   xmlns:inkscape="http://www.inkscape.org/namespaces/inkscape"
   width="100"
   height="100"
   viewBox="0 0 80 80"
   id="svg2"
   version="1.1"
   inkscape:version="0.48.1 "
   sodipodi:docname="datasource-mysql.svg"
   inkscape:export-filename="C:\Users\gribeiro\Desktop\icones\datasource-mysql.png"
   inkscape:export-xdpi="43.200001"
   inkscape:export-ydpi="43.200001">
  <metadata
     id="metadata40">
    <rdf:RDF>
      <cc:Work
         rdf:about="">
        <dc:format>image/svg+xml</dc:format>
        <dc:type
           rdf:resource="http://purl.org/dc/dcmitype/StillImage" />
        <dc:title></dc:title>
      </cc:Work>
    </rdf:RDF>
  </metadata>
  <defs
     id="defs38" />
  <sodipodi:namedview
     pagecolor="#ffffff"
     bordercolor="#666666"
     borderopacity="1"
     objecttolerance="10"
     gridtolerance="10"
     guidetolerance="10"
     inkscape:pageopacity="0"
     inkscape:pageshadow="2"
     inkscape:window-width="1280"
     inkscape:window-height="962"
     id="namedview36"
     showgrid="false"
     inkscape:zoom="1.4569705"
     inkscape:cx="144.83562"
     inkscape:cy="119.54663"
     inkscape:window-x="-8"
     inkscape:window-y="-8"
     inkscape:window-maximized="1"
     inkscape:current-layer="svg2" />
  <g
     id="g3015"
     transform="matrix(2.8207539,0,0,2.8751103,-140.85084,-59.109224)">
    <g
       id="g24"
       style="fill:#00618a;fill-rule:nonzero;stroke:none"
       transform="matrix(0.19597939,0,0,0.19597939,50.122788,19.731411)">
      <path
         id="path26"
         d="m 135.289,114.997 c -7.894,-0.214 -13.924,0.52 -19.079,2.694 -1.465,0.618 -3.801,0.634 -4.04,2.47 0.805,0.844 0.93,2.104 1.57,3.142 1.231,1.992 3.309,4.661 5.163,6.061 2.026,1.529 4.114,3.165 6.286,4.489 3.863,2.356 8.176,3.701 11.896,6.061 2.192,1.391 4.37,3.143 6.509,4.713 1.057,0.776 1.768,1.983 3.142,2.469 0,-0.074 0,-0.149 0,-0.224 -0.722,-0.919 -0.908,-2.183 -1.571,-3.143 -0.972,-0.972 -1.945,-1.945 -2.918,-2.918 -2.853,-3.787 -6.475,-7.113 -10.325,-9.876 -3.07,-2.204 -9.942,-5.181 -11.223,-8.754 -0.075,-0.075 -0.149,-0.15 -0.225,-0.225 2.177,-0.245 4.726,-1.033 6.735,-1.571 3.375,-0.905 6.391,-0.671 9.876,-1.571 1.571,-0.449 3.142,-0.899 4.714,-1.347 0,-0.3 0,-0.598 0,-0.898 -1.762,-1.808 -3.018,-4.2 -4.939,-5.836 -5.026,-4.28 -10.512,-8.556 -16.161,-12.1216 -3.133,-1.9776 -7.005,-3.2627 -10.325,-4.9385 -1.117,-0.5635 -3.079,-0.8565 -3.817,-1.7959 -1.744,-2.2237 -2.694,-5.042 -4.039,-7.6319 C 99.7,78.8194 96.933,72.8936 94.437,67.1856 92.734,63.293 91.622,59.4541 89.499,55.9619 79.307,39.2051 68.336,29.0908 51.341,19.1494 47.725,17.0352 43.371,16.2002 38.77,15.1094 36.302,14.96 33.832,14.8096 31.363,14.6602 29.856,14.0303 28.288,12.1865 26.874,11.293 21.244,7.73633 6.803,0 2.633,10.1709 0,16.5908 6.568,22.8555 8.917,26.1084 c 1.649,2.2822 3.76,4.8408 4.938,7.4072 0.775,1.6866 0.909,3.378 1.572,5.1631 1.632,4.3965 3.051,9.1797 5.162,13.2432 1.067,2.0557 2.243,4.2217 3.592,6.0605 0.827,1.128 2.244,1.625 2.468,3.3672 -1.386,1.9395 -1.465,4.9502 -2.244,7.4073 -3.508,11.0615 -2.185,24.8105 2.918,32.9971 1.566,2.513 5.254,7.903 10.325,5.836 4.436,-1.807 3.445,-7.406 4.714,-12.3458 0.287,-1.1202 0.111,-1.9434 0.673,-2.6934 0,0.0742 0,0.1494 0,0.2246 1.347,2.6934 2.694,5.3867 4.041,8.0796 2.99,4.816 8.297,9.849 12.794,13.245 2.332,1.761 4.168,4.806 7.183,5.836 0,-0.075 0,-0.149 0,-0.225 -0.076,0 -0.15,0 -0.225,0 -0.584,-0.911 -1.498,-1.288 -2.244,-2.02 -1.757,-1.722 -3.71,-3.863 -5.163,-5.836 -4.09,-5.553 -7.705,-11.631 -10.998,-17.9575 -1.573,-3.0205 -2.94,-6.3535 -4.266,-9.4278 -0.511,-1.1855 -0.505,-2.9775 -1.57,-3.5917 -1.452,2.2529 -3.591,4.0742 -4.714,6.7343 -1.796,4.252 -2.028,9.4375 -2.693,14.8147 -0.394,0.141 -0.219,0.044 -0.45,0.224 -3.126,-0.754 -4.225,-3.9723 -5.386,-6.733 -2.939,-6.9824 -3.485,-18.2256 -0.899,-26.2627 0.669,-2.0791 3.693,-8.6289 2.469,-10.5498 -0.584,-1.917 -2.512,-3.0254 -3.591,-4.4902 -1.335,-1.8106 -2.668,-4.1944 -3.592,-6.2852 -2.405,-5.4443 -3.528,-11.5557 -6.06,-17.0586 -1.21,-2.6309 -3.257,-5.293 -4.938,-7.6318 C 10.872,21.0489 8.788,19.1406 7.346,16.0069 6.833,14.8936 6.136,13.1113 6.897,11.9668 7.139,11.1943 7.48,10.8721 8.244,10.6201 c 1.302,-1.00389 4.928,0.334 6.284,0.8975 3.6,1.4951 6.604,2.9189 9.653,4.9385 1.464,0.9707 2.944,2.8476 4.713,3.3672 0.673,0 1.347,0 2.02,0 3.16,0.7265 6.7,0.2256 9.652,1.122 5.218,1.586 9.894,4.0528 14.141,6.7344 12.938,8.169 23.516,19.7979 30.752,33.6699 1.164,2.2334 1.668,4.3653 2.693,6.7344 2.069,4.7774 4.675,9.6934 6.733,14.3652 2.054,4.6612 4.056,9.3653 6.959,13.2442 1.527,2.039 7.422,3.1328 10.101,4.2646 1.878,0.794 4.955,1.621 6.734,2.693 3.398,2.05 6.69,4.49 9.877,6.735 1.593,1.122 6.489,3.583 6.733,5.611 z"
         inkscape:connector-curvature="0" />
    </g>
    <g
       id="g28"
       style="fill:#00618a;fill-rule:evenodd;stroke:none"
       transform="matrix(0.19597939,0,0,0.19597939,56.181295,25.502079)">
      <path
         id="path30"
         d="M 4.041,0.0303 C 2.395,0 1.231,0.21 0,0.4786 c 0,0.0751 0,0.1503 0,0.2246 0.075,0 0.15,0 0.225,0 C 1.01,2.3164 2.396,3.3545 3.367,4.7442 4.115,6.3155 4.863,7.8868 5.612,9.4571 5.686,9.3828 5.762,9.3077 5.836,9.2334 7.226,8.2539 7.863,6.6866 7.856,4.295 7.299,3.709 7.217,2.9737 6.734,2.2744 6.092,1.3428 4.85,0.8135 4.041,0.0303 z"
         inkscape:connector-curvature="0" />
    </g>
  </g>
</svg>
