<?xml version="1.0" encoding="UTF-8" standalone="no"?>
<!-- Created with Inkscape (http://www.inkscape.org/) -->

<svg
   xmlns:dc="http://purl.org/dc/elements/1.1/"
   xmlns:cc="http://creativecommons.org/ns#"
   xmlns:rdf="http://www.w3.org/1999/02/22-rdf-syntax-ns#"
   xmlns:svg="http://www.w3.org/2000/svg"
   xmlns="http://www.w3.org/2000/svg"
   xmlns:xlink="http://www.w3.org/1999/xlink"
   xmlns:sodipodi="http://sodipodi.sourceforge.net/DTD/sodipodi-0.dtd"
   xmlns:inkscape="http://www.inkscape.org/namespaces/inkscape"
   width="24"
   height="25.717268"
   id="svg35769"
   version="1.1"
   inkscape:version="0.48.2 r9819"
   sodipodi:docname="New document 17">
  <defs
     id="defs35771">
    <radialGradient
       xlink:href="#linearGradient5225"
       r="23.75956"
       inkscape:collect="always"
       id="radialGradient5231"
       gradientUnits="userSpaceOnUse"
       gradientTransform="matrix(1,0,0,0.24763,0,32.1168)"
       fy="42.6875"
       fx="23.9375"
       cy="42.6875"
       cx="23.9375" />
    <linearGradient
       inkscape:collect="always"
       id="linearGradient5225">
      <stop
         style="stop-color:black;stop-opacity:1;"
         offset="0"
         id="stop5227" />
      <stop
         style="stop-color:black;stop-opacity:0;"
         offset="1"
         id="stop5229-6" />
    </linearGradient>
    <linearGradient
       y2="43.82579"
       y1="37.842293"
       xlink:href="#linearGradient5137"
       x2="31.86105"
       x1="31.743324"
       inkscape:collect="always"
       id="linearGradient5223"
       gradientUnits="userSpaceOnUse" />
    <linearGradient
       id="linearGradient5137">
      <stop
         style="stop-color:#eeeeec;stop-opacity:1;"
         offset="0"
         id="stop5139" />
      <stop
         style="stop-color:#e6e6e3;stop-opacity:1;"
         offset="1"
         id="stop5141" />
    </linearGradient>
    <linearGradient
       y2="38.876041"
       y1="6.3760414"
       xlink:href="#linearGradient5137"
       x2="39.904388"
       x1="17.247635"
       inkscape:collect="always"
       id="linearGradient5147"
       gradientUnits="userSpaceOnUse" />
    <linearGradient
       id="linearGradient35724">
      <stop
         style="stop-color:#eeeeec;stop-opacity:1;"
         offset="0"
         id="stop35726" />
      <stop
         style="stop-color:#e6e6e3;stop-opacity:1;"
         offset="1"
         id="stop35728" />
    </linearGradient>
    <radialGradient
       xlink:href="#linearGradient5233"
       r="19.00016"
       inkscape:collect="always"
       id="radialGradient5239"
       gradientUnits="userSpaceOnUse"
       gradientTransform="matrix(1.232634,0,0,0.778392,-5.584638,2.154377)"
       fy="32.997028"
       fx="24.006104"
       cy="32.997028"
       cx="24.006104" />
    <linearGradient
       id="linearGradient5233">
      <stop
         style="stop-color:#729fcf;stop-opacity:1;"
         offset="0"
         id="stop5235" />
      <stop
         style="stop-color:#326194;stop-opacity:1;"
         offset="1"
         id="stop5237" />
    </linearGradient>
    <linearGradient
       y2="40.219608"
       y1="34.572548"
       xlink:href="#linearGradient11400-1"
       x2="23.529411"
       x1="23.154902"
       inkscape:collect="always"
       id="linearGradient11406"
       gradientUnits="userSpaceOnUse" />
    <linearGradient
       id="linearGradient11400-1">
      <stop
         style="stop-color:#000000;stop-opacity:1;"
         offset="0"
         id="stop11402-8" />
      <stop
         style="stop-color:#000000;stop-opacity:0;"
         offset="1"
         id="stop11404-2" />
    </linearGradient>
    <linearGradient
       y2="26.039215"
       y1="5.0996137"
       xlink:href="#linearGradient6240"
       x2="20.156862"
       x1="20.156862"
       inkscape:collect="always"
       id="linearGradient6246"
       gradientUnits="userSpaceOnUse" />
    <linearGradient
       inkscape:collect="always"
       id="linearGradient6240">
      <stop
         style="stop-color:#ffffff;stop-opacity:1;"
         offset="0"
         id="stop6242" />
      <stop
         style="stop-color:#ffffff;stop-opacity:0;"
         offset="1"
         id="stop6244" />
    </linearGradient>
    <linearGradient
       gradientTransform="matrix(1,0,0,-1,0.453976,493.3688)"
       gradientUnits="userSpaceOnUse"
       id="linearGradient12592"
       inkscape:collect="always"
       x1="712.98596"
       x2="717.60321"
       xlink:href="#linearGradient2485-06"
       y1="249.98053"
       y2="244.67865" />
    <linearGradient
       id="linearGradient2485-06">
      <stop
         id="stop2486-8"
         offset="0.0000000"
         style="stop-color:#ffffff;stop-opacity:1.0000000" />
      <stop
         id="stop2487-19"
         offset="1.0000000"
         style="stop-color:#aaaaaa;stop-opacity:1.0000000;" />
    </linearGradient>
    <linearGradient
       gradientUnits="userSpaceOnUse"
       id="linearGradient12519"
       inkscape:collect="always"
       x1="64.608963"
       x2="61.995983"
       xlink:href="#linearGradient12513"
       y1="715.75946"
       y2="712.16724" />
    <linearGradient
       id="linearGradient12513">
      <stop
         id="stop12515"
         offset="0"
         style="stop-color:black;stop-opacity:1;" />
      <stop
         id="stop12517"
         offset="1"
         style="stop-color:#2a2a2a;stop-opacity:1;" />
    </linearGradient>
  </defs>
  <sodipodi:namedview
     id="base"
     pagecolor="#ffffff"
     bordercolor="#666666"
     borderopacity="1.0"
     inkscape:pageopacity="0.0"
     inkscape:pageshadow="2"
     inkscape:zoom="5.6"
     inkscape:cx="44.133877"
     inkscape:cy="13.380182"
     inkscape:document-units="px"
     inkscape:current-layer="layer1"
     showgrid="false"
     fit-margin-top="0"
     fit-margin-left="0"
     fit-margin-right="0"
     fit-margin-bottom="0"
     inkscape:window-width="1920"
     inkscape:window-height="1173"
     inkscape:window-x="-9"
     inkscape:window-y="-9"
     inkscape:window-maximized="1" />
  <metadata
     id="metadata35774">
    <rdf:RDF>
      <cc:Work
         rdf:about="">
        <dc:format>image/svg+xml</dc:format>
        <dc:type
           rdf:resource="http://purl.org/dc/dcmitype/StillImage" />
        <dc:title></dc:title>
      </cc:Work>
    </rdf:RDF>
  </metadata>
  <g
     inkscape:label="Layer 1"
     inkscape:groupmode="layer"
     id="layer1"
     transform="translate(-376.57143,-485.21784)">
    <g
       transform="translate(487.95707,350.62955)"
       id="g35685">
      <rect
         height="24"
         id="rect12294"
         style="color:#000000;fill:none;stroke:none;stroke-width:1;marker:none;display:inline"
         width="24"
         x="-111.38564"
         y="134.58829" />
      <g
         transform="matrix(0.42680848,0,0,0.39675384,-108.40717,135.33862)"
         id="layer1-1"
         inkscape:label="Layer 1">
        <rect
           height="48"
           id="rect4784"
           style="fill:none;stroke:none"
           width="48"
           x="0"
           y="0" />
        <path
           d="m 47.69706,42.6875 c 0,3.249411 -10.637518,5.883578 -23.75956,5.883578 -13.122042,0 -23.75955963,-2.634167 -23.75955963,-5.883578 0,-3.249411 10.63751763,-5.883578 23.75955963,-5.883578 13.122042,0 23.75956,2.634167 23.75956,5.883578 z"
           id="path13582"
           sodipodi:cx="23.9375"
           sodipodi:cy="42.6875"
           sodipodi:rx="23.75956"
           sodipodi:ry="5.8835783"
           sodipodi:type="arc"
           style="opacity:0.4;fill:url(#radialGradient5231);fill-opacity:1;fill-rule:evenodd;stroke:none"
           transform="matrix(0.968245,0,0,0.863797,1.447631,6.096332)" />
        <path
           inkscape:connector-curvature="0"
           d="m 14.375479,35.533351 c 0,0 1.216876,4.9346 -3.856329,4.980924 -2.4302757,0.02191 -1.9324777,4.035151 -1.9324777,4.035151 l 30.8464667,-0.03137 c 0,0 0.418438,-3.895363 -2.022217,-3.941032 -4.987467,-0.09214 -3.810529,-5.106415 -3.810529,-5.106415 l -19.224914,0.06275 z"
           id="path9222"
           sodipodi:nodetypes="csccscc"
           style="color:#000000;fill:url(#linearGradient5223);fill-opacity:1;fill-rule:evenodd;stroke:#888a85;stroke-width:1;stroke-linecap:butt;stroke-linejoin:miter;stroke-miterlimit:4;stroke-opacity:1;stroke-dasharray:none;stroke-dashoffset:0;marker:none;visibility:visible;display:inline;overflow:visible" />
        <path
           inkscape:connector-curvature="0"
           d="m 4.8886262,3.4784362 38.1288338,0 c 2.025119,0 3.500978,1.4276545 3.500978,3.6261408 l 0.01095,26.203839 c 0,1.692067 -0.528347,2.215229 -2.034656,2.215229 L 3.5320635,35.50471 C 2.3527922,35.475917 1.513468,35.010049 1.4976345,33.485407 L 1.5128113,6.9168325 c 0,-1.7738259 1.5394074,-3.4383963 3.3758149,-3.4383963 z"
           id="rect5040"
           sodipodi:nodetypes="ccccccccc"
           style="fill:url(#linearGradient5147);fill-opacity:1;fill-rule:evenodd;stroke:#888a85;stroke-width:1;stroke-linecap:butt;stroke-linejoin:miter;stroke-miterlimit:4;stroke-opacity:1" />
        <rect
           height="22.996691"
           id="rect9208"
           style="fill:url(#radialGradient5239);fill-opacity:1;fill-rule:evenodd;stroke:#204a87;stroke-width:1px;stroke-linecap:butt;stroke-linejoin:miter;stroke-opacity:1"
           width="37.00032"
           x="5.5059438"
           y="7.5018229" />
        <path
           d="m 4.875,4.34375 c -1.3079428,0 -2.5,1.2946495 -2.5,2.5625 l 0,26.59375 c 0.00627,0.603278 0.1456964,0.790591 0.28125,0.90625 0.1311367,0.111891 0.4189389,0.201675 0.875,0.21875 l 0.03125,0 40.9375,0.03125 c 0.651173,0 0.856981,-0.101019 0.9375,-0.1875 0.08052,-0.08648 0.21875,-0.400702 0.21875,-1.15625 l 0,-26.21875 c 0,-1.8071501 -1.010787,-2.75 -2.625,-2.75 l -38.15625,0 z"
           id="path5145"
           inkscape:href="#rect5040"
           inkscape:original="M 4.875 3.46875 C 3.0385925 3.46875 1.5 5.1324241 1.5 6.90625 L 1.5 33.5 C 1.5158335 35.024642 2.3519787 35.471207 3.53125 35.5 L 44.5 35.53125 C 46.006309 35.53125 46.53125 35.004567 46.53125 33.3125 L 46.53125 7.09375 C 46.53125 4.8952637 45.056369 3.46875 43.03125 3.46875 L 4.875 3.46875 z "
           inkscape:radius="-0.875"
           sodipodi:type="inkscape:offset"
           style="fill:none;stroke:#ffffff;stroke-width:1;stroke-linecap:butt;stroke-linejoin:miter;stroke-miterlimit:4;stroke-opacity:1"
           xlink:href="#rect5040" />
        <path
           inkscape:connector-curvature="0"
           d="m 13.992156,36.039216 c 0.08366,2.172549 -0.283353,2.911443 -1.633624,3.675231 l 23.615402,1.297318 C 35.024915,39.843137 33.644523,38.078431 34.020993,36.02353 l -20.028837,0.01569 z"
           id="path10672"
           sodipodi:nodetypes="ccccc"
           style="opacity:0.6;fill:url(#linearGradient11406);fill-opacity:1;fill-rule:evenodd;stroke:none" />
        <path
           inkscape:connector-curvature="0"
           d="m 6.0235294,8.0313725 0,18.0078435 C 22.467974,24.684967 28.622222,15.926797 41.992156,15.011764 L 41.992157,8 6.0235294,8.0313725 z"
           id="path4073"
           sodipodi:nodetypes="ccccc"
           style="opacity:0.75;fill:url(#linearGradient6246);fill-opacity:1;fill-rule:evenodd;stroke:none" />
        <path
           inkscape:connector-curvature="0"
           d="m 9.9921262,41.496063 c 6.7066928,0.002 27.7967838,0 27.7967838,0"
           id="path6575"
           sodipodi:nodetypes="cc"
           style="fill:none;stroke:#8d8d8f;stroke-width:1px;stroke-linecap:round;stroke-linejoin:miter;stroke-opacity:0.43902438" />
        <path
           inkscape:connector-curvature="0"
           d="m 9.647928,42.503937 c 6.706693,0.002 28.719861,0 28.719861,0"
           id="path8029"
           sodipodi:nodetypes="cc"
           style="fill:none;stroke:#ffffff;stroke-width:1px;stroke-linecap:round;stroke-linejoin:miter;stroke-opacity:1" />
      </g>
      <g
         transform="matrix(0.77237507,0,0,0.58470387,-657.12146,11.470595)"
         style="display:inline"
         inkscape:label="#visible"
         id="object-visible">
        <rect
           y="235.935"
           x="707.14807"
           width="14.52438"
           style="color:#000000;fill:#ffffff;fill-opacity:0;fill-rule:evenodd;stroke:none;stroke-width:0.83269;marker:none;display:inline"
           id="rect6472"
           height="18.612591" />
        <g
           transform="translate(0,-0.9)"
           id="g1661">
          <path
             style="color:#000000;fill:url(#linearGradient12592);fill-opacity:1;fill-rule:evenodd;stroke:#000000;stroke-width:1.10190868;stroke-linecap:round;stroke-linejoin:miter;stroke-miterlimit:4;stroke-opacity:1;stroke-dasharray:none;stroke-dashoffset:0;marker:none;display:inline"
             sodipodi:nodetypes="ccscscccccccccc"
             id="path4926"
             d="m 718.3596,243.1986 c 1.0177,0.7535 1.9383,1.9048 2.7914,3.5759 -1.8334,3.5913 -3.3519,5.0981 -6.102,5.0981 -2.75,0 -5.5802,-1.8728 -7.196,-5.1815 1.8334,-3.5914 5.4431,-5.3526 8.3072,-4.6092 m -4.3843,0.3061 -1.0395,-4.0779 m -1.5179,5.9334 -1.55,-2.5302 m 7.259,0.2222 0.1148,-4.7275 m 2.4251,5.351 1.5295,-3.7884 m 0.6191,5.3042 1.6145,-1.9398"
             inkscape:connector-curvature="0" />
          <path
             transform="matrix(0.842506,0,0,0.954024,661.2863,-434.5226)"
             style="color:#000000;fill:url(#linearGradient12519);fill-opacity:1;fill-rule:evenodd;stroke:none;stroke-width:3.02474809;marker:none;display:inline"
             sodipodi:type="arc"
             sodipodi:ry="4"
             sodipodi:rx="3.5"
             sodipodi:cy="714"
             sodipodi:cx="63.5"
             id="path5671"
             d="m 67,714 c 0,2.20914 -1.567003,4 -3.5,4 -1.932997,0 -3.5,-1.79086 -3.5,-4 0,-2.20914 1.567003,-4 3.5,-4 1.932997,0 3.5,1.79086 3.5,4 z" />
          <path
             transform="matrix(0.269046,0,0,0.308688,696.6634,24.57494)"
             style="color:#000000;fill:#ffffff;fill-opacity:1;fill-rule:evenodd;stroke:none;stroke-width:3.02474809;marker:none;display:inline"
             sodipodi:type="arc"
             sodipodi:ry="4"
             sodipodi:rx="3.5"
             sodipodi:cy="714"
             sodipodi:cx="63.5"
             id="path12489"
             d="m 67,714 c 0,2.20914 -1.567003,4 -3.5,4 -1.932997,0 -3.5,-1.79086 -3.5,-4 0,-2.20914 1.567003,-4 3.5,-4 1.932997,0 3.5,1.79086 3.5,4 z" />
        </g>
      </g>
    </g>
  </g>
</svg>
