<?xml version="1.0" encoding="UTF-8" standalone="no"?>
<!-- Created with Inkscape (http://www.inkscape.org/) -->

<svg
   xmlns:dc="http://purl.org/dc/elements/1.1/"
   xmlns:cc="http://creativecommons.org/ns#"
   xmlns:rdf="http://www.w3.org/1999/02/22-rdf-syntax-ns#"
   xmlns:svg="http://www.w3.org/2000/svg"
   xmlns="http://www.w3.org/2000/svg"
   xmlns:xlink="http://www.w3.org/1999/xlink"
   xmlns:sodipodi="http://sodipodi.sourceforge.net/DTD/sodipodi-0.dtd"
   xmlns:inkscape="http://www.inkscape.org/namespaces/inkscape"
   width="24"
   height="25.717268"
   id="svg36734"
   version="1.1"
   inkscape:version="0.48.2 r9819"
   sodipodi:docname="New document 19">
  <defs
     id="defs36736">
    <linearGradient
       inkscape:collect="always"
       xlink:href="#XMLID_43_-9"
       id="linearGradient30843"
       gradientUnits="userSpaceOnUse"
       gradientTransform="matrix(0.7499999,0,0,0.6785716,61.727018,-57.297465)"
       x1="25.308176"
       y1="64"
       x2="5.5849061"
       y2="64" />
    <linearGradient
       y2="172.4442"
       y1="175.55659"
       x2="153"
       x1="153"
       id="XMLID_43_-9"
       gradientUnits="userSpaceOnUse"
       gradientTransform="translate(-143,-64)">
      <stop
         style="stop-color:#FFFFFF"
         offset="0"
         id="stop92-9" />
      <stop
         style="stop-color:#DDDDDD"
         offset="1"
         id="stop94-8" />
    </linearGradient>
    <linearGradient
       inkscape:collect="always"
       xlink:href="#XMLID_43_-9"
       id="linearGradient30845"
       gradientUnits="userSpaceOnUse"
       gradientTransform="matrix(0.75,0,0,0.7857143,-42.131109,57.441297)"
       x1="25.308176"
       y1="64"
       x2="5.5849061"
       y2="64" />
    <linearGradient
       y2="172.4442"
       y1="175.55659"
       x2="153"
       x1="153"
       id="linearGradient36717"
       gradientUnits="userSpaceOnUse"
       gradientTransform="translate(-143,-64)">
      <stop
         style="stop-color:#FFFFFF"
         offset="0"
         id="stop36719" />
      <stop
         style="stop-color:#DDDDDD"
         offset="1"
         id="stop36721" />
    </linearGradient>
    <linearGradient
       inkscape:collect="always"
       xlink:href="#linearGradient4309-7"
       id="linearGradient30847"
       gradientUnits="userSpaceOnUse"
       gradientTransform="matrix(0.5,0,0,0.5,-40.131106,63.727009)"
       x1="160.61525"
       y1="165.6467"
       x2="-35.602238"
       y2="-30.570789" />
    <linearGradient
       id="linearGradient4309-7">
      <stop
         style="stop-color:#bbbbbb;stop-opacity:1;"
         offset="0"
         id="stop4311-7" />
      <stop
         style="stop-color:#dddddd;stop-opacity:1;"
         offset="1"
         id="stop4313-7" />
    </linearGradient>
    <linearGradient
       inkscape:collect="always"
       xlink:href="#XMLID_43_-9-7"
       id="linearGradient30843-9"
       gradientUnits="userSpaceOnUse"
       gradientTransform="matrix(0.7499999,0,0,0.6785716,61.727018,-57.297465)"
       x1="25.308176"
       y1="64"
       x2="5.5849061"
       y2="64" />
    <linearGradient
       y2="172.4442"
       y1="175.55659"
       x2="153"
       x1="153"
       id="XMLID_43_-9-7"
       gradientUnits="userSpaceOnUse"
       gradientTransform="translate(-143,-64)">
      <stop
         style="stop-color:#FFFFFF"
         offset="0"
         id="stop92-9-6" />
      <stop
         style="stop-color:#DDDDDD"
         offset="1"
         id="stop94-8-2" />
    </linearGradient>
    <linearGradient
       inkscape:collect="always"
       xlink:href="#XMLID_43_-9-7"
       id="linearGradient30845-9"
       gradientUnits="userSpaceOnUse"
       gradientTransform="matrix(0.75,0,0,0.7857143,-42.131109,57.441297)"
       x1="25.308176"
       y1="64"
       x2="5.5849061"
       y2="64" />
    <linearGradient
       y2="172.4442"
       y1="175.55659"
       x2="153"
       x1="153"
       id="linearGradient36815"
       gradientUnits="userSpaceOnUse"
       gradientTransform="translate(-143,-64)">
      <stop
         style="stop-color:#FFFFFF"
         offset="0"
         id="stop36817" />
      <stop
         style="stop-color:#DDDDDD"
         offset="1"
         id="stop36819" />
    </linearGradient>
    <linearGradient
       inkscape:collect="always"
       xlink:href="#linearGradient4309-7-2"
       id="linearGradient30847-5"
       gradientUnits="userSpaceOnUse"
       gradientTransform="matrix(0.5,0,0,0.5,-40.131106,63.727009)"
       x1="160.61525"
       y1="165.6467"
       x2="-35.602238"
       y2="-30.570789" />
    <linearGradient
       id="linearGradient4309-7-2">
      <stop
         style="stop-color:#bbbbbb;stop-opacity:1;"
         offset="0"
         id="stop4311-7-0" />
      <stop
         style="stop-color:#dddddd;stop-opacity:1;"
         offset="1"
         id="stop4313-7-0" />
    </linearGradient>
    <linearGradient
       gradientTransform="matrix(1,0,0,-1,0.453976,493.3688)"
       gradientUnits="userSpaceOnUse"
       id="linearGradient12592"
       inkscape:collect="always"
       x1="712.98596"
       x2="717.60321"
       xlink:href="#linearGradient2485-06"
       y1="249.98053"
       y2="244.67865" />
    <linearGradient
       id="linearGradient2485-06">
      <stop
         id="stop2486-8"
         offset="0.0000000"
         style="stop-color:#ffffff;stop-opacity:1.0000000" />
      <stop
         id="stop2487-19"
         offset="1.0000000"
         style="stop-color:#aaaaaa;stop-opacity:1.0000000;" />
    </linearGradient>
    <linearGradient
       gradientUnits="userSpaceOnUse"
       id="linearGradient12519"
       inkscape:collect="always"
       x1="64.608963"
       x2="61.995983"
       xlink:href="#linearGradient12513"
       y1="715.75946"
       y2="712.16724" />
    <linearGradient
       id="linearGradient12513">
      <stop
         id="stop12515"
         offset="0"
         style="stop-color:black;stop-opacity:1;" />
      <stop
         id="stop12517"
         offset="1"
         style="stop-color:#2a2a2a;stop-opacity:1;" />
    </linearGradient>
  </defs>
  <sodipodi:namedview
     id="base"
     pagecolor="#ffffff"
     bordercolor="#666666"
     borderopacity="1.0"
     inkscape:pageopacity="0.0"
     inkscape:pageshadow="2"
     inkscape:zoom="2.8"
     inkscape:cx="4.6403052"
     inkscape:cy="17.341938"
     inkscape:document-units="px"
     inkscape:current-layer="layer1"
     showgrid="false"
     fit-margin-top="0"
     fit-margin-left="0"
     fit-margin-right="0"
     fit-margin-bottom="0"
     inkscape:window-width="1920"
     inkscape:window-height="1173"
     inkscape:window-x="-9"
     inkscape:window-y="-9"
     inkscape:window-maximized="1" />
  <metadata
     id="metadata36739">
    <rdf:RDF>
      <cc:Work
         rdf:about="">
        <dc:format>image/svg+xml</dc:format>
        <dc:type
           rdf:resource="http://purl.org/dc/dcmitype/StillImage" />
        <dc:title></dc:title>
      </cc:Work>
    </rdf:RDF>
  </metadata>
  <g
     inkscape:label="Layer 1"
     inkscape:groupmode="layer"
     id="layer1"
     transform="translate(-335.14286,-590.21784)">
    <g
       transform="translate(446.5285,455.62955)"
       id="g36785">
      <g
         id="g36694">
        <rect
           y="134.58829"
           x="-111.38564"
           width="24"
           style="color:#000000;fill:none;stroke:none;stroke-width:1;marker:none;display:inline"
           id="rect12294"
           height="24" />
        <g
           id="g30837"
           transform="matrix(0.21971522,0,0,0.20252143,-99.990198,122.42521)">
          <rect
             y="63.727009"
             x="-40.131107"
             width="29.529552"
             style="fill:#ffffff;fill-opacity:1;fill-rule:evenodd;stroke:none"
             id="rect2344"
             height="24.0772" />
          <rect
             y="-51.868896"
             x="67.727013"
             width="11.999997"
             transform="matrix(-3.3260488e-8,1,-1,-4.0631206e-8,0,0)"
             style="fill:url(#linearGradient30843-9);fill-opacity:1;stroke:none"
             id="rect4439"
             height="76" />
          <rect
             y="63.727009"
             x="-36.131107"
             width="12"
             style="fill:url(#linearGradient30845-9);fill-opacity:1;stroke:none"
             id="rect4429"
             height="88" />
          <path
             style="fill:url(#linearGradient30847-5);fill-opacity:1;stroke:none"
             id="rect3338"
             d="m -40.131106,63.727009 0,64.000001 0,24 44,0 20,0 32,0 0,-4 0,-8 0,-4 0,-8 0,-4 0,-8 0,-4 0,-8 0,-4.000001 0,-8 0,-4 0,-8 0,-4 0,-8 0,-4 -32,0 -64,0 z m 4,4 8,0 0,8 -8,0 0,-8 z m 12,0 12,0 0,8 -12,0 0,-8 z m 16,0 12,0 0,8 -12,0 0,-8 z m 16,0 12,0 0,8 -12,0 0,-8 z m 16,0 12,0 0,8 -12,0 0,-8 z m 16,0 12,0 0,8 -12,0 0,-8 z m -76,12 8,0 0,8 -8,0 0,-8 z m 12,0 12,0 0,8 -12,0 0,-8 z m 16,0 12,0 0,8 -12,0 0,-8 z m 16,0 12,0 0,8 -12,0 0,-8 z m 16,0 12,0 0,8 -12,0 0,-8 z m 16,0 12,0 0,8 -12,0 0,-8 z m -76,12 8,0 0,8 -8,0 0,-8 z m 12,0 12,0 0,8 -12,0 0,-8 z m 16,0 12,0 0,8 -12,0 0,-8 z m 16,0 12,0 0,8 -12,0 0,-8 z m 16,0 12,0 0,8 -12,0 0,-8 z m 16,0 12,0 0,8 -12,0 0,-8 z m -76,12.000001 8,0 0,8 -8,0 0,-8 z m 12,0 12,0 0,8 -12,0 0,-8 z m 16,0 12,0 0,8 -12,0 0,-8 z m 16,0 12,0 0,8 -12,0 0,-8 z m 16,0 12,0 0,8 -12,0 0,-8 z m 16,0 12,0 0,8 -12,0 0,-8 z m -76,12 8,0 0,8 -8,0 0,-8 z m 12,0 12,0 0,8 -12,0 0,-8 z m 16,0 12,0 0,8 -12,0 0,-8 z m 16,0 12,0 0,8 -12,0 0,-8 z m 16,0 12,0 0,8 -12,0 0,-8 z m 16,0 12,0 0,8 -12,0 0,-8 z m -76,12 8,0 0,8 -8,0 0,-8 z m 12,0 12,0 0,8 -12,0 0,-8 z m 16,0 12,0 0,8 -12,0 0,-8 z m 16,0 12,0 0,8 -12,0 0,-8 z m 16,0 12,0 0,8 -12,0 0,-8 z m 16,0 12,0 0,8 -12,0 0,-8 z m -76,12 8,0 0,8 -8,0 0,-8 z m 12,0 12,0 0,8 -12,0 0,-8 z m 16,0 12,0 0,8 -12,0 0,-8 z m 16,0 12,0 0,8 -12,0 0,-8 z m 16,0 12,0 0,8 -12,0 0,-8 z m 16,0 12,0 0,8 -12,0 0,-8 z"
             inkscape:connector-curvature="0" />
        </g>
      </g>
      <g
         transform="matrix(0.77237507,0,0,0.58470387,-657.12146,11.470595)"
         style="display:inline"
         inkscape:label="#visible"
         id="object-visible">
        <rect
           y="235.935"
           x="707.14807"
           width="14.52438"
           style="color:#000000;fill:#ffffff;fill-opacity:0;fill-rule:evenodd;stroke:none;stroke-width:0.83269;marker:none;display:inline"
           id="rect6472"
           height="18.612591" />
        <g
           transform="translate(0,-0.9)"
           id="g1661">
          <path
             style="color:#000000;fill:url(#linearGradient12592);fill-opacity:1;fill-rule:evenodd;stroke:#000000;stroke-width:1.10190868;stroke-linecap:round;stroke-linejoin:miter;stroke-miterlimit:4;stroke-opacity:1;stroke-dasharray:none;stroke-dashoffset:0;marker:none;display:inline"
             sodipodi:nodetypes="ccscscccccccccc"
             id="path4926"
             d="m 718.3596,243.1986 c 1.0177,0.7535 1.9383,1.9048 2.7914,3.5759 -1.8334,3.5913 -3.3519,5.0981 -6.102,5.0981 -2.75,0 -5.5802,-1.8728 -7.196,-5.1815 1.8334,-3.5914 5.4431,-5.3526 8.3072,-4.6092 m -4.3843,0.3061 -1.0395,-4.0779 m -1.5179,5.9334 -1.55,-2.5302 m 7.259,0.2222 0.1148,-4.7275 m 2.4251,5.351 1.5295,-3.7884 m 0.6191,5.3042 1.6145,-1.9398"
             inkscape:connector-curvature="0" />
          <path
             transform="matrix(0.842506,0,0,0.954024,661.2863,-434.5226)"
             style="color:#000000;fill:url(#linearGradient12519);fill-opacity:1;fill-rule:evenodd;stroke:none;stroke-width:3.02474809;marker:none;display:inline"
             sodipodi:type="arc"
             sodipodi:ry="4"
             sodipodi:rx="3.5"
             sodipodi:cy="714"
             sodipodi:cx="63.5"
             id="path5671"
             d="m 67,714 c 0,2.20914 -1.567003,4 -3.5,4 -1.932997,0 -3.5,-1.79086 -3.5,-4 0,-2.20914 1.567003,-4 3.5,-4 1.932997,0 3.5,1.79086 3.5,4 z" />
          <path
             transform="matrix(0.269046,0,0,0.308688,696.6634,24.57494)"
             style="color:#000000;fill:#ffffff;fill-opacity:1;fill-rule:evenodd;stroke:none;stroke-width:3.02474809;marker:none;display:inline"
             sodipodi:type="arc"
             sodipodi:ry="4"
             sodipodi:rx="3.5"
             sodipodi:cy="714"
             sodipodi:cx="63.5"
             id="path12489"
             d="m 67,714 c 0,2.20914 -1.567003,4 -3.5,4 -1.932997,0 -3.5,-1.79086 -3.5,-4 0,-2.20914 1.567003,-4 3.5,-4 1.932997,0 3.5,1.79086 3.5,4 z" />
        </g>
      </g>
    </g>
  </g>
</svg>
