<?xml version="1.0" encoding="UTF-8" standalone="no"?>
<svg
   xmlns:dc="http://purl.org/dc/elements/1.1/"
   xmlns:cc="http://creativecommons.org/ns#"
   xmlns:rdf="http://www.w3.org/1999/02/22-rdf-syntax-ns#"
   xmlns:svg="http://www.w3.org/2000/svg"
   xmlns="http://www.w3.org/2000/svg"
   xmlns:sodipodi="http://sodipodi.sourceforge.net/DTD/sodipodi-0.dtd"
   xmlns:inkscape="http://www.inkscape.org/namespaces/inkscape"
   inkscape:version="0.48.4 r9939"
   sodipodi:docname="layer-rename.svg"
   height="16"
   width="16"
   sodipodi:version="0.32"
   id="svg1"
   inkscape:output_extension="org.inkscape.output.svg.inkscape"
   version="1.0"
   style="display:inline">
  <defs
     id="defs3" />
  <sodipodi:namedview
     inkscape:guide-bbox="true"
     inkscape:current-layer="layer2"
     inkscape:grid-bbox="true"
     inkscape:pageopacity="1"
     pagecolor="#f8f5f2"
     snaptoguides="true"
     showguides="true"
     inkscape:window-y="24"
     inkscape:window-x="0"
     inkscape:window-height="746"
     inkscape:window-width="1366"
     inkscape:cy="-0.0033677814"
     inkscape:cx="19.503628"
     inkscape:zoom="12.308077"
     gridtolerance="10000"
     snaptogrid="false"
     showgrid="false"
     id="base"
     inkscape:document-units="px"
     inkscape:grid-points="true"
     guidetolerance="19"
     fill="#8ab3de"
     stroke="#646464"
     inkscape:object-nodes="false"
     objecttolerance="10"
     inkscape:snap-bbox="true"
     inkscape:snap-nodes="true"
     showborder="true"
     inkscape:showpageshadow="false"
     inkscape:snap-center="false"
     inkscape:snap-intersection-grid-guide="false"
     inkscape:snap-guide="false"
     inkscape:bbox-paths="true"
     inkscape:bbox-nodes="true"
     inkscape:snap-global="true"
     inkscape:object-paths="true"
     inkscape:window-maximized="0">
    <inkscape:grid
       type="xygrid"
       id="grid12302"
       empspacing="24"
       dotted="false"
       color="#009bcc"
       opacity="0.1254902"
       empcolor="#0019cc"
       empopacity="0.25098039"
       spacingx="0px"
       spacingy="0px"
       originx="0px"
       originy="0px"
       visible="true"
       enabled="true"
       snapvisiblegridlinesonly="true" />
    <inkscape:grid
       id="GridFromPre046Settings"
       type="xygrid"
       originx="0px"
       originy="0.0000000px"
       spacingx="0.5px"
       spacingy="0.5px"
       color="#0000ff"
       empcolor="#0000ff"
       opacity="0.2"
       empopacity="0.4"
       empspacing="2"
       visible="true"
       enabled="true"
       snapvisiblegridlinesonly="true" />
  </sodipodi:namedview>
  <metadata
     id="metadata1810">
    <rdf:RDF>
      <cc:Work
         rdf:about="">
        <dc:description>Created with Inkscape
http://www.inkscape.org/</dc:description>
        <dc:format>image/svg+xml</dc:format>
        <dc:type
           rdf:resource="http://purl.org/dc/dcmitype/StillImage" />
        <cc:license
           rdf:resource="http://creativecommons.org/licenses/GPL/2.0/" />
        <dc:creator>
          <cc:Agent>
            <dc:title>Inkscape Developers</dc:title>
          </cc:Agent>
        </dc:creator>
        <dc:rights>
          <cc:Agent>
            <dc:title>Inkscape Developers</dc:title>
          </cc:Agent>
        </dc:rights>
        <dc:title></dc:title>
        <dc:contributor>
          <cc:Agent>
            <dc:title>jEsuSdA 8) www.jesusda.com</dc:title>
          </cc:Agent>
        </dc:contributor>
        <dc:date>09/01/2009</dc:date>
      </cc:Work>
      <cc:License
         rdf:about="http://creativecommons.org/licenses/GPL/2.0/">
        <cc:permits
           rdf:resource="http://web.resource.org/cc/Reproduction" />
        <cc:permits
           rdf:resource="http://web.resource.org/cc/Distribution" />
        <cc:requires
           rdf:resource="http://web.resource.org/cc/Notice" />
        <cc:permits
           rdf:resource="http://web.resource.org/cc/DerivativeWorks" />
        <cc:requires
           rdf:resource="http://web.resource.org/cc/ShareAlike" />
        <cc:requires
           rdf:resource="http://web.resource.org/cc/SourceCode" />
      </cc:License>
    </rdf:RDF>
  </metadata>
  <g
     inkscape:groupmode="layer"
     id="layer2"
     inkscape:label="tango"
     style="display:inline"
     transform="translate(0,-1984)">
    <g
       id="g1885"
       transform="translate(1994.0051,528.87665)"
       style="fill:#767676;fill-opacity:1;stroke:#000000" />
    <g
       id="g17428"
       transform="translate(2096.0362,1288.67)" />
    <g
       transform="translate(1566.9396,877.6203)"
       style="opacity:0.31999996"
       id="g289" />
    <g
       id="g9464"
       transform="matrix(0.5,0,0,0.5,596.9992,176)" />
    <path
       inkscape:connector-curvature="0"
       sodipodi:nodetypes="ccccc"
       id="path11266"
       d="m 4.49997,1999.4999 10.99981,0 -3.99993,-5 -10.99981,0 3.99993,5 z"
       style="fill:#dfdfdb;fill-opacity:1;fill-rule:evenodd;stroke:#555753;stroke-width:1.0000875;stroke-linecap:square;stroke-linejoin:round;stroke-miterlimit:0;stroke-opacity:1;stroke-dasharray:none;stroke-dashoffset:0;marker:none;visibility:visible;display:inline;overflow:visible;enable-background:accumulate" />
    <path
       inkscape:connector-curvature="0"
       style="fill:none;stroke:#ffffff;stroke-width:1.00008762;stroke-linecap:square;stroke-linejoin:round;stroke-miterlimit:0;stroke-opacity:1;stroke-dasharray:none;stroke-dashoffset:0;marker:none;display:inline"
       d="m 5.10586,1998.4999 8.17296,0 -2.44568,-2.9999 -8.21714,0 2.48986,2.9999 z"
       id="path11689"
       sodipodi:nodetypes="ccccc" />
    <g
       id="g7673"
       transform="matrix(0.09728862,0,0,0.09660188,-1.8521835,1982.8846)">
      <path
         d="m 23.725985,65.693969 c 0,27.221326 22.14586,49.368461 49.365907,49.368461 27.223888,0 49.369748,-22.147135 49.369748,-49.368461 0,-27.221326 -22.14586,-49.367186 -49.368469,-49.367186 -27.221326,0 -49.367186,22.14586 -49.367186,49.367186 z"
         style="font-size:12px;opacity:0.36000001;fill:#999999;stroke:none"
         id="path718"
         inkscape:connector-curvature="0" />
      <path
         d="m 19.037989,62.832066 c 0,27.221326 22.14586,49.367184 49.367186,49.367184 27.222604,0 49.367185,-22.145858 49.367185,-49.367184 0,-27.221326 -22.144581,-49.367186 -49.367185,-49.367186 -27.221326,0 -49.367186,22.14586 -49.367186,49.367186 z"
         style="font-size:12px;fill:#3c5a6e;fill-opacity:1;stroke:none"
         id="path719"
         inkscape:connector-curvature="0" />
      <path
         d="m 22.613449,62.11723 c 0,25.289094 20.502632,45.79173 45.790447,45.79173 25.290373,0 45.790444,-20.502636 45.790444,-45.79173 0,-25.289094 -20.498793,-45.790447 -45.789165,-45.790447 -25.289094,0 -45.791726,20.501353 -45.791726,45.790447 z"
         style="font-size:12px;fill:#3c5a6e;fill-opacity:1;stroke:none"
         id="path726"
         inkscape:connector-curvature="0" />
      <path
         d="m 27.622419,66.589113 c 0,-26.853038 19.185491,-48.784064 43.330079,-50.188161 -0.842714,-0.04604 -1.691822,-0.07417 -2.547323,-0.07417 -25.287816,0 -45.790447,20.501353 -45.790447,45.790447 0,11.681628 4.382369,22.33384 11.580604,30.423383 -4.170091,-7.575475 -6.572913,-16.455302 -6.572913,-25.9515 z"
         style="font-size:12px;opacity:0.36000001;fill:#ffffff;stroke:none"
         id="path727"
         inkscape:connector-curvature="0" />
      <g
         transform="matrix(1.278777,0,0,1.278777,-41.22182,13.46488)"
         id="g735"
         style="font-size:12px;stroke:#000000">
        <path
           d="m 91.36,57.105 c 0,4.489 0,7.102 4.407,7.102 l 0,1.469 -20.08,0 0,-1.469 c 4.49,0 4.49,-2.612 4.49,-7.102 l 0,-19.917 c 0,-4.326 0,-7.264 -4.49,-7.264 l 0,-1.469 15.673,0 0,28.65 z M 85.728,10.416 c 3.347,0 6.122,2.775 6.122,6.122 0,3.346 -2.775,6.122 -6.122,6.122 -3.346,0 -6.121,-2.775 -6.121,-6.122 -0.001,-3.347 2.775,-6.122 6.121,-6.122 z"
           style="fill:#ffffff;stroke:none"
           id="path736"
           inkscape:connector-curvature="0" />
      </g>
    </g>
  </g>
</svg>
