<?xml version="1.0" encoding="UTF-8" standalone="no"?>
<!-- Created with Inkscape (http://www.inkscape.org/) -->

<svg
   xmlns:dc="http://purl.org/dc/elements/1.1/"
   xmlns:cc="http://creativecommons.org/ns#"
   xmlns:rdf="http://www.w3.org/1999/02/22-rdf-syntax-ns#"
   xmlns:svg="http://www.w3.org/2000/svg"
   xmlns="http://www.w3.org/2000/svg"
   xmlns:xlink="http://www.w3.org/1999/xlink"
   xmlns:sodipodi="http://sodipodi.sourceforge.net/DTD/sodipodi-0.dtd"
   xmlns:inkscape="http://www.inkscape.org/namespaces/inkscape"
   width="12.121883"
   height="18.393438"
   id="svg48270"
   version="1.1"
   inkscape:version="0.48.2 r9819"
   sodipodi:docname="New document 6">
  <defs
     id="defs48272">
    <linearGradient
       inkscape:collect="always"
       xlink:href="#linearGradient48233"
       id="linearGradient48247"
       gradientUnits="userSpaceOnUse"
       x1="457.59912"
       y1="479.47943"
       x2="480.4538"
       y2="508.77383" />
    <linearGradient
       id="linearGradient48233">
      <stop
         style="stop-color:#0049c6;stop-opacity:1;"
         offset="0"
         id="stop48235" />
      <stop
         style="stop-color:#ffffff;stop-opacity:0;"
         offset="1"
         id="stop48237" />
    </linearGradient>
    <linearGradient
       y2="508.77383"
       x2="480.4538"
       y1="479.47943"
       x1="457.59912"
       gradientUnits="userSpaceOnUse"
       id="linearGradient48268"
       xlink:href="#linearGradient48233"
       inkscape:collect="always" />
  </defs>
  <sodipodi:namedview
     id="base"
     pagecolor="#ffffff"
     bordercolor="#666666"
     borderopacity="1.0"
     inkscape:pageopacity="0.0"
     inkscape:pageshadow="2"
     inkscape:zoom="3.959798"
     inkscape:cx="196.06661"
     inkscape:cy="-101.21022"
     inkscape:document-units="px"
     inkscape:current-layer="layer1"
     showgrid="false"
     fit-margin-top="0"
     fit-margin-left="0"
     fit-margin-right="0"
     fit-margin-bottom="0"
     inkscape:window-width="1920"
     inkscape:window-height="1173"
     inkscape:window-x="-9"
     inkscape:window-y="-9"
     inkscape:window-maximized="1" />
  <metadata
     id="metadata48275">
    <rdf:RDF>
      <cc:Work
         rdf:about="">
        <dc:format>image/svg+xml</dc:format>
        <dc:type
           rdf:resource="http://purl.org/dc/dcmitype/StillImage" />
        <dc:title></dc:title>
      </cc:Work>
    </rdf:RDF>
  </metadata>
  <g
     inkscape:label="Layer 1"
     inkscape:groupmode="layer"
     id="layer1"
     transform="translate(-522.51071,-431.65942)">
    <g
       id="g48241"
       transform="translate(64.999999,-47.891177)">
      <g
         inkscape:label="Layer 1"
         id="layer1-9"
         transform="matrix(0.12480704,0,0,0.12480704,403.25865,436.14895)">
        <path
           style="color:#000000;fill:#37c837;fill-opacity:1;fill-rule:nonzero;stroke:#000000;stroke-width:2.64500928;marker:none;visibility:visible;display:inline;overflow:visible;enable-background:accumulate"
           d="m 483.20689,349.0725 c -26.08569,0 -47.19689,21.19386 -47.19689,47.27955 0,29.69406 21.47431,40.35681 29.2705,51.84683 7.79616,11.49003 16.54908,24.12854 17.92639,46.84507 1.37927,-22.65162 9.03551,-33.68218 17.50975,-46.84507 8.47426,-13.16289 29.76979,-25.76085 29.76979,-51.84683 0,-26.08569 -21.19385,-47.27955 -47.27954,-47.27955 z"
           id="rect3780"
           inkscape:connector-curvature="0"
           sodipodi:nodetypes="sszczss" />
        <path
           sodipodi:type="arc"
           style="color:#000000;fill:#000000;fill-opacity:1;fill-rule:nonzero;stroke:none;stroke-width:1;marker:none;visibility:visible;display:inline;overflow:visible;enable-background:accumulate"
           id="path3793"
           sodipodi:cx="454.55356"
           sodipodi:cy="364.77289"
           sodipodi:rx="5.0892859"
           sodipodi:ry="5.0892859"
           d="m 459.64284,364.77289 c 0,2.81073 -2.27855,5.08928 -5.08928,5.08928 -2.81074,0 -5.08929,-2.27855 -5.08929,-5.08928 0,-2.81074 2.27855,-5.08929 5.08929,-5.08929 2.81073,0 5.08928,2.27855 5.08928,5.08929 z"
           transform="matrix(2.6450093,0,0,2.6450093,-719.05016,-569.21953)" />
      </g>
      <path
         inkscape:connector-curvature="0"
         id="path48231"
         d="m 463.48815,496.13174 c -0.26806,-1.19028 -0.72652,-2.19526 -1.63686,-3.58814 -0.50168,-0.7676 -0.55713,-0.83452 -1.44094,-1.73871 -0.43276,-0.44273 -0.91469,-0.96122 -1.07098,-1.1522 -0.83339,-1.01841 -1.26826,-1.9945 -1.42784,-3.20485 -0.0617,-0.46777 -0.0473,-1.38071 0.0281,-1.78278 0.23256,-1.24047 0.74847,-2.23001 1.61376,-3.09531 1.08748,-1.08748 2.46862,-1.65865 4.01076,-1.65865 1.10628,0 2.08827,0.27893 3.023,0.85867 0.70613,0.43796 1.38037,1.11159 1.81667,1.81505 0.5963,0.96144 0.86575,1.90441 0.86502,3.02726 -6.2e-4,0.93765 -0.17421,1.66087 -0.59709,2.48759 -0.39571,0.77362 -0.68601,1.14713 -2.1036,2.70655 -0.59677,0.65648 -0.79296,0.90917 -1.21546,1.56546 -1.00114,1.55516 -1.44093,2.51698 -1.71926,3.76006 l -0.0724,0.32343 -0.0728,-0.32343 z m 0.51661,-8.97385 c 0.56877,-0.14815 1.03067,-0.60843 1.202,-1.1978 0.0739,-0.25422 0.0514,-0.78036 -0.0439,-1.02671 -0.19979,-0.51626 -0.67313,-0.9304 -1.20734,-1.05632 -1.05816,-0.24943 -2.08292,0.57334 -2.07972,1.66979 0.002,0.72796 0.53596,1.41502 1.25248,1.612 0.20988,0.0577 0.65319,0.0572 0.87653,-9.6e-4 l 0,0 z"
         style="fill:url(#linearGradient48268);fill-opacity:1;fill-rule:evenodd;stroke:none" />
    </g>
  </g>
</svg>
