<?xml version="1.0" encoding="UTF-8" standalone="no"?>
<!-- Created with Inkscape (http://www.inkscape.org/) -->

<svg
   xmlns:dc="http://purl.org/dc/elements/1.1/"
   xmlns:cc="http://creativecommons.org/ns#"
   xmlns:rdf="http://www.w3.org/1999/02/22-rdf-syntax-ns#"
   xmlns:svg="http://www.w3.org/2000/svg"
   xmlns="http://www.w3.org/2000/svg"
   xmlns:sodipodi="http://sodipodi.sourceforge.net/DTD/sodipodi-0.dtd"
   xmlns:inkscape="http://www.inkscape.org/namespaces/inkscape"
   width="512"
   height="256"
   id="svg3779"
   version="1.1"
   inkscape:version="0.48.4 r9939"
   sodipodi:docname="raster-processing-filter-hint.svg">
  <defs
     id="defs3781" />
  <sodipodi:namedview
     id="base"
     pagecolor="#ffffff"
     bordercolor="#666666"
     borderopacity="1.0"
     inkscape:pageopacity="0.0"
     inkscape:pageshadow="2"
     inkscape:zoom="0.78598403"
     inkscape:cx="113.96691"
     inkscape:cy="140.16671"
     inkscape:document-units="px"
     inkscape:current-layer="layer1"
     showgrid="false"
     showguides="true"
     inkscape:guide-bbox="true"
     inkscape:window-width="1920"
     inkscape:window-height="1061"
     inkscape:window-x="-4"
     inkscape:window-y="-4"
     inkscape:window-maximized="1">
    <sodipodi:guide
       orientation="0,1"
       position="446.22403,1520.4004"
       id="guide4437" />
  </sodipodi:namedview>
  <metadata
     id="metadata3784">
    <rdf:RDF>
      <cc:Work
         rdf:about="">
        <dc:format>image/svg+xml</dc:format>
        <dc:type
           rdf:resource="http://purl.org/dc/dcmitype/StillImage" />
        <dc:title />
      </cc:Work>
    </rdf:RDF>
  </metadata>
  <g
     inkscape:label="Camada 1"
     inkscape:groupmode="layer"
     id="layer1"
     transform="translate(0,-796.36218)">
    <g
       id="g5217">
      <path
         d="m 525.78571,293.79074 a 1.5,1.5 0 1 1 -3,0 1.5,1.5 0 1 1 3,0 z"
         sodipodi:ry="1.5"
         sodipodi:rx="1.5"
         sodipodi:cy="293.79074"
         sodipodi:cx="524.28571"
         style="fill:#000000;stroke:none"
         id="path3797-8"
         sodipodi:type="arc"
         transform="matrix(0.2819528,0,0,0.59963893,219.29794,656.00678)" />
      <path
         sodipodi:nodetypes="ccccccccccccc"
         inkscape:connector-curvature="0"
         id="path3799-8"
         d="m 276.98823,1018.0632 0,-79.6663 30.03676,0 0,-32.55183 -29.89973,0 0,-73.66992 89.9965,0 0,73.66992 16.17374,0.009 0,32.54301 -16.27755,0 0,79.66632 z"
         style="fill:#ffb9b9;fill-opacity:1;stroke:#000000;stroke-width:0.41118105999999999;stroke-linecap:butt;stroke-linejoin:miter;stroke-miterlimit:4;stroke-opacity:1;stroke-dasharray:2.46708644000000010, 0.41118106999999998;stroke-dashoffset:0" />
      <path
         sodipodi:nodetypes="ccccccccccccc"
         inkscape:connector-curvature="0"
         id="path3799-7-45"
         d="m 288.29464,990.67482 0,-30.046 32.08,0 0,-74.56735 -31.98095,0 0,-32.49896 65.06723,0 0,54.33944 -0.0758,0.007 0,24.00396 0,0 0,58.76242 z"
         style="opacity:0.98999999;fill:#b9b9ff;fill-opacity:1;stroke:#000000;stroke-width:1.23354328;stroke-linecap:butt;stroke-linejoin:miter;stroke-miterlimit:4;stroke-opacity:1;stroke-dasharray:none" />
      <path
         sodipodi:nodetypes="ccccccccccccc"
         inkscape:connector-curvature="0"
         id="path3799-5"
         d="m 396.73288,1018.0617 0,-79.66626 30.03677,0 0,-32.55183 -29.89974,0 0,-73.66993 89.99652,0 0,73.66993 16.17371,0.009 0,32.54302 -16.27753,0 0,79.66627 z"
         style="fill:none;stroke:#000000;stroke-width:2.05590534;stroke-linecap:butt;stroke-linejoin:miter;stroke-miterlimit:4;stroke-opacity:1;stroke-dasharray:none" />
      <path
         sodipodi:nodetypes="ccccccccccccc"
         inkscape:connector-curvature="0"
         id="path3799-17"
         d="m 9.1442098,1016.9828 0,-79.66629 30.0367632,0 0,-32.55183 -29.8997313,0 0,-73.66992 89.9965083,0 0,73.66992 16.17374,0.009 0,32.54301 -16.277549,0 0,79.66631 z"
         style="fill:#b9b9ff;fill-opacity:1;stroke:#000000;stroke-width:0.41118106px;stroke-linecap:butt;stroke-linejoin:miter;stroke-opacity:1" />
      <path
         d="m 525.78571,293.79074 a 1.5,1.5 0 1 1 -3,0 1.5,1.5 0 1 1 3,0 z"
         sodipodi:ry="1.5"
         sodipodi:rx="1.5"
         sodipodi:cy="293.79074"
         sodipodi:cx="524.28571"
         style="fill:#000000;stroke:none"
         id="path3797-4"
         sodipodi:type="arc"
         transform="matrix(0.2819528,0,0,0.59963893,82.775617,654.92784)" />
      <path
         sodipodi:nodetypes="ccccccccccccc"
         inkscape:connector-curvature="0"
         id="path3799-1-9"
         d="m 129.19911,1046.5618 0,-105.01974 -0.046,0 0,-42.91128 0.003,0 0,-97.11498 118.86163,0 0,72.79848 13.37545,0.0116 0,92.76909 -13.5123,0 0,79.46683 z"
         style="fill:#b9b9ff;fill-opacity:1;stroke:#000000;stroke-width:1.23354328;stroke-linecap:butt;stroke-linejoin:miter;stroke-miterlimit:4;stroke-opacity:1;stroke-dasharray:none" />
      <path
         sodipodi:nodetypes="ccccccccccccc"
         inkscape:connector-curvature="0"
         id="path3799-0"
         d="m 140.46591,1016.9843 0,-79.66633 30.03674,0 0,-32.55184 -29.89971,0 0,-73.66992 89.99652,0 0,73.66992 16.17371,0.009 0,32.54302 -16.27753,0 0,79.66635 z"
         style="fill:#ffb9b9;fill-opacity:1;stroke:#000000;stroke-width:0.41118105999999999;stroke-linecap:butt;stroke-linejoin:miter;stroke-miterlimit:4;stroke-opacity:1;stroke-dasharray:3.28944859000000010, 0.41118106999999998;stroke-dashoffset:0" />
    </g>
  </g>
</svg>
