<?xml version="1.0" encoding="UTF-8"?>
<svg xmlns="http://www.w3.org/2000/svg" xmlns:xlink="http://www.w3.org/1999/xlink" contentScriptType="text/ecmascript" zoomAndPan="magnify" baseProfile="tiny" contentStyleType="text/css" version="1.1" width="44px" preserveAspectRatio="xMidYMid meet" viewBox="0 0 44 44" height="44px" x="0px" y="0px">
    <rect width="44" fill="none" height="44"/>
    <g>
        <g>
            <g>
                <path d="M 21.921 36.945 L 21.91 26.896 C 21.912 26.867 21.912 26.83 21.912 26.782999 C 21.908 26.453 21.878 25.678 21.379002 24.875 C 20.889002 24.059 19.809002 23.359 18.300001 23.385 L 8.403 23.385 C 8.378 23.383 8.349999 23.383 8.323 23.383 C 6.862 23.383 5.8079996 24.069 5.329 24.871 C 4.831 25.674 4.8 26.447 4.794 26.781 C 4.794 26.84 4.796 26.879 4.796 26.902 L 4.807 37.0 C 4.807 36.965 4.8050003 37.021 4.8050003 37.104 C 4.8110003 37.442 4.8420005 38.215 5.3440003 39.016 C 5.8320003 39.829998 6.9140005 40.522 8.418 40.497997 L 18.313 40.497997 C 19.814 40.520996 20.896 39.828 21.385 39.013996 C 21.889 38.210995 21.92 37.437996 21.926 37.103996 C 21.927 37.039 21.924 36.982 21.921 36.945 z " fill-opacity="0.2"/>
                <path d="M 5.744 36.998 C 5.744 36.998 5.545 39.561 8.416 39.561 L 18.312 39.561 C 21.18 39.561 20.986 36.998 20.986 36.998 " fill-opacity="0.4"/>
                <linearGradient x1="181.3574" gradientTransform="matrix(1 0 0 -1 -168 -850)" y1="-873.2568" x2="181.3574" gradientUnits="userSpaceOnUse" y2="-888.498" xlink:type="simple" xlink:actuate="onLoad" id="SVGID_1_" xlink:show="other">
                    <stop stop-color="#ff0000" offset="0"/>
                    <stop stop-color="#8300ba" offset="1"/>
                </linearGradient>
                <path fill="url(#SVGID_1_)" d="M 5.729 25.82 L 5.744 35.934998 C 5.744 35.934998 5.545 38.497997 8.416 38.497997 L 18.312 38.497997 C 21.18 38.497997 20.986 35.934998 20.986 35.934998 L 20.973 25.82 C 20.973 25.82 21.164999 23.257 18.3 23.257 L 8.405 23.257 C 5.535 23.257 5.729 25.82 5.729 25.82 z "/>
                <path fill="#ffffff" d="M 20.526 31.041 L 20.514 26.146 C 20.514 26.146 20.698 23.781 18.016 23.781 L 8.772 23.781 C 6.0910006 23.781 6.2750006 26.146 6.2750006 26.146 L 6.2860007 31.041 L 20.526 31.041 z " fill-opacity="0.3"/>
            </g>
            <g>
                <path d="M 5.744 20.254 C 5.744 20.254 5.545 22.817 8.416 22.817 L 18.312 22.817 C 21.18 22.817 20.986 20.254 20.986 20.254 " fill-opacity="0.4"/>
                <path d="M 21.921 20.203 L 21.91 10.152999 C 21.912 10.122999 21.912 10.086999 21.912 10.039999 C 21.908 9.707999 21.878 8.932999 21.379002 8.129999 C 20.889002 7.313999 19.809002 6.616999 18.300001 6.6409993 L 8.403 6.6409993 C 8.378 6.639 8.35 6.639 8.323 6.634 C 6.862 6.634 5.8079996 7.3149996 5.329 8.121 C 4.83 8.924 4.8 9.698 4.792 10.03 C 4.792 10.087999 4.7939997 10.13 4.7939997 10.151 L 4.8059998 20.251999 C 4.8059998 20.216 4.804 20.273998 4.804 20.355999 C 4.81 20.696 4.841 21.464998 5.343 22.269999 C 5.831 23.079998 6.913 23.770998 8.417 23.748 L 18.312 23.748 C 19.813 23.772999 20.895 23.082998 21.384 22.269999 C 21.888 21.461998 21.919 20.693998 21.925001 20.357998 C 21.927 20.294 21.924 20.239 21.921 20.203 z " fill-opacity="0.2"/>
                <linearGradient x1="181.3574" gradientTransform="matrix(1 0 0 -1 -168 -850)" y1="-871.7529" x2="181.3574" gradientUnits="userSpaceOnUse" y2="-856.5122" xlink:type="simple" xlink:actuate="onLoad" id="SVGID_2_" xlink:show="other">
                    <stop stop-color="#e50d16" offset="0"/>
                    <stop stop-color="#ffe800" offset="0.9011"/>
                    <stop stop-color="#ffe800" offset="1"/>
                </linearGradient>
                <path fill="url(#SVGID_2_)" d="M 5.729 9.075 L 5.744 19.19 C 5.744 19.19 5.545 21.753 8.416 21.753 L 18.312 21.753 C 21.18 21.753 20.986 19.19 20.986 19.19 L 20.973 9.075 C 20.973 9.075 21.164999 6.512 18.3 6.512 L 8.405 6.512 C 5.535 6.513 5.729 9.075 5.729 9.075 z "/>
                <path fill="#ffffff" d="M 20.526 14.292 L 20.514 9.396 C 20.514 9.396 20.698 7.0299997 18.016 7.0299997 L 8.772 7.0299997 C 6.0910006 7.0299997 6.2750006 9.396 6.2750006 9.396 L 6.2860007 14.292 L 20.526 14.292 z " fill-opacity="0.3"/>
            </g>
            <g>
                <path d="M 38.791 20.203 L 38.781002 10.152999 C 38.783 10.122999 38.783 10.086999 38.783 10.039999 C 38.779 9.707999 38.748 8.932999 38.25 8.129999 C 37.76 7.313999 36.68 6.616999 35.172 6.6409993 L 25.276001 6.6409993 C 25.250002 6.6389995 25.221 6.6389995 25.196001 6.6339993 C 23.733002 6.6339993 22.682001 7.3149996 22.201 8.120999 C 21.703001 8.924 21.673 9.697999 21.665 10.03 C 21.665 10.087999 21.667002 10.13 21.669 10.151 L 21.679 20.251999 C 21.679 20.216 21.677 20.273998 21.677 20.355999 C 21.682 20.696 21.714 21.464998 22.216 22.269999 C 22.706 23.079998 23.788 23.770998 25.289999 23.748 L 35.185997 23.748 C 36.687996 23.772999 37.769997 23.082998 38.258995 22.269999 C 38.763996 21.461998 38.792995 20.693998 38.799995 20.357998 C 38.799 20.294 38.795 20.239 38.791 20.203 z M 22.602 10.139 L 22.602 10.139 L 22.602 10.139 L 22.602 10.139 z " fill-opacity="0.2"/>
                <linearGradient x1="-248.873" gradientTransform="matrix(-1 0 0 1 -218.6426 1597.4863)" y1="-1590.9922" x2="-248.873" gradientUnits="userSpaceOnUse" y2="-1568.6118" xlink:type="simple" xlink:actuate="onLoad" id="SVGID_3_" xlink:show="other">
                    <stop stop-color="#baff12" offset="0"/>
                    <stop stop-color="#53c280" offset="0.3626"/>
                    <stop stop-color="#0d99cb" offset="0.533"/>
                    <stop stop-color="#0091d9" offset="1"/>
                </linearGradient>
                <path fill="url(#SVGID_3_)" d="M 22.602 9.075 L 22.616999 19.189999 C 22.616999 19.189999 22.418 21.752998 25.288998 21.752998 L 35.184998 21.752998 C 38.055996 21.752998 37.860996 19.189999 37.860996 19.189999 L 37.844 9.075 C 37.844 9.075 38.037003 6.512 35.172 6.512 L 25.276001 6.512 C 22.406 6.513 22.602 9.075 22.602 9.075 z "/>
                <path fill="#ffffff" d="M 37.357 14.292 L 37.344997 9.396 C 37.344997 9.396 37.528996 7.0299997 34.846996 7.0299997 L 25.604996 7.0299997 C 22.923996 7.0299997 23.108995 9.396 23.108995 9.396 L 23.120995 14.292 L 37.357 14.292 z " fill-opacity="0.3"/>
            </g>
        </g>
    </g>
    <path d="M 42.028 17.101 C 43.514 15.614 44.228 13.323999 42.616 11.642 C 41.072002 10.030001 38.687 10.194 37.154 11.729 C 36.135998 12.746 35.12 13.764 34.101997 14.781 C 33.507996 15.376 32.913998 15.97 32.318996 16.565 C 32.244995 16.639 32.124996 16.819 32.024998 16.859001 C 31.414997 17.046001 30.780998 16.380001 30.138998 17.038002 C 29.033998 17.865002 27.967999 19.139002 29.130999 20.384003 C 25.640999 24.044003 21.970999 27.538002 18.396 31.115002 C 17.71 31.800001 16.938 32.397003 16.285 33.114002 C 15.337999 34.152 15.162 35.528004 14.477 36.718002 C 14.005 37.537003 13.31 38.252003 12.71 38.976 C 12.469 39.267002 12.211 39.554 12.003 39.871002 C 11.665 40.387 11.7 40.985 11.43 41.503002 L 11.593 41.68 C 11.762 42.513 11.684 43.267002 12.775001 43.475 C 13.714001 43.655 14.4800005 42.838997 15.064001 42.220997 C 15.705001 41.541996 16.303001 40.697998 17.158 40.269997 C 18.022001 39.837997 19.028002 39.814995 19.894001 39.382996 C 21.769001 38.447994 23.167002 36.338997 24.622002 34.884995 C 24.952002 34.550995 25.286001 34.220993 25.617002 33.889996 C 27.212002 32.294994 28.806002 30.701996 30.400002 29.106995 C 31.025002 28.482994 31.649002 27.857994 32.274002 27.233995 C 32.703003 26.804995 33.118004 26.129995 33.603 25.815996 C 34.543 26.520996 35.373 26.590996 36.277 25.763996 C 36.711 25.367996 37.097 24.849997 37.241 24.270996 C 37.311 23.987995 37.316 23.684996 37.216 23.407995 C 37.388 22.956995 37.304 22.490995 37.036 22.096994 L 37.037 22.096994 L 42.028 17.101 " fill-opacity="0.2"/>
    <path d="M 36.611 21.812 C 38.299 20.124 39.986 18.436 41.674 16.748001 C 43.099 15.323001 43.756 13.314001 42.045 11.786001 C 40.587997 10.484001 38.811996 10.778001 37.506996 12.083001 C 35.759995 13.831001 34.011997 15.577002 32.265995 17.326 C 32.264996 17.326 32.264996 17.326 32.264996 17.326 C 32.149994 17.314001 32.008995 17.413 31.861996 17.57 C 31.433996 17.192999 30.937996 16.941 30.438995 17.439 C 29.974995 17.786 29.500996 18.200998 29.222996 18.717999 C 28.823996 19.460999 29.320995 19.869999 29.827995 20.376 C 27.400995 22.945 24.827995 25.389 22.328995 27.887 C 21.039995 29.175999 19.750996 30.465 18.461994 31.754 C 17.576994 32.639 16.175995 33.569 15.822994 34.824 C 15.404994 35.925003 15.116994 36.856003 14.370995 37.755 C 13.8189945 38.420002 13.266994 39.085003 12.715995 39.75 C 12.238995 40.325 12.111995 40.652 11.996995 41.406 C 12.239995 41.67 11.909995 42.177998 12.214995 42.579 C 12.526996 42.987 13.110995 43.138 13.557996 42.858997 C 14.714995 42.135998 15.452995 40.790997 16.598995 40.014996 C 17.666996 39.290997 19.127995 39.426994 20.119995 38.651997 C 21.620995 37.477997 22.917995 35.878998 24.265995 34.529995 C 26.979996 31.815994 29.694996 29.100994 32.409996 26.386995 C 32.709995 26.086996 33.362995 25.043995 33.814995 25.351995 C 34.168995 25.590996 34.585995 25.997995 35.054996 25.910995 C 35.850998 25.762995 37.214996 24.241995 36.663998 23.419996 C 36.629997 23.489996 36.585 23.552996 36.529 23.606997 C 36.96 23.036997 36.869 22.584997 36.385998 22.097996 C 36.496 22.004 36.587 21.908 36.611 21.812 M 12.406 41.783 L 12.4210005 41.797 C 12.393001 41.774002 12.361 41.768 12.335 41.74 C 12.357 41.761 12.383 41.766 12.406 41.783 M 13.695 41.695 C 13.746 41.668 13.832 41.613 13.695 41.695 M 33.633 24.185 C 33.696 24.251 33.760998 24.319 33.828 24.386 C 33.707 24.285 33.637 24.209 33.633 24.185 z " fill-opacity="0.3"/>
    <g>
        <path d="M 36.568 23.566 C 36.203 23.929 35.851 24.383 35.439 24.693 C 34.806 25.327002 33.576 24.220001 33.625 24.172 C 33.236 24.561 32.85 24.947 32.461 25.336 C 30.401999 27.395 28.345999 29.451 26.288998 31.508 C 24.411997 33.385 22.535997 35.260998 20.659998 37.137 C 20.304998 37.492 19.953999 37.95 19.462997 38.035 C 18.032997 38.299 16.858997 38.599 15.839997 39.618 C 15.183997 40.273 13.087997 43.124 12.144998 41.484 C 11.562998 42.508 12.929997 43.527 13.755998 42.701 C 14.181997 42.275 14.607998 41.849 15.033998 41.424 C 16.150997 40.307 16.734997 39.678 18.331997 39.282 C 19.171997 39.074 19.744997 39.053 20.344997 38.452 C 20.996998 37.8 21.649998 37.146 22.301998 36.495 C 26.045998 32.751 29.789997 29.007 33.533997 25.264 C 33.718998 25.078 34.565998 26.227 35.244995 25.841 C 35.917995 25.458 37.207996 24.229 36.665997 23.418999 C 36.634 23.469 36.602 23.518 36.568 23.566 " fill-opacity="0.3"/>
        <path fill="none" d="M 34.068 22.031 C 33.587 21.549 33.103 21.067 32.623 20.585001 C 32.242 20.204 31.825 19.632002 31.251001 19.569 C 30.529001 19.489 30.02 20.197 29.563002 20.653 C 28.753002 21.462 27.944002 22.272 27.134003 23.082 C 24.873003 25.343 22.613003 27.603 20.352003 29.864 C 19.003002 31.213001 17.654003 32.562 16.305004 33.911 C 15.410004 34.807 15.881004 36.675 14.880004 37.676 C 14.018003 38.536 13.157003 39.399 12.295004 40.259 C 11.899004 40.656 11.901004 41.315 12.295004 41.711998 C 13.596004 43.016 15.990004 39.034996 17.279003 38.586998 C 18.211002 38.263996 19.491003 38.307 20.195004 37.603996 C 20.742004 37.054996 21.290003 36.507996 21.838003 35.959995 C 23.988003 33.810997 26.141003 31.657995 28.290003 29.507996 C 30.080002 27.717995 31.870003 25.927996 33.660004 24.138996 C 34.245 23.555 34.854 22.816 34.068 22.031 z M 33.223 23.926 C 31.424 25.725 29.625 27.524 27.827 29.322 C 25.723 31.426 23.619 33.531002 21.515 35.635002 C 20.967 36.184002 20.418999 36.731003 19.872 37.278004 C 18.952 38.199005 17.17 37.731003 16.153 38.662003 C 15.65 39.165 13.359 42.124 12.6189995 41.391003 C 11.910999 40.675003 14.405 38.797 14.837 38.366 C 15.8619995 37.342003 16.153 36.037003 16.419 34.633 C 16.467001 34.299 16.837 34.024998 17.061 33.801 C 17.564001 33.298 18.067001 32.795 18.569 32.292 C 20.184 30.676 21.799 29.062 23.414 27.446 C 25.824999 25.036 28.233 22.626999 30.643 20.217 C 31.446 19.418999 33.197998 21.804998 33.694 22.300999 C 34.352 22.96 33.678 23.471 33.223 23.926 z " stroke-opacity="0.8" stroke="#e8e8e8"/>
        <linearGradient x1="467.9033" gradientTransform="matrix(0.7071 0.7071 -0.7071 0.7071 -299.5244 -311.1125)" y1="14.2939" x2="472.0732" gradientUnits="userSpaceOnUse" y2="14.2939" xlink:type="simple" xlink:actuate="onLoad" id="SVGID_4_" xlink:show="other">
            <stop stop-color="#d6d6d6" offset="0"/>
            <stop stop-color="#878787" offset="0.7967"/>
            <stop stop-color="#d6d6d6" offset="1"/>
        </linearGradient>
        <path fill="url(#SVGID_4_)" d="M 19.35 37.438 C 19.745 37.329 20.063 36.875 20.338001 36.6 C 21.130001 35.807 21.922 35.016 22.714 34.223 C 24.971 31.965 27.229 29.707 29.485 27.451 C 30.874 26.063 32.260002 24.676 33.649002 23.288 C 34.332 22.604 32.264004 21.091 31.840002 20.669 C 31.201002 20.03 30.841002 20.235 30.297003 20.779001 C 26.356003 24.719002 22.416002 28.658 18.475002 32.599 C 17.927002 33.148 17.379002 33.695 16.832003 34.243 C 16.702003 34.374 16.645002 34.48 16.566002 34.664 C 16.183002 35.549 16.198002 36.592003 15.768002 37.486 C 15.233002 38.601 13.886002 39.531 13.027001 40.39 C 12.946001 40.47 12.775002 40.585 12.725001 40.690998 C 12.345001 41.074997 12.9330015 41.663998 13.316001 41.283997 C 13.722001 41.093998 14.150001 40.448997 14.464001 40.135998 C 14.983001 39.615997 15.503 39.096996 16.022001 38.576996 C 16.797 37.801 18.322 37.639 19.35 37.438 " fill-opacity="0.5"/>
        <linearGradient x1="463.4883" gradientTransform="matrix(0.7071 0.7071 -0.7071 0.7071 -299.5244 -311.1125)" y1="19.7119" x2="475.5147" gradientUnits="userSpaceOnUse" y2="19.7119" xlink:type="simple" xlink:actuate="onLoad" id="SVGID_5_" xlink:show="other">
            <stop stop-color="#ff0000" offset="0"/>
            <stop stop-color="#8300ba" offset="1"/>
        </linearGradient>
        <path fill="url(#SVGID_5_)" d="M 16.449 34.091 C 16.07 34.463 16.057 35.281998 15.938 35.760998 C 15.78 36.397 15.627 37.251 15.146 37.732998 C 14.276999 38.601997 13.408 39.470997 12.539 40.341 C 12.006 40.873 12.264999 41.911 13.143999 41.776 C 13.605999 41.706 14.025999 41.112 14.331999 40.805 C 15.076999 40.061 15.865999 38.921 16.866 38.501 C 17.75 38.131 19.282 38.195 19.973999 37.502 C 20.681 36.795 21.387 36.089 22.092999 35.383 C 23.728998 33.746 25.363998 32.112 26.999998 30.474998 C 25.950998 30.255 24.935999 29.888998 23.949999 29.47 C 23.700998 29.365 22.075998 28.462 21.953 28.585 C 21.387999 29.15 20.821999 29.716 20.255999 30.282 C 18.988 31.552 17.718 32.82 16.449 34.091 " fill-opacity="0.6"/>
        <linearGradient x1="466.8545" gradientTransform="matrix(0.7071 0.7071 -0.7071 0.7071 -299.5244 -311.1125)" y1="-5.8389" x2="473.1006" gradientUnits="userSpaceOnUse" y2="-5.8389" xlink:type="simple" xlink:actuate="onLoad" id="SVGID_6_" xlink:show="other">
            <stop stop-color="#707070" offset="0"/>
            <stop stop-color="#707070" offset="0.1374"/>
            <stop stop-color="#303030" offset="0.6978"/>
            <stop stop-color="#2d2d2d" offset="0.9396"/>
            <stop stop-color="#707070" offset="1"/>
        </linearGradient>
        <path fill="url(#SVGID_6_)" d="M 36.018 22.405 C 34.372 24.051 31.579002 23.092001 30.887001 20.983 C 30.393002 19.473 31.223001 18.367 32.216 17.375 C 34.07 15.519 35.928 13.663 37.783 11.806 C 39.199 10.389999 41.243 10.7439995 42.454002 12.21 C 43.605003 13.606 43.118004 15.3029995 41.956 16.466 C 40.059002 18.362999 38.161003 20.261 36.264 22.159 C 36.182 22.241 36.1 22.323 36.018 22.405 "/>
        <path fill="#161616" d="M 36.018 22.405 C 36.247 22.175001 36.825 21.881 36.542 21.601 C 36.063 21.119999 35.581 20.64 35.1 20.159 C 34.470997 19.528 33.838997 18.897001 33.208 18.266 C 33.049 18.107 32.499 17.348001 32.266 17.324001 C 31.799 17.277 30.921999 19.015001 30.852 19.269001 C 30.563 20.300001 30.795 20.692001 31.456 21.353 C 32.019 21.916 32.583 22.480001 33.146 23.043001 C 33.857 23.755 35.448 22.975 36.018 22.405 "/>
        <linearGradient x1="465.5781" gradientTransform="matrix(0.7071 0.7071 -0.7071 0.7071 -299.5244 -311.1125)" y1="-0.2031" x2="474.3457" gradientUnits="userSpaceOnUse" y2="-0.2031" xlink:type="simple" xlink:actuate="onLoad" id="SVGID_7_" xlink:show="other">
            <stop stop-color="#707070" offset="0"/>
            <stop stop-color="#707070" offset="0.1374"/>
            <stop stop-color="#303030" offset="0.6978"/>
            <stop stop-color="#2d2d2d" offset="0.9396"/>
            <stop stop-color="#707070" offset="1"/>
        </linearGradient>
        <path fill="url(#SVGID_7_)" d="M 35.439 24.693 C 34.67 25.463001 33.902 24.445002 33.393997 23.937 C 32.563995 23.109001 31.735996 22.28 30.906998 21.452 C 30.376997 20.921999 29.844997 20.390999 29.313997 19.861 C 28.510998 19.057 29.813997 17.904 30.438997 17.437 C 31.209997 16.668001 31.975998 17.684 32.485996 18.193 C 33.313995 19.022001 34.141994 19.851002 34.969997 20.679 C 35.499996 21.209002 36.031998 21.740002 36.561996 22.27 C 37.434 23.141 35.994 24.141 35.439 24.693 "/>
        <path fill="#e8e8e8" d="M 41.602 12.145 C 39.559002 10.112 37.485 12.912001 36.139 14.258 C 34.741 15.657001 33.34 17.055 31.942 18.454 C 31.748999 18.26 31.401 17.739 31.087 17.739 C 30.752 17.739 30.342 18.343 30.142 18.544 C 29.919 18.767 29.394001 19.128 29.745 19.478 C 30.045 19.779001 30.346 20.079 30.646 20.380001 C 27.144 23.880001 23.644001 27.381 20.144001 30.881 C 19.296001 31.731 18.448002 32.578 17.6 33.426003 C 17.283 33.743004 16.765001 34.104004 16.567001 34.524002 C 16.006 35.712 16.220001 37.145 15.213001 38.153004 C 14.714002 38.653004 14.215001 39.151005 13.7160015 39.651005 C 13.414001 39.954006 12.700002 40.425003 12.584002 40.873005 C 12.545002 41.039005 12.585002 41.186005 12.703002 41.311005 C 19.645002 34.369003 26.588001 27.424004 33.529003 20.481005 C 35.504 18.507004 37.478004 16.533005 39.452003 14.558004 C 40.017002 13.992004 40.584003 13.427004 41.148003 12.861004 C 41.322 12.682 41.866 12.355 41.602 12.145 " fill-opacity="0.3"/>
    </g>
</svg>
