<?xml version="1.0" encoding="UTF-8" standalone="no"?>
<!-- Created with Inkscape (http://www.inkscape.org/) -->

<svg
   xmlns:dc="http://purl.org/dc/elements/1.1/"
   xmlns:cc="http://creativecommons.org/ns#"
   xmlns:rdf="http://www.w3.org/1999/02/22-rdf-syntax-ns#"
   xmlns:svg="http://www.w3.org/2000/svg"
   xmlns="http://www.w3.org/2000/svg"
   xmlns:sodipodi="http://sodipodi.sourceforge.net/DTD/sodipodi-0.dtd"
   xmlns:inkscape="http://www.inkscape.org/namespaces/inkscape"
   width="64px"
   height="64px"
   id="svg5293"
   version="1.1"
   inkscape:version="0.48.2 r9819"
   sodipodi:docname="New document 8">
  <defs
     id="defs5295" />
  <sodipodi:namedview
     id="base"
     pagecolor="#ffffff"
     bordercolor="#666666"
     borderopacity="1.0"
     inkscape:pageopacity="0.0"
     inkscape:pageshadow="2"
     inkscape:zoom="5.5"
     inkscape:cx="32"
     inkscape:cy="34.727273"
     inkscape:current-layer="layer1"
     showgrid="true"
     inkscape:document-units="px"
     inkscape:grid-bbox="true"
     inkscape:window-width="1280"
     inkscape:window-height="972"
     inkscape:window-x="1358"
     inkscape:window-y="-8"
     inkscape:window-maximized="1" />
  <metadata
     id="metadata5298">
    <rdf:RDF>
      <cc:Work
         rdf:about="">
        <dc:format>image/svg+xml</dc:format>
        <dc:type
           rdf:resource="http://purl.org/dc/dcmitype/StillImage" />
        <dc:title></dc:title>
      </cc:Work>
    </rdf:RDF>
  </metadata>
  <g
     id="layer1"
     inkscape:label="Layer 1"
     inkscape:groupmode="layer">
    <g
       transform="matrix(0.149207,0,0,0.149207,-119.21573,23.69754)"
       style="stroke:#ffffff"
       id="g5224">
      <path
         style="fill:#999999;fill-opacity:1;fill-rule:evenodd;stroke:#ffffff;stroke-width:0.10405575;stroke-linecap:square;stroke-linejoin:round;stroke-miterlimit:4"
         inkscape:connector-curvature="0"
         d="m 125.35382,661.74074 -0.37094,0.0509 0.0677,-0.28631 0.16218,-0.10365 -0.0812,-0.56329 -0.17579,-0.0361 -0.18931,-0.34698 -0.0271,-0.31995 -0.28394,-0.11717 -0.44617,-0.009 -0.43264,-0.25236 -0.0947,-0.23884 -0.39209,-0.23884 -0.62191,-0.0901 0.70293,-0.77959 0.054,-0.34699 0.39199,-0.53625 0.3988,-0.2377 0.007,-0.3053 0.70972,-0.12956 1.38566,0.0327 1.58845,0.89786 0.10138,0.74916 -0.30418,0.70861 -0.25516,0.19742 -0.22813,0.40021 -0.16054,0.33262 -0.78366,0.46168 -0.14829,0.28593 -0.10772,0.46168 -0.27365,0.10528 -0.19253,0.25399 z"
         id="path1360"
         stroke-miterlimit="4"
         transform="matrix(14.415349,0,0,14.415349,-783.96104,-9273.418)" />
      <path
         style="fill:#999999;fill-opacity:1;fill-rule:evenodd;stroke:#ffffff;stroke-width:0.10405575;stroke-linecap:square;stroke-linejoin:round;stroke-miterlimit:4"
         inkscape:connector-curvature="0"
         d="m 128.04825,658.41818 -0.22517,0.0813 -0.10308,-0.72917 -1.64422,-0.91842 -1.41439,0.0144 -0.22475,0.0279 0.46471,-0.26953 0.14025,-0.24249 -0.008,-0.28304 1.046,-0.0127 0.3836,0.20363 0.37007,0.0549 0.27544,-0.13435 0.20786,-0.21545 0.78915,-0.0262 0.64045,-0.12083 -0.21123,0.35234 -0.0359,1.62245 -0.3198,0.29762 -0.13054,0.29763 z"
         id="path2120"
         stroke-miterlimit="4"
         transform="matrix(14.415349,0,0,14.415349,-783.96104,-9273.418)" />
      <path
         style="fill:#999999;fill-opacity:1;fill-rule:evenodd;stroke:#ffffff;stroke-width:0.10405575;stroke-linecap:square;stroke-linejoin:round;stroke-miterlimit:4"
         inkscape:connector-curvature="0"
         d="m 128.78669,655.80254 0.13866,-0.0837 0.19284,-0.12033 -0.24066,-0.17133 -0.41916,-0.0566 -0.69967,-1.4846 -1.43919,-0.65585 -0.54667,-0.0311 -1.17143,1.03994 0.0143,1.3587 0.0271,0.14743 0.40961,-0.0183 -0.0112,0.36418 1.04711,-0.006 0.3076,0.17293 0.44786,0.0837 0.32593,-0.17492 0.17292,-0.20041 0.75386,-0.006 0.69011,-0.15858 z"
         id="path2880"
         stroke-miterlimit="4"
         transform="matrix(14.415349,0,0,14.415349,-783.96104,-9273.418)" />
      <path
         style="fill:#999999;fill-opacity:1;fill-rule:evenodd;stroke:#ffffff;stroke-width:0.10405575;stroke-linecap:square;stroke-linejoin:round;stroke-miterlimit:4"
         inkscape:connector-curvature="0"
         d="m 128.91658,655.43637 0.21437,0.13667 0.42793,-0.40363 0.0964,-0.35262 0.41518,-0.16137 0.63194,-0.0976 0.16017,-0.0721 0.0582,-0.19962 0.31317,0.004 0.32593,-0.45463 0.0327,-0.18687 -0.34983,-0.23787 -0.47734,0.20839 -0.33708,0.15739 -0.28609,-0.0339 -0.0311,-1.00289 -0.45184,-1.04114 -1.16586,-0.008 -0.69409,-0.46737 -0.70684,-0.0594 0.0199,0.36139 -0.17133,0.0171 -0.41359,0.48889 -0.0566,0.70565 -0.65584,0.45064 0.52994,0.0299 1.42244,0.66739 0.69569,1.50892 0.45343,0.0426 z"
         id="path3640"
         stroke-miterlimit="4"
         transform="matrix(14.415349,0,0,14.415349,-783.96104,-9273.418)" />
      <path
         style="fill:#999999;fill-opacity:1;fill-rule:evenodd;stroke:#ffffff;stroke-width:0.10405575;stroke-linecap:square;stroke-linejoin:round;stroke-miterlimit:4"
         inkscape:connector-curvature="0"
         d="m 131.26024,654.28526 0.28902,-0.46175 0.0285,-0.16979 -0.32847,-0.25904 0.33455,-0.0295 0.6278,-0.0423 0.4238,-0.11878 0.30904,-0.16979 0.25805,-0.31004 0.25804,-0.37379 0.6533,0.64623 0.0231,0.40721 -0.13228,0.17691 -0.56579,0.13865 -0.094,0.25342 -0.10678,0.0877 -1.53482,0.0112 -0.0685,0.18966 -0.37454,0.0239 z"
         id="path4400"
         stroke-miterlimit="4"
         transform="matrix(14.415349,0,0,14.415349,-783.96104,-9273.418)" />
      <path
         style="fill:#999999;fill-opacity:1;fill-rule:evenodd;stroke:#ffffff;stroke-width:0.10405575;stroke-linecap:square;stroke-linejoin:round;stroke-miterlimit:4"
         inkscape:connector-curvature="0"
         d="m 134.11159,652.97542 0.0623,-0.0899 0.1332,-0.0519 0.20239,0.0173 0.0778,-0.19029 0.0294,-0.27332 0.14531,-0.18682 0.26294,-0.3183 0.0969,-0.47744 -0.0138,-0.36673 0.0969,-0.32521 -0.0554,-0.24218 -0.27677,-0.0623 -0.36673,-0.12455 -0.2837,0 -0.0277,0.84417 -0.13147,0.34598 -0.19374,0.40824 -0.41516,0.0484 0.0138,0.40825 0.64351,0.63659 z"
         id="path5160"
         stroke-miterlimit="4"
         transform="matrix(14.415349,0,0,14.415349,-783.96104,-9273.418)" />
      <path
         style="fill:#999999;fill-opacity:1;fill-rule:evenodd;stroke:#ffffff;stroke-width:0.10405575;stroke-linecap:square;stroke-linejoin:round;stroke-miterlimit:4"
         inkscape:connector-curvature="0"
         d="m 135.37766,650.45242 -0.22952,-0.0177 -0.48662,-0.46013 -0.11586,-0.35421 0.59034,-0.54841 -0.0982,-0.24827 -0.75144,-0.63669 -0.48662,0.0166 -0.62786,-0.40718 -0.89269,-0.0364 -0.0805,-0.40717 -0.89269,0.63448 -0.59255,0.0342 0.043,-2.96717 -0.45131,-10e-4 0.64331,-0.77793 0.39613,-10e-4 0.33297,0.55586 0.65076,-0.36221 0.33296,-0.34455 -0.349,-0.44693 1.75196,-0.006 0.39252,-0.35865 0.18065,0.0298 0.37486,0.50645 0.8339,-0.67644 0.78093,0.50644 0.0204,0.66358 0.39113,0.028 -0.0149,0.27516 -0.421,0.0457 0.003,0.46937 0.33817,0.31048 0.30285,0.0986 -0.0637,0.23963 -0.22255,0.13371 -0.0284,0.31026 -0.15194,0.1337 -0.16959,0.20433 -0.31083,0.16902 -0.27552,0.0278 0.10017,0.28595 -0.0234,1.6454 -0.19996,0.19768 -0.0764,0.23299 -0.0587,0.4272 -0.11169,0.25064 -0.0234,0.56844 -0.25292,0.0564 z"
         id="path5920"
         stroke-miterlimit="4"
         transform="matrix(14.415349,0,0,14.415349,-783.96104,-9273.418)" />
      <path
         style="fill:#999999;fill-opacity:1;fill-rule:evenodd;stroke:#ffffff;stroke-width:0.10405575;stroke-linecap:square;stroke-linejoin:round;stroke-miterlimit:4"
         inkscape:connector-curvature="0"
         d="m 130.25843,647.66612 0.42901,-0.005 0.0411,0.34193 0.59381,-0.0331 0.8919,-0.63639 0.0804,0.40928 0.8919,0.0355 0.62929,0.40692 0.48735,-0.0166 0.74995,0.6364 0.0994,0.2484 -0.59144,0.54886 0.11592,0.35487 0.48735,0.4767 -0.2768,-0.0438 -0.36669,-0.12538 -0.2839,0 -0.026,0.84458 -0.13248,0.3454 -0.194,0.40928 -0.41401,0.0473 0.0106,0.41519 -0.26379,0.37971 -0.25786,0.30991 -0.30755,0.17034 -0.42348,0.11828 -0.62929,0.0426 -0.33358,0.0284 0.19636,0.15614 -0.20346,-0.13958 -0.47788,0.20819 -0.33594,0.15851 -0.28626,-0.0331 -0.0308,-1.00309 -0.45186,-1.04094 -1.16632,-0.009 -0.69317,-0.46843 -0.70737,-0.0591 0.87158,-0.79324 1.50746,-0.0385 0.0536,-0.7205 0.4108,-0.67024 0.0287,-0.7947 0.27624,0.003 0.001,-0.46464 z"
         id="path6682"
         stroke-miterlimit="4"
         transform="matrix(14.415349,0,0,14.415349,-783.96104,-9273.418)" />
      <path
         style="fill:#999999;fill-opacity:1;fill-rule:evenodd;stroke:#ffffff;stroke-width:0.10405575;stroke-linecap:square;stroke-linejoin:round;stroke-miterlimit:4"
         inkscape:connector-curvature="0"
         d="m 137.60509,645.2501 -0.37772,0.32673 -0.26298,-0.10679 -0.35222,-0.28529 -0.0462,-0.48929 0.46379,-0.043 0.40004,0.0207 0.54029,0.0845 -0.36498,0.49248 z"
         id="path8207"
         stroke-miterlimit="4"
         transform="matrix(14.415349,0,0,14.415349,-783.96104,-9273.418)" />
      <path
         style="fill:#999999;fill-opacity:1;fill-rule:evenodd;stroke:#ffffff;stroke-width:0.10405575;stroke-linecap:square;stroke-linejoin:round;stroke-miterlimit:4"
         inkscape:connector-curvature="0"
         d="m 137.45473,644.67687 0.52427,0.0675 0.31667,-0.0644 0.0364,-0.31107 0.31667,-0.0869 0.22699,-0.468 0.0364,-0.21018 -0.5913,0.18216 -0.55768,0.0589 -0.23504,-0.0893 -0.17901,-0.15658 -0.13416,-0.13416 -0.15658,0.0116 -0.22384,0.13486 -0.19021,0.09 3.4e-4,0.63929 0.40078,0.0225 -0.014,0.29149 0.4232,0.0225 z"
         id="path9725"
         stroke-miterlimit="4"
         transform="matrix(14.415349,0,0,14.415349,-783.96104,-9273.418)" />
      <path
         style="fill:#999999;fill-opacity:1;fill-rule:evenodd;stroke:#ffffff;stroke-width:0.10405575;stroke-linecap:square;stroke-linejoin:round;stroke-miterlimit:4"
         inkscape:connector-curvature="0"
         d="m 138.90938,643.60097 0.20177,-0.1233 0.15562,-0.40573 0.01,-0.68597 -0.36001,0.30046 -0.61784,0.0315 -0.48332,0.35651 -0.3376,-0.82048 -0.55058,0.43498 -0.36002,-0.37211 -0.36921,0.44208 -0.49252,-0.52194 -0.66066,0.0161 -0.0105,0.53175 -0.43647,0.37482 0.0455,0.18425 0.37061,0.49813 0.84142,-0.67888 0.77415,0.54296 0.44908,-0.2305 0.19127,0.0385 0.28093,0.2403 0.26973,0.0834 0.53876,-0.0736 0.54996,-0.16324 z"
         id="path10485"
         stroke-miterlimit="4"
         transform="matrix(14.415349,0,0,14.415349,-783.96104,-9273.418)" />
      <path
         style="fill:#999999;fill-opacity:1;fill-rule:evenodd;stroke:#ffffff;stroke-width:0.10405575;stroke-linecap:square;stroke-linejoin:round;stroke-miterlimit:4"
         inkscape:connector-curvature="0"
         d="m 138.03785,641.91296 0.006,-0.39026 1.24125,0.25277 -0.008,0.63103 -0.36002,0.30046 -0.61783,0.0314 -0.48333,0.35652 -0.33759,-0.82049 -0.55058,0.43499 -0.36002,-0.37211 -0.30724,-0.67433 0.22686,-0.29962 0.44111,0.2759 0.67906,-0.20139 0.0404,0.46036 0.38979,0.0147 z"
         id="path12003"
         stroke-miterlimit="4"
         transform="matrix(14.415349,0,0,14.415349,-783.96104,-9273.418)" />
      <path
         style="fill:#999999;fill-opacity:1;fill-rule:evenodd;stroke:#ffffff;stroke-width:0.10405575;stroke-linecap:square;stroke-linejoin:round;stroke-miterlimit:4"
         inkscape:connector-curvature="0"
         d="m 139.27803,641.76822 0.0243,-0.3734 -0.15636,-0.21986 -0.096,-0.59325 -1.19779,-0.0152 -0.57463,-0.4036 -0.79928,1.20344 0.47415,0.27321 0.64575,-0.18741 0.0497,0.4448 0.39287,0.0203 0.0136,-0.40415 1.22375,0.25514 z"
         id="path12007"
         stroke-miterlimit="4"
         transform="matrix(14.415349,0,0,14.415349,-783.96104,-9273.418)" />
      <path
         style="fill:#999999;fill-opacity:1;fill-rule:evenodd;stroke:#ffffff;stroke-width:0.10405575;stroke-linecap:square;stroke-linejoin:round;stroke-miterlimit:4"
         inkscape:connector-curvature="0"
         d="m 135.06035,642.25591 -0.52608,-3.39469 c 1.22451,-0.0929 2.0968,0.59081 2.75233,1.29262 l -1.02281,1.50938 0.30482,0.67849 -0.34546,0.39851 -0.52608,-0.50463 -0.63672,0.0203 z"
         id="path12009"
         stroke-miterlimit="4"
         transform="matrix(14.415349,0,0,14.415349,-783.96104,-9273.418)" />
      <path
         style="fill:#999999;fill-opacity:1;fill-rule:evenodd;stroke:#ffffff;stroke-width:0.10405575;stroke-linecap:square;stroke-linejoin:round;stroke-miterlimit:4"
         inkscape:connector-curvature="0"
         d="m 131.353,644.2745 -0.39292,0.0182 0.0136,-0.9908 c 0.2604,-0.92479 0.90916,-1.48831 1.78371,-1.79895 l 0.45608,-0.0107 0.0316,-1.34738 0.84896,-1.39761 0.44254,0.11063 0.52382,3.36196 -0.009,0.5622 -0.4606,0.34546 0.0542,0.22804 -0.18063,-0.0559 -0.39738,0.36859 -1.72501,0.0254 0.33642,0.43535 -0.34997,0.336 -0.66607,0.37212 -0.30927,-0.56257 z"
         id="path12011"
         stroke-miterlimit="4"
         transform="matrix(14.415349,0,0,14.415349,-783.96104,-9273.418)" />
      <path
         style="fill:#999999;fill-opacity:1;fill-rule:evenodd;stroke:#ffffff;stroke-width:0.10405575;stroke-linecap:square;stroke-linejoin:round;stroke-miterlimit:4"
         inkscape:connector-curvature="0"
         d="m 129.78798,640.64443 0.0237,1.59176 0.38173,0.30473 0.39521,0.0126 -0.008,0.38426 -0.38828,0.0167 0.0364,0.67865 0.3796,0.66275 0.33594,-0.0218 0.0135,-0.94999 c 0.26041,-0.92478 0.90917,-1.48831 1.78371,-1.79895 l 0.45609,-0.0107 0.0316,-1.34738 0.84896,-1.39762 -1.25619,-0.38749 -0.14034,0.19441 -0.25171,-0.0636 -0.39674,-0.5103 -0.25467,-0.0643 -0.42072,-0.26868 -0.20358,-0.11542 -0.36062,-0.0448 -0.56499,1.83272 -1.01202,0.92588 0.57176,0.37667 z"
         id="path12013"
         stroke-miterlimit="4"
         transform="matrix(14.415349,0,0,14.415349,-783.96104,-9273.418)" />
      <path
         style="fill:#999999;fill-opacity:1;fill-rule:evenodd;stroke:#ffffff;stroke-width:0.10405575;stroke-linecap:square;stroke-linejoin:round;stroke-miterlimit:4"
         inkscape:connector-curvature="0"
         d="m 129.35079,640.65434 -0.56057,0 0.45025,-0.39957 0.53374,0.38764 0.0447,1.58035 0.40254,0.32799 0.36676,-0.006 -0.003,0.39956 -0.39658,-0.006 0.0309,0.65227 0.3649,0.69998 0.38186,-0.0276 -0.65395,0.78347 0.43646,-0.004 -0.005,0.95045 -0.87553,0.47336 -0.76692,0.007 -0.32562,-0.2912 -0.23021,-0.005 -0.24213,0.34095 -0.48067,-0.23155 -0.0274,-0.70864 -0.37333,0.37673 -0.14104,-0.0191 0.002,-0.69897 0.31219,-1.29533 0.85033,-1.1647 0.46866,-1.27204 0.27783,-0.55641 0.15856,-0.29402 z"
         id="path12773"
         stroke-miterlimit="4"
         transform="matrix(14.415349,0,0,14.415349,-783.96104,-9273.418)" />
      <path
         style="fill:#999999;fill-opacity:1;fill-rule:evenodd;stroke:#ffffff;stroke-width:0.10405575;stroke-linecap:square;stroke-linejoin:round;stroke-miterlimit:4"
         inkscape:connector-curvature="0"
         d="m 123.47251,634.7595 0.58602,0.03 0.32512,-0.0933 0.0227,0.65381 0.52081,0.0312 1.49922,2.05918 0.37849,0.0134 0.0227,-0.55586 0.94775,-0.89386 0.11164,0.54708 0.38655,0.004 0.0974,0.15119 0.86072,0.0568 -0.31748,0.42526 -0.0195,0.41643 0.20739,0.14721 0.22481,-0.15282 0.14815,-0.48081 1.02402,-0.009 0.29861,0.41758 -0.56542,1.83111 -1.01255,0.92738 0.005,0.005 -0.43057,0.38089 0.56069,0 -0.15851,0.29572 -0.27679,0.55596 -0.46842,1.27042 -0.87297,1.15804 -5.12427,-0.68962 -0.54412,-1.27042 -0.33576,-0.43955 1.78466,-3.48549 -1.60098,-0.63081 -0.50105,-1.10531 0.22414,-0.80456 0.6333,-0.0396 0.22414,-0.19973 1.11361,-0.0574 0.0211,-0.46849 z"
         id="path13568"
         stroke-miterlimit="4"
         transform="matrix(14.415349,0,0,14.415349,-783.96104,-9273.418)" />
      <path
         style="fill:#999999;fill-opacity:1;fill-rule:evenodd;stroke:#ffffff;stroke-width:0.10405575;stroke-linecap:square;stroke-linejoin:round;stroke-miterlimit:4"
         inkscape:connector-curvature="0"
         d="m 124.3865,634.71158 0.0227,0.65381 0.5208,0.0312 1.49923,2.05918 0.37848,0.0134 0.0227,-0.55586 0.94775,-0.89386 0.1995,-0.34977 0.0512,-0.27514 -0.2631,-0.40011 -0.46402,-0.0385 -0.43722,-1.6056 -0.16624,-0.0197 -0.78236,1.54747 -1.52945,-0.16659 z"
         id="path13575"
         stroke-miterlimit="4"
         transform="matrix(14.415349,0,0,14.415349,-783.96104,-9273.418)" />
      <path
         style="fill:#999999;fill-opacity:1;fill-rule:evenodd;stroke:#ffffff;stroke-width:0.10405575;stroke-linecap:square;stroke-linejoin:round;stroke-miterlimit:4"
         inkscape:connector-curvature="0"
         d="m 120.33893,632.53278 -0.27833,-10e-4 -0.43542,0.65096 -0.41322,0.0582 -0.15274,0.19047 -0.50853,0.0285 -0.10837,0.26792 -0.17919,-0.12164 -0.42995,5.7e-4 -0.23515,-0.22962 -0.42994,-0.14109 -0.4218,-0.11938 0.55213,0.5358 0.0917,1.04933 0.53203,-0.008 0.37266,0.32874 0.0185,0.36415 0.31441,0.37754 -0.022,0.20046 -0.32306,0.46608 0.40295,0.43066 0.0134,0.39525 0.38524,0.289 0.20817,-0.0475 0.23354,-0.61392 0.48146,-0.0296 0.39291,-0.5608 0.8512,0.0436 0.23491,-0.81016 -0.58624,-0.0449 -0.0683,-0.25845 -0.41089,-0.3395 0.16483,-1.81808 -0.16623,-0.0551 0.0145,-0.34726 -0.0951,-0.13118 z"
         id="path14335"
         stroke-miterlimit="4"
         transform="matrix(14.415349,0,0,14.415349,-783.96104,-9273.418)" />
      <path
         style="fill:#999999;fill-opacity:1;fill-rule:evenodd;stroke:#ffffff;stroke-width:0.10405575;stroke-linecap:square;stroke-linejoin:round;stroke-miterlimit:4"
         inkscape:connector-curvature="0"
         d="m 118.78316,646.43171 1.24234,0.36297 0.72618,-1.37879 -0.36538,-0.0239 -0.26537,-0.36808 0.35199,-0.0111 -0.007,-0.28693 -1.1375,0.0299 -0.0204,-1.58334 -0.30623,-0.0333 -0.54136,-0.64106 -0.48582,-0.002 -2.01349,1.33102 0.3058,0.0117 0.23716,0.0883 0.11217,0.15778 -0.11005,0.39388 0.0239,0.463 0.31005,0.45257 0.31378,0.29399 0.67949,0.36987 0.94932,0.37374 z"
         id="path14337"
         stroke-miterlimit="4"
         transform="matrix(14.415349,0,0,14.415349,-783.96104,-9273.418)" />
      <path
         style="fill:#999999;fill-opacity:1;fill-rule:evenodd;stroke:#ffffff;stroke-width:0.10405575;stroke-linecap:square;stroke-linejoin:round;stroke-miterlimit:4"
         inkscape:connector-curvature="0"
         d="m 117.89191,635.04465 0.0298,-0.35587 0.37377,0.32647 0.0189,0.36433 0.31223,0.37852 -0.0213,0.20109 -0.32174,0.46606 0.40221,0.43057 0.0142,0.3951 0.3832,0.28858 0.20818,-0.0473 0.23427,-0.61508 0.48261,-0.0284 0.3927,-0.56068 0.85166,0.0426 0.0615,-0.21292 -0.0568,0.20583 0.49919,1.10484 1.60163,0.63162 -1.78379,3.48482 0.32888,0.43052 -0.40457,1.18998 -2.20015,-0.0165 0,0.0165 -0.29573,-0.0331 -0.54178,-0.64112 -0.48497,-0.002 -2.01563,1.33191 -0.3848,0.21096 -5.23185,-2.14702 0.0831,-0.14464 0.0456,-0.9306 0.23607,-0.009 0.0489,-0.51404 0.36711,-0.009 0.20402,-0.32035 0.42864,0.0352 0.32701,-0.4029 0.7388,0.0275 0.42066,-1.24507 -0.12882,-0.76508 -0.0165,-0.78384 -0.31591,-0.37209 0.0209,-0.44695 0.6158,0.0165 0.009,-0.2596 -0.38452,-0.0163 0.10211,-0.61518 1.08607,-0.029 0.0193,-0.14128 0.13167,-0.0103 0.11286,0.17687 0.11523,-0.0256 0.35615,-0.29727 0.0335,0.56692 0.27083,0.378 1.25463,-0.0374 0.8423,-0.34346 0.0514,-0.32288 0.47255,2.6e-4 0,0 z"
         id="path14339"
         stroke-miterlimit="4"
         transform="matrix(14.415349,0,0,14.415349,-783.96104,-9273.418)" />
      <path
         style="fill:#999999;fill-opacity:1;fill-rule:evenodd;stroke:#ffffff;stroke-width:0.10405575;stroke-linecap:square;stroke-linejoin:round;stroke-miterlimit:4"
         inkscape:connector-curvature="0"
         d="m 110.25117,641.82488 0.12207,0.0444 5.0935,2.12784 -0.23304,0.19698 -0.0555,0.25245 -0.2913,0.0218 -0.003,0.22159 -0.21362,0.0773 -0.0583,-0.12241 -0.0694,0.11062 0.008,0.28818 -1.96694,0.0108 -0.0146,-1.12366 -0.36967,0.10811 -0.18102,0.23018 -0.63894,0.0159 -0.0286,-0.36137 -0.4059,-0.006 -0.58975,-0.65074 -0.002,-0.34002 -0.29012,-0.20686 0.0158,-0.90241 0.1712,0.008 z"
         id="path14348"
         stroke-miterlimit="4"
         transform="matrix(14.415349,0,0,14.415349,-783.96104,-9273.418)" />
      <path
         stroke-miterlimit="4"
         id="path12777-2"
         d="m 1089.8708,77.46649 0.2054,-7.74686 -12.8617,-2.14673 -0.3174,10.2483 12.9737,-0.35471 z"
         inkscape:connector-curvature="0"
         style="fill:#ff0000;fill-opacity:1;fill-rule:evenodd;stroke:#ffffff;stroke-width:1.5;stroke-linecap:square;stroke-linejoin:round;stroke-miterlimit:4" />
      <path
         stroke-miterlimit="4"
         id="path12785-7"
         d="m 1051.708,44.02273 -0.4219,-5.99946 2.0462,0.27281 5.3883,-5.42241 0.3752,10.19689 6.9571,3.34214 3.4785,-4.9109 3.308,0.0682 4.7063,4.19474 11.0495,-0.10231 12.5842,-6.8207 -0.3751,27.28276 -0.4093,-3.23984 -6.1727,0.0682 -0.034,6.71839 -3.9561,-0.0682 -0.2046,5.66116 0.1365,-5.72937 -12.8571,-2.14853 -0.3069,10.26514 12.9252,-0.34103 -0.1364,3.7514 -5.8999,9.68533 -0.7844,10.36746 -21.7239,0.54566 -12.55,11.45877 -21.2157,-16.40497 -0.1062,-17.91696 22.5485,-30.1382 1.6507,-4.63618 z"
         inkscape:connector-curvature="0"
         style="fill:#ff0000;fill-opacity:1;fill-rule:evenodd;stroke:#ffffff;stroke-width:1.5;stroke-linecap:square;stroke-linejoin:round;stroke-miterlimit:4" />
      <path
         stroke-miterlimit="4"
         id="path12794-6"
         d="m 1048.9381,113.15304 -0.068,5.62708 -2.4555,0.23868 -5.9681,7.05948 -0.8184,10.16278 -9.4467,6.51373 -17.495,15.14197 -9.062,2.83975 0.473,-13.03839 -4.0559,-0.0554 -0.73472,-3.22565 -4.20688,-0.0554 0.1612,-2.07641 -17.04886,0.0371 -1.65042,-3.28409 1.67083,-7.2092 -0.33734,-27.68423 3.05436,-7.73343 4.41302,-6.22376 2.60144,-2.75158 11.35745,0.26776 7.40302,5.28064 8.1578,-0.003 3.629,-3.47538 1.6998,-1.20849 0.039,8.3023 7.4757,0.14939 21.2123,16.40378 z"
         inkscape:connector-curvature="0"
         style="fill:#ff0000;fill-opacity:1;fill-rule:evenodd;stroke:#ffffff;stroke-width:1.5;stroke-linecap:square;stroke-linejoin:round;stroke-miterlimit:4" />
      <path
         stroke-miterlimit="4"
         id="path12803-1"
         d="m 947.7731,54.47855 -1.311,-4.17701 10.46899,-19.48399 -5.26699,-0.343 -3.82601,-5.306 5.07402,-0.161 -0.095,-4.136 -16.39702,0.039 -0.29399,-22.82499 31.71399,0.23799 5.87,-17.258 7.85702,18.32899 74.14599,10.00701 -4.501,18.68899 -0.034,10.06101 0.068,0 0.409,5.865 -1.637,4.60399 -22.542,30.14801 0.102,17.93799 0.034,0.034 -7.4,-0.16998 -0.034,-8.28702 -1.706,1.19302 -3.615,3.47897 -8.184,0 -7.401,-5.28598 -11.35599,-0.27301 -2.59201,2.762 -4.39899,6.24099 -1.272,3.14002 -2.255,-2.02899 -2.327,-8.935 -4.29501,-3.51801 -1.31299,-2.52401 -0.517,-4.909 -17.21802,0.061 -1.337,-7.919 -3.25899,-5.33798 2.468,-2.08503 2.12,-0.36599 -0.41501,-6.27999 -3.53198,-1.21901 z"
         inkscape:connector-curvature="0"
         style="fill:#ff0000;fill-opacity:1;fill-rule:evenodd;stroke:#ffffff;stroke-width:1.5;stroke-linecap:square;stroke-linejoin:round;stroke-miterlimit:4" />
      <path
         style="fill:#ff0000;stroke:#ff0000"
         d="m 944.19449,106.12977 -2.0253,-8.303731 70.07531,-56.505847 7.6962,4.050598 8.7088,16.202394 24.9111,9.316376 -0.4559,7.326849 -0.3542,6.242656 -35.6452,21.063115 -6.2785,14.58215 z"
         id="path3993"
         inkscape:connector-curvature="0"
         transform="translate(36.218516,-4.100209)"
         sodipodi:nodetypes="ccccccccccc" />
    </g>
  </g>
</svg>
