<?xml version="1.0" encoding="UTF-8" standalone="no"?>
<!-- Created with Inkscape (http://www.inkscape.org/) -->

<svg
   xmlns:dc="http://purl.org/dc/elements/1.1/"
   xmlns:cc="http://creativecommons.org/ns#"
   xmlns:rdf="http://www.w3.org/1999/02/22-rdf-syntax-ns#"
   xmlns:svg="http://www.w3.org/2000/svg"
   xmlns="http://www.w3.org/2000/svg"
   xmlns:sodipodi="http://sodipodi.sourceforge.net/DTD/sodipodi-0.dtd"
   xmlns:inkscape="http://www.inkscape.org/namespaces/inkscape"
   width="64px"
   height="64px"
   id="svg6492"
   version="1.1"
   inkscape:version="0.48.2 r9819"
   sodipodi:docname="New document 12">
  <defs
     id="defs6494" />
  <sodipodi:namedview
     id="base"
     pagecolor="#ffffff"
     bordercolor="#666666"
     borderopacity="1.0"
     inkscape:pageopacity="0.0"
     inkscape:pageshadow="2"
     inkscape:zoom="5.5"
     inkscape:cx="29.272727"
     inkscape:cy="32"
     inkscape:current-layer="layer1"
     showgrid="true"
     inkscape:document-units="px"
     inkscape:grid-bbox="true"
     inkscape:window-width="1280"
     inkscape:window-height="972"
     inkscape:window-x="1358"
     inkscape:window-y="-8"
     inkscape:window-maximized="1" />
  <metadata
     id="metadata6497">
    <rdf:RDF>
      <cc:Work
         rdf:about="">
        <dc:format>image/svg+xml</dc:format>
        <dc:type
           rdf:resource="http://purl.org/dc/dcmitype/StillImage" />
        <dc:title></dc:title>
      </cc:Work>
    </rdf:RDF>
  </metadata>
  <g
     id="layer1"
     inkscape:label="Layer 1"
     inkscape:groupmode="layer">
    <g
       transform="translate(-210.46765,-524.46124)"
       id="g6439">
      <g
         transform="translate(21.55848,89.924079)"
         id="g6406">
        <g
           id="g6360">
          <path
             sodipodi:type="arc"
             style="fill:#cccccc;fill-opacity:0.19607843;stroke:none"
             id="path2985-9"
             sodipodi:cx="145.71428"
             sodipodi:cy="323.79074"
             sodipodi:rx="85.714287"
             sodipodi:ry="85.714287"
             d="m 231.42857,323.79074 c 0,47.33869 -38.3756,85.71429 -85.71429,85.71429 -47.338694,0 -85.714288,-38.3756 -85.714288,-85.71429 0,-47.33869 38.375594,-85.71429 85.714288,-85.71429 47.33869,0 85.71429,38.3756 85.71429,85.71429 z"
             transform="matrix(0.2242934,0,0,0.2242934,188.38092,402.68694)" />
          <path
             transform="matrix(0.2242934,0,0,0.2242934,176.0198,385.57342)"
             sodipodi:type="arc"
             style="fill:#cccccc;fill-opacity:0.19607843;stroke:none"
             id="path2985-1-4"
             sodipodi:cx="145.71428"
             sodipodi:cy="323.79074"
             sodipodi:rx="85.714287"
             sodipodi:ry="85.714287"
             d="m 231.42857,323.79074 c 0,47.33869 -38.3756,85.71429 -85.71429,85.71429 -47.338694,0 -85.714288,-38.3756 -85.714288,-85.71429 0,-47.33869 38.375594,-85.71429 85.714288,-85.71429 47.33869,0 85.71429,38.3756 85.71429,85.71429 z" />
          <path
             transform="matrix(0.2242934,0,0,0.2242934,201.12092,385.82039)"
             sodipodi:type="arc"
             style="fill:#cccccc;fill-opacity:0.19607843;stroke:none"
             id="path2985-7-8"
             sodipodi:cx="145.71428"
             sodipodi:cy="323.79074"
             sodipodi:rx="85.714287"
             sodipodi:ry="85.714287"
             d="m 231.42857,323.79074 c 0,47.33869 -38.3756,85.71429 -85.71429,85.71429 -47.338694,0 -85.714288,-38.3756 -85.714288,-85.71429 0,-47.33869 38.375594,-85.71429 85.714288,-85.71429 47.33869,0 85.71429,38.3756 85.71429,85.71429 z" />
        </g>
        <path
           inkscape:connector-curvature="0"
           id="path6365"
           d="m 202.62012,439.87415 -12.71146,22.01688"
           style="fill:none;stroke:#000000;stroke-width:1px;stroke-linecap:butt;stroke-linejoin:miter;stroke-opacity:0.19607843" />
        <path
           inkscape:connector-curvature="0"
           id="path6369"
           d="m 209.15332,438.87602 -16.97237,29.39701"
           style="fill:none;stroke:#000000;stroke-width:1px;stroke-linecap:butt;stroke-linejoin:miter;stroke-opacity:0.19607843" />
        <path
           inkscape:connector-curvature="0"
           id="path6371"
           d="m 214.86988,440.05563 -18.74981,32.47562"
           style="fill:none;stroke:#000000;stroke-width:1px;stroke-linecap:butt;stroke-linejoin:miter;stroke-opacity:0.19607843" />
        <path
           inkscape:connector-curvature="0"
           id="path6373"
           d="m 220.042,442.68706 -19.16541,33.19545"
           style="fill:none;stroke:#000000;stroke-width:1px;stroke-linecap:butt;stroke-linejoin:miter;stroke-opacity:0.19607843" />
        <path
           inkscape:connector-curvature="0"
           id="path6375"
           d="m 228.6622,439.78341 -25.22037,43.68296"
           style="fill:none;stroke:#000000;stroke-width:1px;stroke-linecap:butt;stroke-linejoin:miter;stroke-opacity:0.19607843" />
        <path
           inkscape:connector-curvature="0"
           id="path6377"
           d="m 234.83245,439.23898 -28.33251,49.07334"
           style="fill:none;stroke:#000000;stroke-width:1px;stroke-linecap:butt;stroke-linejoin:miter;stroke-opacity:0.19607843" />
        <path
           inkscape:connector-curvature="0"
           id="path6379"
           d="m 239.64161,440.14637 -29.51895,51.12832"
           style="fill:none;stroke:#000000;stroke-width:1px;stroke-linecap:butt;stroke-linejoin:miter;stroke-opacity:0.19607843" />
        <path
           inkscape:connector-curvature="0"
           id="path6381"
           d="m 244.2693,442.14262 -29.42539,50.96627"
           style="fill:none;stroke:#000000;stroke-width:1px;stroke-linecap:butt;stroke-linejoin:miter;stroke-opacity:0.19607843" />
        <path
           inkscape:connector-curvature="0"
           id="path6383"
           d="m 247.44517,445.04627 -28.50791,49.37715"
           style="fill:none;stroke:#000000;stroke-width:1px;stroke-linecap:butt;stroke-linejoin:miter;stroke-opacity:0.19607843" />
        <path
           inkscape:connector-curvature="0"
           id="path6385"
           d="m 250.53029,449.12952 -25.78423,44.6596"
           style="fill:none;stroke:#000000;stroke-width:1px;stroke-linecap:butt;stroke-linejoin:miter;stroke-opacity:0.19607843" />
        <path
           inkscape:connector-curvature="0"
           id="path6387"
           d="m 252.70803,455.1183 -20.54548,35.58581"
           style="fill:none;stroke:#000000;stroke-width:1px;stroke-linecap:butt;stroke-linejoin:miter;stroke-opacity:0.19607843" />
      </g>
      <path
         transform="matrix(0.2242934,0,0,0.2242934,209.57231,492.63674)"
         d="m 231.42857,323.79074 c 0,47.33869 -38.3756,85.71429 -85.71429,85.71429 -47.338694,0 -85.714288,-38.3756 -85.714288,-85.71429 0,-47.33869 38.375594,-85.71429 85.714288,-85.71429 47.33869,0 85.71429,38.3756 85.71429,85.71429 z"
         sodipodi:ry="85.714287"
         sodipodi:rx="85.714287"
         sodipodi:cy="323.79074"
         sodipodi:cx="145.71428"
         id="path2985"
         style="fill:#000080;fill-opacity:0.19607843;stroke:#552b2b;stroke-width:4.45844603;stroke-miterlimit:4;stroke-opacity:0.19607843;stroke-dasharray:none;stroke-dashoffset:0"
         sodipodi:type="arc" />
      <path
         d="m 231.42857,323.79074 c 0,47.33869 -38.3756,85.71429 -85.71429,85.71429 -47.338694,0 -85.714288,-38.3756 -85.714288,-85.71429 0,-47.33869 38.375594,-85.71429 85.714288,-85.71429 47.33869,0 85.71429,38.3756 85.71429,85.71429 z"
         sodipodi:ry="85.714287"
         sodipodi:rx="85.714287"
         sodipodi:cy="323.79074"
         sodipodi:cx="145.71428"
         id="path2985-1"
         style="fill:#ff0000;fill-opacity:0.19607843;stroke:#552b2b;stroke-width:4.45844603;stroke-miterlimit:4;stroke-opacity:0.19607843;stroke-dasharray:none;stroke-dashoffset:0"
         sodipodi:type="arc"
         transform="matrix(0.2242934,0,0,0.2242934,197.21119,475.52322)" />
      <path
         d="m 231.42857,323.79074 c 0,47.33869 -38.3756,85.71429 -85.71429,85.71429 -47.338694,0 -85.714288,-38.3756 -85.714288,-85.71429 0,-47.33869 38.375594,-85.71429 85.714288,-85.71429 47.33869,0 85.71429,38.3756 85.71429,85.71429 z"
         sodipodi:ry="85.714287"
         sodipodi:rx="85.714287"
         sodipodi:cy="323.79074"
         sodipodi:cx="145.71428"
         id="path2985-7"
         style="fill:#008000;fill-opacity:0.19607843;stroke:#552b2b;stroke-width:4.45844603;stroke-miterlimit:4;stroke-opacity:0.19607843;stroke-dasharray:none;stroke-dashoffset:0"
         sodipodi:type="arc"
         transform="matrix(0.2242934,0,0,0.2242934,222.31231,475.77019)" />
      <path
         sodipodi:nodetypes="cccc"
         inkscape:connector-curvature="0"
         id="path3788"
         d="m 235.82176,547.16689 c 4.28564,-1.57403 8.76688,-1.45291 13.41758,0.13692 -0.48557,9.91154 -3.80369,12.55856 -6.98262,15.56256 -3.94769,-4.08143 -6.84093,-8.83654 -6.43496,-15.69948 z"
         style="fill:#ffcc00;stroke:#000000;stroke-width:1;stroke-linecap:butt;stroke-linejoin:miter;stroke-miterlimit:4;stroke-opacity:1;stroke-dasharray:2, 2;stroke-dashoffset:0;marker-start:none;marker-mid:none;marker-end:none" />
    </g>
  </g>
</svg>
