<?xml version="1.0" encoding="UTF-8" standalone="no"?>
<!-- Created with sK1/UniConvertor (http://sk1project.org/) -->

<svg
   xmlns:dc="http://purl.org/dc/elements/1.1/"
   xmlns:cc="http://creativecommons.org/ns#"
   xmlns:rdf="http://www.w3.org/1999/02/22-rdf-syntax-ns#"
   xmlns:svg="http://www.w3.org/2000/svg"
   xmlns="http://www.w3.org/2000/svg"
   xmlns:sodipodi="http://sodipodi.sourceforge.net/DTD/sodipodi-0.dtd"
   xmlns:inkscape="http://www.inkscape.org/namespaces/inkscape"
   width="160"
   height="140"
   viewBox="0 0 128.00001 111.99999"
   id="svg2"
   version="1.1"
   inkscape:version="0.48.1 "
   sodipodi:docname="terralib.cdr"
   style="fill-rule:evenodd">
  <metadata
     id="metadata32">
    <rdf:RDF>
      <cc:Work
         rdf:about="">
        <dc:format>image/svg+xml</dc:format>
        <dc:type
           rdf:resource="http://purl.org/dc/dcmitype/StillImage" />
        <dc:title></dc:title>
      </cc:Work>
    </rdf:RDF>
  </metadata>
  <defs
     id="defs30" />
  <sodipodi:namedview
     pagecolor="#ffffff"
     bordercolor="#666666"
     borderopacity="1"
     objecttolerance="10"
     gridtolerance="10"
     guidetolerance="10"
     inkscape:pageopacity="0"
     inkscape:pageshadow="2"
     inkscape:window-width="1366"
     inkscape:window-height="716"
     id="namedview28"
     showgrid="false"
     inkscape:zoom="0.9846378"
     inkscape:cx="104.87462"
     inkscape:cy="65.094591"
     inkscape:window-x="-8"
     inkscape:window-y="-8"
     inkscape:window-maximized="1"
     inkscape:current-layer="svg2" />
  <g
     id="g4"
     transform="translate(-195.4622,-295.47047)">
    <g
       id="g6">
      <g
         id="g8">
        <path
           style="fill:#f0a044;stroke:none"
           d="m 226.951,337.214 c 7.999,0.193 16.425,-0.753 24.827,-2.919 2.212,-0.57 4.378,-1.228 6.507,-1.941 1.989,-8.108 5.236,-16.39 9.7,-24.377 1.61,-2.882 3.331,-5.636 5.14,-8.255 -1.463,-0.344 -2.954,-0.63 -4.472,-0.857 -5.968,2.723 -11.849,6.211 -17.412,10.424 -10.538,7.981 -18.936,17.75 -24.29,27.925 z m 67.503,-26.692 c -8.086,9.849 -20.44,18.011 -34.92,23.002 -1.166,4.96 -1.847,9.841 -2.01,14.531 1.848,0.068 3.71,0.106 5.584,0.111 15.739,0.044 30.678,-2.16 42.908,-6.055 0.389,-1.974 0.599,-3.996 0.599,-6.059 0,-9.841 -4.61,-18.802 -12.161,-25.53 z m -36.951,39.033 c -0.061,5.282 0.523,10.308 1.822,14.895 0.986,3.487 2.367,6.607 4.095,9.32 20.929,-1.148 38.052,-13.623 42.221,-29.98 -12.238,3.787 -27.018,5.919 -42.537,5.876 -1.879,-0.005 -3.748,-0.043 -5.601,-0.111 z m -7.168,-41.462 c 4.98,-3.771 10.218,-6.966 15.546,-9.571 -1.842,-0.181 -3.713,-0.286 -5.614,-0.286 -25.492,0 -46.17,16.793 -46.341,37.559 3.643,0.735 7.446,1.206 11.374,1.38 5.441,-10.609 14.103,-20.802 25.035,-29.082 z m 9.635,23.682 c 13.835,-4.929 25.612,-12.789 33.346,-22.227 -5.137,-4.264 -11.503,-7.534 -18.631,-9.436 -1.901,2.719 -3.707,5.584 -5.391,8.596 -4.228,7.566 -7.348,15.392 -9.324,23.067 z m -3.963,17.715 c -11.637,-0.531 -22.672,-2.278 -32.31,-5.01 -1.386,3.694 -2.376,7.397 -2.88,11.046 -0.015,0.11 -0.024,0.217 -0.038,0.326 8.159,10.808 22.789,18.015 39.488,18.015 0.478,0 0.951,-0.017 1.424,-0.029 -1.59,-2.657 -2.871,-5.662 -3.809,-8.98 -1.341,-4.736 -1.943,-9.922 -1.875,-15.368 z m -41.623,-8.121 c 0.786,4.56 2.561,8.859 5.154,12.746 0.549,-3.331 1.463,-6.695 2.717,-10.052 -2.749,-0.82 -5.383,-1.717 -7.871,-2.694 z m 11.833,-2.675 c -0.723,1.459 -1.4,2.923 -1.994,4.392 9.477,2.67 20.339,4.38 31.809,4.904 0.158,-4.505 0.769,-9.176 1.832,-13.924 -1.877,0.608 -3.774,1.182 -5.713,1.681 -8.775,2.262 -17.587,3.219 -25.934,2.947 z m -1.636,-0.067 c -3.654,-0.192 -7.209,-0.624 -10.623,-1.295 0.031,0.784 0.086,1.563 0.176,2.334 2.711,1.096 5.599,2.1 8.641,3.002 0.543,-1.351 1.158,-2.698 1.806,-4.041 z"
           id="path10"
           inkscape:connector-curvature="0" />
        <path
           style="fill:#000000;stroke:none"
           d="m 203.775,405.48 0,-19.26 -5.313,0 0,-4.74 15.938,0 0,4.74 -5.313,0 0,19.26 -5.312,0 z"
           id="path12"
           inkscape:connector-curvature="0" />
        <path
           style="fill:#000000;stroke:none"
           d="m 229.822,397.48 0,-5.336 c 0,-1.46 -0.522,-2.716 -1.564,-3.77 -1.043,-1.054 -2.289,-1.581 -3.742,-1.581 l -5.323,0 c -1.443,0 -2.689,0.524 -3.736,1.572 -1.049,1.048 -1.572,2.307 -1.572,3.776 l 0,8.006 c 0,1.46 0.521,2.714 1.564,3.762 1.043,1.048 2.291,1.571 3.744,1.571 l 9.728,0 c 0,-0.871 0,-2.794 0,-3.687 l -7.072,0 c -0.734,0 -1.359,-0.262 -1.877,-0.786 -0.517,-0.525 -0.775,-1.146 -0.775,-1.863 l 0,-1.664 10.625,0 z m -10.625,-5.336 c 0,-0.726 0.262,-1.352 0.785,-1.876 0.524,-0.525 1.147,-0.788 1.871,-0.788 0.725,0 1.348,0.263 1.871,0.788 0.524,0.524 0.786,1.15 0.786,1.876 l 0,2.649 -5.313,0 0,-2.649 z"
           id="path14"
           inkscape:connector-curvature="0" />
        <path
           style="fill:#000000;stroke:none"
           d="m 238.491,405.48 -5.313,0 0,-18.687 5.313,0 0,5.312 c 0.209,-1.77 0.757,-3.098 1.648,-3.984 0.891,-0.885 2.123,-1.328 3.695,-1.328 l 2.656,0 0,5.312 -5.328,0 c -0.728,0 -1.357,0.262 -1.882,0.785 -0.526,0.523 -0.789,1.15 -0.789,1.881 l 0,10.709 z"
           id="path16"
           inkscape:connector-curvature="0" />
        <path
           style="fill:#000000;stroke:none"
           d="m 254.311,405.48 -5.313,0 0,-18.687 5.313,0 0,5.312 c 0.208,-1.77 0.757,-3.098 1.649,-3.984 0.891,-0.885 2.121,-1.328 3.695,-1.328 l 2.656,0 0,5.312 -5.328,0 c -0.73,0 -1.358,0.262 -1.884,0.785 -0.526,0.523 -0.788,1.15 -0.788,1.881 l 0,10.709 z"
           id="path18"
           inkscape:connector-curvature="0" />
        <path
           style="fill:#000000;stroke:none"
           d="m 276.45,388.373 c -1.043,-1.053 -2.289,-1.58 -3.742,-1.58 l -8.288,0 c 0,0.895 0,1.792 0,2.687 l 5.632,0 c 0.722,0 1.345,0.263 1.867,0.788 0.521,0.524 0.783,1.15 0.783,1.876 l 0,2.649 -5.32,0 c -1.442,0 -2.686,0.524 -3.733,1.573 -1.049,1.049 -1.572,2.303 -1.572,3.763 l 0,0.015 c 0,1.462 0.52,2.715 1.559,3.764 1.039,1.049 2.281,1.572 3.728,1.572 l 2.651,0 c 1.582,0 2.478,-0.895 2.687,-2.687 l 0,2.687 5.313,0 0,-13.339 c 0,-1.459 -0.522,-2.715 -1.565,-3.768 z m -3.748,11.771 c 0,0.717 -0.26,1.338 -0.777,1.863 -0.518,0.524 -1.145,0.786 -1.879,0.786 -0.735,0 -1.362,-0.262 -1.879,-0.786 -0.518,-0.525 -0.777,-1.146 -0.777,-1.863 l 0,-0.015 c 0,-0.727 0.261,-1.35 0.785,-1.869 0.523,-0.52 1.146,-0.78 1.871,-0.78 l 2.656,0 0,2.664 z"
           id="path20"
           inkscape:connector-curvature="0" />
        <path
           style="fill:#000000;stroke:none"
           d="m 282.126,405.48 0,-24 5.312,0 0,18.318 8,0 0,5.682 -13.312,0 z"
           id="path22"
           inkscape:connector-curvature="0" />
        <path
           style="fill:#000000;stroke:none"
           d="m 298.007,384.168 0,-2.688 5.312,0 0,2.688 -5.312,0 z m 0,21.312 0,-18.687 5.312,0 0,18.687 -5.312,0 z"
           id="path24"
           inkscape:connector-curvature="0" />
        <path
           style="fill:#000000;stroke:none"
           d="m 306.63,405.48 0,-24 5.312,0 0,8 c 0.104,-0.9 0.379,-1.574 0.825,-2.019 0.445,-0.445 1.058,-0.668 1.836,-0.668 l 2.66,0 c 1.451,0 2.699,0.527 3.742,1.58 1.041,1.053 1.562,2.309 1.562,3.768 l 0,8.006 c 0,1.449 -0.521,2.702 -1.564,3.754 -1.043,1.053 -2.289,1.579 -3.742,1.579 l -10.631,0 z m 5.312,-2.687 2.657,0 c 0.734,0 1.361,-0.263 1.878,-0.788 0.518,-0.526 0.778,-1.147 0.778,-1.865 l 0,-7.991 c 0,-0.728 -0.262,-1.355 -0.785,-1.881 -0.524,-0.525 -1.147,-0.788 -1.871,-0.788 -0.725,0 -1.348,0.263 -1.872,0.788 -0.523,0.526 -0.785,1.153 -0.785,1.881 l 0,10.644 z"
           id="path26"
           inkscape:connector-curvature="0" />
      </g>
    </g>
  </g>
</svg>
