<?xml version="1.0" encoding="UTF-8" standalone="no"?>
<!-- Created with Inkscape (http://www.inkscape.org/) -->

<svg
   xmlns:dc="http://purl.org/dc/elements/1.1/"
   xmlns:cc="http://creativecommons.org/ns#"
   xmlns:rdf="http://www.w3.org/1999/02/22-rdf-syntax-ns#"
   xmlns:svg="http://www.w3.org/2000/svg"
   xmlns="http://www.w3.org/2000/svg"
   xmlns:sodipodi="http://sodipodi.sourceforge.net/DTD/sodipodi-0.dtd"
   xmlns:inkscape="http://www.inkscape.org/namespaces/inkscape"
   width="389.74219"
   height="342.548"
   id="svg3472"
   version="1.1"
   inkscape:version="0.48.2 r9819"
   sodipodi:docname="New document 3">
  <defs
     id="defs3474" />
  <sodipodi:namedview
     id="base"
     pagecolor="#ffffff"
     bordercolor="#666666"
     borderopacity="1.0"
     inkscape:pageopacity="0.0"
     inkscape:pageshadow="2"
     inkscape:zoom="0.35"
     inkscape:cx="207.01393"
     inkscape:cy="128.41685"
     inkscape:document-units="px"
     inkscape:current-layer="layer1"
     showgrid="false"
     fit-margin-top="0"
     fit-margin-left="0"
     fit-margin-right="0"
     fit-margin-bottom="0"
     inkscape:window-width="1920"
     inkscape:window-height="1019"
     inkscape:window-x="-9"
     inkscape:window-y="1191"
     inkscape:window-maximized="1" />
  <metadata
     id="metadata3477">
    <rdf:RDF>
      <cc:Work
         rdf:about="">
        <dc:format>image/svg+xml</dc:format>
        <dc:type
           rdf:resource="http://purl.org/dc/dcmitype/StillImage" />
        <dc:title></dc:title>
      </cc:Work>
    </rdf:RDF>
  </metadata>
  <g
     inkscape:label="Layer 1"
     inkscape:groupmode="layer"
     id="layer1"
     transform="translate(-167.98607,-318.23104)">
    <g
       id="g5891"
       transform="translate(1355.0941,140.02891)">
      <text
         sodipodi:linespacing="125%"
         id="text2985-3"
         y="520.75012"
         x="-1187.108"
         style="font-size:72px;font-style:normal;font-variant:normal;font-weight:bold;font-stretch:normal;line-height:125%;letter-spacing:0px;word-spacing:0px;fill:#000000;fill-opacity:1;stroke:none;font-family:Chicago;-inkscape-font-specification:Chicago Bold"
         xml:space="preserve"><tspan
           id="tspan2999-4"
           style="font-style:normal;font-weight:bold;-inkscape-font-specification:Chicago Bold"
           y="520.75012"
           x="-1187.108"
           sodipodi:role="line">TerraView</tspan></text>
      <path
         inkscape:connector-curvature="0"
         id="path10-9"
         d="m -1110.0392,316.01013 c 28.2807,0.68236 58.0711,-2.66226 87.7767,-10.32022 7.8206,-2.01526 15.4785,-4.34164 23.00571,-6.86247 7.0322,-28.6661 18.512,-57.94738 34.2947,-86.18568 5.6922,-10.18941 11.7768,-19.92627 18.1726,-29.18583 -5.1725,-1.21622 -10.444,-2.22738 -15.8109,-3.02995 -21.1,9.62726 -41.89251,21.95919 -61.56071,36.85439 -37.2574,28.21709 -66.9489,62.75571 -85.8781,98.72976 z m 238.65921,-94.37044 c -28.5884,34.82146 -72.2664,63.67848 -123.4609,81.32432 -4.1225,17.53624 -6.53021,34.79318 -7.10651,51.37483 6.53371,0.24041 13.11691,0.37477 19.74261,0.39244 55.6457,0.15557 108.463,-7.63675 151.7026,-21.40765 1.3753,-6.97914 2.1178,-14.12799 2.1178,-21.42179 0,-34.79318 -16.2988,-66.47509 -42.9956,-90.26215 z m -130.64161,138.00245 c -0.2157,18.67468 1.8491,36.44427 6.44171,52.66176 3.4861,12.3284 8.3686,23.35926 14.4781,32.95116 73.9952,-4.05879 134.5341,-48.16456 149.2738,-105.99527 -43.2679,13.38906 -95.523,20.92682 -150.3911,20.77479 -6.6432,-0.0177 -13.2512,-0.15203 -19.80251,-0.39244 z m -25.3427,-146.59026 c 17.607,-13.3325 36.12611,-24.62852 54.96341,-33.83859 -6.5125,-0.63993 -13.1274,-1.01116 -19.8485,-1.01116 -90.12781,0 -163.23551,59.3722 -163.84011,132.79108 12.8799,2.59861 26.3256,4.26385 40.2131,4.87903 19.2369,-37.50847 49.8617,-73.54615 88.5121,-102.82036 z m 34.06491,83.72848 c 48.9142,-17.42664 90.5521,-45.21592 117.8959,-78.58428 -18.162,-15.07551 -40.6692,-26.63671 -65.8705,-33.36129 -6.721,9.61311 -13.1062,19.74241 -19.06,30.39144 -14.9483,26.74984 -25.9791,54.41892 -32.9654,81.55413 z m -14.01141,62.63197 c -41.1429,-1.87737 -80.1576,-8.05395 -114.233,-17.71302 -4.9003,13.06026 -8.4004,26.15234 -10.1824,39.05349 -0.053,0.38891 -0.085,0.76721 -0.1343,1.15259 28.8464,38.21204 80.5713,63.69262 139.61111,63.69262 1.69,0 3.3623,-0.0601 5.0346,-0.10253 -5.6215,-9.39391 -10.1505,-20.01819 -13.46681,-31.74908 -4.7412,-16.74429 -6.8696,-35.07956 -6.6292,-54.33407 z m -147.1594,-28.71206 c 2.7789,16.12203 9.0545,31.32128 18.2221,45.0639 1.941,-11.77686 5.1725,-23.67039 9.606,-35.53918 -9.7191,-2.89914 -19.0317,-6.07051 -27.8281,-9.52472 z m 41.8359,-9.45755 c -2.5562,5.15834 -4.9497,10.33436 -7.0498,15.52806 33.5062,9.43987 71.9092,15.48563 112.4617,17.33825 0.5586,-15.92758 2.7189,-32.44205 6.4771,-49.22876 -6.6362,2.1496 -13.3431,4.179 -20.1985,5.94323 -31.0243,7.99738 -62.1794,11.38088 -91.6905,10.41922 z m -5.7841,-0.23688 c -12.9188,-0.67883 -25.4877,-2.20618 -37.558,-4.57852 0.1096,2.77186 0.3041,5.52604 0.6223,8.25193 9.5848,3.87495 19.7954,7.42462 30.5505,10.61367 1.9198,-4.7765 4.0942,-9.53886 6.3852,-14.28708 z"
         style="fill:#000080;fill-rule:evenodd;stroke:none" />
    </g>
  </g>
</svg>
