<?xml version="1.0" encoding="UTF-8" standalone="no"?>
<!-- Created with Inkscape (http://www.inkscape.org/) -->

<svg
   xmlns:dc="http://purl.org/dc/elements/1.1/"
   xmlns:cc="http://creativecommons.org/ns#"
   xmlns:rdf="http://www.w3.org/1999/02/22-rdf-syntax-ns#"
   xmlns:svg="http://www.w3.org/2000/svg"
   xmlns="http://www.w3.org/2000/svg"
   xmlns:xlink="http://www.w3.org/1999/xlink"
   xmlns:sodipodi="http://sodipodi.sourceforge.net/DTD/sodipodi-0.dtd"
   xmlns:inkscape="http://www.inkscape.org/namespaces/inkscape"
   width="150"
   height="57"
   id="svg4274"
   version="1.1"
   inkscape:version="0.48.1 "
   sodipodi:docname="New document 10">
  <defs
     id="defs4276">
    <linearGradient
       inkscape:collect="always"
       xlink:href="#linearGradient4011"
       id="linearGradient4017"
       x1="263.5"
       y1="489.36218"
       x2="414.81909"
       y2="488.86218"
       gradientUnits="userSpaceOnUse"
       gradientTransform="matrix(1.0066305,0,0,1.0176395,-1.7807193,-9.1362179)" />
    <linearGradient
       inkscape:collect="always"
       id="linearGradient4011">
      <stop
         style="stop-color:#f0a044;stop-opacity:1;"
         offset="0"
         id="stop4013" />
      <stop
         style="stop-color:#f0a044;stop-opacity:0;"
         offset="1"
         id="stop4015" />
    </linearGradient>
    <linearGradient
       y2="488.86218"
       x2="414.81909"
       y1="489.36218"
       x1="263.5"
       gradientTransform="matrix(1.0066305,0,0,1.0176395,188.93956,556.64353)"
       gradientUnits="userSpaceOnUse"
       id="linearGradient4272"
       xlink:href="#linearGradient4011"
       inkscape:collect="always" />
    <linearGradient
       inkscape:collect="always"
       xlink:href="#linearGradient4011"
       id="linearGradient4341"
       gradientUnits="userSpaceOnUse"
       gradientTransform="matrix(1.0066305,0,0,1.0176395,188.93956,556.64353)"
       x1="263.5"
       y1="489.36218"
       x2="414.81909"
       y2="488.86218" />
  </defs>
  <sodipodi:namedview
     id="base"
     pagecolor="#ffffff"
     bordercolor="#666666"
     borderopacity="1.0"
     inkscape:pageopacity="0.0"
     inkscape:pageshadow="2"
     inkscape:zoom="2.2222892"
     inkscape:cx="82.857143"
     inkscape:cy="35.714286"
     inkscape:document-units="px"
     inkscape:current-layer="layer1"
     showgrid="false"
     inkscape:window-width="1366"
     inkscape:window-height="716"
     inkscape:window-x="-8"
     inkscape:window-y="-8"
     inkscape:window-maximized="1" />
  <metadata
     id="metadata4279">
    <rdf:RDF>
      <cc:Work
         rdf:about="">
        <dc:format>image/svg+xml</dc:format>
        <dc:type
           rdf:resource="http://purl.org/dc/dcmitype/StillImage" />
        <dc:title></dc:title>
      </cc:Work>
    </rdf:RDF>
  </metadata>
  <g
     inkscape:label="Layer 1"
     inkscape:groupmode="layer"
     id="layer1"
     transform="translate(0,-995.36218)">
    <g
       id="g4325"
       transform="translate(-459.42857,-31.428571)">
      <rect
         inkscape:export-ydpi="90"
         inkscape:export-xdpi="90"
         inkscape:export-filename="C:\Users\Felipe\Desktop\g4122.png"
         y="1026.7194"
         x="459.28571"
         height="57"
         width="150"
         id="rect2985"
         style="opacity:0.71681417;fill:url(#linearGradient4341);fill-opacity:1;stroke:none" />
      <g
         inkscape:export-ydpi="90"
         inkscape:export-xdpi="90"
         transform="matrix(1.2042203,0,0,1.2042203,152.61115,625.78201)"
         id="g4122">
        <g
           id="g3151"
           transform="matrix(0.3211732,0,0,0.32116667,174.02245,248.70641)">
          <path
             inkscape:connector-curvature="0"
             style="fill:#000000;stroke:none"
             d="m 307.07562,400.38968 0,-24.075 -6.64125,0 0,-5.925 19.9225,0 0,5.925 -6.64125,0 0,24.075 -6.64,0 z"
             id="path2997-9" />
          <path
             inkscape:connector-curvature="0"
             style="fill:#000000;stroke:none"
             d="m 339.63437,390.38968 0,-6.67 c 0,-1.825 -0.6525,-3.395 -1.955,-4.7125 -1.30375,-1.3175 -2.86125,-1.97625 -4.6775,-1.97625 l -6.65375,0 c -1.80375,0 -3.36125,0.655 -4.67,1.965 -1.31125,1.31 -1.965,2.88375 -1.965,4.72 l 0,10.0075 c 0,1.825 0.65125,3.3925 1.955,4.7025 1.30375,1.31 2.86375,1.96375 4.68,1.96375 l 12.16,0 c 0,-1.08875 0,-3.4925 0,-4.60875 l -8.84,0 c -0.9175,0 -1.69875,-0.3275 -2.34625,-0.9825 -0.64625,-0.65625 -0.96875,-1.4325 -0.96875,-2.32875 l 0,-2.08 13.28125,0 z m -13.28125,-6.67 c 0,-0.9075 0.3275,-1.69 0.98125,-2.345 0.655,-0.65625 1.43375,-0.985 2.33875,-0.985 0.90625,0 1.685,0.32875 2.33875,0.985 0.655,0.655 0.9825,1.4375 0.9825,2.345 l 0,3.31125 -6.64125,0 0,-3.31125 z"
             id="path2999-4" />
          <path
             inkscape:connector-curvature="0"
             style="fill:#000000;stroke:none"
             d="m 350.47062,400.38968 -6.64125,0 0,-23.35875 6.64125,0 0,6.64 c 0.26125,-2.2125 0.94625,-3.8725 2.06,-4.98 1.11375,-1.10625 2.65375,-1.66 4.61875,-1.66 l 3.32,0 0,6.64 -6.66,0 c -0.91,0 -1.69625,0.3275 -2.3525,0.98125 -0.6575,0.65375 -0.98625,1.4375 -0.98625,2.35125 l 0,13.38625 z"
             id="path3001-8" />
          <path
             inkscape:connector-curvature="0"
             style="fill:#000000;stroke:none"
             d="m 370.24562,400.38968 -6.64125,0 0,-23.35875 6.64125,0 0,6.64 c 0.26,-2.2125 0.94625,-3.8725 2.06125,-4.98 1.11375,-1.10625 2.65125,-1.66 4.61875,-1.66 l 3.32,0 0,6.64 -6.66,0 c -0.9125,0 -1.6975,0.3275 -2.355,0.98125 -0.6575,0.65375 -0.985,1.4375 -0.985,2.35125 l 0,13.38625 z"
             id="path3003-8" />
          <path
             inkscape:connector-curvature="0"
             style="fill:#000000;stroke:none"
             d="m 397.91937,379.00593 c -1.30375,-1.31625 -2.86125,-1.975 -4.6775,-1.975 l -10.36,0 c 0,1.11875 0,2.24 0,3.35875 l 7.04,0 c 0.9025,0 1.68125,0.32875 2.33375,0.985 0.65125,0.655 0.97875,1.4375 0.97875,2.345 l 0,3.31125 -6.65,0 c -1.8025,0 -3.3575,0.655 -4.66625,1.96625 -1.31125,1.31125 -1.965,2.87875 -1.965,4.70375 l 0,0.0187 c 0,1.8275 0.65,3.39375 1.94875,4.705 1.29875,1.31125 2.85125,1.965 4.66,1.965 l 3.31375,0 c 1.9775,0 3.0975,-1.11875 3.35875,-3.35875 l 0,3.35875 6.64125,0 0,-16.67375 c 0,-1.82375 -0.6525,-3.39375 -1.95625,-4.71 z m -4.685,14.71375 c 0,0.89625 -0.325,1.6725 -0.97125,2.32875 -0.6475,0.655 -1.43125,0.9825 -2.34875,0.9825 -0.91875,0 -1.7025,-0.3275 -2.34875,-0.9825 -0.6475,-0.65625 -0.97125,-1.4325 -0.97125,-2.32875 l 0,-0.0187 c 0,-0.90875 0.32625,-1.6875 0.98125,-2.33625 0.65375,-0.65 1.4325,-0.975 2.33875,-0.975 l 3.32,0 0,3.33 z"
             id="path3005-2" />
          <path
             inkscape:connector-curvature="0"
             style="fill:#000000;stroke:none"
             d="m 405.01437,400.38968 0,-30 6.64,0 0,22.8975 10,0 0,7.1025 -16.64,0 z"
             id="path3007-4" />
          <path
             inkscape:connector-curvature="0"
             style="fill:#000000;stroke:none"
             d="m 424.86562,373.74968 0,-3.36 6.64,0 0,3.36 -6.64,0 z m 0,26.64 0,-23.35875 6.64,0 0,23.35875 -6.64,0 z"
             id="path3009-5" />
          <path
             inkscape:connector-curvature="0"
             style="fill:#000000;stroke:none"
             d="m 435.64437,400.38968 0,-30 6.64,0 0,10 c 0.13,-1.125 0.47375,-1.9675 1.03125,-2.52375 0.55625,-0.55625 1.3225,-0.835 2.295,-0.835 l 3.325,0 c 1.81375,0 3.37375,0.65875 4.6775,1.975 1.30125,1.31625 1.9525,2.88625 1.9525,4.71 l 0,10.0075 c 0,1.81125 -0.65125,3.3775 -1.955,4.6925 -1.30375,1.31625 -2.86125,1.97375 -4.6775,1.97375 l -13.28875,0 z m 6.64,-3.35875 3.32125,0 c 0.9175,0 1.70125,-0.32875 2.3475,-0.985 0.6475,-0.6575 0.9725,-1.43375 0.9725,-2.33125 l 0,-9.98875 c 0,-0.91 -0.3275,-1.69375 -0.98125,-2.35125 -0.655,-0.65625 -1.43375,-0.985 -2.33875,-0.985 -0.90625,0 -1.685,0.32875 -2.34,0.985 -0.65375,0.6575 -0.98125,1.44125 -0.98125,2.35125 l 0,13.305 z"
             id="path3011-5" />
        </g>
        <g
           id="g3187"
           transform="matrix(0.32044601,0,0,0.32114062,153.78876,243.88982)">
          <path
             transform="matrix(1.2578421,0,0,1.5523606,-187.49058,-182.6962)"
             d="m 545.5,329.36218 c 0,16.56855 -20.37104,30 -45.5,30 -25.12896,0 -45.5,-13.43145 -45.5,-30 0,-16.56854 20.37104,-30 45.5,-30 25.12896,0 45.5,13.43146 45.5,30 z"
             sodipodi:ry="30"
             sodipodi:rx="45.5"
             sodipodi:cy="329.36218"
             sodipodi:cx="500"
             id="path3161"
             style="fill:#ffffff;fill-opacity:1;stroke:#ffffff"
             sodipodi:type="arc" />
          <path
             inkscape:connector-curvature="0"
             style="fill:#f0a044;stroke:none"
             d="m 400.04562,330.05718 c 9.99875,0.24125 20.53125,-0.94125 31.03375,-3.64875 2.765,-0.7125 5.4725,-1.535 8.13375,-2.42625 2.48625,-10.135 6.545,-20.4875 12.125,-30.47125 2.0125,-3.6025 4.16375,-7.045 6.425,-10.31875 -1.82875,-0.43 -3.6925,-0.7875 -5.59,-1.07125 -7.46,3.40375 -14.81125,7.76375 -21.765,13.03 -13.1725,9.97625 -23.67,22.1875 -30.3625,34.90625 z m 84.37875,-33.365 c -10.1075,12.31125 -25.55,22.51375 -43.65,28.7525 -1.4575,6.2 -2.30875,12.30125 -2.5125,18.16375 2.31,0.085 4.6375,0.1325 6.98,0.13875 19.67375,0.055 38.3475,-2.7 53.635,-7.56875 0.48625,-2.4675 0.74875,-4.995 0.74875,-7.57375 0,-12.30125 -5.7625,-23.5025 -15.20125,-31.9125 z m -46.18875,48.79125 c -0.0762,6.6025 0.65375,12.885 2.2775,18.61875 1.2325,4.35875 2.95875,8.25875 5.11875,11.65 26.16125,-1.435 47.565,-17.02875 52.77625,-37.475 -15.2975,4.73375 -33.7725,7.39875 -53.17125,7.345 -2.34875,-0.006 -4.685,-0.0538 -7.00125,-0.13875 z m -8.96,-51.8275 c 6.225,-4.71375 12.7725,-8.7075 19.4325,-11.96375 -2.3025,-0.22625 -4.64125,-0.3575 -7.0175,-0.3575 -31.865,0 -57.7125,20.99125 -57.92625,46.94875 4.55375,0.91875 9.3075,1.5075 14.2175,1.725 6.80125,-13.26125 17.62875,-26.0025 31.29375,-36.3525 z m 12.04375,29.6025 c 17.29375,-6.16125 32.015,-15.98625 41.6825,-27.78375 -6.42125,-5.33 -14.37875,-9.4175 -23.28875,-11.795 -2.37625,3.39875 -4.63375,6.98 -6.73875,10.745 -5.285,9.4575 -9.185,19.24 -11.655,28.83375 z m -4.95375,22.14375 c -14.54625,-0.66375 -28.34,-2.8475 -40.3875,-6.2625 -1.7325,4.6175 -2.97,9.24625 -3.6,13.8075 -0.0188,0.1375 -0.03,0.27125 -0.0475,0.4075 10.19875,13.51 28.48625,22.51875 49.36,22.51875 0.5975,0 1.18875,-0.0213 1.78,-0.0362 -1.9875,-3.32125 -3.58875,-7.0775 -4.76125,-11.225 -1.67625,-5.92 -2.42875,-12.4025 -2.34375,-19.21 z m -52.02875,-10.15125 c 0.9825,5.7 3.20125,11.07375 6.4425,15.9325 0.68625,-4.16375 1.82875,-8.36875 3.39625,-12.565 -3.43625,-1.025 -6.72875,-2.14625 -9.83875,-3.3675 z m 14.79125,-3.34375 c -0.90375,1.82375 -1.75,3.65375 -2.4925,5.49 11.84625,3.3375 25.42375,5.475 39.76125,6.13 0.1975,-5.63125 0.96125,-11.47 2.29,-17.405 -2.34625,0.76 -4.7175,1.4775 -7.14125,2.10125 -10.96875,2.8275 -21.98375,4.02375 -32.4175,3.68375 z m -2.045,-0.0838 c -4.5675,-0.24 -9.01125,-0.78 -13.27875,-1.61875 0.0387,0.98 0.1075,1.95375 0.22,2.9175 3.38875,1.37 6.99875,2.625 10.80125,3.7525 0.67875,-1.68875 1.4475,-3.3725 2.2575,-5.05125 z"
             id="path2995-0" />
        </g>
      </g>
    </g>
  </g>
</svg>
