<?xml version="1.0" encoding="UTF-8" standalone="no"?>
<!-- Created with Inkscape (http://www.inkscape.org/) -->

<svg
   xmlns:dc="http://purl.org/dc/elements/1.1/"
   xmlns:cc="http://creativecommons.org/ns#"
   xmlns:rdf="http://www.w3.org/1999/02/22-rdf-syntax-ns#"
   xmlns:svg="http://www.w3.org/2000/svg"
   xmlns="http://www.w3.org/2000/svg"
   xmlns:sodipodi="http://sodipodi.sourceforge.net/DTD/sodipodi-0.dtd"
   xmlns:inkscape="http://www.inkscape.org/namespaces/inkscape"
   width="34"
   height="34"
   id="svg5494"
   version="1.1"
   inkscape:version="0.48.2 r9819"
   sodipodi:docname="cellspace-points-hint.svg">
  <defs
     id="defs5496" />
  <sodipodi:namedview
     id="base"
     pagecolor="#ffffff"
     bordercolor="#666666"
     borderopacity="1.0"
     inkscape:pageopacity="0.0"
     inkscape:pageshadow="2"
     inkscape:zoom="22.63728"
     inkscape:cx="9.1774073"
     inkscape:cy="18.170843"
     inkscape:document-units="px"
     inkscape:current-layer="g3072"
     showgrid="false"
     inkscape:window-width="1280"
     inkscape:window-height="972"
     inkscape:window-x="1358"
     inkscape:window-y="-8"
     inkscape:window-maximized="1"
     showguides="true"
     inkscape:guide-bbox="true">
    <sodipodi:guide
       orientation="1,0"
       position="7.1218957,17.36743"
       id="guide3017" />
    <sodipodi:guide
       orientation="1,0"
       position="17.180012,13.244227"
       id="guide3019" />
    <sodipodi:guide
       orientation="1,0"
       position="27.113182,9.6208065"
       id="guide3021" />
    <sodipodi:guide
       orientation="0,1"
       position="39.670209,16.992593"
       id="guide3023" />
    <sodipodi:guide
       orientation="0,1"
       position="35.172169,27.800383"
       id="guide3025" />
    <sodipodi:guide
       orientation="0,1"
       position="34.922278,6.3722225"
       id="guide3027" />
  </sodipodi:namedview>
  <metadata
     id="metadata5499">
    <rdf:RDF>
      <cc:Work
         rdf:about="">
        <dc:format>image/svg+xml</dc:format>
        <dc:type
           rdf:resource="http://purl.org/dc/dcmitype/StillImage" />
        <dc:title />
      </cc:Work>
    </rdf:RDF>
  </metadata>
  <g
     inkscape:label="Layer 1"
     inkscape:groupmode="layer"
     id="layer1"
     transform="translate(0,-1018.3622)">
    <g
       id="g3072"
       transform="matrix(0.04416099,0,0,0.04416099,-5.24671,1013.9323)"
       style="fill:#0000ff;fill-opacity:0.19607843;stroke-width:2.26444197;stroke-miterlimit:4;stroke-dasharray:none">
      <path
         sodipodi:type="arc"
         style="fill:#000000;fill-opacity:1;stroke:#ffffff;stroke-width:0;stroke-linecap:butt;stroke-linejoin:miter;stroke-miterlimit:4;stroke-opacity:1;stroke-dasharray:none;stroke-dashoffset:0"
         id="path3442"
         sodipodi:cx="-11.744881"
         sodipodi:cy="11.759694"
         sodipodi:rx="2.2490196"
         sodipodi:ry="2.2490196"
         d="m -9.4958611,11.759694 a 2.2490196,2.2490196 0 1 1 -4.4980389,0 2.2490196,2.2490196 0 1 1 4.4980389,0 z"
         transform="matrix(12.049884,0,0,12.049884,420.89703,98.288974)" />
      <path
         sodipodi:type="arc"
         style="fill:#000000;fill-opacity:1;stroke:#ffffff;stroke-width:0;stroke-linecap:butt;stroke-linejoin:miter;stroke-miterlimit:4;stroke-opacity:1;stroke-dasharray:none;stroke-dashoffset:0"
         id="path3442-1"
         sodipodi:cx="-11.744881"
         sodipodi:cy="11.759694"
         sodipodi:rx="2.2490196"
         sodipodi:ry="2.2490196"
         d="m -9.4958611,11.759694 a 2.2490196,2.2490196 0 1 1 -4.4980389,0 2.2490196,2.2490196 0 1 1 4.4980389,0 z"
         transform="matrix(12.049884,0,0,12.049884,650.45616,100.99693)" />
      <path
         sodipodi:type="arc"
         style="fill:#000000;fill-opacity:1;stroke:#ffffff;stroke-width:0;stroke-linecap:butt;stroke-linejoin:miter;stroke-miterlimit:4;stroke-opacity:1;stroke-dasharray:none;stroke-dashoffset:0"
         id="path3442-7"
         sodipodi:cx="-11.744881"
         sodipodi:cy="11.759694"
         sodipodi:rx="2.2490196"
         sodipodi:ry="2.2490196"
         d="m -9.4958611,11.759694 a 2.2490196,2.2490196 0 1 1 -4.4980389,0 2.2490196,2.2490196 0 1 1 4.4980389,0 z"
         transform="matrix(12.049884,0,0,12.049884,874.29543,100.32176)" />
      <path
         sodipodi:type="arc"
         style="fill:#000000;fill-opacity:1;stroke:#ffffff;stroke-width:0;stroke-linecap:butt;stroke-linejoin:miter;stroke-miterlimit:4;stroke-opacity:1;stroke-dasharray:none;stroke-dashoffset:0"
         id="path3442-0"
         sodipodi:cx="-11.744881"
         sodipodi:cy="11.759694"
         sodipodi:rx="2.2490196"
         sodipodi:ry="2.2490196"
         d="m -9.4958611,11.759694 a 2.2490196,2.2490196 0 1 1 -4.4980389,0 2.2490196,2.2490196 0 1 1 4.4980389,0 z"
         transform="matrix(12.049884,0,0,12.049884,420.75601,343.73243)" />
      <path
         sodipodi:type="arc"
         style="fill:#000000;fill-opacity:1;stroke:#ffffff;stroke-width:0;stroke-linecap:butt;stroke-linejoin:miter;stroke-miterlimit:4;stroke-opacity:1;stroke-dasharray:none;stroke-dashoffset:0"
         id="path3442-1-9"
         sodipodi:cx="-11.744881"
         sodipodi:cy="11.759694"
         sodipodi:rx="2.2490196"
         sodipodi:ry="2.2490196"
         d="m -9.4958611,11.759694 a 2.2490196,2.2490196 0 1 1 -4.4980389,0 2.2490196,2.2490196 0 1 1 4.4980389,0 z"
         transform="matrix(12.049884,0,0,12.049884,650.31512,346.44039)" />
      <path
         sodipodi:type="arc"
         style="fill:#000000;fill-opacity:1;stroke:#ffffff;stroke-width:0;stroke-linecap:butt;stroke-linejoin:miter;stroke-miterlimit:4;stroke-opacity:1;stroke-dasharray:none;stroke-dashoffset:0"
         id="path3442-7-4"
         sodipodi:cx="-11.744881"
         sodipodi:cy="11.759694"
         sodipodi:rx="2.2490196"
         sodipodi:ry="2.2490196"
         d="m -9.4958611,11.759694 a 2.2490196,2.2490196 0 1 1 -4.4980389,0 2.2490196,2.2490196 0 1 1 4.4980389,0 z"
         transform="matrix(12.049884,0,0,12.049884,874.1544,345.76522)" />
      <path
         sodipodi:type="arc"
         style="fill:#000000;fill-opacity:1;stroke:#ffffff;stroke-width:0;stroke-linecap:butt;stroke-linejoin:miter;stroke-miterlimit:4;stroke-opacity:1;stroke-dasharray:none;stroke-dashoffset:0"
         id="path3442-8"
         sodipodi:cx="-11.744881"
         sodipodi:cy="11.759694"
         sodipodi:rx="2.2490196"
         sodipodi:ry="2.2490196"
         d="m -9.4958611,11.759694 a 2.2490196,2.2490196 0 1 1 -4.4980389,0 2.2490196,2.2490196 0 1 1 4.4980389,0 z"
         transform="matrix(12.049884,0,0,12.049884,421.60435,584.78251)" />
      <path
         sodipodi:type="arc"
         style="fill:#000000;fill-opacity:1;stroke:#ffffff;stroke-width:0;stroke-linecap:butt;stroke-linejoin:miter;stroke-miterlimit:4;stroke-opacity:1;stroke-dasharray:none;stroke-dashoffset:0"
         id="path3442-1-8"
         sodipodi:cx="-11.744881"
         sodipodi:cy="11.759694"
         sodipodi:rx="2.2490196"
         sodipodi:ry="2.2490196"
         d="m -9.4958611,11.759694 a 2.2490196,2.2490196 0 1 1 -4.4980389,0 2.2490196,2.2490196 0 1 1 4.4980389,0 z"
         transform="matrix(12.049884,0,0,12.049884,651.16346,587.49047)" />
      <path
         sodipodi:type="arc"
         style="fill:#000000;fill-opacity:1;stroke:#ffffff;stroke-width:0;stroke-linecap:butt;stroke-linejoin:miter;stroke-miterlimit:4;stroke-opacity:1;stroke-dasharray:none;stroke-dashoffset:0"
         id="path3442-7-2"
         sodipodi:cx="-11.744881"
         sodipodi:cy="11.759694"
         sodipodi:rx="2.2490196"
         sodipodi:ry="2.2490196"
         d="m -9.4958611,11.759694 a 2.2490196,2.2490196 0 1 1 -4.4980389,0 2.2490196,2.2490196 0 1 1 4.4980389,0 z"
         transform="matrix(12.049884,0,0,12.049884,875.00274,586.8153)" />
    </g>
  </g>
</svg>
