<?xml version="1.0" encoding="UTF-8" standalone="no"?>
<!-- Created with Inkscape (http://www.inkscape.org/) -->

<svg
   xmlns:dc="http://purl.org/dc/elements/1.1/"
   xmlns:cc="http://creativecommons.org/ns#"
   xmlns:rdf="http://www.w3.org/1999/02/22-rdf-syntax-ns#"
   xmlns:svg="http://www.w3.org/2000/svg"
   xmlns="http://www.w3.org/2000/svg"
   xmlns:sodipodi="http://sodipodi.sourceforge.net/DTD/sodipodi-0.dtd"
   xmlns:inkscape="http://www.inkscape.org/namespaces/inkscape"
   width="24"
   height="24"
   viewBox="0 0 24.000001 24.000001"
   id="svg11123"
   version="1.1"
   inkscape:version="0.91 r13725"
   sodipodi:docname="edit_delete.svg">
  <defs
     id="defs11125" />
  <sodipodi:namedview
     id="base"
     pagecolor="#ffffff"
     bordercolor="#666666"
     borderopacity="1.0"
     inkscape:pageopacity="0.0"
     inkscape:pageshadow="2"
     inkscape:zoom="8.7602941"
     inkscape:cx="-42.206504"
     inkscape:cy="10.404231"
     inkscape:document-units="px"
     inkscape:current-layer="layer1"
     showgrid="false"
     units="px"
     inkscape:window-width="1920"
     inkscape:window-height="1018"
     inkscape:window-x="-8"
     inkscape:window-y="-8"
     inkscape:window-maximized="1" />
  <metadata
     id="metadata11128">
    <rdf:RDF>
      <cc:Work
         rdf:about="">
        <dc:format>image/svg+xml</dc:format>
        <dc:type
           rdf:resource="http://purl.org/dc/dcmitype/StillImage" />
        <dc:title></dc:title>
      </cc:Work>
    </rdf:RDF>
  </metadata>
  <g
     inkscape:label="Camada 1"
     inkscape:groupmode="layer"
     id="layer1"
     transform="translate(0,-1028.3622)">
    <g
       id="g11204"
       transform="matrix(0.07662161,0,0,0.07662161,16.308253,963.96689)">
      <path
         style="fill:#fde4e4"
         d="m -80.961567,1145.935 c -59.154103,-10.0684 -106.698343,-53.3582 -121.550183,-110.6733 -5.98742,-23.1062 -5.98742,-52.50656 0,-75.61275 12.24863,-47.26903 47.60413,-86.25278 93.60893,-103.21529 27.908353,-10.29014 61.057786,-11.9628 89.747639,-4.52851 47.269025,12.24863 86.252778,47.60413 103.21529,93.60893 10.290141,27.90835 11.962801,61.05782 4.528511,89.74762 -13.538322,52.2461 -55.497716,94.2055 -107.743801,107.7438 -17.226372,4.4638 -45.045145,5.7824 -61.806386,2.9295 z m 44.261424,-100.718 20.261412,20.2433 13.4769514,-13.5047 13.4769516,-13.5048 -19.7383722,-19.7569 c -10.8561008,-10.8663 -19.7383618,-20.19872 -19.7383618,-20.73878 0,-0.54006 9.001011,-9.99097 20.0022318,-21.00203 L 11.042912,956.93299 -2.7204796,943.19594 -16.483871,929.45889 -36.463343,949.45711 c -10.988711,10.99902 -20.433692,20.01732 -20.988842,20.04066 -0.55516,0.0234 -9.876151,-9.08915 -20.713302,-20.25 l -19.703932,-20.29244 -13.789231,13.7477 -13.78923,13.7477 20.48401,20.5023 20.484002,20.5023 -20.238662,20.25677 -20.23866,20.2567 13.74107,13.7411 13.741071,13.7411 20.256742,-20.2387 20.256742,-20.2387 20.261422,20.2434 z"
         id="path11262"
         inkscape:connector-curvature="0" />
      <path
         style="fill:#fedbdb"
         d="m -79.961567,1145.9623 c -36.253973,-6.226 -67.154503,-23.3231 -90.135413,-49.8713 -24.36901,-28.1518 -36.8646,-61.5852 -36.8646,-98.63567 0,-37.05042 12.49559,-70.48386 36.8646,-98.63565 23.48314,-27.12842 56.00542,-44.74519 92.826963,-50.28282 9.249581,-1.39105 31.367323,-1.39105 40.616904,0 49.118085,7.38692 89.165039,35.54078 112.732811,79.25359 11.084631,20.55943 16.958752,44.68976 16.958752,69.66488 0,36.84577 -12.381851,70.15777 -36.536204,98.29647 -23.331892,27.1807 -56.25746528,45.0729 -93.155359,50.622 -9.528261,1.433 -33.917603,1.2012 -43.308454,-0.4115 z m 2.74107,-100.7478 20.258932,-20.2409 20.502302,20.484 20.502302,20.484 13.7408515,-13.7408 13.7408515,-13.7409 -20.4840022,-20.5023 -20.4840018,-20.50227 20.4795718,-20.49787 20.4795822,-20.49787 -13.9887216,-14.07513 -13.9887314,-14.07512 -20.207932,20.823 -20.207932,20.82299 -17.792072,-17.77301 c -12.121121,-12.10814 -17.397082,-18.02142 -16.552841,-18.55236 0.87663,-0.55131 -0.009,-2.00457 -3.027341,-4.96668 l -4.26657,-4.18732 -10.955611,10.98969 c -6.02558,6.04432 -10.60343,10.98968 -10.173,10.98968 0.43044,0 2.22276,-0.72289 3.98295,-1.60643 2.62374,-1.317 2.03268,-0.41437 -3.2806,5.00992 l -6.48095,6.61635 20.4718,20.49008 20.471792,20.49008 -20.479332,20.49767 -20.47933,20.4976 13.47459,13.5024 c 7.41102,7.4263 13.701821,13.5023 13.979541,13.5023 0.27773,0 9.621481,-9.1083 20.763902,-20.2408 z m -9.077171,-177.42861 c -0.89914,-0.89914 -16.539072,4.44125 -25.496202,8.70589 -8.80397,4.19172 -24.1677,13.38041 -24.1677,14.45414 0,0.18536 11.24258,-4.88162 24.98351,-11.25995 13.740931,-6.37833 24.847102,-11.73337 24.680392,-11.90008 z"
         id="path11260"
         inkscape:connector-curvature="0" />
      <path
         style="fill:#fed3d3"
         d="m -77.961567,1146.3022 c -34.179103,-5.6899 -61.905153,-19.6381 -85.056953,-42.7899 -28.64601,-28.646 -43.90814,-65.5106 -43.90814,-106.05697 0,-40.54636 15.26213,-77.41094 43.90814,-106.05695 42.33203,-42.33204 104.233265,-55.367 160.5653105,-33.81133 57.2860655,21.92072 95.4567395,77.85042 95.4567395,139.86828 0,40.54637 -15.262132,77.41097 -43.908134,106.05697 -23.157513,23.1575 -50.4743254,36.9714 -84.056959,42.507 -9.444411,1.5568 -34.362843,1.7207 -43.000004,0.2829 z m 1.50022,-100.8471 19.981472,-20.0002 20.261462,20.2434 20.261452,20.2433 13.7408515,-13.7408 13.7408515,-13.7409 -20.2433722,-20.2614 -20.2433718,-20.26147 20.0002218,-19.98148 C 2.0383409,966.96574 11.038442,957.51383 11.038442,956.95131 c 0,-0.56253 -6.1924708,-7.20339 -13.7610416,-14.75748 l -13.7610514,-13.73471 -20.476222,20.49452 -20.476232,20.49452 -10.765671,-10.7323 c -7.130931,-7.10882 -10.295301,-10.90587 -9.372481,-11.24641 0.93442,-0.34482 -2.17845,-4.30101 -9.453141,-12.01412 l -10.846341,-11.5 -16.222471,16.1824 c -14.32554,14.29016 -16.0641,16.37321 -14.86812,17.81428 0.81684,0.98423 2.19446,1.42104 3.47114,1.10061 1.71293,-0.42992 5.78145,3.137 21.32421,18.69509 l 19.207412,19.22638 -20.000002,19.98121 c -11,10.9897 -20,20.4295 -20,20.9773 0,1.3191 26.177611,27.5227 27.495481,27.5227 0.5628,0 10.014931,-9.0001 21.004742,-20.0002 z M -107.71018,883.94141 c 22.413272,-10.34915 40.543064,-19.02497 40.288444,-19.27959 -0.80295,-0.80295 -16.702332,1.96451 -25.108703,4.37043 -18.565871,5.3136 -38.997221,16.6805 -51.931131,28.89166 -3.3,3.11559 -5.55,5.47784 -5,5.24943 0.55,-0.22841 19.33812,-8.88277 41.75139,-19.23193 z"
         id="path11258"
         inkscape:connector-curvature="0" />
      <path
         style="fill:#fecbcb"
         d="m -77.961567,1146.3022 c -34.238443,-5.6998 -61.773853,-19.5666 -85.027033,-42.8198 -28.73384,-28.7339 -43.93806,-65.4232 -43.93806,-106.02707 0,-40.60385 15.20422,-77.2932 43.93806,-106.02703 28.73383,-28.73384 65.423181,-43.93806 106.027035,-43.93806 40.603854,0 77.293198,15.20422 106.027041,43.93806 28.733832,28.73383 43.938054,65.42318 43.938054,106.02703 0,40.60387 -15.204222,77.29317 -43.938054,106.02707 -23.259693,23.2597 -50.3857254,36.9917 -84.027039,42.5369 -9.444411,1.5568 -34.362843,1.7207 -43.000004,0.2829 z m 41.755174,-100.5979 20.243372,20.2434 13.7438815,-13.7439 13.7438815,-13.7439 -20.2432622,-20.2613 -20.2432618,-20.26134 20.4563618,-20.43811 20.4563622,-20.4381 -9.099051,-9.40559 c -6.9450407,-7.17901 -8.7693309,-9.61192 -7.7062508,-10.2772 1.0713201,-0.67044 -0.0504,-2.31841 -4.8597505,-7.13982 l -6.2525507,-6.26821 -12.747451,12.85144 c -8.233911,8.30109 -12.265711,13.03248 -11.386891,13.36274 0.88978,0.33438 -1.872011,3.75737 -7.981581,9.89245 l -9.342141,9.38115 -10.230001,-10.19518 c -8.149251,-8.12152 -9.998251,-10.4744 -9.090641,-11.56801 0.90811,-1.0942 -1.12943,-3.64161 -10.039281,-12.55146 l -11.178631,-11.17863 -16.177701,16.1777 c -14.28507,14.28507 -16.01925,16.36861 -14.82335,17.80958 0.81684,0.98423 2.19446,1.42104 3.47114,1.10061 1.71293,-0.42992 5.78144,3.13698 21.32409,18.69498 l 19.207302,19.22626 -20.498202,20.47994 -20.49821,20.4799 14.23749,14.2629 14.237481,14.263 20.516742,-20.4993 20.516742,-20.4993 20.243362,20.2433 z M -104.74937,888.39018 c 27.891713,-12.87575 50.391715,-23.70038 50.000005,-24.05472 -1.0893,-0.9854 -20.712612,0.75169 -29.712203,2.63017 -22.117662,4.61661 -45.084122,16.64259 -61.678412,32.2968 -8.17099,7.70811 -14.23992,14.98311 -11.26582,13.50468 1.06933,-0.53156 24.76472,-11.50118 52.65643,-24.37693 z"
         id="path11256"
         inkscape:connector-curvature="0" />
      <path
         style="fill:#fec3c3"
         d="m -79.461567,1145.9529 c -44.728753,-7.1183 -83.437303,-33.2695 -106.846573,-72.1847 -27.45361,-45.6383 -27.45361,-106.9874 0,-152.62577 40.1259,-66.70455 121.721404,-92.00947 192.7849713,-59.78772 25.5839927,11.60034 50.5385447,34.23752 65.9081767,59.78772 27.453613,45.63837 27.453613,106.98747 0,152.62577 -20.661482,34.3473 -54.056885,59.3796 -92.346569,69.2205 -17.204892,4.4219 -42.440635,5.6791 -59.500006,2.9642 z m 43.255174,-100.2486 20.243372,20.2434 13.7438815,-13.7439 13.7438815,-13.7439 -20.2432622,-20.2613 -20.2432618,-20.26134 20.4390518,-20.42081 C 9.4127616,959.59697 11.788662,956.85712 10.874132,955.14831 c -0.72996,-1.36394 -0.72021,-2.14632 0.0325,-2.61155 0.62064,-0.38358 -4.9472307,-6.67544 -13.1778215,-14.89135 l -14.2525215,-14.22714 -12.968921,13.1461 c -10.394691,10.53669 -12.620592,13.27259 -11.213981,13.78335 1.41996,0.51561 -0.0152,2.40001 -7.518331,9.87197 l -9.273271,9.23472 -10.463811,-10.49954 c -6.575181,-6.59764 -9.820101,-10.49954 -8.731671,-10.49954 0.95267,0 1.73213,-0.34484 1.73213,-0.76631 0,-0.42147 -5.17781,-5.92943 -11.506241,-12.23992 l -11.506241,-11.4736 -16.192061,16.19206 c -15.93369,15.93369 -16.16295,16.22422 -14.36789,18.20774 1.32227,1.46109 2.2904,1.76615 3.51876,1.10876 1.37324,-0.73494 5.33159,2.73366 20.87401,18.29144 l 19.179432,19.19836 -20.498202,20.47994 -20.49821,20.4799 14.23749,14.2629 14.237481,14.263 20.516742,-20.4993 20.516742,-20.4993 20.243362,20.2433 z m -64.943057,-153.05109 60.312127,-27.97302 -7.812121,-0.44277 c -27.453593,-1.55601 -55.666616,5.64017 -78.076766,19.91471 -12.99024,8.27437 -27.81244,22.11454 -36.04639,33.65819 -3.05987,4.28981 -3.13572,4.57265 -1,3.7289 1.27106,-0.50215 29.45148,-13.50086 62.62315,-28.88601 z"
         id="path11254"
         inkscape:connector-curvature="0" />
      <path
         style="fill:#febbbb"
         d="m -74.461567,1146.8031 c -25.891613,-4.0667 -45.488783,-11.2926 -64.200653,-23.6721 -34.29445,-22.6888 -56.66878,-55.4241 -65.47059,-95.7884 -1.92082,-8.8087 -2.26503,-13.3506 -2.26503,-29.88727 0,-16.53663 0.34421,-21.07853 2.26503,-29.88724 8.80181,-40.36432 31.17614,-73.09965 65.47059,-95.78841 15.64247,-10.34886 32.20358,-17.21948 51.813412,-21.49559 8.808711,-1.92082 13.350611,-2.26503 29.887243,-2.26503 16.536632,0 21.078532,0.34421 29.887243,2.26503 40.364324,8.80181 73.099657,31.17614 95.78841,65.47059 10.348861,15.64247 17.219481,32.20358 21.495592,51.81341 1.92082,8.80871 2.26503,13.35061 2.26503,29.88724 0,16.53667 -0.34421,21.07857 -2.26503,29.88727 -4.276111,19.6098 -11.146731,36.1709 -21.495592,51.8134 -22.578123,34.1272 -55.562556,56.7473 -95.27664,65.3389 -7.456961,1.6132 -14.216201,2.2202 -27.399013,2.4604 -9.625001,0.1754 -18.850002,0.1069 -20.500002,-0.1522 z m 37.259044,-101.0885 c 10.867591,10.8574 20.211402,19.7407 20.764002,19.7407 0.55261,0 7.0683108,-6.076 14.4793315,-13.5023 L 11.515402,1038.4506 -8.7231902,1018.1939 -28.961782,997.93726 -8.5172102,977.51093 C 2.727301,966.27645 11.720682,956.75019 11.468072,956.34146 c -0.25261,-0.40873 0.45895,-0.88781 1.58124,-1.06464 1.6307,-0.25692 -1.13048,-3.48505 -13.74781137,-16.07275 L -16.486831,923.45281 -29.960302,936.95407 c -11.353551,11.37696 -13.085412,13.50126 -11.007121,13.50126 2.13097,0 1.17968,1.29205 -6.995471,9.50134 l -9.461831,9.50134 -10.290291,-10.25134 c -8.720351,-8.68735 -9.978881,-10.32762 -8.249161,-10.75134 1.71663,-0.42051 0.0792,-2.45649 -10.299761,-12.80704 l -12.340871,-12.30705 -15.810961,16.58181 c -15.11361,15.85047 -15.73644,16.66414 -14.12156,18.44857 0.92916,1.02671 2.45132,1.67398 3.38258,1.43837 1.15888,-0.2932 7.68584,5.57903 20.68367,18.60884 l 18.990492,19.03723 -20.238222,20.25634 -20.23822,20.2563 14.24107,14.241 14.241071,14.2411 20.256552,-20.2385 20.256542,-20.2384 19.759272,19.7407 z M -101.10072,898.45533 c 37.421084,-17.32501 67.723527,-31.80585 67.338747,-32.17966 -0.38477,-0.37381 -5.64959,-1.13074 -11.699591,-1.68207 -23.723962,-2.16193 -48.651935,2.51969 -70.000006,13.14641 -16.36277,8.14512 -34.98235,23.6194 -45.94188,38.18121 -6.43129,8.54519 -10.37222,14.98418 -8.83104,14.42883 0.60248,-0.2171 31.71268,-14.56972 69.13377,-31.89472 z"
         id="path11252"
         inkscape:connector-curvature="0" />
      <path
         style="fill:#feb3b3"
         d="m -79.461567,1145.9375 c -58.451793,-9.4494 -105.531813,-51.0508 -121.902983,-107.7174 -8.12271,-28.1157 -7.17726,-61.96221 2.4964,-89.36977 17.94444,-50.84041 59.18975,-87.07854 112.218172,-98.59489 14.769732,-3.20759 44.607094,-3.20759 59.376826,0 59.866706,13.00144 104.51004,57.64478 117.511482,117.51148 3.20759,14.76973 3.20759,44.60708 0,59.37678 -12.952462,59.6412 -57.866056,104.6965 -117.000892,117.3701 -12.919921,2.7689 -39.873524,3.4971 -52.699005,1.4237 z m 2.24107,-95.723 20.258932,-20.2409 20.498712,20.4805 20.498712,20.4804 16.0026917,-15.9793 16.0026813,-15.9792 -20.0014017,-20.0193 c -11.0007613,-11.0106 -20.0013923,-20.46119 -20.0013923,-21.00136 0,-0.54018 9.107881,-10.09816 20.2397423,-21.23997 L 16.517932,956.45755 0.0281807,939.87571 -16.461561,923.29387 -36.468253,943.8746 c -11.003681,11.3194 -20.480432,20.58073 -21.059442,20.58073 -0.579,0 -9.984921,-9.26106 -20.902022,-20.58014 l -19.849282,-20.58013 -16.342611,16.32009 -16.3426,16.32009 20.74228,20.75993 20.742282,20.75994 -20.480522,20.49879 -20.48053,20.4989 15.97784,16.0013 c 8.78782,8.8007 16.204101,16.0012 16.480641,16.0012 0.27653,0 9.619301,-9.1083 20.761722,-20.2408 z M -97.211569,902.40415 c 39.737504,-18.36434 72.250007,-33.69376 72.250007,-34.06538 0,-1.73012 -19.179632,-4.16378 -32.500003,-4.12385 -26.734763,0.0802 -50.159755,7.18806 -72.388965,21.9652 -9.65157,6.41599 -22.76959,18.54907 -30.33711,28.05931 -5.01562,6.30321 -14.77394,21.75991 -14.77394,23.40119 0,0.47634 1.2375,0.25568 2.75,-0.49034 1.5125,-0.74603 35.26251,-16.38179 75.000011,-34.74613 z"
         id="path11250"
         inkscape:connector-curvature="0" />
      <path
         style="fill:#feabab"
         d="m -72.961567,1146.8288 c -1.375,-0.2565 -6.55,-1.1397 -11.500001,-1.9627 -17.718442,-2.9457 -39.208362,-11.7007 -55.704812,-22.6942 -33.2981,-22.1904 -57.09972,-58.2559 -64.48856,-97.7166 -2.46015,-13.1385 -2.46015,-40.86141 0,-53.99997 11.39709,-60.86695 59.82642,-109.29628 120.693372,-120.69337 13.138562,-2.46015 40.861444,-2.46015 54.000006,0 60.866956,11.39709 109.296291,59.82642 120.693372,120.69337 2.46015,13.13856 2.46015,40.86147 0,53.99997 -11.354881,60.6416 -59.958656,109.4012 -120.193372,120.5788 -8.631251,1.6017 -38.032404,2.8147 -43.500005,1.7947 z m 58.000006,-23.8735 c 0,-0.275 -0.225,-0.5 -0.5,-0.5 -0.275,0 -0.5,0.225 -0.5,0.5 0,0.275 0.225,0.5 0.5,0.5 0.275,0 0.5,-0.225 0.5,-0.5 z m 3,-1 c 0,-0.275 -0.225,-0.5 -0.5,-0.5 -0.275,0 -0.5,0.225 -0.5,0.5 0,0.275 0.225,0.5 0.5,0.5 0.275,0 0.5,-0.225 0.5,-0.5 z m 4.0000009,-1.5 c 0.8250001,-0.5331 1.0500001,-0.9693 0.5,-0.9693 -0.55,0 -1.6750001,0.4362 -2.5000002,0.9693 -0.8249997,0.5332 -1.0499997,0.9694 -0.4999997,0.9694 0.5499997,0 1.6749998,-0.4362 2.4999999,-0.9694 z m 3.0000003,-1.5 c 0,-0.275 -0.225,-0.5 -0.5000001,-0.5 -0.275,0 -0.5,0.225 -0.5,0.5 0,0.275 0.225,0.5 0.5,0.5 0.2750001,0 0.5000001,-0.225 0.5000001,-0.5 z m 4.0000004,-1.5 c 0.82500008,-0.5331 1.0500001,-0.9693 0.50000005,-0.9693 -0.55000005,0 -1.67500015,0.4362 -2.50000025,0.9693 -0.8250001,0.5332 -1.0500001,0.9694 -0.5000001,0.9694 0.5500001,0 1.6750002,-0.4362 2.5000003,-0.9694 z m 3.0000003,-1.5 c 0,-0.275 -0.225,-0.5 -0.5000001,-0.5 -0.275,0 -0.5,0.225 -0.5,0.5 0,0.275 0.225,0.5 0.5,0.5 0.2750001,0 0.5000001,-0.225 0.5000001,-0.5 z m 2.0000002,-1 c 0,-0.275 -0.225,-0.5 -0.5000001,-0.5 -0.275,0 -0.5,0.225 -0.5,0.5 0,0.275 0.225,0.5 0.5,0.5 0.2750001,0 0.5000001,-0.225 0.5000001,-0.5 z m -81.2589381,-64.7408 20.258932,-20.2409 20.498712,20.4805 20.498712,20.4804 16.0026917,-15.9793 16.0026813,-15.9792 -20.0014017,-20.0193 c -11.0007613,-11.0106 -20.0013923,-20.46119 -20.0013923,-21.00136 0,-0.54018 9.107881,-10.09816 20.2397423,-21.23997 L 16.517932,956.45755 0.0281807,939.87571 -16.461561,923.29387 -36.468253,943.8746 c -11.003681,11.3194 -20.480432,20.58073 -21.059442,20.58073 -0.579,0 -9.984921,-9.26106 -20.902022,-20.58014 l -19.849282,-20.58013 -16.342611,16.32009 -16.3426,16.32009 20.74228,20.75993 20.742282,20.75994 -20.480522,20.49879 -20.48053,20.4989 15.97784,16.0013 c 8.78782,8.8007 16.204101,16.0012 16.480641,16.0012 0.27653,0 9.619301,-9.1083 20.761722,-20.2408 z M -97.192479,908.27463 c 44.148014,-20.44962 79.909848,-37.54037 79.470758,-37.97946 -1.49343,-1.49343 -16.704812,-4.73598 -27.239843,-5.80661 -10.622011,-1.07947 -19.752522,-0.76656 -32.500003,1.1138 -42.072463,6.20602 -80.657863,35.42154 -99.189683,75.10297 -1.22007,2.6125 -1.90152,4.75009 -1.51432,4.75021 0.38719,1.1e-4 36.82509,-16.7313 80.973091,-37.18091 z"
         id="path11248"
         inkscape:connector-curvature="0" />
      <path
         style="fill:#fea3a3"
         d="m -78.684947,1145.8956 c -43.546823,-6.3495 -83.001733,-32.4324 -106.080543,-70.1278 -43.21187,-70.5795 -21.03561,-162.93659 49.49147,-206.11639 70.579444,-43.21187 162.936573,-21.03561 206.116378,49.49147 43.211872,70.57944 21.035612,162.93662 -49.491465,206.11642 -29.6248031,18.1376 -65.879637,25.6166 -100.03584,20.6363 z m 43.723384,-17.9403 c 0,-0.275 -0.225,-0.5 -0.5,-0.5 -0.275,0 -0.5,0.225 -0.5,0.5 0,0.275 0.225,0.5 0.5,0.5 0.275,0 0.5,-0.225 0.5,-0.5 z m 19.951142,-5.1419 c 10.8670113,-3.5739 27.556703,-11.7248 32.621963,-15.9318 2.798521,-2.3243 2.817241,-2.3921 0.4269,-1.5457 -4.3443,1.5382 -50.438305,21.2241 -50.981235,21.7732 -1.1424,1.1553 8.063561,-1.05 17.932372,-4.2957 z m 37.048864,-18.8581 c 0,-0.275 -0.225,-0.5 -0.5,-0.5 -0.275,0 -0.5,0.225 -0.5,0.5 0,0.275 0.225,0.5 0.5,0.5 0.275,0 0.5,-0.225 0.5,-0.5 z m -58.244486,-53.2506 20.243722,20.2437 L 0.28459072,1054.7015 16.531512,1038.4546 -3.7122097,1018.2109 -23.955922,997.96715 -3.4751597,977.46123 17.005602,956.95533 0.30711073,940.17898 -16.391371,923.40263 l -20.544032,20.52656 -20.544032,20.52656 -20.480982,-20.49926 -20.480972,-20.49927 -16.261411,16.23901 -16.26141,16.23901 20.50153,20.51898 20.501532,20.51898 -20.499422,20.4811 -20.49943,20.4812 16.73934,16.7611 16.739331,16.7611 20.515782,-20.4984 20.515792,-20.4983 20.243712,20.2437 z M -90.961568,911.47187 c 44.275004,-20.48959 80.845568,-37.56847 81.2679277,-37.95309 1.0659601,-0.97071 -14.4184417,-5.88149 -24.4599127,-7.75731 -11.125851,-2.07839 -33.637533,-2.06239 -45.440204,0.0323 -40.753223,7.2327 -76.739743,34.20397 -95.411713,71.50941 -2.17808,4.35167 -4.60821,9.74895 -5.40029,11.99395 l -1.44015,4.08183 5.19217,-2.32665 c 2.85569,-1.27966 41.41717,-19.09086 85.692172,-39.58044 z"
         id="path11246"
         inkscape:connector-curvature="0" />
      <path
         style="fill:#fe9b9b"
         d="m -78.033107,1145.9922 c -18.936512,-3.0999 -32.355403,-7.5189 -48.730663,-16.0477 -39.82887,-20.7442 -67.51686,-57.7917 -77.34419,-103.4892 -3.25866,-15.1529 -3.25866,-42.84706 0,-57.99997 6.52659,-30.34891 20.21676,-55.87526 41.24395,-76.90244 21.02718,-21.02719 46.55353,-34.71736 76.902442,-41.24395 8.762121,-1.88431 13.561981,-2.25805 29.000003,-2.25805 15.438022,0 20.237882,0.37374 29.000003,2.25805 30.3489129,6.52659 55.875255,20.21676 76.902448,41.24395 21.027182,21.02718 34.717353,46.55353 41.243944,76.90244 1.88431,8.76212 2.25805,13.56198 2.25805,29 0,15.43807 -0.37374,20.23787 -2.25805,28.99997 -3.105251,14.4396 -7.377751,26.5583 -13.828172,39.2228 -20.688732,40.6195 -58.266495,69.135 -103.81822,78.7815 -13.075041,2.7689 -38.341624,3.5346 -50.571545,1.5326 z m 42.824024,-18.0455 c 18.537082,-3.0064 36.6777638,-10.2169 52.550145,-20.8875 17.553932,-11.801 14.714242,-11.2248 -22.4466718,4.555 -42.3572542,17.9864 -41.6113042,17.6582 -40.3559542,17.7555 0.55,0.043 5.163621,-0.5977 10.252481,-1.423 z m -0.99696,-77.242 20.243722,20.2437 L 0.28459072,1054.7015 16.531512,1038.4546 -3.7122097,1018.2109 -23.955922,997.96715 -3.5352297,977.46123 16.885472,956.95533 0.41170074,940.01447 -16.062061,923.0736 l -20.757442,20.73979 -20.757432,20.73978 -20.326152,-20.66135 -20.326152,-20.66136 -16.437391,16.43739 -16.43738,16.43739 20.60333,20.38418 20.603332,20.38418 -20.529612,20.5471 -20.52962,20.5471 16.74128,16.7413 16.741281,16.7413 20.512132,-20.4947 20.512132,-20.4947 20.243712,20.2437 z m -45.440204,-137.7928 79.8153375,-36.92147 -4.3153304,-1.84641 c -7.5624111,-3.23576 -18.6854421,-6.59757 -27.6331031,-8.3518 -11.498191,-2.25427 -33.422113,-2.23083 -46.182224,0.0494 -37.669243,6.73143 -70.759493,29.98796 -91.223383,64.11373 -5.05855,8.43569 -12.77663,26.32776 -12.77663,29.61882 0,0.44314 5.0625,-1.56725 11.25,-4.46754 6.1875,-2.90028 47.1669,-21.88791 91.065333,-42.19471 z"
         id="path11244"
         inkscape:connector-curvature="0" />
      <path
         style="fill:#fe9393"
         d="m -74.961567,1146.4482 c -18.577682,-2.5574 -35.291873,-7.8792 -51.802203,-16.4939 -13.98385,-7.2965 -24.42841,-15.0222 -36.13461,-26.7284 -21.14666,-21.1467 -34.70428,-46.4112 -41.19714,-76.7706 -1.86817,-8.7352 -2.2456,-13.6094 -2.2456,-28.99997 0,-15.39058 0.37743,-20.26481 2.2456,-29 4.54534,-21.25312 13.39192,-41.67175 25.32015,-58.441 7.73762,-10.8779 23.4949,-26.63518 34.3728,-34.3728 16.76925,-11.92823 37.18788,-20.77481 58.441002,-25.32015 15.139352,-3.2378 42.860654,-3.2378 58.000006,0 21.253122,4.54534 41.671754,13.39192 58.440996,25.32015 10.877911,7.73762 26.635182,23.4949 34.372813,34.3728 11.928231,16.76925 20.774802,37.18788 25.320143,58.441 1.86817,8.73519 2.2456,13.60942 2.2456,29 0,15.39057 -0.37743,20.26477 -2.2456,28.99997 -4.545341,21.2532 -13.391912,41.6718 -25.320143,58.441 -7.737631,10.8779 -23.494902,26.6352 -34.372813,34.3728 -16.679862,11.8647 -37.397834,20.8639 -57.940996,25.1678 -11.399921,2.3884 -36.913234,3.4687 -47.500005,2.0113 z m 40.119014,-18.467 c 19.645462,-3.4555 36.0501438,-9.9842 51.650115,-20.5556 8.516561,-5.7713 22.221603,-17.6266 19.230882,-16.6353 -2.40802,0.7981 -89.457469,37.859 -89.916679,38.2816 -1.03957,0.9567 11.471371,0.2398 19.035682,-1.0907 z m -1.36349,-77.2765 20.243722,20.2437 16.24691172,-16.2469 16.24692128,-16.2469 -20.2437217,-20.2437 -20.2437123,-20.24375 20.4261423,-20.50592 20.4261417,-20.5059 -16.38015125,-17 -16.38015175,-17 -20.866862,20.80928 -20.866872,20.80928 -18.681942,-19.09225 c -10.275071,-10.50073 -18.681952,-19.42721 -18.681952,-19.83662 0,-0.40941 22.300462,-11.06113 49.556595,-23.67048 l 49.5565951,-22.9261 -4.80659047,-2.45061 C -29.100972,862.09486 -69.001096,859.88994 -100.19524,871.09713 c -33.51649,12.04154 -60.72576,36.61809 -76.23452,68.8582 -4.28159,8.9007 -10.01059,25.35456 -9.13348,26.23167 0.24946,0.24946 14.77439,-6.17604 32.27762,-14.2789 17.50323,-8.10286 35.64905,-16.4913 40.32405,-18.64098 l 8.5,-3.9085 -13.33731,13.39925 -13.33732,13.39926 20.62828,20.34938 20.628272,20.34938 -20.538462,20.55591 -20.53847,20.556 16.74128,16.7413 16.741281,16.7413 20.512132,-20.4947 20.512132,-20.4947 20.243712,20.2437 z"
         id="path11242"
         inkscape:connector-curvature="0" />
      <path
         style="fill:#fe8b8b"
         d="m -74.731767,1146.4218 c -33.409703,-4.2125 -64.428993,-19.3725 -88.126363,-43.0699 -21.0366,-21.0366 -34.80775,-46.7238 -41.22494,-76.8966 -3.21695,-15.1256 -3.21695,-42.87436 0,-57.99997 6.41719,-30.17273 20.18834,-55.85996 41.22494,-76.89656 21.0366,-21.0366 46.72383,-34.80775 76.896562,-41.22494 15.125612,-3.21695 42.874394,-3.21695 58.000006,0 30.1727329,6.41719 55.859955,20.18834 76.896558,41.22494 21.036602,21.0366 34.807763,46.72383 41.224954,76.89656 3.21694,15.12561 3.21694,42.87437 0,57.99997 -12.898172,60.6454 -58.122006,105.8311 -118.121512,118.0218 -12.000081,2.4382 -35.204354,3.403 -46.770205,1.9447 z m 40.389214,-18.4992 c 22.633833,-3.9062 41.4621144,-12.271 59.265036,-26.3295 8.411101,-6.6421 16.775352,-14.8117 15.979432,-15.6076 -0.38337,-0.3834 -79.213448,32.5856 -100.36348,41.9749 -2.769491,1.2295 -2.26091,1.3381 6.61901,1.4134 5.290461,0.045 13.615462,-0.6082 18.500002,-1.4512 z m -1.86349,-77.2179 20.243722,20.2437 L 0.28459072,1054.7015 16.531512,1038.4546 -3.7122097,1018.2109 -23.955922,997.96715 -3.4588796,977.45265 17.038162,956.93816 0.62064076,939.94674 -15.796891,922.95533 -36.708083,943.7754 -57.619275,964.59547 -74.290427,947.42264 c -9.169131,-9.44505 -16.671141,-17.48121 -16.671141,-17.85812 0,-0.37692 22.310532,-11.00614 49.578965,-23.62051 27.268432,-12.61436 49.8021245,-23.29627 50.0748646,-23.73758 0.77899,-1.26042 -19.2214216,-10.37024 -28.8890726,-13.15844 -20.931142,-6.03664 -41.514394,-6.86193 -62.998427,-2.52594 -45.401402,9.16309 -83.296552,42.57431 -99.167202,87.43328 -2.18525,6.17669 -5.68493,19.5 -5.12213,19.5 0.11509,0 13.44235,-6.12706 29.61613,-13.61568 16.17378,-7.48863 32.33187,-14.93742 35.90687,-16.55287 l 6.5,-2.93718 -7.83277,7.90824 -7.83277,7.90825 20.62373,20.3449 20.623732,20.3449 -20.538462,20.55591 -20.53847,20.556 16.74128,16.7413 16.741281,16.7413 20.512132,-20.4947 20.512132,-20.4947 20.243712,20.2437 z"
         id="path11240"
         inkscape:connector-curvature="0" />
      <path
         style="fill:#fe8383"
         d="m -76.961567,1145.9481 c -81.691743,-11.1891 -139.364153,-86.3653 -128.552843,-167.5692 4.47437,-33.60703 18.99245,-63.1563 42.65628,-86.82013 41.13937,-41.13936 101.562815,-54.67677 156.6149601,-35.08838 41.4348139,14.74314 75.5234079,48.83173 90.2665489,90.26655 19.588391,55.05216 6.050991,115.47556 -35.088383,156.61496 -33.078864,33.0789 -79.848918,48.9032 -125.896563,42.5962 z m 43.073784,-18.0949 c 18.761792,-3.1889 38.3115741,-11.2084 53.524106,-21.956 7.0717,-4.9962 26.402122,-23.4659 26.402122,-25.2266 0,-1.0652 -64.474396,25.9889 -77.500007,32.5198 -4.400001,2.2061 -12.568852,5.6492 -18.153002,7.6513 -11.144801,3.9959 -19.347002,7.4555 -19.347002,8.1604 0,1.1579 26.635342,0.2854 35.073783,-1.1489 z m -2.31826,-77.1485 20.243722,20.2437 L 0.28459072,1054.7015 16.531512,1038.4546 -3.7122097,1018.2109 -23.955922,997.96715 -3.3224396,977.3161 17.311032,956.66505 0.72507077,939.81019 -15.860901,922.95533 -36.748663,943.78397 -57.636425,964.6126 -72.298997,949.35243 c -8.06441,-8.3931 -14.662571,-15.54015 -14.662571,-15.88232 0,-0.34218 22.737112,-11.13664 50.526925,-23.98771 27.7898028,-12.85106 50.368085,-23.85191 50.173955,-24.44632 -0.62231,-1.90548 -19.8986319,-11.46751 -29.224813,-14.49698 -15.641971,-5.08106 -24.580642,-6.5171 -40.476064,-6.50267 -22.228862,0.0202 -37.891094,3.43022 -56.528355,12.3076 -34.09126,16.23848 -58.5683,43.94013 -70.78594,80.1113 -2.62386,7.7681 -5.88957,22.12948 -5.191,22.82806 0.29601,0.296 54.72138,-24.35318 61.00529,-27.62922 0.55,-0.28674 -0.0394,0.62135 -1.30977,2.01798 l -2.30977,2.53932 20.60073,20.32221 20.600732,20.32221 -20.538462,20.55591 -20.53847,20.556 16.74128,16.7413 16.741281,16.7413 20.512132,-20.4947 20.512132,-20.4947 20.243712,20.2437 z"
         id="path11238"
         inkscape:connector-curvature="0" />
      <path
         style="fill:#fe7b7b"
         d="M -73.961567,1146.3588 C -136.31445,1139.4 -188.37976,1093.0122 -202.9284,1031.4553 c -6.38831,-27.0296 -4.56577,-58.1748 4.95753,-84.71836 14.88445,-41.48632 48.80459,-75.40646 90.29091,-90.29091 37.472934,-13.44454 81.502958,-11.13158 115.9367915,6.0903 56.5748355,28.29558 89.6893085,86.54174 83.9536985,147.66897 -3.41318,36.3761 -17.260922,66.4235 -42.458694,92.1289 -32.469434,33.1235 -77.573148,49.1741 -123.713403,44.0246 z m 40.377844,-18.4101 c 25.1362329,-4.3834 48.871625,-16.3366 67.500647,-33.9934 6.889111,-6.5295 16.779652,-18.2439 15.977032,-18.9231 -0.96229,-0.8144 -53.6941757,22.6529 -61.912877,27.5531 -19.820671,11.8176 -35.063963,18.3823 -49.569644,21.3479 -4.330151,0.8853 -9.410361,2.1524 -11.289362,2.8159 l -3.41635,1.2062 3.41635,0.6184 c 6.934531,1.2552 30.678263,0.8775 39.294204,-0.625 z m -2.62232,-77.244 20.243722,20.2437 L 0.28459072,1054.7015 16.531512,1038.4546 -3.7122097,1018.2109 -23.955922,997.96715 -3.2439196,977.2375 17.468092,956.50787 0.76980077,939.7316 -15.928481,922.95533 l -20.856742,20.8314 -20.856732,20.8314 -12.659801,-13.31038 c -6.962901,-7.32071 -12.659812,-13.57089 -12.659812,-13.8893 0,-0.31841 23.175003,-11.30719 51.500006,-24.41953 28.3250024,-13.11233 51.500005,-23.94592 51.500005,-24.07464 0,-0.75152 -13.9743717,-9.14137 -20.63549236,-12.38901 C -50.816244,852.05081 -111.08737,863.02619 -151.42082,904.00032 c -8.82566,8.96585 -19.08029,23.40948 -24.81722,34.95501 -6.13434,12.34529 -9.98004,25.29715 -13.11465,44.16856 l -0.52631,3.16857 6.20871,-2.8215 c 3.41479,-1.55183 16.94797,-7.80897 30.07374,-13.90476 l 23.86502,-11.08326 2.63498,1.91887 c 1.44924,1.05538 10.39719,9.71607 19.88434,19.24598 l 17.249362,17.32711 -20.498572,20.4803 -20.49858,20.4803 16.73934,16.7611 16.739331,16.7611 20.515782,-20.4984 20.515792,-20.4983 20.243712,20.2437 z"
         id="path11236"
         inkscape:connector-curvature="0" />
      <path
         style="fill:#fe7373"
         d="M -73.961567,1146.3588 C -136.31445,1139.4 -188.37976,1093.0122 -202.9284,1031.4553 c -6.38831,-27.0296 -4.56577,-58.1748 4.95753,-84.71836 14.88445,-41.48632 48.80459,-75.40646 90.29091,-90.29091 37.472934,-13.44454 81.502958,-11.13158 115.9367915,6.0903 56.5748355,28.29558 89.6893085,86.54174 83.9536985,147.66897 -3.41318,36.3761 -17.260922,66.4235 -42.458694,92.1289 -32.469434,33.1235 -77.573148,49.1741 -123.713403,44.0246 z m 40.289954,-18.3948 c 34.8325138,-6.0743 67.954187,-27.5558 86.298239,-55.97 1.0515,-1.6287 1.46182,-2.6973 0.91182,-2.3745 -0.55,0.3227 -10.900001,4.7601 -23.000002,9.8609 -14.552432,6.1347 -24.5389527,11.0151 -29.5000032,14.4167 -28.7836628,19.7358 -54.8182158,30.7666 -74.7619578,31.6767 -7.19333,0.3282 -8.585391,1.5718 -2.65694,2.3736 2.70539,0.3659 5.368891,0.8193 5.918891,1.0077 2.98138,1.0208 29.321993,0.3112 36.789953,-0.9911 z m -2.53443,-77.2593 20.243722,20.2437 L 0.28459072,1054.7015 16.531512,1038.4546 -3.7122097,1018.2109 -23.955922,997.96715 -3.2481596,977.24175 17.459612,956.51635 1.0385508,939.98584 c -9.0315909,-9.09178 -16.7829518,-16.53051 -17.2252518,-16.53051 -0.44231,0 -9.910091,9.2811 -21.039532,20.62468 l -20.235332,20.62468 -10.750001,-11.24082 c -5.912501,-6.18245 -10.750001,-11.55673 -10.750001,-11.94284 0,-0.38612 23.175002,-11.42978 51.500005,-24.54148 28.32500278,-13.1117 51.500005,-24.12247 51.500005,-24.46839 0,-2.36458 -20.4422119,-14.67712 -32.1311031,-19.35288 -46.3292349,-18.53247 -96.8170099,-9.89928 -135.3689099,23.1475 -25.21815,21.61705 -42.94413,55.69554 -46.01481,88.46421 l -0.71337,7.61272 23.64318,-10.9925 c 13.00375,-6.04588 25.76759,-12.61487 28.36409,-14.59776 2.5965,-1.98289 6.20007,-4.31122 8.00794,-5.17406 l 3.28703,-1.5688 18.46368,18.44344 18.463672,18.44344 -20.498212,20.51563 -20.49821,20.5157 16.74128,16.7413 16.741281,16.7413 20.512132,-20.4947 20.512132,-20.4947 20.243712,20.2437 z"
         id="path11234"
         inkscape:connector-curvature="0" />
      <path
         style="fill:#fe6b6b"
         d="M -73.961567,1146.3588 C -136.31445,1139.4 -188.37976,1093.0122 -202.9284,1031.4553 c -6.38831,-27.0296 -4.56577,-58.1748 4.95753,-84.71836 14.88445,-41.48632 48.80459,-75.40646 90.29091,-90.29091 37.472934,-13.44454 81.502958,-11.13158 115.9367915,6.0903 56.5748355,28.29558 89.6893085,86.54174 83.9536985,147.66897 -3.41318,36.3761 -17.260922,66.4235 -42.458694,92.1289 -32.469434,33.1235 -77.573148,49.1741 -123.713403,44.0246 z m 40.619014,-18.4491 c 26.9879331,-4.6971 52.079366,-18.0545 71.165867,-37.8853 8.266511,-8.5889 19.113642,-23.0039 18.084562,-24.033 -0.26159,-0.2615 -8.776721,3.0523 -18.922522,7.3642 -15.354681,6.5257 -20.336782,9.195 -29.7210326,15.9242 -34.7628134,24.9272 -61.3013864,36.1755 -85.3503984,36.1755 -4.514851,0 -7.962861,0.246 -7.662231,0.5466 0.30062,0.3007 3.863121,1.152 7.916671,1.8918 10.387841,1.8961 33.638663,1.9044 44.489084,0.016 z m -2.86349,-77.205 20.243722,20.2437 L 0.28459072,1054.7015 16.531512,1038.4546 -3.7122097,1018.2109 -23.955922,997.96715 -3.2471596,977.24075 17.461612,956.51435 0.50002075,939.42458 -16.461561,922.3348 l -20.500002,21.16053 -20.500002,21.16052 -8.750001,-8.97149 c -4.8125,-4.93432 -8.750001,-9.40552 -8.750001,-9.93599 0,-0.53047 23.199903,-11.69668 51.555345,-24.8138 28.3554332,-13.11712 51.760906,-24.18191 52.012146,-24.58843 0.86956,-1.40699 -17.042792,-13.86204 -27.0341931,-18.79777 -17.2255719,-8.50941 -32.7229829,-12.68006 -51.0332949,-13.73406 -64.703196,-3.72454 -123.029186,41.18904 -137.587386,105.94833 -2.2006,9.78893 -3.74876,27.69269 -2.39462,27.69269 0.44652,0 8.27514,-3.4521 17.39693,-7.67134 14.30207,-6.61536 17.51252,-8.53847 23.32266,-13.97062 6.67666,-6.2423 19.29661,-15.35804 21.26187,-15.35804 0.56145,0 9.22859,8.21678 19.26031,18.25951 l 18.239502,18.25951 -20.498852,20.48055 -20.49885,20.4806 16.73934,16.7611 16.739331,16.7611 20.515782,-20.4984 20.515792,-20.4983 20.243712,20.2437 z"
         id="path11232"
         inkscape:connector-curvature="0" />
      <path
         style="fill:#fe6363"
         d="M -73.961567,1146.3588 C -136.31445,1139.4 -188.37976,1093.0122 -202.9284,1031.4553 c -6.38831,-27.0296 -4.56577,-58.1748 4.95753,-84.71836 14.88445,-41.48632 48.80459,-75.40646 90.29091,-90.29091 37.472934,-13.44454 81.502958,-11.13158 115.9367915,6.0903 56.5748355,28.29558 89.6893085,86.54174 83.9536985,147.66897 -3.41318,36.3761 -17.260922,66.4235 -42.458694,92.1289 -32.469434,33.1235 -77.573148,49.1741 -123.713403,44.0246 z m 33.353964,-17.4031 c 20.271302,-1.7076 45.8716242,-11.9536 63.536116,-25.429 10.624971,-8.1052 22.616952,-20.9412 29.917823,-32.0234 3.40566,-5.1696 6.192111,-9.7501 6.192111,-10.179 0,-0.7473 -3.873941,0.7825 -23.120033,9.13 -5.97243,2.5904 -12.922451,6.9362 -22.050602,13.7882 -38.107754,28.6055 -65.835557,40.9876 -92.537219,41.3234 l -8.792161,0.1106 5.500001,1.4206 c 5.88842,1.521 25.224502,3.2265 31.000003,2.7343 1.925,-0.1641 6.58428,-0.5581 10.353961,-0.8757 z m -36.353754,-78.0006 20.481922,-20.5002 20.519162,20.5017 20.519162,20.5017 15.73977173,-15.7628 c 8.65688087,-8.6696 15.73978127,-16.212 15.73978127,-16.7609 0,-0.5489 -9.0001506,-9.9897 -20.0003317,-20.9796 L -23.962212,997.97344 -3.2220296,977.2156 17.518142,956.45777 1.0756208,939.99256 c -9.0433909,-9.05587 -16.2338618,-16.67389 -15.9788118,-16.92893 0.25504,-0.25505 10.8042813,-5.23929 23.4427626,-11.0761 12.6384714,-5.8368 23.3547624,-10.98809 23.8139724,-11.4473 1.22118,-1.22118 -9.978341,-10.72075 -20.305582,-17.22344 -25.869453,-16.28908 -57.336886,-22.89012 -87.468689,-18.34862 -36.907903,5.56279 -67.322703,24.33347 -89.907843,55.48716 -9.94362,13.71611 -19.63156,36.39951 -22.63598,53 -1.62105,8.95692 -3.00019,28.32897 -2.08463,29.28177 0.41317,0.43 6.3394,-1.7738 13.16941,-4.89727 11.88108,-5.43349 12.77703,-6.06031 20.71445,-14.49211 7.83734,-8.32548 21.87263,-19.87314 26.98595,-22.20292 2.15489,-0.98184 3.69049,0.30188 20.77306,17.36573 l 18.446152,18.42594 -20.740562,20.75823 -20.74056,20.7582 16.47849,16.5012 c 9.06317,9.0757 16.712721,16.5012 16.999001,16.5012 0.28628,0 9.737381,-9.2251 21.002432,-20.5002 z m 10.999791,-94.99977 c -8.403621,-8.4475 -8.436191,-8.5 -5.27389,-8.5 1.95238,0 12.647061,-4.39146 27.676302,-11.36448 l 24.494343,-11.36447 -19.151722,19.86447 c -10.533451,10.92547 -19.182652,19.86448 -19.220452,19.86448 -0.0378,0 -3.87387,-3.825 -8.524581,-8.5 z"
         id="path11230"
         inkscape:connector-curvature="0" />
      <path
         style="fill:#fe5858"
         d="M -73.961567,1146.3588 C -136.31445,1139.4 -188.37976,1093.0122 -202.9284,1031.4553 c -6.38831,-27.0296 -4.56577,-58.1748 4.95753,-84.71836 14.88445,-41.48632 48.80459,-75.40646 90.29091,-90.29091 37.472934,-13.44454 81.502958,-11.13158 115.9367915,6.0903 56.5748355,28.29558 89.6893085,86.54174 83.9536985,147.66897 -3.41318,36.3761 -17.260922,66.4235 -42.458694,92.1289 -32.469434,33.1235 -77.573148,49.1741 -123.713403,44.0246 z m 29.292703,-16.9286 c 23.167103,-2.1969 43.4846146,-9.3184 61.971116,-21.7215 12.944912,-8.6851 26.758693,-22.5014 35.214894,-35.2213 4.35734,-6.5544 9.057191,-15.8457 8.354861,-16.5171 -0.18346,-0.1754 -5.733561,2.0145 -12.333561,4.8665 -10.554402,4.5607 -13.679442,6.5354 -25.941053,16.392 -39.992914,32.1488 -72.944037,47.9024 -101.05896,48.3155 l -9.000001,0.1322 5.5,1.3931 c 4.573541,1.1585 10.443652,1.921 25.000003,3.2474 0.825,0.075 6.356711,-0.3239 12.292701,-0.8868 z m -32.292493,-78.4751 20.481922,-20.5002 20.518982,20.5016 20.518982,20.5015 L 0.79754078,1055.1966 17.036552,1038.9352 -3.4627197,1018.4542 -23.961982,997.97321 -3.2229396,977.2165 17.516112,956.4598 3.5756111,942.49257 C -4.0916697,934.81059 -10.16165,928.32259 -9.9132303,928.07479 -9.6648103,927.827 0.88844078,922.83196 13.538442,916.97472 26.188443,911.11747 36.966014,905.9044 37.488594,905.39011 39.805015,903.11043 15.794412,884.37478 1.0993108,876.99528 -25.914102,863.42984 -58.830695,859.96526 -89.017288,867.51019 c -50.731142,12.67991 -90.377862,56.0991 -99.501812,108.96962 -1.62832,9.43562 -2.45704,32.29179 -1.21589,33.53449 0.39962,0.4002 4.56729,-1.0244 9.26148,-3.1657 7.9416,-3.6226 8.96682,-4.4494 14.74832,-11.89327 10.86676,-13.99133 24.32267,-26.50622 35.52888,-33.04421 l 3.26526,-1.90503 18.48544,18.46519 18.485452,18.46519 -20.740562,20.75823 -20.74056,20.7582 16.47849,16.5012 c 9.06317,9.0757 16.712721,16.5012 16.999001,16.5012 0.28628,0 9.737381,-9.2251 21.002432,-20.5002 z m 10.985631,-95.01401 -8.429071,-8.47308 10.971611,0.24366 10.971621,0.24366 9.892441,-4.78336 9.892431,-4.78335 -10.040341,10.78335 c -5.52219,5.93085 -11.117931,11.7866 -12.434991,13.01278 l -2.39464,2.22943 -8.429061,-8.47309 z"
         id="path11228"
         inkscape:connector-curvature="0" />
      <path
         style="fill:#de6666"
         d="M -73.961567,1146.3588 C -136.31445,1139.4 -188.37976,1093.0122 -202.9284,1031.4553 c -6.38831,-27.0296 -4.56577,-58.1748 4.95753,-84.71836 14.88445,-41.48632 48.80459,-75.40646 90.29091,-90.29091 37.472934,-13.44454 81.502958,-11.13158 115.9367915,6.0903 56.5748355,28.29558 89.6893085,86.54174 83.9536985,147.66897 -3.41318,36.3761 -17.260922,66.4235 -42.458694,92.1289 -32.469434,33.1235 -77.573148,49.1741 -123.713403,44.0246 z m 44.233675,-18.9632 c 34.1341931,-6.9137 63.630246,-26.9269 83.376118,-56.5709 5.095881,-7.6504 9.786441,-18.4031 9.167901,-21.0167 -0.68525,-2.8956 -12.890141,4.8377 -30.570663,19.3701 -29.011613,23.846 -43.797814,33.8655 -65.207027,44.1858 -15.886791,7.6582 -28.804132,11.1848 -44.000004,12.0125 l -11.500001,0.6264 9.500001,1.7208 c 5.225,0.9464 11.075001,1.9058 13.000001,2.1319 6.929401,0.814 26.695383,-0.5279 36.233674,-2.4599 z m -59.504506,-2.5444 c -0.3323,-0.3323 -1.1948,-0.3678 -1.91667,-0.079 -0.79773,0.3192 -0.56078,0.5562 0.60417,0.6041 1.05416,0.043 1.64479,-0.1929 1.3125,-0.5252 z m 11.770831,-73.3959 c 10.989691,-11 20.431452,-20 20.981692,-20 0.55025,0 10.009031,9.0006 21.019532,20.0013 l 20.019082,20.0012 L 0.79765078,1055.1965 17.036552,1038.9352 -3.4627197,1018.4542 -23.961982,997.97321 -3.2251796,977.21874 17.511632,956.46429 7.0755814,945.9926 c -5.7398306,-5.75943 -10.233801,-10.65525 -9.986601,-10.8796 0.24721,-0.22435 11.0244611,-5.27543 23.9494626,-11.22464 12.925001,-5.9492 23.676532,-10.94443 23.892302,-11.10051 0.92436,-0.66867 -9.788061,-11.98277 -17.265302,-18.23502 -17.8115413,-14.89349 -38.388063,-24.72815 -61.127006,-29.21597 -10.540451,-2.08029 -37.858173,-1.83803 -48.500005,0.4301 -26.950092,5.74399 -49.506062,17.97474 -68.500002,37.14344 -23.01356,23.2253 -36.42231,51.90867 -39.49429,84.48432 -1.04267,11.05656 -0.46928,29.69248 0.98602,32.04728 0.53379,0.8637 1.62848,0.781 4.26905,-0.3223 2.67544,-1.1178 4.95948,-3.6222 9.26195,-10.1555 14.26427,-21.66004 32.2406,-40.16252 45.86837,-47.21087 l 2.8911,-1.49529 17.8589,17.83823 c 9.822391,9.81102 17.858902,18.28889 17.858902,18.83971 0,0.55083 -9.107882,10.11752 -20.239742,21.25932 l -20.23975,20.2578 16.47838,16.5011 c 9.06311,9.0756 16.712711,16.5011 16.999121,16.5011 0.28641,0 9.512301,-9 20.501992,-20 z m 12.037251,-94.9625 c -4.36185,-4.38758 -7.702021,-8.20604 -7.422601,-8.48546 0.62964,-0.62963 28.045493,1.2748 28.769133,1.99844 0.28835,0.28834 -2.61227,3.6608 -6.44582,7.49435 l -6.970081,6.97008 -7.930631,-7.97741 z"
         id="path11226"
         inkscape:connector-curvature="0" />
      <path
         style="fill:#fe4747"
         d="m -72.389397,1146.327 c -33.992963,-3.2671 -65.020653,-18.169 -90.147723,-43.2961 -26.09266,-26.0927 -40.1281,-56.1795 -43.47394,-93.1921 -2.37013,-26.21917 3.30268,-56.05654 15.12523,-79.55442 13.6968,-27.22302 39.53029,-53.05651 66.75331,-66.75331 23.49788,-11.82255 53.335254,-17.49536 79.554376,-15.12523 37.0126539,3.34584 67.099487,17.38128 93.19214,43.47394 26.092652,26.09265 40.128094,56.17948 43.473934,93.19213 2.37013,26.21909 -3.30268,56.05649 -15.125232,79.55439 -13.696801,27.223 -39.530284,53.0565 -66.753306,66.7533 -15.3199918,7.708 -35.421704,13.3437 -53.670956,15.0472 -12.302771,1.1485 -16.075201,1.1355 -28.927833,-0.1 z m 42.661505,-18.9314 c 34.1341931,-6.9137 63.630246,-26.9269 83.376118,-56.5709 5.095881,-7.6504 9.786441,-18.4031 9.167901,-21.0167 -0.68525,-2.8956 -12.890141,4.8377 -30.570663,19.3701 -29.011613,23.846 -43.797814,33.8655 -65.207027,44.1858 -15.886791,7.6582 -28.804132,11.1848 -44.000004,12.0125 l -11.500001,0.6264 9.500001,1.7208 c 5.225,0.9464 11.075001,1.9058 13.000001,2.1319 6.929401,0.814 26.695383,-0.5279 36.233674,-2.4599 z m -59.504506,-2.5444 c -0.3323,-0.3323 -1.1948,-0.3678 -1.91667,-0.079 -0.79773,0.3192 -0.56078,0.5562 0.60417,0.6041 1.05416,0.043 1.64479,-0.1929 1.3125,-0.5252 z m 11.770831,-73.3959 c 10.989691,-11 20.431452,-20 20.981692,-20 0.55025,0 10.009031,9.0006 21.019532,20.0013 l 20.019082,20.0012 L 0.79765078,1055.1965 17.036552,1038.9352 -3.4627197,1018.4542 -23.961982,997.97321 -3.2251796,977.21874 17.511632,956.46429 7.0755814,945.9926 c -5.7398306,-5.75943 -10.233801,-10.65525 -9.986601,-10.8796 0.24721,-0.22435 11.0244611,-5.27543 23.9494626,-11.22464 12.925001,-5.9492 23.676532,-10.94443 23.892302,-11.10051 0.92436,-0.66867 -9.788061,-11.98277 -17.265302,-18.23502 -17.8115413,-14.89349 -38.388063,-24.72815 -61.127006,-29.21597 -10.540451,-2.08029 -37.858173,-1.83803 -48.500005,0.4301 -26.950092,5.74399 -49.506062,17.97474 -68.500002,37.14344 -23.01356,23.2253 -36.42231,51.90867 -39.49429,84.48432 -1.04267,11.05656 -0.46928,29.69248 0.98602,32.04728 0.53379,0.8637 1.62848,0.781 4.26905,-0.3223 2.67544,-1.1178 4.95948,-3.6222 9.26195,-10.1555 14.26427,-21.66004 32.2406,-40.16252 45.86837,-47.21087 l 2.8911,-1.49529 17.8589,17.83823 c 9.822391,9.81102 17.858902,18.28889 17.858902,18.83971 0,0.55083 -9.107882,10.11752 -20.239742,21.25932 l -20.23975,20.2578 16.47838,16.5011 c 9.06311,9.0756 16.712711,16.5011 16.999121,16.5011 0.28641,0 9.512301,-9 20.501992,-20 z m 12.037251,-94.9625 c -4.36185,-4.38758 -7.702021,-8.20604 -7.422601,-8.48546 0.62964,-0.62963 28.045493,1.2748 28.769133,1.99844 0.28835,0.28834 -2.61227,3.6608 -6.44582,7.49435 l -6.970081,6.97008 -7.930631,-7.97741 z"
         id="path11224"
         inkscape:connector-curvature="0" />
      <path
         style="fill:#d95050"
         d="m -72.389397,1146.327 c -33.992963,-3.2671 -65.020653,-18.169 -90.147723,-43.2961 -26.09266,-26.0927 -40.1281,-56.1795 -43.47394,-93.1921 -2.37013,-26.21917 3.30268,-56.05654 15.12523,-79.55442 13.6968,-27.22302 39.53029,-53.05651 66.75331,-66.75331 23.49788,-11.82255 53.335254,-17.49536 79.554376,-15.12523 37.0126539,3.34584 67.099487,17.38128 93.19214,43.47394 26.092652,26.09265 40.128094,56.17948 43.473934,93.19213 2.37013,26.21909 -3.30268,56.05649 -15.125232,79.55439 -13.696801,27.223 -39.530284,53.0565 -66.753306,66.7533 -15.3199918,7.708 -35.421704,13.3437 -53.670956,15.0472 -12.302771,1.1485 -16.075201,1.1355 -28.927833,-0.1 z m 29.927833,-16.8804 c 36.0035841,-3.9698 67.100367,-21.1462 89.600829,-49.4913 3.056151,-3.85 6.995221,-9.3879 8.753491,-12.3066 6.064151,-10.0661 9.082591,-21.1934 5.749031,-21.1934 -1.68745,0 -10.692051,6.8933 -30.367513,23.247 -25.4035027,21.1148 -40.4792042,31.5957 -59.235836,41.1817 -20.550042,10.5027 -38.363044,15.1477 -55.000006,14.3421 l -9.500001,-0.46 7.000001,1.8251 c 13.489251,3.5171 28.162333,4.4914 43.000004,2.8554 z m -34.758933,-78.2321 20.258932,-20.2409 20.498892,20.4806 20.498892,20.4806 16.50233175,-16.4796 16.50232125,-16.4796 -20.0012116,-20.019 c -11.0006714,-11.0105 -20.0012224,-20.46109 -20.0012224,-21.00126 0,-0.54018 9.103921,-10.0942 20.2309424,-21.23116 l 20.2309416,-20.24901 -6.42495,-6.48258 c -3.5337205,-3.56541 -6.2251508,-6.67352 -5.9809408,-6.90689 0.24421,-0.23338 10.8963408,-5.24879 23.6714028,-11.14536 l 23.227392,-10.72103 -3.22739,-4.53505 c -5.648741,-7.93749 -17.726852,-20.09432 -26.617233,-26.7907 -9.356601,-7.04754 -25.7930427,-15.87896 -36.110164,-19.40226 -18.891202,-6.45134 -43.753364,-8.68399 -62.761816,-5.6361 -56.478343,9.05598 -101.300763,53.3656 -111.919683,110.63923 -2.09587,11.30417 -2.16226,39.13477 -0.11499,48.20437 l 1.29647,5.7435 6.6399,-11.2435 c 12.59489,-21.32716 27.91661,-39.58327 42.31814,-50.42284 11.53891,-8.68498 8.5749,-9.8107 29.60725,11.24472 l 18.415442,18.43565 -20.480112,20.49837 -20.4801,20.4984 16.47838,16.5011 c 9.06311,9.0756 16.704471,16.5011 16.980811,16.5011 0.27634,0 9.618951,-9.1083 20.761372,-20.2408 z m 11.380831,-95.13645 c -4.03042,-4.05751 -6.944161,-7.58087 -6.474971,-7.82971 1.072501,-0.5688 27.563593,1.08418 28.241633,1.76221 0.67096,0.67097 -12.045761,13.44478 -13.384701,13.44478 -0.57965,0 -4.35154,-3.31978 -8.381961,-7.37728 z"
         id="path11222"
         inkscape:connector-curvature="0" />
      <path
         style="fill:#fe3737"
         d="m -70.267976,1146.3951 c -35.881884,-3.184 -69.573634,-19.2978 -94.243154,-45.074 -16.27121,-17.0011 -26.73201,-34.2625 -34.37412,-56.7208 -13.75713,-40.429 -8.43007,-88.09661 13.9318,-124.66455 46.97764,-76.82163 149.579207,-95.41986 220.491894,-39.9678 64.816146,50.6847 76.008366,144.74125 24.987373,209.98735 -14.166052,18.1158 -34.000044,33.8599 -54.3228757,43.1213 -16.9795313,7.7378 -31.9961233,11.6471 -51.3041753,13.3561 -12.397451,1.0973 -12.375481,1.0974 -25.166742,-0.038 z m 27.806412,-16.9485 c 36.0035841,-3.9698 67.100367,-21.1462 89.600829,-49.4913 3.056151,-3.85 6.995221,-9.3879 8.753491,-12.3066 6.064151,-10.0661 9.082591,-21.1934 5.749031,-21.1934 -1.68745,0 -10.692051,6.8933 -30.367513,23.247 -25.4035027,21.1148 -40.4792042,31.5957 -59.235836,41.1817 -20.550042,10.5027 -38.363044,15.1477 -55.000006,14.3421 l -9.500001,-0.46 7.000001,1.8251 c 13.489251,3.5171 28.162333,4.4914 43.000004,2.8554 z m -34.758933,-78.2321 20.258932,-20.2409 20.498892,20.4806 20.498892,20.4806 16.50233175,-16.4796 16.50232125,-16.4796 -20.0012116,-20.019 c -11.0006714,-11.0105 -20.0012224,-20.46109 -20.0012224,-21.00126 0,-0.54018 9.103921,-10.0942 20.2309424,-21.23116 l 20.2309416,-20.24901 -6.42495,-6.48258 c -3.5337205,-3.56541 -6.2251508,-6.67352 -5.9809408,-6.90689 0.24421,-0.23338 10.8963408,-5.24879 23.6714028,-11.14536 l 23.227392,-10.72103 -3.22739,-4.53505 c -5.648741,-7.93749 -17.726852,-20.09432 -26.617233,-26.7907 -9.356601,-7.04754 -25.7930427,-15.87896 -36.110164,-19.40226 -18.891202,-6.45134 -43.753364,-8.68399 -62.761816,-5.6361 -56.478343,9.05598 -101.300763,53.3656 -111.919683,110.63923 -2.09587,11.30417 -2.16226,39.13477 -0.11499,48.20437 l 1.29647,5.7435 6.6399,-11.2435 c 12.59489,-21.32716 27.91661,-39.58327 42.31814,-50.42284 11.53891,-8.68498 8.5749,-9.8107 29.60725,11.24472 l 18.415442,18.43565 -20.480112,20.49837 -20.4801,20.4984 16.47838,16.5011 c 9.06311,9.0756 16.704471,16.5011 16.980811,16.5011 0.27634,0 9.618951,-9.1083 20.761372,-20.2408 z m 11.380831,-95.13645 c -4.03042,-4.05751 -6.944161,-7.58087 -6.474971,-7.82971 1.072501,-0.5688 27.563593,1.08418 28.241633,1.76221 0.67096,0.67097 -12.045761,13.44478 -13.384701,13.44478 -0.57965,0 -4.35154,-3.31978 -8.381961,-7.37728 z"
         id="path11220"
         inkscape:connector-curvature="0" />
      <path
         style="fill:#fe2525"
         d="m -70.267976,1146.3951 c -35.881884,-3.184 -69.573634,-19.2978 -94.243154,-45.074 -16.27121,-17.0011 -26.73201,-34.2625 -34.37412,-56.7208 -13.75713,-40.429 -8.43007,-88.09661 13.9318,-124.66455 46.97764,-76.82163 149.579207,-95.41986 220.491894,-39.9678 64.816146,50.6847 76.008366,144.74125 24.987373,209.98735 -14.166052,18.1158 -34.000044,33.8599 -54.3228757,43.1213 -16.9795313,7.7378 -31.9961233,11.6471 -51.3041753,13.3561 -12.397451,1.0973 -12.375481,1.0974 -25.166742,-0.038 z m 39.281614,-18.4382 c 22.0893618,-4.395 43.866404,-15.0375 61.254286,-29.935 12.205381,-10.4573 25.902022,-28.2698 30.348143,-39.4678 7.19664,-18.1254 4.34667,-17.0702 -29.077623,10.7659 -49.259405,41.0236 -83.831879,57.671 -116.000012,55.8565 l -9.000001,-0.5077 7.500001,1.9043 c 4.125001,1.0473 10.650001,2.3231 14.500002,2.8351 9.14413,1.216 31.009863,0.432 40.475204,-1.4513 z m -46.234135,-76.7424 20.258932,-20.2409 20.498892,20.4806 20.498892,20.4806 16.50233175,-16.4796 16.50232125,-16.4796 -20.0012116,-20.019 c -11.0006714,-11.0105 -20.0012224,-20.46109 -20.0012224,-21.00126 0,-0.54018 9.088111,-10.07837 20.1958024,-21.19598 19.3507716,-19.36806 20.1248416,-20.29225 18.5000016,-22.08768 -0.93269,-1.03061 -1.68086,-2.2884 -1.6626,-2.79509 0.01825,-0.50669 9.864711,-5.42126 21.881002,-10.92126 l 21.847812,-10 -1.84672,-3.64295 C 52.650146,920.79549 42.437495,908.1139 33.894354,899.92005 16.248252,882.99543 -6.0225499,871.14448 -30.123932,865.85401 c -11.208381,-2.46034 -35.196074,-2.9439 -47.335225,-0.95421 -66.847793,10.95678 -116.181443,72.01163 -113.167913,140.0555 0.31666,7.15 1.097,15.8295 1.73409,19.2876 l 1.15834,6.2876 5.66655,-9.7876 c 14.9146,-25.76138 31.19534,-44.72966 48.129,-56.07388 l 6.39823,-4.28631 18.5334,18.5334 18.533412,18.5334 -20.483512,20.50179 -20.4835,20.5018 16.47838,16.5011 c 9.06311,9.0756 16.704471,16.5011 16.980811,16.5011 0.27634,0 9.618951,-9.1083 20.761372,-20.2408 z m 11.233901,-95.37906 -7.474971,-7.61988 13.840222,0.61663 c 7.61213,0.33915 14.295011,0.8977 14.850851,1.24123 1.09442,0.67639 -10.951511,13.38191 -12.687211,13.38191 -0.57965,0 -4.41765,-3.42895 -8.528891,-7.61989 z"
         id="path11218"
         inkscape:connector-curvature="0" />
      <path
         style="fill:#fe1818"
         d="m -70.267976,1146.3951 c -35.881884,-3.184 -69.573634,-19.2978 -94.243154,-45.074 -16.27121,-17.0011 -26.73201,-34.2625 -34.37412,-56.7208 -13.75713,-40.429 -8.43007,-88.09661 13.9318,-124.66455 46.97764,-76.82163 149.579207,-95.41986 220.491894,-39.9678 64.816146,50.6847 76.008366,144.74125 24.987373,209.98735 -14.166052,18.1158 -34.000044,33.8599 -54.3228757,43.1213 -16.9795313,7.7378 -31.9961233,11.6471 -51.3041753,13.3561 -12.397451,1.0973 -12.375481,1.0974 -25.166742,-0.038 z m 33.306413,-17.4077 c 20.699552,-3.1727 42.2310942,-11.9456 58.262276,-23.7385 11.570101,-8.5113 24.359452,-21.8738 32.004413,-33.4388 6.464331,-9.779 11.523981,-21.852 10.393041,-24.7991 -1.1721,-3.0545 -4.22029,-1.0197 -27.659723,18.4634 -20.929742,17.3971 -30.4001127,24.6544 -42.781154,32.784 -27.563783,18.0988 -49.547835,26.2997 -71.218857,26.5673 -5.775001,0.071 -12.300001,-0.1834 -14.500002,-0.5661 -3.09513,-0.5383 -2.67854,-0.2583 1.841581,1.2374 13.959981,4.6197 36.658283,6.0962 53.658425,3.4904 z m -39.499784,-77.5323 19.981472,-20.0002 20.261862,20.2438 20.261872,20.2438 L 0.78471077,1055.2016 17.525562,1038.4608 -2.7182196,1018.1989 -22.962002,997.93703 -2.9617796,977.95555 C 8.0383415,966.96574 17.038442,957.46654 17.038442,956.84621 c 0,-0.68799 2.827571,-1.32067 7.250001,-1.62222 6.359991,-0.43366 9.178581,-1.38615 22.960182,-7.75892 l 15.710192,-7.26457 -1.45626,-3.48531 C 57.309076,926.67877 46.024795,911.58275 33.902814,899.79247 15.138612,881.54171 -9.1708002,869.38642 -35.817093,864.93084 c -12.454091,-2.08247 -36.473314,-1.57728 -48.144475,1.01261 -17.414312,3.86433 -36.027792,12.29323 -51.080322,23.13113 -9.20741,6.62939 -23.36716,20.9479 -30.08496,30.42229 -16.54686,23.33671 -25.8402,52.40939 -25.83092,80.80783 0.003,9.8529 2.03902,28.5268 3.24097,29.7288 0.19877,0.1987 2.81251,-3.9889 5.80831,-9.3059 12.97431,-23.02681 32.02784,-45.36793 47.43672,-55.62162 l 6.98981,-4.65129 18.2608,18.24078 18.260792,18.24079 -20.000602,20.01844 c -11.00033,11.0102 -20.0006,20.4595 -20.0006,20.9985 0,1.3069 32.191301,33.5021 33.498011,33.5021 0.56141,0 10.012401,-9.0001 21.002212,-20.0002 z m 11.473821,-95.61339 -7.474041,-7.61175 12.469362,0.68576 c 6.85815,0.37716 13.042501,1.00649 13.743001,1.39851 0.88065,0.49284 -0.66065,2.62985 -4.99532,6.92599 l -6.268961,6.21323 -7.474041,-7.61174 z"
         id="path11216"
         inkscape:connector-curvature="0" />
      <path
         style="fill:#d22c2c"
         d="m -70.267976,1146.3951 c -35.881884,-3.184 -69.573634,-19.2978 -94.243154,-45.074 -16.27121,-17.0011 -26.73201,-34.2625 -34.37412,-56.7208 -13.75713,-40.429 -8.43007,-88.09661 13.9318,-124.66455 46.97764,-76.82163 149.579207,-95.41986 220.491894,-39.9678 64.816146,50.6847 76.008366,144.74125 24.987373,209.98735 -14.166052,18.1158 -34.000044,33.8599 -54.3228757,43.1213 -16.9795313,7.7378 -31.9961233,11.6471 -51.3041753,13.3561 -12.397451,1.0973 -12.375481,1.0974 -25.166742,-0.038 z m 42.306414,-18.8062 c 35.4844334,-8.2056 66.282757,-30.25 84.896248,-60.7659 5.540091,-9.0827 8.860441,-21.3677 5.775201,-21.3677 -2.30294,0 -9.639411,5.436 -27.163963,20.1273 -46.030954,38.589 -75.801197,55.1192 -106.03343,58.876 -7.860211,0.9767 -21.505673,0.1717 -27.211503,-1.6053 -1.45031,-0.4517 -1.49682,-0.3746 -0.26256,0.4353 2.0941,1.374 12.992181,4.1642 22.500002,5.7607 11.255051,1.8898 36.348834,1.1183 47.500005,-1.4604 z m -8.244421,-75.8841 20.243782,20.2437 L 0.78168077,1055.2046 17.525562,1038.4608 -2.7181096,1018.199 -22.961782,997.93726 -2.5172096,977.51093 C 8.7273016,966.27645 17.700792,956.71802 17.423882,956.26997 c -0.27691,-0.44805 3.315521,-0.81464 7.983181,-0.81464 4.667671,0 12.006721,-0.47657 16.309022,-1.05903 8.474161,-1.14728 25.322362,-4.83608 25.322362,-5.54416 0,-1.82715 -5.74949,-13.85265 -9.864311,-20.63197 -20.503742,-33.78063 -53.6130149,-56.60629 -91.757859,-63.25819 -9.855591,-1.71867 -31.735803,-1.97669 -41.377844,-0.48794 -45.926313,7.09111 -83.489493,36.06699 -103.256973,79.65146 -7.77473,17.14217 -11.73258,36.20451 -11.73902,56.539 -0.004,12.5551 1.53307,27.5163 2.99102,29.1139 0.41311,0.4527 2.45835,-2.2473 4.54497,-6 10.93683,-19.6693 25.76447,-39.19805 37.53143,-49.43079 6.89402,-5.99516 16.75139,-12.89228 18.42564,-12.89228 0.56307,0 9.00635,7.99184 18.76285,17.75964 l 17.739092,17.75965 -20.498872,20.48058 -20.49887,20.4806 17.23965,17.2608 17.239641,17.2607 20.515622,-20.4981 20.515632,-20.4982 20.243772,20.2438 z m -28.781543,-95.84261 -7.474041,-7.59127 11.362872,0.70887 c 17.675641,1.1027 17.349971,0.83126 9.880081,8.23475 l -6.294871,6.23891 -7.474041,-7.59126 z"
         id="path11214"
         inkscape:connector-curvature="0" />
      <path
         style="fill:#fd0000"
         d="m -63.961566,1146.7383 c -28.418923,-1.3787 -56.872484,-11.3044 -80.327794,-28.0215 -10.36122,-7.3846 -26.54903,-23.5725 -33.93368,-33.9337 -18.51462,-25.9774 -27.91095,-55.3766 -27.91095,-87.32777 0,-40.6153 14.9575,-76.69664 43.71664,-105.45578 28.75914,-28.75914 64.840481,-43.71664 105.455785,-43.71664 40.615304,0 76.696638,14.9575 105.455781,43.71664 28.759142,28.75914 43.716644,64.84048 43.716644,105.45578 0,40.61527 -14.957502,76.69667 -43.716644,105.45577 -27.240773,27.2408 -60.926147,41.9929 -99.95578,43.7745 -3.850001,0.1758 -9.475001,0.1995 -12.500002,0.053 z m 36.000004,-19.1494 c 35.4844334,-8.2056 66.282757,-30.25 84.896248,-60.7659 5.540091,-9.0827 8.860441,-21.3677 5.775201,-21.3677 -2.30294,0 -9.639411,5.436 -27.163963,20.1273 -46.030954,38.589 -75.801197,55.1192 -106.03343,58.876 -7.860211,0.9767 -21.505673,0.1717 -27.211503,-1.6053 -1.45031,-0.4517 -1.49682,-0.3746 -0.26256,0.4353 2.0941,1.374 12.992181,4.1642 22.500002,5.7607 11.255051,1.8898 36.348834,1.1183 47.500005,-1.4604 z m -8.244421,-75.8841 20.243782,20.2437 L 0.78168077,1055.2046 17.525562,1038.4608 -2.7181096,1018.199 -22.961782,997.93726 -2.5172096,977.51093 C 8.7273016,966.27645 17.700792,956.71802 17.423882,956.26997 c -0.27691,-0.44805 3.315521,-0.81464 7.983181,-0.81464 4.667671,0 12.006721,-0.47657 16.309022,-1.05903 8.474161,-1.14728 25.322362,-4.83608 25.322362,-5.54416 0,-1.82715 -5.74949,-13.85265 -9.864311,-20.63197 -20.503742,-33.78063 -53.6130149,-56.60629 -91.757859,-63.25819 -9.855591,-1.71867 -31.735803,-1.97669 -41.377844,-0.48794 -45.926313,7.09111 -83.489493,36.06699 -103.256973,79.65146 -7.77473,17.14217 -11.73258,36.20451 -11.73902,56.539 -0.004,12.5551 1.53307,27.5163 2.99102,29.1139 0.41311,0.4527 2.45835,-2.2473 4.54497,-6 10.93683,-19.6693 25.76447,-39.19805 37.53143,-49.43079 6.89402,-5.99516 16.75139,-12.89228 18.42564,-12.89228 0.56307,0 9.00635,7.99184 18.76285,17.75964 l 17.739092,17.75965 -20.498872,20.48058 -20.49887,20.4806 17.23965,17.2608 17.239641,17.2607 20.515622,-20.4981 20.515632,-20.4982 20.243772,20.2438 z m -28.781543,-95.84261 -7.474041,-7.59127 11.362872,0.70887 c 17.675641,1.1027 17.349971,0.83126 9.880081,8.23475 l -6.294871,6.23891 -7.474041,-7.59126 z"
         id="path11212"
         inkscape:connector-curvature="0" />
      <path
         style="fill:#e90000"
         d="m -63.961566,1146.7383 c -28.418923,-1.3787 -56.872484,-11.3044 -80.327794,-28.0215 -10.36122,-7.3846 -26.54903,-23.5725 -33.93368,-33.9337 -18.51462,-25.9774 -27.91095,-55.3766 -27.91095,-87.32777 0,-40.6153 14.9575,-76.69664 43.71664,-105.45578 28.75914,-28.75914 64.840481,-43.71664 105.455785,-43.71664 40.615304,0 76.696638,14.9575 105.455781,43.71664 28.759142,28.75914 43.716644,64.84048 43.716644,105.45578 0,40.61527 -14.957502,76.69667 -43.716644,105.45577 -27.240773,27.2408 -60.926147,41.9929 -99.95578,43.7745 -3.850001,0.1758 -9.475001,0.1995 -12.500002,0.053 z m 35.243884,-14.2495 c 53.997075,-11.4825 95.144199,-52.7687 106.938271,-107.2998 3.17274,-14.6695 3.17274,-40.79785 0,-55.46734 -11.842092,-54.75314 -52.695336,-95.60638 -107.448481,-107.44848 -14.669492,-3.17274 -40.797854,-3.17274 -55.467346,0 -30.151152,6.52114 -56.444952,21.86479 -76.106422,44.41164 -35.20775,40.37459 -43.89295,97.38378 -22.30863,146.43258 19.04994,43.2896 57.96379,73.0334 105.748213,80.8286 12.260381,2.0001 35.686204,1.2984 48.644395,-1.4572 z"
         id="path11210"
         inkscape:connector-curvature="0" />
      <path
         style="fill:#d70000"
         d="m -63.961566,1146.7383 c -28.418923,-1.3787 -56.872484,-11.3044 -80.327794,-28.0215 -10.36122,-7.3846 -26.54903,-23.5725 -33.93368,-33.9337 -18.51462,-25.9774 -27.91095,-55.3766 -27.91095,-87.32777 0,-40.6153 14.9575,-76.69664 43.71664,-105.45578 28.75914,-28.75914 64.840481,-43.71664 105.455785,-43.71664 40.615304,0 76.696638,14.9575 105.455781,43.71664 28.759142,28.75914 43.716644,64.84048 43.716644,105.45578 0,40.61527 -14.957502,76.69667 -43.716644,105.45577 -27.240773,27.2408 -60.926147,41.9929 -99.95578,43.7745 -3.850001,0.1758 -9.475001,0.1995 -12.500002,0.053 z m 29.261763,-12.822 c 14.132252,-2.472 25.4283428,-6.1322 38.2786641,-12.403 27.9627829,-13.6455 49.8472449,-35.5069 63.4529859,-63.3861 9.836521,-20.1558 14.000212,-38.1997 14.000212,-60.67187 0,-22.47214 -4.163691,-40.51606 -14.000212,-60.67185 C 53.426106,908.90429 31.541644,887.04289 3.5788611,873.39736 -16.442361,863.62722 -34.538513,859.46171 -56.961565,859.46171 c -22.423052,0 -40.519204,4.16551 -60.540435,13.93565 -27.96277,13.64553 -49.84724,35.50693 -63.45297,63.38612 -9.83653,20.15579 -14.00022,38.19971 -14.00022,60.67185 0,22.47217 4.16369,40.51607 14.00022,60.67187 19.46374,39.8827 56.46031,67.6262 101.011143,75.7478 10.465621,1.9078 34.448223,1.9298 45.244024,0.041 z"
         id="path11208"
         inkscape:connector-curvature="0" />
      <path
         style="fill:#ca0000"
         d="m -63.961566,1146.7383 c -28.418923,-1.3787 -56.872484,-11.3044 -80.327794,-28.0215 -10.36122,-7.3846 -26.54903,-23.5725 -33.93368,-33.9337 -18.51462,-25.9774 -27.91095,-55.3766 -27.91095,-87.32777 0,-40.6153 14.9575,-76.69664 43.71664,-105.45578 28.75914,-28.75914 64.840481,-43.71664 105.455785,-43.71664 40.615304,0 76.696638,14.9575 105.455781,43.71664 28.759142,28.75914 43.716644,64.84048 43.716644,105.45578 0,40.61527 -14.957502,76.69667 -43.716644,105.45577 -27.240773,27.2408 -60.926147,41.9929 -99.95578,43.7745 -3.850001,0.1758 -9.475001,0.1995 -12.500002,0.053 z m 31.409953,-12.9114 c 56.060396,-9.3663 101.967561,-55.3999 112.152632,-112.4616 2.23488,-12.5209 2.23488,-35.29905 0,-47.81992 C 69.373268,916.24455 24.249213,871.1205 -33.051613,860.89275 c -12.520871,-2.23488 -35.299033,-2.23488 -47.819904,0 -57.300833,10.22775 -102.424883,55.3518 -112.652633,112.65263 -2.23488,12.52087 -2.23488,35.29902 0,47.81992 12.1986,68.3424 73.42104,117.6527 142.062586,114.4211 5.5,-0.259 14.009481,-1.1407 18.909951,-1.9595 z"
         id="path11206"
         inkscape:connector-curvature="0" />
    </g>
  </g>
</svg>
