<?xml version="1.0" encoding="UTF-8" standalone="no"?>
<!-- Created with Inkscape (http://www.inkscape.org/) -->

<svg
   xmlns:dc="http://purl.org/dc/elements/1.1/"
   xmlns:cc="http://creativecommons.org/ns#"
   xmlns:rdf="http://www.w3.org/1999/02/22-rdf-syntax-ns#"
   xmlns:svg="http://www.w3.org/2000/svg"
   xmlns="http://www.w3.org/2000/svg"
   xmlns:sodipodi="http://sodipodi.sourceforge.net/DTD/sodipodi-0.dtd"
   xmlns:inkscape="http://www.inkscape.org/namespaces/inkscape"
   width="48"
   height="48"
   viewBox="0 0 48 48.000001"
   id="svg4137"
   version="1.1"
   inkscape:version="0.91 r13725"
   sodipodi:docname="edit_tools.svg">
  <defs
     id="defs4139" />
  <sodipodi:namedview
     id="base"
     pagecolor="#ffffff"
     bordercolor="#666666"
     borderopacity="1.0"
     inkscape:pageopacity="0.0"
     inkscape:pageshadow="2"
     inkscape:zoom="11.54037"
     inkscape:cx="11.914991"
     inkscape:cy="23.72291"
     inkscape:document-units="px"
     inkscape:current-layer="layer1"
     showgrid="false"
     units="px"
     inkscape:window-width="1920"
     inkscape:window-height="1018"
     inkscape:window-x="-8"
     inkscape:window-y="-8"
     inkscape:window-maximized="1" />
  <metadata
     id="metadata4142">
    <rdf:RDF>
      <cc:Work
         rdf:about="">
        <dc:format>image/svg+xml</dc:format>
        <dc:type
           rdf:resource="http://purl.org/dc/dcmitype/StillImage" />
        <dc:title />
      </cc:Work>
    </rdf:RDF>
  </metadata>
  <g
     inkscape:label="Camada 1"
     inkscape:groupmode="layer"
     id="layer1"
     transform="translate(0,-1004.3622)">
    <path
       inkscape:connector-curvature="0"
       style="clip-rule:evenodd;fill-rule:evenodd"
       d="m 43.048557,1024.6528 c -0.82024,-0.118 -1.692494,-0.8562 -1.946568,-1.6402 l -1.218356,-2.9624 c -0.38211,-0.7302 -0.292084,-1.8702 0.20006,-2.5284 l 1.980576,-2.6362 c 0.492144,-0.6602 0.454134,-1.7082 -0.09402,-2.3244 l -2.168634,-2.1722 c -0.61818,-0.5442 -1.664485,-0.5862 -2.328679,-0.09 l -2.632768,1.9762 c -0.660192,0.496 -1.796524,0.586 -2.528738,0.202 l -2.960864,-1.2182 c -0.790231,-0.252 -1.528447,-1.124 -1.640479,-1.9422 l -0.468136,-3.2584 c -0.11404,-0.818 -0.882258,-1.5562 -1.700496,-1.6442 0,0 -0.51015,-0.052 -1.54045,-0.052 -1.0283,0 -1.538448,0.052 -1.538448,0.052 -0.82024,0.088 -1.588464,0.8262 -1.704498,1.6442 l -0.466136,3.2584 c -0.11604,0.8182 -0.854249,1.6902 -1.640479,1.9422 l -2.960863,1.2182 c -0.732214,0.382 -1.868546,0.294 -2.528738,-0.202 l -2.63677,-1.9782 c -0.6601922,-0.4962 -1.7084979,-0.4562 -2.3266784,0.09 l -2.1686328,2.1722 c -0.5441587,0.6182 -0.5881715,1.6642 -0.092026,2.3244 l 1.9765768,2.6362 c 0.4981452,0.6602 0.5861711,1.7982 0.2040594,2.5284 l -1.2223565,2.9644 c -0.250073,0.786 -1.1243281,1.5242 -1.9425668,1.6402 l -3.2589509,0.462 c -0.81623815,0.118 -1.55445355,0.8842 -1.64047863,1.7062 0,0 -0.05401577,0.51 -0.05401577,1.5402 0,1.0302 0.05401577,1.5402 0.05401577,1.5402 0.08602508,0.822 0.82424048,1.5862 1.64047863,1.7042 l 3.2589509,0.464 c 0.8162381,0.118 1.6924938,0.8562 1.9425668,1.6402 l 1.2223565,2.9604 c 0.3821117,0.7302 0.2920852,1.8722 -0.2040594,2.5284 l -1.9765768,2.6362 c -0.4961447,0.6602 -0.6161797,1.5582 -0.264077,1.9884 0.3501022,0.434 1.3543951,1.5042 1.3563957,1.5082 0.002,0 0.3420998,0.312 0.7502189,0.688 0.408119,0.376 2.0846082,0.8982 2.7448006,0.406 l 2.634769,-1.9802 c 0.660193,-0.492 1.796524,-0.586 2.528738,-0.2 l 2.960864,1.2182 c 0.78823,0.25 1.526444,1.124 1.640478,1.9422 l 0.466136,3.2584 c 0.11604,0.816 0.882258,1.5582 1.704496,1.6442 0,0 0.51015,0.054 1.53845,0.054 1.0303,0 1.54045,-0.054 1.54045,-0.054 0.818238,-0.086 1.586462,-0.8282 1.700494,-1.6442 l 0.468138,-3.2584 c 0.11404,-0.8162 0.852248,-1.6922 1.640479,-1.9422 l 2.960864,-1.2222 c 0.730212,-0.382 1.868544,-0.292 2.528738,0.204 l 2.636768,1.9802 c 0.664194,0.4922 1.708499,0.4542 2.328681,-0.094 l 2.16463,-2.1682 c 0.54616,-0.6222 0.586172,-1.6682 0.09402,-2.3284 l -1.980578,-2.6362 c -0.492144,-0.6562 -0.58217,-1.7962 -0.200058,-2.5284 l 1.218356,-2.9604 c 0.254074,-0.786 1.124328,-1.5242 1.946568,-1.6402 l 3.254948,-0.464 c 0.82024,-0.118 1.558456,-0.8822 1.64448,-1.7042 0,0 0.05402,-0.51 0.05402,-1.5402 0,-1.0302 -0.05402,-1.5402 -0.05402,-1.5402 -0.08602,-0.82 -0.82424,-1.5882 -1.64448,-1.7062 l -3.252948,-0.462 z m -19.047558,9.7092 c -3.314966,0 -6.001751,-2.6884 -6.001751,-6.0008 0,-3.3144 2.686785,-6.0008 6.001751,-6.0008 3.314968,0 6.001751,2.6884 6.001751,6.0008 0,3.3124 -2.688785,6.0008 -6.001751,6.0008 z"
       id="path3" />
  </g>
</svg>
