<?xml version="1.0" encoding="UTF-8" standalone="no"?>
<svg
   xmlns:dc="http://purl.org/dc/elements/1.1/"
   xmlns:cc="http://creativecommons.org/ns#"
   xmlns:rdf="http://www.w3.org/1999/02/22-rdf-syntax-ns#"
   xmlns:svg="http://www.w3.org/2000/svg"
   xmlns="http://www.w3.org/2000/svg"
   xmlns:sodipodi="http://sodipodi.sourceforge.net/DTD/sodipodi-0.dtd"
   xmlns:inkscape="http://www.inkscape.org/namespaces/inkscape"
   width="24pt"
   height="24pt"
   viewBox="0 0 24 24"
   version="1.1"
   id="svg2"
   inkscape:version="0.91 r13725"
   sodipodi:docname="edit-create-polygon.svg">
  <metadata
     id="metadata32">
    <rdf:RDF>
      <cc:Work
         rdf:about="">
        <dc:format>image/svg+xml</dc:format>
        <dc:type
           rdf:resource="http://purl.org/dc/dcmitype/StillImage" />
      </cc:Work>
    </rdf:RDF>
  </metadata>
  <defs
     id="defs30" />
  <sodipodi:namedview
     pagecolor="#ffffff"
     bordercolor="#666666"
     borderopacity="1"
     objecttolerance="10"
     gridtolerance="10"
     guidetolerance="10"
     inkscape:pageopacity="0"
     inkscape:pageshadow="2"
     inkscape:window-width="1920"
     inkscape:window-height="1018"
     id="namedview28"
     showgrid="false"
     inkscape:zoom="11.125147"
     inkscape:cx="18.2392"
     inkscape:cy="12.28205"
     inkscape:window-x="-8"
     inkscape:window-y="-8"
     inkscape:window-maximized="1"
     inkscape:current-layer="svg2" />
  <path
     fill="none"
     d=" M 0.00 0.00 L 7.78 0.00 C 4.89 0.60 2.00 2.31 1.40 5.41 C 0.58 8.16 2.57 10.51 4.32 12.35 C 7.24 11.85 10.03 10.81 12.91 10.19 C 15.39 10.43 17.36 13.12 19.97 12.18 C 24.26 11.13 24.69 4.80 21.80 2.14 C 17.74 1.98 13.70 1.55 9.91 0.00 L 24.00 0.00 L 24.00 13.66 C 23.57 13.57 22.72 13.38 22.30 13.28 C 19.81 12.60 17.17 12.67 14.66 13.20 L 14.19 13.29 C 13.84 13.51 13.14 13.95 12.79 14.17 C 12.96 17.45 12.79 20.81 13.71 24.00 L 0.00 24.00 L 0.00 0.00 Z"
     id="path4" />
  <path
     d="m 7.7080908,0.50336415 2.13,0 C 13.628091,2.0533641 17.668091,2.4833641 21.728091,2.6433641 c 2.89,2.66 2.46,8.9899999 -1.83,10.0399999 -2.61,0.94 -4.58,-1.75 -7.06,-1.99 -2.8800002,0.62 -5.6700002,1.66 -8.5900002,2.16 -1.75,-1.84 -3.73999996,-4.1899999 -2.92,-6.9399999 0.6,-3.1 3.49,-4.81 6.38,-5.40999995 z"
     id="path6"
     inkscape:connector-curvature="0"
     style="fill:#6b776a" />
  <path
     d="m 5.0980908,2.6133641 c 2.88,-1.74999995 6.0800002,-0.2 9.0100002,0.49 2.39,0.71 4.95,0.23 7.33,0.91 0.89,2.18 1.46,5.6 -0.97,7.0099999 -1.69,1.31 -3.55,-0.18 -5.09,-0.93 -4.06,-2.6699999 -8.5600002,3.58 -12.4100002,0.09 -1.03,-2.6599999 -0.64,-6.1599999 2.13,-7.5699999 z"
     id="path8"
     inkscape:connector-curvature="0"
     style="fill:#90c390" />
  <path
     d="m 15.412777,14.53998 0.349403,-0.06922 c 0.810317,0.284585 1.620634,0.576861 2.438387,0.853754 -0.133815,0.546094 -0.408876,1.630592 -0.542691,2.176686 -0.579859,-0.299967 -1.732147,-0.89221 -2.312006,-1.192178 -0.245326,-0.269201 -0.728543,-0.815296 -0.973869,-1.092189 0.260194,-0.169212 0.780582,-0.507637 1.040776,-0.67685 z"
     id="path10"
     inkscape:connector-curvature="0"
     style="fill:#d4ba47" />
  <path
     d="m 15.76218,14.470756 c 1.865961,-0.407647 3.828565,-0.461488 5.679656,0.06153 -0.802882,0.26151 -1.598332,0.52302 -2.401215,0.799913 l -0.840054,-0.0077 c -0.817753,-0.276893 -1.62807,-0.569169 -2.438387,-0.853754 z"
     id="path12"
     inkscape:connector-curvature="0"
     style="fill:#c4a000" />
  <path
     d="m 21.441836,14.532288 c 0.312234,0.07691 0.944132,0.223053 1.263799,0.292276 l 0,0.553787 c -0.178418,0.246127 -0.54269,0.730689 -0.728542,0.976816 -0.602163,0.276893 -1.813922,0.830679 -2.416085,1.107573 -0.12638,-0.530712 -0.386573,-1.599827 -0.520387,-2.130538 0.802883,-0.276893 1.598333,-0.538403 2.401215,-0.799914 z"
     id="path14"
     inkscape:connector-curvature="0"
     style="fill:#d4ba47" />
  <path
     d="m 18.200567,15.32451 0.840054,0.0077 c 0.133814,0.530712 0.394007,1.599826 0.520387,2.130538 0.602163,-0.276893 1.813922,-0.830679 2.416085,-1.107573 -0.54269,0.899903 -1.08538,1.799805 -1.605768,2.71509 0.594729,0.507637 1.196892,1.007583 1.799054,1.507529 -0.840054,-0.253819 -1.687542,-0.453797 -2.542464,-0.615318 -0.364271,0.646083 -0.683938,1.30755 -0.959,1.999783 l -0.215589,0.07691 c -0.185852,-0.57686 -0.564992,-1.738272 -0.758279,-2.315132 -0.646767,0.238435 -1.940301,0.730689 -2.594503,0.969125 0.572426,-0.546095 1.144852,-1.092189 1.717278,-1.638284 -0.475782,-0.922976 -0.981302,-1.83057 -1.471952,-2.745855 0.579859,0.299968 1.732147,0.892211 2.312006,1.192178 0.133815,-0.546094 0.408876,-1.630592 0.542691,-2.176687 z"
     id="path16"
     inkscape:connector-curvature="0"
     style="fill:#ffffff" />
  <path
     d="m 14.372001,15.216829 c 0.245326,0.276894 0.728543,0.822988 0.973869,1.092189 0.49065,0.915286 0.99617,1.822879 1.471952,2.745856 -0.572426,0.546094 -1.144852,1.092189 -1.717278,1.638284 0.654202,-0.238436 1.947736,-0.73069 2.594503,-0.969126 0.193287,0.57686 0.572427,1.738273 0.758279,2.315133 l 0.215589,-0.07691 c 0.275062,-0.692232 0.594729,-1.353699 0.959,-1.999782 0.854922,0.16152 1.70241,0.361499 2.542464,0.615318 -0.602162,-0.499946 -1.204325,-0.999892 -1.799054,-1.507529 0.520388,-0.915286 1.063078,-1.815188 1.605768,-2.71509 0.185852,-0.246127 0.550124,-0.73069 0.728542,-0.976816 l 0,7.083845 -0.275062,-0.0077 -0.126379,0.323042 -7.248255,0 c -0.683938,-2.45358 -0.557558,-5.037914 -0.683938,-7.560717 z"
     id="path18"
     inkscape:connector-curvature="0"
     style="fill:#c4a000" />
  <path
     d="m 5.4051809,15.560908 c 3.44,-1.85 6.0000001,4.29 2.28,5.46 -3.42,1.78 -5.92,-4.27 -2.28,-5.46 z"
     id="path20"
     inkscape:connector-curvature="0"
     style="fill:#6b776a" />
  <path
     d="m 6.2651809,16.420908 c 1.49,0.01 2.65,2.41 1.11,3.16 -1.88,1.97 -3.41,-2.53 -1.11,-3.16 z"
     id="path22"
     inkscape:connector-curvature="0"
     style="fill:#90c390" />
  <path
     d="m 18.251186,17.978417 c 2.527597,0.107681 -1.174589,2.238219 0,0 z"
     id="path24"
     inkscape:connector-curvature="0"
     style="fill:#c4a000" />
  <path
     d="m 22.430573,22.454504 0.275062,0.0077 0,0.31535 -0.401441,0 0.126379,-0.323042 z"
     id="path26"
     inkscape:connector-curvature="0"
     style="fill:#e7e4d3" />
</svg>
