<?xml version="1.0" encoding="UTF-8" standalone="no"?>
<svg
   xmlns:dc="http://purl.org/dc/elements/1.1/"
   xmlns:cc="http://creativecommons.org/ns#"
   xmlns:rdf="http://www.w3.org/1999/02/22-rdf-syntax-ns#"
   xmlns:svg="http://www.w3.org/2000/svg"
   xmlns="http://www.w3.org/2000/svg"
   xmlns:sodipodi="http://sodipodi.sourceforge.net/DTD/sodipodi-0.dtd"
   xmlns:inkscape="http://www.inkscape.org/namespaces/inkscape"
   height="24"
   width="24"
   id="svg4324"
   version="1.1"
   inkscape:version="0.91 r13725"
   sodipodi:docname="edit-move-geometry.svg">
  <metadata
     id="metadata4332">
    <rdf:RDF>
      <cc:Work
         rdf:about="">
        <dc:format>image/svg+xml</dc:format>
        <dc:type
           rdf:resource="http://purl.org/dc/dcmitype/StillImage" />
        <dc:title></dc:title>
      </cc:Work>
    </rdf:RDF>
  </metadata>
  <defs
     id="defs4330" />
  <sodipodi:namedview
     pagecolor="#ffffff"
     bordercolor="#666666"
     borderopacity="1"
     objecttolerance="10"
     gridtolerance="10"
     guidetolerance="10"
     inkscape:pageopacity="0"
     inkscape:pageshadow="2"
     inkscape:window-width="1920"
     inkscape:window-height="1018"
     id="namedview4328"
     showgrid="false"
     inkscape:zoom="13.616"
     inkscape:cx="37.487484"
     inkscape:cy="18.372901"
     inkscape:window-x="-8"
     inkscape:window-y="-8"
     inkscape:window-maximized="1"
     inkscape:current-layer="svg4324" />
  <path
     d="m 13.32595,14.827127 0,4.30123 2.8589,0 -4.32699,4.32699 -4.2754695,-4.32699 2.8588995,0 0,-4.30123 2.88466,0 z m -2.88466,-5.7435603 0,-4.32699 -2.8588995,0 4.2754695,-4.30122988 4.32699,4.30122988 -2.8589,0 0,4.32699 -2.88466,0 z m -1.4423296,4.3012303 -4.30123,0 0,2.8589 -4.3269899,-4.30123 4.3269899,-4.3269902 0,2.8846602 4.30123,0 0,2.88466 z m 5.7435596,-2.88466 4.32699,0 0,-2.8846602 4.30123,4.3269902 -4.30123,4.30123 0,-2.8589 -4.32699,0 0,-2.88466 z"
     id="path4326"
     inkscape:connector-curvature="0" />
</svg>
