<svg width="24" height="24" xmlns="http://www.w3.org/2000/svg">
 <g>
  <title>background</title>
  <rect fill="none" id="canvas_background" height="3.72864" width="3.72864" y="-1" x="-1"/>
 </g>

 <g>
  <title>Layer 1</title>
  <path id="svg_1" d="m0,0l24,0l0,24l-24,0l0,-24z" fill="none"/>
  <path id="svg_2" d="m11.99,12.21c-1.86,-3.49 -1.29,-8.18 -0.03,-11.85c1.42,3.62 1.89,8.39 0.03,11.85z" fill="#476579"/>
  <path id="svg_3" d="m3.64,14.54c-1.72,-4.5 1.38,-9.47 5.7,-11c-0.62,3.24 -5.02,4.71 -4.36,8.45c-0.33,5.08 5.99,8.91 10.35,6.21c3.11,-1.6 4.55,-5.58 3.29,-8.82c-0.97,-2.21 -3.58,-3.33 -3.96,-5.84c2.34,1.07 4.62,2.66 5.51,5.19c1.96,4.39 -0.7,10.15 -5.31,11.53c-4.44,1.82 -10.03,-1.1 -11.22,-5.72z" fill="#476579"/>
 </g>
</svg>