<?xml version="1.0" encoding="UTF-8" standalone="no"?>
<!-- Created with Inkscape (http://www.inkscape.org/) -->

<svg
   xmlns:dc="http://purl.org/dc/elements/1.1/"
   xmlns:cc="http://creativecommons.org/ns#"
   xmlns:rdf="http://www.w3.org/1999/02/22-rdf-syntax-ns#"
   xmlns:svg="http://www.w3.org/2000/svg"
   xmlns="http://www.w3.org/2000/svg"
   xmlns:sodipodi="http://sodipodi.sourceforge.net/DTD/sodipodi-0.dtd"
   xmlns:inkscape="http://www.inkscape.org/namespaces/inkscape"
   width="12.106769mm"
   height="12.105358mm"
   viewBox="0 0 42.897999 42.893001"
   id="svg3353"
   version="1.1"
   inkscape:version="0.91 r13725"
   sodipodi:docname="gear.svg">
  <defs
     id="defs3355" />
  <sodipodi:namedview
     id="base"
     pagecolor="#ffffff"
     bordercolor="#666666"
     borderopacity="1.0"
     inkscape:pageopacity="0.0"
     inkscape:pageshadow="2"
     inkscape:zoom="0.35"
     inkscape:cx="-599.26529"
     inkscape:cy="-75.696355"
     inkscape:document-units="px"
     inkscape:current-layer="layer1"
     showgrid="false"
     fit-margin-top="0"
     fit-margin-left="0"
     fit-margin-right="0"
     fit-margin-bottom="0"
     inkscape:window-width="1920"
     inkscape:window-height="1178"
     inkscape:window-x="-8"
     inkscape:window-y="-8"
     inkscape:window-maximized="1" />
  <metadata
     id="metadata3358">
    <rdf:RDF>
      <cc:Work
         rdf:about="">
        <dc:format>image/svg+xml</dc:format>
        <dc:type
           rdf:resource="http://purl.org/dc/dcmitype/StillImage" />
        <dc:title></dc:title>
      </cc:Work>
    </rdf:RDF>
  </metadata>
  <g
     inkscape:label="Camada 1"
     inkscape:groupmode="layer"
     id="layer1"
     transform="translate(-447.12243,-413.77285)">
    <path
       inkscape:connector-curvature="0"
       id="path8"
       d="m 483.96243,433.43585 6.058,-3.007 c -0.379,-1.686 -0.954,-3.326 -1.715,-4.878 l -6.61,1.435 c -0.921,-1.467 -2.095,-2.794 -3.493,-3.901 l 2.16,-6.407 c -0.722,-0.457 -1.474,-0.886 -2.261,-1.265 -0.791,-0.379 -1.592,-0.699 -2.401,-0.977 l -3.66,5.685 c -1.738,-0.398 -3.506,-0.489 -5.228,-0.29 l -3.006,-6.058 c -1.687,0.375 -3.326,0.95 -4.878,1.708 l 1.434,6.607 c -1.47,0.918 -2.803,2.091 -3.917,3.492 -2.255,-0.761 -4.474,-1.506 -6.407,-2.159 -0.461,0.725 -0.893,1.479 -1.271,2.277 -0.379,0.78 -0.695,1.574 -0.974,2.378 1.716,1.102 3.689,2.373 5.688,3.656 -0.408,1.748 -0.496,3.522 -0.297,5.254 -2.131,1.056 -4.231,2.098 -6.062,3.007 0.376,1.683 0.948,3.319 1.706,4.871 1.996,-0.435 4.283,-0.931 6.606,-1.435 0.925,1.48 2.104,2.816 3.516,3.935 l -2.163,6.403 c 0.723,0.458 1.471,0.883 2.265,1.262 0.784,0.379 1.584,0.699 2.389,0.98 1.104,-1.716 2.368,-3.689 3.659,-5.692 1.751,0.409 3.532,0.494 5.267,0.294 l 3,6.055 c 1.686,-0.379 3.322,-0.95 4.875,-1.712 -0.435,-1.993 -0.932,-4.283 -1.435,-6.61 1.47,-0.921 2.803,-2.101 3.917,-3.509 l 6.408,2.156 c 0.454,-0.715 0.875,-1.46 1.251,-2.244 0.379,-0.794 0.706,-1.602 0.983,-2.411 l -5.688,-3.663 c 0.399,-1.741 0.488,-3.515 0.284,-5.237 z m -8.89,4.91 c -1.729,3.588 -6.034,5.098 -9.619,3.372 -3.588,-1.725 -5.097,-6.031 -3.372,-9.619 1.723,-3.588 6.032,-5.097 9.619,-3.372 3.585,1.723 5.093,6.032 3.372,9.619 z" />
  </g>
</svg>
