<?xml version="1.0" encoding="UTF-8" standalone="no"?>
<!-- Generator: Adobe Illustrator 17.1.0, SVG Export Plug-In . SVG Version: 6.00 Build 0)  -->

<svg
   xmlns:dc="http://purl.org/dc/elements/1.1/"
   xmlns:cc="http://creativecommons.org/ns#"
   xmlns:rdf="http://www.w3.org/1999/02/22-rdf-syntax-ns#"
   xmlns:svg="http://www.w3.org/2000/svg"
   xmlns="http://www.w3.org/2000/svg"
   xmlns:sodipodi="http://sodipodi.sourceforge.net/DTD/sodipodi-0.dtd"
   xmlns:inkscape="http://www.inkscape.org/namespaces/inkscape"
   version="1.1"
   id="Capa_1"
   x="0px"
   y="0px"
   viewBox="0 0 47.2575 47.2575"
   xml:space="preserve"
   width="64"
   height="64"
   inkscape:version="0.91 r13725"
   sodipodi:docname="mnt-isolines-left_all.svg"><metadata
     id="metadata4764"><rdf:RDF><cc:Work
         rdf:about=""><dc:format>image/svg+xml</dc:format><dc:type
           rdf:resource="http://purl.org/dc/dcmitype/StillImage" /><dc:title></dc:title></cc:Work></rdf:RDF></metadata><defs
     id="defs4762" /><sodipodi:namedview
     pagecolor="#ffffff"
     bordercolor="#666666"
     borderopacity="1"
     objecttolerance="10000"
     gridtolerance="10"
     guidetolerance="10"
     inkscape:pageopacity="0"
     inkscape:pageshadow="2"
     inkscape:window-width="2487"
     inkscape:window-height="1058"
     id="namedview4760"
     showgrid="false"
     showborder="true"
     inkscape:zoom="1"
     inkscape:cx="256"
     inkscape:cy="35.193329"
     inkscape:window-x="-8"
     inkscape:window-y="-8"
     inkscape:window-maximized="1"
     inkscape:current-layer="Capa_1" /><g
     id="g4720"
     transform="matrix(0.12192208,0,0,0.13905656,0.33522623,-2.2407965)"
     style="stroke:#000000;stroke-opacity:1;stroke-width:5.6709243;stroke-miterlimit:4;stroke-dasharray:none"><polygon
       points="106.614,252.729 106.614,212.664 0,282.065 106.614,351.466 106.614,311.402 221.979,311.402 221.979,252.729 "
       id="polygon4722"
       style="fill:#43fff0;stroke:#000000;stroke-width:5.6709243;stroke-opacity:1;stroke-miterlimit:4;stroke-dasharray:none" /><path
       d="m 312.484,216.49 c -36.158,0 -65.575,29.417 -65.575,65.575 0,36.158 29.417,65.575 65.575,65.575 36.158,0 65.575,-29.417 65.575,-65.575 0,-36.158 -29.416,-65.575 -65.575,-65.575 z"
       id="path4724"
       inkscape:connector-curvature="0"
       style="fill:#43fff0;stroke:#000000;stroke-width:5.6709243;stroke-opacity:1;stroke-miterlimit:4;stroke-dasharray:none" /><polygon
       points="106.614,66.658 106.614,26.593 0,95.994 106.614,165.396 106.614,125.331 221.979,125.331 221.979,66.658 "
       id="polygon4726"
       style="fill:#43fff0;stroke:#000000;stroke-width:5.6709243;stroke-opacity:1;stroke-miterlimit:4;stroke-dasharray:none" /><path
       d="m 312.484,161.569 c 36.158,0 65.575,-29.417 65.575,-65.575 0,-36.158 -29.417,-65.575 -65.575,-65.575 -36.158,0 -65.575,29.417 -65.575,65.575 0,36.158 29.417,65.575 65.575,65.575 z"
       id="path4728"
       inkscape:connector-curvature="0"
       style="fill:#43fff0;stroke:#000000;stroke-width:5.6709243;stroke-opacity:1;stroke-miterlimit:4;stroke-dasharray:none" /></g><g
     id="g4730"
     transform="translate(0,-330.8025)" /><g
     id="g4732"
     transform="translate(0,-330.8025)" /><g
     id="g4734"
     transform="translate(0,-330.8025)" /><g
     id="g4736"
     transform="translate(0,-330.8025)" /><g
     id="g4738"
     transform="translate(0,-330.8025)" /><g
     id="g4740"
     transform="translate(0,-330.8025)" /><g
     id="g4742"
     transform="translate(0,-330.8025)" /><g
     id="g4744"
     transform="translate(0,-330.8025)" /><g
     id="g4746"
     transform="translate(0,-330.8025)" /><g
     id="g4748"
     transform="translate(0,-330.8025)" /><g
     id="g4750"
     transform="translate(0,-330.8025)" /><g
     id="g4752"
     transform="translate(0,-330.8025)" /><g
     id="g4754"
     transform="translate(0,-330.8025)" /><g
     id="g4756"
     transform="translate(0,-330.8025)" /><g
     id="g4758"
     transform="translate(0,-330.8025)" /></svg>