<?xml version="1.0" encoding="UTF-8" standalone="no"?>
<!-- Created with Inkscape (http://www.inkscape.org/) -->

<svg
   xmlns:dc="http://purl.org/dc/elements/1.1/"
   xmlns:cc="http://creativecommons.org/ns#"
   xmlns:rdf="http://www.w3.org/1999/02/22-rdf-syntax-ns#"
   xmlns:svg="http://www.w3.org/2000/svg"
   xmlns="http://www.w3.org/2000/svg"
   xmlns:sodipodi="http://sodipodi.sourceforge.net/DTD/sodipodi-0.dtd"
   xmlns:inkscape="http://www.inkscape.org/namespaces/inkscape"
   width="64"
   height="64"
   viewBox="0 0 64.000001 64.000001"
   id="svg3361"
   version="1.1"
   inkscape:version="0.91 r13725"
   sodipodi:docname="mnt-processing-isolines.svg">
  <defs
     id="defs3363" />
  <sodipodi:namedview
     id="base"
     pagecolor="#ffffff"
     bordercolor="#666666"
     borderopacity="1.0"
     inkscape:pageopacity="0.0"
     inkscape:pageshadow="2"
     inkscape:zoom="1"
     inkscape:cx="32.5"
     inkscape:cy="32.5"
     inkscape:document-units="px"
     inkscape:current-layer="layer1"
     showgrid="false"
     units="px"
     inkscape:window-width="1968"
     inkscape:window-height="874"
     inkscape:window-x="81"
     inkscape:window-y="81"
     inkscape:window-maximized="0" />
  <metadata
     id="metadata3366">
    <rdf:RDF>
      <cc:Work
         rdf:about="">
        <dc:format>image/svg+xml</dc:format>
        <dc:type
           rdf:resource="http://purl.org/dc/dcmitype/StillImage" />
        <dc:title></dc:title>
      </cc:Work>
    </rdf:RDF>
  </metadata>
  <g
     inkscape:label="Camada 1"
     inkscape:groupmode="layer"
     id="layer1"
     transform="translate(0,-988.36216)">
    <path
       style="fill:#ffffff;fill-rule:evenodd;stroke:#004100;stroke-width:1px;stroke-linecap:butt;stroke-linejoin:miter;stroke-opacity:1"
       d="m 16.673528,997.19542 c -0.274461,0.27447 -0.58091,0.5203 -0.823384,0.82339 -0.58534,0.73167 -0.609106,1.14599 -1.235076,1.64677 -0.193184,0.15454 -0.419621,0.26325 -0.617538,0.41172 -0.232888,0.1746 -0.411692,0.4117 -0.617538,0.6175 -0.205846,0.2059 -0.435683,0.3902 -0.617538,0.6175 -0.06862,0.1373 -0.137231,0.2745 -0.205846,0.4117 -0.06862,0 -0.157328,-0.048 -0.205846,0 -0.04852,0.049 0,0.1373 0,0.2059 -0.137231,0.1372 -0.256434,0.2952 -0.411692,0.4117 -0.122743,0.092 -0.284032,0.1207 -0.411692,0.2058 -0.187385,0.1249 -0.435089,0.5263 -0.617539,0.6176 -0.06137,0.031 -0.157327,-0.049 -0.205846,0 -0.04852,0.048 0.04117,0.1509 0,0.2058 -0.174666,0.2329 -0.467763,0.3679 -0.617538,0.6175 -0.0706,0.1177 0,0.2745 0,0.4117 0,0.069 0.04852,0.1574 0,0.2059 -0.1084901,0.1085 -0.3032013,0.097 -0.4116917,0.2058 -0.048518,0.048 0.021698,0.1408 0,0.2059 -0.048518,0.1455 -0.1372307,0.2744 -0.2058461,0.4117 -0.322442,0.6449 -0.2660325,0.5035 -0.617538,1.4409 -0.076187,0.2032 -0.1632926,0.4048 -0.2058461,0.6175 -0.026913,0.1346 0.033283,0.2786 0,0.4117 -0.037212,0.1489 -0.1573276,0.2662 -0.205846,0.4117 -0.089463,0.2684 -0.1163826,0.555 -0.205846,0.8234 -0.048518,0.1455 -0.1686341,0.2628 -0.205846,0.4117 -0.033283,0.1331 0.082338,0.3019 0,0.4117 -0.2058461,0.2744 -0.6699556,0.3107 -0.8233841,0.6175 -0.1307935,0.2616 -0.3677232,1.2211 -0.4116921,1.4409 -0.033967,0.1699 0.050474,0.7225 0,0.8234 -0.086792,0.1736 -0.3248998,0.2381 -0.4116921,0.4117 -0.061371,0.1228 0.026913,0.2771 0,0.4117 -0.055483,0.2774 -0.1163825,0.555 -0.205846,0.8234 -0.3249418,0.9748 -0.1261314,-0.2558 -0.411692,1.0292 -0.09054,0.4075 -0.096029,0.8324 -0.2058461,1.2351 -0.097223,0.3565 -0.3101812,0.6739 -0.411692,1.0292 -0.0377,0.132 0,0.2745 0,0.4117 0,0.2059 0,0.4117 0,0.6176 0,0.069 0.016642,0.1392 0,0.2058 -0.052626,0.2105 -0.1632926,0.4048 -0.205846,0.6175 -0.026913,0.1346 0.033283,0.2786 0,0.4117 -0.037212,0.1489 -0.1573277,0.2662 -0.2058461,0.4117 -0.021698,0.065 0,0.1373 0,0.2059 0,0.343 0,0.6861 0,1.0292 0,0.1372 0,0.2745 0,0.4117 0,0.069 0.030686,0.1445 0,0.2058 -0.1106389,0.2213 -0.3010531,0.3963 -0.411692,0.6176 -0.030686,0.061 0,0.1372 0,0.2058 0,0.2059 0.04037,0.4157 0,0.6176 -0.03009,0.1504 -0.1868156,0.2594 -0.2058461,0.4117 -0.076596,0.6127 0,1.235 0,1.8526 0,0.9606 0,1.9212 0,2.8818 0,1.7154 0,3.4308 0,5.1462 0,0.6175 0,1.235 0,1.8526 0,0.2058 -0.04037,0.4157 0,0.6175 0.2195691,1.0979 0.1235077,-0.2058 0.6175381,0.6176 0.1455551,0.2425 0.055905,0.5834 0.2058461,0.8233 0.2057174,0.3292 0.5748984,0.5252 0.8233841,0.8234 0.098223,0.1179 0.1207391,0.2841 0.205846,0.4117 0.1903047,0.2855 0.4032197,0.5555 0.6175381,0.8234 0.3651826,0.4565 0.164876,-0.041 0.8233841,0.6175 0.048518,0.049 -0.030686,0.1445 0,0.2059 0.2275684,0.4551 0.1277569,0.064 0.411692,0.2058 0.086792,0.043 0.1372307,0.1373 0.2058461,0.2059 0.1372306,0.1372 0.2452754,0.3118 0.411692,0.4117 0.1860595,0.1116 0.4160765,0.1252 0.6175381,0.2058 0.1424548,0.057 0.2720158,0.1424 0.411692,0.2059 0.6152098,0.2796 1.2481758,0.5211 1.8526138,0.8233 0.357854,0.179 0.659274,0.4652 1.029231,0.6176 4.230383,1.7419 1.043311,0.3275 3.499382,1.0292 0.147525,0.042 0.266137,0.1573 0.411692,0.2059 0.06509,0.022 0.137231,0 0.205846,0 0.205846,0 0.417838,-0.05 0.617538,0 0.09414,0.024 0.113789,0.1751 0.205846,0.2058 0.130189,0.043 0.278559,-0.033 0.411692,0 0.148848,0.037 0.262845,0.1686 0.411692,0.2058 0.133134,0.033 0.274462,0 0.411692,0 0.137231,0.069 0.266137,0.1574 0.411692,0.2059 0.185262,0.062 0.432277,-0.062 0.617539,0 0.145555,0.049 0.284031,0.1207 0.411692,0.2058 0.08074,0.054 0.113789,0.1752 0.205846,0.2059 0.204624,0.068 0.85432,-0.088 1.02923,0 1.188313,0.5941 -0.469173,0.3178 1.02923,0.6175 0.134566,0.027 0.274461,0 0.411692,0 0.205846,0 0.412298,-0.016 0.617538,0 0.687545,0.053 1.374934,0.1147 2.05846,0.2059 0.346802,0.046 0.687691,0.1299 1.02923,0.2058 0.276172,0.061 0.542661,0.1708 0.823385,0.2059 1.639061,0.2048 0.02199,-0.447 2.470152,0.2058 0.504915,0.1347 0.945179,0.4523 1.440922,0.6175 0.273866,0.091 0.736387,-0.073 1.02923,0 0.210503,0.053 0.40351,0.1702 0.617538,0.2059 0.338409,0.056 0.686154,0 1.02923,0 0.892,0 1.783999,0 2.675999,0 1.097845,0 2.195691,0 3.293536,0 0.480308,0 0.96715,0.079 1.440922,0 0.492731,-0.082 0.95631,-0.2905 1.440923,-0.4117 0.469763,-0.1174 1.176232,-0.1764 1.646768,-0.4117 0.304164,-0.1521 0.669778,-0.5148 1.02923,-0.6175 0.336409,-0.096 0.68412,-0.1484 1.02923,-0.2059 0.06768,-0.011 0.144475,0.031 0.205846,0 0.08679,-0.043 0.128217,-0.1476 0.205846,-0.2058 0.197917,-0.1485 0.39626,-0.3011 0.617538,-0.4117 0.06137,-0.031 0.147661,0.036 0.205846,0 0.500533,-0.3128 0.963565,-0.6821 1.440922,-1.0292 0.277459,-0.2018 0.580793,-0.375 0.823385,-0.6176 0.447317,-0.4473 0.787758,-0.9936 1.235076,-1.4409 0.174935,-0.1749 0.416223,-0.2679 0.617538,-0.4117 0.279173,-0.1994 0.548923,-0.4117 0.823384,-0.6175 0.274461,-0.2059 0.641554,-0.3266 0.823384,-0.6176 0.185431,-0.2967 0.07591,-0.7044 0.205846,-1.0292 0.02548,-0.064 0.157328,0.048 0.205846,0 0.04852,-0.049 -0.01664,-0.1393 0,-0.2058 0.05263,-0.2105 0.153221,-0.4071 0.205846,-0.6176 0.03328,-0.1331 -0.0434,-0.2815 0,-0.4117 0.04852,-0.1455 0.168634,-0.2628 0.205846,-0.4117 0.03328,-0.1331 -0.0434,-0.2815 0,-0.4117 0.09704,-0.2911 0.314655,-0.5322 0.411692,-0.8233 0.0434,-0.1302 0,-0.2745 0,-0.4117 0,-0.4117 0,-0.8234 0,-1.2351 0,-0.2059 -0.04037,-0.4157 0,-0.6176 0.03009,-0.1504 0.157328,-0.2661 0.205846,-0.4116 0.04536,-0.1361 0,-1.2201 0,-1.441 0,-0.5489 0,-1.0978 0,-1.6467 0,-0.2059 0,-0.4117 0,-0.6176 0,-0.069 0.0217,-0.1407 0,-0.2058 -0.04852,-0.1456 -0.157327,-0.2662 -0.205846,-0.4117 -0.0217,-0.065 0,-0.1372 0,-0.2059 0,-0.343 0.04852,-0.6896 0,-1.0292 -0.0434,-0.3038 -0.314655,-0.5323 -0.411692,-0.8234 -0.0217,-0.065 0,-0.1372 0,-0.2058 0,-0.3431 0,-0.6862 0,-1.0292 0,-0.1373 0.03328,-0.2786 0,-0.4117 -0.03721,-0.1489 -0.137231,-0.2745 -0.205846,-0.4117 -0.182974,-0.366 -0.326904,-0.6053 -0.411692,-1.0293 -0.02722,-0.136 0.03106,-0.7845 0,-0.8233 -0.214318,-0.2679 -0.609066,-0.3497 -0.823384,-0.6176 -0.08573,-0.1071 0,-0.2744 0,-0.4117 0,-0.1583 0.0476,-1.0446 0,-1.2351 -0.408587,-1.6343 -0.03407,0.7908 -0.411692,-1.8526 -0.04331,-0.3032 0,-0.7559 0,-1.0292 0,-0.9606 0,-1.9212 0,-2.8818 0,-0.549 0,-1.0979 0,-1.6468 0,-0.1372 0,-0.2745 0,-0.4117 0,-0.1372 -0.0434,-0.2815 0,-0.4117 0.03069,-0.092 0.17516,-0.1138 0.205846,-0.2058 0.0434,-0.1302 0,-0.2745 0,-0.4117 0,-0.069 -0.0353,-0.147 0,-0.2059 0.176511,-0.2942 0.40322,-0.5555 0.617538,-0.8234 0.06062,-0.076 0.16245,-0.119 0.205846,-0.2058 0.546833,-1.0937 -0.236689,-0.645 0.823384,-2.0585 0.148438,-0.1979 0.442603,-0.2367 0.617538,-0.4117 0.108491,-0.1085 0.113789,-0.2889 0.205846,-0.4117 0.116444,-0.1552 0.3249,-0.2381 0.411692,-0.4116 0.06137,-0.1228 -0.0434,-0.2815 0,-0.4117 0.09715,-0.2915 0.628469,-0.3252 0.823384,-0.6176 0.08511,-0.1276 0.168635,-0.2628 0.205846,-0.4117 0.108705,-0.4348 -0.182907,-0.4346 0.205846,-0.8233 0.04852,-0.049 0.157328,0.048 0.205846,0 0.04852,-0.049 -0.04852,-0.1574 0,-0.2059 0.108491,-0.1085 0.303202,-0.097 0.411693,-0.2058 0.04852,-0.049 -0.03069,-0.1445 0,-0.2059 0.682705,-0.6827 -0.09704,0.1941 0.205846,-0.4117 0.0434,-0.087 0.17516,-0.1138 0.205846,-0.2058 0.0434,-0.1302 0,-0.2745 0,-0.4117 0,-0.069 -0.03069,-0.1445 0,-0.2059 0.682705,-0.6827 -0.09704,0.1941 0.205846,-0.4117 0.0434,-0.087 0.16245,-0.119 0.205846,-0.2058 0.03068,-0.061 0,-0.1372 0,-0.2058 0,-0.069 0,-0.1373 0,-0.2059 0,-0.4117 0,-0.8234 0,-1.2351 0,-0.343 0,-0.6861 0,-1.0292 0,-0.1372 0.0434,-0.2815 0,-0.4117 -0.04852,-0.1455 -0.157328,-0.2661 -0.205846,-0.4117 -0.126748,-0.38023 0.314101,-0.098 -0.205846,-0.61752 -0.108491,-0.10849 -0.284032,-0.12074 -0.411692,-0.20585 -0.08074,-0.0538 -0.125107,-0.15202 -0.205846,-0.20585 -0.127661,-0.0851 -0.303202,-0.0974 -0.411693,-0.20584 -0.04852,-0.0485 0.03069,-0.14448 0,-0.20585 -0.137729,-0.27546 -0.900386,-0.69454 -1.02923,-0.82338 -0.04852,-0.0485 0.03806,-0.14876 0,-0.20585 -0.176099,-0.26415 -0.970233,-0.94095 -1.235076,-1.02923 -0.195283,-0.0651 -0.422255,0.0651 -0.617538,0 -0.06509,-0.0217 0.05709,-0.16778 0,-0.20584 -0.609232,-0.40616 -0.593699,-0.0776 -1.235076,-0.20585 -0.150449,-0.0301 -0.266137,-0.15733 -0.411692,-0.20585 -0.268391,-0.0895 -0.554994,-0.11638 -0.823384,-0.20584 -1.277709,-0.4259 0.684133,0.0167 -1.02923,-0.41169 -0.06657,-0.0167 -0.137231,0 -0.205846,0 -0.137231,0 -0.274462,0 -0.411692,0 -0.480308,0 -0.960615,0 -1.440923,0 -1.578153,0 -3.156305,0 -4.734458,0 -0.686154,0 -1.375712,0.0683 -2.058461,0 -0.281504,-0.0282 -0.545969,-0.15037 -0.823384,-0.20585 -0.409265,-0.0819 -0.819776,-0.16432 -1.235076,-0.20585 -0.273099,-0.0273 -0.548923,0 -0.823384,0 -0.891999,0 -1.783999,0 -2.675998,0 -0.343077,0 -0.686154,0 -1.02923,0 -0.06862,0 -0.137231,0 -0.205846,0 -0.06862,0 -0.144475,0.0307 -0.205846,0 -0.08679,-0.0434 -0.111707,-0.18231 -0.205846,-0.20584 -0.1997,-0.0499 -0.411693,0 -0.617539,0 -0.411692,0 -0.823384,0 -1.235076,0 -0.06861,0 -0.13723,0 -0.205846,0 -0.06862,0 -0.152266,0.0429 -0.205846,0 -0.303092,-0.24248 -0.500426,-0.60808 -0.823384,-0.82339 -0.114183,-0.0761 -0.274461,0 -0.411692,0 -0.137231,0 -0.274461,0 -0.411692,0 -1.235076,0 -2.470152,0 -3.705228,0 -0.411693,0 -0.823385,0 -1.235077,0 -0.181485,0 -0.442142,-0.0438 -0.617538,0 -0.210502,0.0526 -0.404771,0.1633 -0.617538,0.20585 -0.134566,0.0269 -0.278559,-0.0333 -0.411692,0 -0.148847,0.0372 -0.262844,0.16863 -0.411692,0.20585 -0.133133,0.0333 -0.281504,-0.0434 -0.411692,0 -0.09206,0.0307 -0.119054,0.16245 -0.205846,0.20584 -0.13154,0.0658 -0.657699,-0.0552 -0.823384,0 -0.145555,0.0485 -0.284032,0.12074 -0.411692,0.20585 -0.313715,0.20914 -0.120037,0.32877 -0.617538,0.41169 -0.270727,0.0451 -0.548923,0 -0.823384,0 -0.06862,0 -0.157328,-0.0485 -0.205846,0 -0.425903,0.4259 0.650835,-0.0167 -0.205846,0.41169 -0.06137,0.0307 -0.137231,0 -0.205846,0 -0.306385,0 -0.262741,-0.0307 -0.617539,0.20585 -0.177624,0.11841 -0.456754,0.45675 -0.617538,0.61754 -0.06862,0.0686 -0.119053,0.16245 -0.205846,0.20584 -0.06137,0.0307 -0.144474,-0.0307 -0.205846,0 -0.08679,0.0434 -0.119053,0.16245 -0.205846,0.20585 -0.06137,0.0307 -0.205846,0.0686 -0.205846,0 0,-0.0686 0.270941,-0.0217 0.205846,0 -0.26839,0.0895 -0.548922,0.13723 -0.823384,0.20584 z"
       id="path3369"
       inkscape:connector-curvature="0" />
    <path
       style="fill:none;fill-rule:evenodd;stroke:#615700;stroke-width:1px;stroke-linecap:butt;stroke-linejoin:miter;stroke-opacity:1"
       d="m 22.231371,1004.1942 c -0.181028,0.7241 -0.186968,1.0009 -0.617538,1.6468 -0.107653,0.1614 -0.295248,0.2564 -0.411692,0.4117 -0.09206,0.1227 -0.126908,0.2801 -0.205846,0.4116 -0.127284,0.2122 -0.319812,0.3879 -0.411692,0.6176 -0.05097,0.1274 0.08234,0.3019 0,0.4117 -1.900271,1.2668 -0.277607,-0.062 -0.617538,0.6175 -0.0434,0.087 -0.182312,0.1117 -0.205846,0.2059 -0.04993,0.1997 0.04992,0.4178 0,0.6175 -0.02353,0.094 -0.15202,0.1251 -0.205846,0.2058 -0.08511,0.1277 -0.137231,0.2745 -0.205846,0.4117 -0.06862,0.1373 -0.157328,0.2662 -0.205846,0.4117 -0.0217,0.065 0.03806,0.1488 0,0.2059 -0.107653,0.1614 -0.30404,0.2502 -0.411693,0.4117 -0.03806,0.057 0.03069,0.1444 0,0.2058 -0.471038,0.9421 0.08532,-0.8735 -0.411692,0.6175 -0.0217,0.065 0.0217,0.1408 0,0.2059 -0.09704,0.2911 -0.314655,0.5323 -0.411692,0.8234 -0.0217,0.065 0.0217,0.1407 0,0.2058 -0.310815,0.9325 -0.05841,0.029 -0.411692,0.6176 -0.157876,0.2631 -0.274461,0.5489 -0.411692,0.8233 -0.06862,0.1373 -0.163696,0.2642 -0.205846,0.4117 -0.09612,0.3364 -0.09521,0.6974 -0.205846,1.0293 -0.03069,0.092 -0.16245,0.119 -0.205846,0.2058 -0.03069,0.061 0.03069,0.1445 0,0.2059 -0.0434,0.087 -0.16245,0.119 -0.205846,0.2058 -0.09704,0.1941 -0.125261,0.4161 -0.205846,0.6175 -0.05698,0.1425 -0.157328,0.2662 -0.205846,0.4117 -0.0217,0.065 0.03069,0.1445 0,0.2059 -0.0434,0.087 -0.16245,0.119 -0.205846,0.2058 -0.03069,0.061 0.0217,0.1408 0,0.2059 -0.04852,0.1455 -0.168634,0.2628 -0.205846,0.4117 -0.03328,0.1331 0.0434,0.2815 0,0.4117 -0.03069,0.092 -0.15202,0.1251 -0.205846,0.2058 -0.08511,0.1277 -0.09736,0.3032 -0.205846,0.4117 -0.10849,0.1085 -0.303202,0.097 -0.411692,0.2058 -0.09704,0.097 0.06137,0.289 0,0.4117 -0.0434,0.087 -0.17516,0.1138 -0.205846,0.2059 -0.09369,0.281 0.09369,0.954 0,1.2351 -0.03069,0.092 -0.17516,0.1137 -0.205846,0.2058 -0.03689,0.1107 0,0.6491 0,0.8234 0,0.6861 0,1.3723 0,2.0584 0,0.3431 0,0.6862 0,1.0293 0,0.1352 -0.03871,0.5014 0,0.6175 0.497009,1.491 -0.05935,-0.3245 0.411692,0.6176 0.06137,0.1227 -0.09704,0.3146 0,0.4116 0.04852,0.049 0.17516,-0.061 0.205846,0 0.137231,0.2745 -0.137231,0.7548 0,1.0293 0.03069,0.061 0.157328,-0.048 0.205846,0 0.10849,0.1085 0.120739,0.284 0.205846,0.4117 0.05383,0.081 0.16245,0.119 0.205846,0.2058 0.08234,0.1647 -0.08234,0.4529 0,0.6176 0.0434,0.087 0.15202,0.1251 0.205846,0.2058 0.08511,0.1277 0.120739,0.284 0.205846,0.4117 0.05383,0.081 0.16245,0.119 0.205846,0.2058 0.03069,0.061 -0.03069,0.1445 0,0.2059 0.08679,0.1736 0.3249,0.2381 0.411692,0.4117 0.163637,0.3272 -0.163636,0.084 0,0.4117 0.0434,0.087 0.17516,0.1138 0.205846,0.2058 0.0434,0.1302 -0.06137,0.289 0,0.4117 0.03069,0.061 0.157328,-0.049 0.205846,0 0.108491,0.1085 0.120739,0.284 0.205846,0.4117 0.107653,0.1615 0.3249,0.2381 0.411692,0.4117 0.06137,0.1227 -0.06137,0.2889 0,0.4117 0.08679,0.1736 0.3249,0.2381 0.411692,0.4117 0.03069,0.061 -0.03806,0.1487 0,0.2058 0.526854,0.7903 0.501225,0.09 1.02923,0.6176 0.174936,0.1749 0.253313,0.4274 0.411693,0.6175 0.54095,1.1785 0.454705,0.2489 1.02923,0.8234 0.174935,0.1749 0.236756,0.4426 0.411692,0.6175 0.10849,0.1085 0.280128,0.1269 0.411692,0.2059 0.21214,0.1272 0.411692,0.2744 0.617538,0.4117 0.274461,0.1372 0.555143,0.2626 0.823384,0.4116 0.349744,0.1943 0.696333,0.3957 1.02923,0.6176 0.285457,0.1903 0.516527,0.4641 0.823384,0.6175 0.122743,0.061 0.284277,-0.051 0.411692,0 0.229702,0.092 0.402738,0.289 0.617538,0.4117 0.795207,0.4544 0.970374,0.4453 1.852615,0.8234 0.141023,0.06 0.262844,0.1686 0.411692,0.2058 0.0069,0 0.616444,-0 0.617538,0 0.04852,0.049 -0.06137,0.1752 0,0.2059 0.245485,0.1227 0.563007,-0.087 0.823384,0 0.09206,0.031 0.113789,0.1752 0.205846,0.2058 0.130188,0.043 0.278559,-0.033 0.411692,0 0.148848,0.037 0.262844,0.1687 0.411692,0.2059 0.133133,0.033 0.274461,0 0.411692,0 0.343077,0 0.686153,0 1.02923,0 0.137231,0 0.281504,-0.043 0.411692,0 0.09206,0.031 0.119054,0.1624 0.205846,0.2058 0.06137,0.031 0.137231,0 0.205846,0 0.141637,0 1.115217,-0.04 1.235076,0 1.118091,0.3727 -0.635994,0.1521 1.440923,0.4117 0.204256,0.026 0.411692,0 0.617538,0 0.617538,0 1.235076,0 1.852614,0 0.411692,0 0.823384,0 1.235076,0 0.0927,0 0.554892,0.031 0.617538,0 0.08679,-0.043 0.128217,-0.1476 0.205846,-0.2058 0.197917,-0.1485 0.39626,-0.3011 0.617538,-0.4117 0.364393,-0.1822 0.07034,0.3062 0.411692,-0.2059 0.08511,-0.1276 0.0831,-0.3196 0.205846,-0.4117 0.173585,-0.1301 0.46411,-0.052 0.617538,-0.2058 0.09704,-0.097 -0.06137,-0.289 0,-0.4117 0.03069,-0.061 0.157328,0.049 0.205847,0 0.02495,-0.025 -0.02113,-0.3272 0,-0.4117 0.05262,-0.2105 0.15322,-0.407 0.205846,-0.6175 0.0474,-0.1896 -0.06165,-0.4326 0,-0.6176 0.04852,-0.1455 0.168634,-0.2628 0.205846,-0.4117 0.03328,-0.1331 0,-0.2744 0,-0.4116 0,-0.3431 0,-0.6862 0,-1.0293 0,-1.0292 0,-2.0584 0,-3.0877 0,-0.5489 0,-1.0978 0,-1.6467 0,-0.075 0.03606,-1.0909 0,-1.2351 -0.03721,-0.1489 -0.157328,-0.2661 -0.205846,-0.4117 -0.182975,-0.5489 0.548922,0.2745 0,-0.8234 -0.06862,-0.1372 -0.343077,-0.069 -0.411693,-0.2058 -0.122742,-0.2455 0,-0.549 0,-0.8234 0,-0.5489 0,-1.0979 0,-1.6468 0,-1.9898 0,-3.9797 0,-5.9695 0,-0.2059 0,-0.4117 0,-0.6176 0,-0.1372 -0.03328,-0.2785 0,-0.4116 0.03721,-0.1489 0.168635,-0.2629 0.205847,-0.4117 0.0701,-0.2804 -0.08301,-0.9861 0,-1.2351 0.03068,-0.092 0.17516,-0.1138 0.205846,-0.2059 0.06175,-0.1852 -0.06175,-0.4322 0,-0.6175 0.04852,-0.1456 0.157327,-0.2661 0.205846,-0.4117 0.0217,-0.065 0,-0.1372 0,-0.2058 0,-0.1939 -0.03903,-0.9122 0,-1.0293 0.03068,-0.092 0.17516,-0.1138 0.205846,-0.2058 0.05719,-0.1716 -0.06637,-0.757 0,-0.8234 0.09704,-0.097 0.314655,0.097 0.411692,0 0.09704,-0.097 -0.06137,-0.2889 0,-0.4117 0.03069,-0.061 0.157327,0.048 0.205846,0 0.09704,-0.097 -0.06137,-0.2889 0,-0.4117 0.0434,-0.087 0.16245,-0.119 0.205846,-0.2058 0.03068,-0.061 -0.0217,-0.1408 0,-0.2059 0.04852,-0.1455 0.157327,-0.2661 0.205846,-0.4117 0.0217,-0.065 -0.04852,-0.1573 0,-0.2058 0.04852,-0.048 0.157327,0.048 0.205846,0 0.04852,-0.048 -0.03069,-0.1445 0,-0.2059 0.08679,-0.1735 0.304039,-0.2502 0.411692,-0.4117 0.08511,-0.1276 0.157327,-0.2661 0.205846,-0.4116 0.0217,-0.065 -0.04852,-0.1574 0,-0.2059 1.088511,-1.0885 -0.319532,1.0508 0.617538,-0.8234 0.0434,-0.087 0.137231,-0.1372 0.205846,-0.2058 0.06862,-0.069 0.125107,-0.152 0.205846,-0.2059 0.12766,-0.085 0.303202,-0.097 0.411692,-0.2058 0.04852,-0.048 -0.04852,-0.1573 0,-0.2059 0.04852,-0.048 0.144475,0.031 0.205846,0 0.455137,-0.2275 0.06388,-0.1277 0.205846,-0.4117 0.0434,-0.087 0.137231,-0.1372 0.205846,-0.2058 0.06862,-0.069 0.119054,-0.1624 0.205846,-0.2058 0.283935,-0.142 0.184124,0.2492 0.411692,-0.2059 0.03069,-0.061 -0.03069,-0.1445 0,-0.2058 0.08679,-0.1736 0.3249,-0.2381 0.411692,-0.4117 0.09704,-0.1941 0.05242,-0.4641 0.205846,-0.6176 0.153429,-0.1534 0.46411,-0.052 0.617538,-0.2058 0.153429,-0.1534 0.10881,-0.4235 0.205846,-0.6175 0.107662,-0.2154 0.489421,-0.4041 0.617538,-0.6176 0.157877,-0.2631 0.274462,-0.5489 0.411693,-0.8234 0.06862,-0.1372 0.157327,-0.2661 0.205846,-0.4117 0.0217,-0.065 -0.04852,-0.1573 0,-0.2058 0.04852,-0.048 0.17516,0.061 0.205846,0 0.08234,-0.1647 -0.08234,-0.4529 0,-0.6175 0.208224,-0.4165 0.339713,0.052 0.205846,-0.6176 -0.04255,-0.2128 -0.153221,-0.407 -0.205846,-0.6175 -0.01664,-0.067 0.06137,-0.1752 0,-0.2059 -0.122743,-0.061 -0.28895,0.061 -0.411692,0 -0.06137,-0.031 0.03068,-0.1444 0,-0.2058 -0.0434,-0.087 -0.119054,-0.1625 -0.205847,-0.2059 -0.06265,-0.031 -0.524833,0 -0.617538,0 -0.617538,0 -1.235076,0 -1.852614,0 -1.852614,0 -3.705228,0 -5.557843,0 -0.480307,0 -0.960614,0 -1.440922,0 -0.13723,0 -0.274461,0 -0.411692,0 -0.06862,0 -0.140752,-0.022 -0.205846,0 -0.145555,0.049 -0.262844,0.1687 -0.411692,0.2059 -0.0069,0 -0.616445,-0 -0.617538,0 -0.174935,0.1749 -0.205846,0.4803 -0.411692,0.6175 -0.235394,0.157 -0.548923,0.1373 -0.823384,0.2059 -0.548923,0.1372 -1.08865,0.3186 -1.646768,0.4117 -0.2434,0.041 -0.568417,0 -0.823384,0 -0.548923,0 -1.097846,0 -1.646769,0 -1.783999,0 -3.567997,0 -5.351996,0 -0.617538,0 -1.235077,0 -1.852615,0 -0.114894,0 -0.935001,-0.031 -1.02923,0 -0.09206,0.031 -0.119053,0.1624 -0.205846,0.2058 -0.122743,0.061 -0.281503,-0.043 -0.411692,0 -1.491028,0.497 0.324539,-0.059 -0.617538,0.4117 -0.330495,0.1652 -0.686153,0.2745 -1.02923,0.4117 z"
       id="path4171"
       inkscape:connector-curvature="0" />
    <path
       style="fill:none;fill-rule:evenodd;stroke:#b6cd00;stroke-width:1px;stroke-linecap:butt;stroke-linejoin:miter;stroke-opacity:1"
       d="m 26.373503,1009.0636 c 0.174521,0.017 0.296999,0.3042 0.492963,0.3286 0.163052,0.02 0.328642,0 0.492963,0 0.356028,0 0.712057,0 1.068085,0 0.328642,0 0.657284,0 0.985926,0 0.06345,0 0.442837,0.017 0.492962,0 0.0581,-0.019 0.104911,-0.067 0.164321,-0.082 0.376016,-0.094 -0.08543,0.1659 0.410802,-0.082 0.03464,-0.017 0.04373,-0.077 0.08216,-0.082 0.190227,-0.024 0.383415,0 0.575123,0 0.02739,0 0.05868,0.014 0.08216,0 0.11742,-0.071 0.221715,-0.161 0.328642,-0.2465 0.02319,-0.019 0.15784,-0.163 0.164321,-0.1643 0.10742,-0.022 0.219095,0 0.328642,0 0.02739,0 0.05618,0.01 0.08216,0 0.0581,-0.019 0.109548,-0.055 0.164321,-0.082 0.134098,-0.067 0.258514,-0.1389 0.410803,-0.1643 0.08104,-0.014 0.165438,0.013 0.246481,0 0.721219,-0.1202 -0.12559,-0.03 0.410802,-0.1643 0.05314,-0.013 0.112358,0.017 0.164321,0 0.03674,-0.012 0.04752,-0.065 0.08216,-0.082 0.04899,-0.024 0.11533,0.024 0.164321,0 0.03464,-0.017 0.04993,-0.061 0.08216,-0.082 0.05095,-0.034 0.113367,-0.048 0.164321,-0.082 0.03223,-0.022 0.04459,-0.073 0.08216,-0.082 0.07971,-0.02 0.166774,0.02 0.246481,0 0.03757,-0.01 0.04752,-0.065 0.08216,-0.082 0.131912,-0.066 0.275244,-0.1063 0.410802,-0.1644 0.05629,-0.024 0.11533,-0.045 0.164321,-0.082 0.06197,-0.047 0.09987,-0.1214 0.164321,-0.1643 0.02279,-0.015 0.05559,0.01 0.08216,0 0.08402,-0.021 0.162463,-0.061 0.246482,-0.082 0.02657,-0.01 0.05937,0.015 0.08216,0 0.06445,-0.043 0.09987,-0.1214 0.164321,-0.1643 0.02279,-0.015 0.05477,0 0.08216,0 0.08216,0 0.164321,0 0.246482,0 0.246481,0 0.492962,0 0.739444,0 0.117934,0 0.406495,-0.022 0.492962,0 0.03757,0.01 0.04542,0.07 0.08216,0.082 0.05196,0.017 0.120502,-0.033 0.164321,0 0.07899,0.059 0.08532,0.1873 0.164321,0.2465 0.04382,0.033 0.118746,-0.03 0.164321,0 0.05095,0.034 0.03886,0.121 0.08216,0.1643 0.0433,0.043 0.113367,0.048 0.164321,0.082 0.03223,0.022 0.05477,0.055 0.08216,0.082 0.02739,0.027 0.06484,0.048 0.08216,0.082 0.192147,0.043 0.05012,0.2325 0.08216,0.3287 0.01937,0.058 0.0628,0.1062 0.08216,0.1643 0.01545,0.046 0,0.1925 0,0.2465 0,0.1917 0,0.3834 0,0.5751 0,0.082 0,0.1643 0,0.2465 0,0.027 -0.0087,0.056 0,0.082 0.01936,0.058 0.06279,0.1063 0.08216,0.1644 0.01725,0.052 0,0.4302 0,0.4929 0,0.1096 0,0.2191 0,0.3287 0,0.055 0.01732,0.1123 0,0.1643 -0.01937,0.058 -0.05477,0.1095 -0.08216,0.1643 -0.05477,0.055 -0.135553,0.092 -0.164321,0.1643 -0.03051,0.076 0.02885,0.1696 0,0.2465 -0.05607,0.1495 -0.167252,0.2722 -0.246482,0.4108 -0.03038,0.053 -0.04819,0.1134 -0.08216,0.1643 -0.02148,0.032 -0.06068,0.05 -0.08216,0.082 -0.03397,0.051 -0.05178,0.1111 -0.08216,0.1643 -0.07923,0.1387 -0.168928,0.2712 -0.246481,0.4108 -0.05948,0.1071 -0.09941,0.2248 -0.164321,0.3286 -0.07258,0.1162 -0.176029,0.2113 -0.246481,0.3287 -0.01409,0.024 0,0.055 0,0.082 -0.02739,0.055 -0.04391,0.1165 -0.08216,0.1643 -0.07258,0.091 -0.173896,0.1557 -0.246481,0.2465 -0.03826,0.048 -0.05477,0.1095 -0.08216,0.1643 -0.02739,0.055 -0.06731,0.1049 -0.08216,0.1643 -0.09806,0.3922 -0.0055,0.4032 -0.164321,0.6573 -0.104669,0.1674 -0.219094,0.3286 -0.328642,0.4929 -0.05477,0.082 -0.105074,0.1675 -0.164321,0.2465 -0.105216,0.1403 -0.241638,0.2586 -0.328641,0.4108 -0.02718,0.048 0.01328,0.1112 0,0.1643 -0.01485,0.06 -0.06731,0.105 -0.08216,0.1644 -0.01328,0.053 0.01328,0.1111 0,0.1643 -0.01485,0.059 -0.05942,0.1074 -0.08216,0.1643 -0.03216,0.08 -0.06116,0.1625 -0.08216,0.2465 -0.03387,0.1355 -0.038,0.2783 -0.08216,0.4108 -0.01225,0.037 -0.06335,0.048 -0.08216,0.082 -0.11896,0.2141 -0.202613,0.4472 -0.328641,0.6572 -0.03985,0.067 -0.135553,0.092 -0.164321,0.1644 -0.03051,0.076 0.01611,0.1659 0,0.2464 -0.01201,0.06 -0.05477,0.1096 -0.08216,0.1644 -0.05477,0.1643 -0.130352,0.3231 -0.164321,0.4929 -0.02148,0.1074 0.04068,0.227 0,0.3287 -0.02274,0.057 -0.136934,0.027 -0.164321,0.082 -0.0082,0.016 0.0077,0.4469 0,0.493 -0.0408,0.2448 -0.156688,0.3357 -0.246481,0.5751 -0.03965,0.1057 -0.06969,0.2164 -0.08216,0.3287 -0.0242,0.2177 0,0.4381 0,0.6572 0,0.493 0,0.986 0,1.4789 0,1.6706 0,3.3412 0,5.0118 0,0.082 0,0.1643 0,0.2465 0,0.055 -0.009,0.1103 0,0.1643 0.01856,0.1114 0.0636,0.2173 0.08216,0.3287 0.009,0.054 0,0.1095 0,0.1643 0,0.1369 0,0.2738 0,0.4108 0,0.027 -0.01937,0.063 0,0.082 0.0433,0.043 0.121019,0.039 0.164321,0.082 0.01937,0.019 0,0.055 0,0.082 0,0.055 0,0.1095 0,0.1643 0,0.2191 0,0.4382 0,0.6573 0,0.082 0,0.1643 0,0.2464 0,0.027 0,0.055 0,0.082 0,0.027 0.01519,0.059 0,0.082 -0.04297,0.064 -0.109547,0.1095 -0.164321,0.1643 -0.02739,0.027 -0.06484,0.047 -0.08216,0.082 -0.01225,0.024 0.01225,0.058 0,0.082 -0.01732,0.035 -0.05477,0.055 -0.08216,0.082 -0.02739,0.027 -0.05118,0.059 -0.08216,0.082 -0.079,0.059 -0.184796,0.087 -0.246482,0.1643 -0.0541,0.068 -0.04343,0.1691 -0.08216,0.2465 -0.07707,0.1542 -0.105399,0.035 -0.246481,0.082 -0.02612,0.01 -0.320004,0.3229 -0.328642,0.3286 -0.02279,0.015 -0.05767,-0.012 -0.08216,0 -0.08832,0.044 -0.158161,0.1202 -0.246481,0.1644 -0.0245,0.012 -0.05767,-0.012 -0.08216,0 -0.187822,0.094 0.05108,0.1147 -0.246482,0.1643 -0.108056,0.018 -0.219094,0 -0.328642,0 -0.191707,0 -0.383415,0 -0.575123,0 -0.60251,0 -1.20502,0 -1.807529,0 -0.164321,0 -0.328642,0 -0.492963,0 -0.136934,0 -0.274431,0.012 -0.410802,0 -0.165904,-0.015 -0.327394,-0.064 -0.492963,-0.082 -0.08166,-0.01 -0.164321,0 -0.246481,0 -0.109548,0 -0.219095,0 -0.328642,0 -0.05477,0 -0.111183,0.013 -0.164321,0 -0.05941,-0.015 -0.106225,-0.063 -0.164321,-0.082 -0.107124,-0.036 -0.227644,-0.032 -0.328642,-0.082 -0.122477,-0.061 -0.202779,-0.1925 -0.328641,-0.2465 -0.07552,-0.032 -0.168538,0.026 -0.246482,0 -0.09368,-0.031 -0.152804,-0.1331 -0.246481,-0.1643 -0.358395,-0.1195 -0.141859,0.1519 -0.492963,-0.082 -0.09668,-0.064 -0.15722,-0.1721 -0.246481,-0.2465 -0.07586,-0.063 -0.165587,-0.1076 -0.246482,-0.1643 -0.193003,-0.1351 -0.3791,-0.2801 -0.575123,-0.4108 -0.05095,-0.034 -0.115982,-0.044 -0.164321,-0.082 -0.28178,-0.2192 -0.501343,-0.4192 -0.739444,-0.6573 -0.109547,-0.1096 -0.219094,-0.2191 -0.328641,-0.3287 -0.05477,-0.055 -0.132267,-0.094 -0.164321,-0.1643 -0.107512,-0.2365 -0.149989,-0.4982 -0.246482,-0.7394 -0.01438,-0.036 -0.05477,-0.055 -0.08216,-0.082 -0.08216,-0.1643 -0.184691,-0.3199 -0.246481,-0.4929 -0.07596,-0.2127 -0.117796,-0.4363 -0.164321,-0.6573 -0.06308,-0.2997 -0.107893,-0.6028 -0.164321,-0.9038 -0.02574,-0.1373 -0.03203,-0.2805 -0.08216,-0.4108 -0.08793,-0.2286 -0.256604,-0.4232 -0.328641,-0.6573 -0.03895,-0.1266 0.02337,-0.4937 0,-0.6573 -0.01597,-0.1118 -0.0636,-0.2172 -0.08216,-0.3286 -0.009,-0.054 0.009,-0.1103 0,-0.1643 -0.01856,-0.1114 -0.07194,-0.2162 -0.08216,-0.3287 -0.01736,-0.1909 0,-0.3834 0,-0.5751 0,-0.3834 0,-0.7668 0,-1.1502 0,-0.6026 0,-1.2051 0,-1.8076 0,-0.06 -0.01741,-0.781 0,-0.8216 0.04577,-0.1068 0.188834,-0.1456 0.246481,-0.2465 0.05602,-0.098 0.04645,-0.2215 0.08216,-0.3286 0.01937,-0.058 0.05729,-0.1084 0.08216,-0.1643 0.08471,-0.1906 0.130787,-0.4016 0.246481,-0.5751 0.05477,-0.082 0.189088,-0.084 0.246482,-0.1644 0.246829,-0.1775 0.09749,-0.5266 0.246481,-0.7394 0.876378,-1.252 0.219095,-0.094 0.657284,-0.6573 0.144638,-0.186 0.269448,-0.3866 0.410802,-0.5751 0.02324,-0.031 0.06484,-0.048 0.08216,-0.082 0.01225,-0.024 -0.01225,-0.058 0,-0.082 0.01732,-0.035 0.06068,-0.05 0.08216,-0.082 0.06794,-0.1019 0.09638,-0.2267 0.164321,-0.3286 0.02148,-0.032 0.06484,-0.048 0.08216,-0.082 0.01225,-0.024 0,-0.055 0,-0.082 0.02739,-0.055 0.04819,-0.1133 0.08216,-0.1643 0.02148,-0.032 0.05477,-0.055 0.08216,-0.082 0.02739,-0.027 0.04993,-0.061 0.08216,-0.082 0.05095,-0.034 0.130352,-0.031 0.164321,-0.082 0.03038,-0.045 -0.0245,-0.1153 0,-0.1643 0.0493,-0.099 0.197185,-0.1479 0.246482,-0.2465 0.01225,-0.024 -0.01937,-0.063 0,-0.082 0.01937,-0.019 0.05477,0 0.08216,0 0.02739,-0.027 0.06068,-0.05 0.08216,-0.082 0.03397,-0.051 0.04819,-0.1133 0.08216,-0.1643 0.02148,-0.032 0.06484,-0.048 0.08216,-0.082 0.01225,-0.024 -0.01936,-0.063 0,-0.082 0.0433,-0.043 0.121019,-0.039 0.164321,-0.082 0.03873,-0.039 -0.03873,-0.1256 0,-0.1643 0.01937,-0.019 0.0628,0.019 0.08216,0 0.133043,-0.133 0.136339,-0.5943 0.164321,-0.6573 0.04719,-0.1062 0.194518,-0.1425 0.246481,-0.2465 0.06847,-0.1369 -0.04565,-0.2738 0,-0.4108 0.01225,-0.037 0.05477,-0.055 0.08216,-0.082 0.02739,-0.082 0.06116,-0.1625 0.08216,-0.2465 0.02054,-0.082 -0.04108,-0.1643 0,-0.2465 0.01225,-0.024 0.0628,0.019 0.08216,0 0.01757,-0.018 -0.0151,-0.2833 0,-0.3286 0.01937,-0.058 0.0628,-0.1063 0.08216,-0.1644 0.02368,-0.071 -0.02614,-0.3585 0,-0.4108 0.01732,-0.035 0.06484,-0.047 0.08216,-0.082 0.02663,-0.053 -0.0258,-0.4156 0,-0.493 0.01937,-0.058 0.06731,-0.1049 0.08216,-0.1643 0.01328,-0.053 0,-0.1095 0,-0.1643 0,-0.1917 0,-0.3834 0,-0.5751 0,-0.082 -0.02598,-0.1686 0,-0.2465 0.101525,-0.3046 0.08216,0.1001 0.08216,-0.1643"
       id="path4175"
       inkscape:connector-curvature="0" />
    <path
       style="fill:none;fill-rule:evenodd;stroke:#ec7b00;stroke-width:1px;stroke-linecap:butt;stroke-linejoin:miter;stroke-opacity:1"
       d="m 28.838317,1015.5543 c -0.270879,0.097 -0.038,0.2783 -0.08216,0.4108 -0.01937,0.058 -0.05477,0.1095 -0.08216,0.1643 -0.02739,0.055 -0.04819,0.1134 -0.08216,0.1643 -0.02148,0.032 -0.05892,0.051 -0.08216,0.082 -0.05925,0.079 -0.0945,0.1766 -0.164321,0.2465 -0.01937,0.019 -0.06991,-0.024 -0.08216,0 -0.111102,0.2222 -0.02402,0.3176 -0.16432,0.4929 -0.07259,0.091 -0.164321,0.1643 -0.246482,0.2465 -0.05477,0.055 -0.133807,0.093 -0.164321,0.1643 -0.05501,0.1284 -0.01288,0.2896 -0.08216,0.4108 -0.04899,0.086 -0.176659,0.094 -0.246481,0.1644 -0.124,0.124 -0.231369,0.2648 -0.328642,0.4108 -0.01519,0.023 0,0.055 0,0.082 0,0.055 0.02449,0.1153 0,0.1643 -0.05196,0.104 -0.194519,0.1426 -0.246482,0.2465 -0.02105,0.042 0.01647,0.2628 0,0.3287 -0.11443,0.4577 -0.01397,0.062 -0.246481,0.4108 -0.01519,0.023 0,0.055 0,0.082 0,0.037 0.01095,0.4711 0,0.493 -0.01732,0.035 -0.06484,0.048 -0.08216,0.082 -0.0125,0.025 0,0.2095 0,0.2465 0,0.2739 0,0.5478 0,0.8216 0,0.2191 0,0.4382 0,0.6573 0,0.055 0,0.1096 0,0.1643 0,0.027 -0.0066,0.056 0,0.082 0.08816,0.3526 0.08972,0.1832 0.246481,0.5751 0.01017,0.025 -0.01409,0.059 0,0.082 0.07045,0.1174 0.178543,0.2097 0.246481,0.3286 0.04297,0.075 0.0376,0.1722 0.08216,0.2465 0.03985,0.066 0.124467,0.098 0.164321,0.1643 0.04456,0.074 0.03412,0.1744 0.08216,0.2465 0.01519,0.023 0.0628,-0.019 0.08216,0 0.01937,0.019 -0.01937,0.063 0,0.082 0.0433,0.043 0.121018,0.039 0.16432,0.082 0.186267,0.1863 -0.04901,0.1809 0.246482,0.3287 0.09798,0.049 0.230659,-0.049 0.328642,0 0.02449,0.012 -0.02598,0.073 0,0.082 0.0798,0.027 0.301452,0 0.410802,0 0.02799,0 0.284176,0.015 0.328642,0 0.595122,-0.1983 -0.129535,0.024 0.246481,-0.1643 0.154923,-0.077 0.338039,-0.087 0.492963,-0.1643 0.03464,-0.017 0.05477,-0.055 0.08216,-0.082 0.109547,-0.055 0.214924,-0.1188 0.328642,-0.1643 0.02543,-0.01 0.05767,0.012 0.08216,0 0.341932,-0.171 -0.08783,0.01 0.08216,-0.1643 0.01937,-0.019 0.0628,0.019 0.08216,0 0.01937,-0.019 -0.01936,-0.063 0,-0.082 0.10007,-0.1001 0.183564,-0.038 0.246481,-0.1643 0.01225,-0.024 0,-0.055 0,-0.082 0.05477,-0.055 0.109548,-0.1095 0.164321,-0.1643 0.08216,-0.082 0.153528,-0.1767 0.246482,-0.2465 0.04899,-0.037 0.121018,-0.039 0.164321,-0.082 0.0433,-0.043 0.05065,-0.1118 0.08216,-0.1643 0.0508,-0.085 0.120161,-0.1582 0.164321,-0.2465 0.06593,-0.1319 0.0686,-0.2912 0.164321,-0.4108 0.07259,-0.091 0.186701,-0.1469 0.246481,-0.2465 0.02818,-0.047 0,-0.1096 0,-0.1643 0.05477,-0.055 0.121353,-0.1 0.164321,-0.1644 0.01519,-0.023 0,-0.055 0,-0.082 0,-0.082 -0.01993,-0.1668 0,-0.2465 0.0094,-0.038 0.06484,-0.048 0.08216,-0.082 0.03873,-0.077 0.05,-0.166 0.08216,-0.2464 0.02274,-0.057 0.05942,-0.1075 0.08216,-0.1644 0.03217,-0.08 0.05477,-0.1643 0.08216,-0.2464 0.02739,-0.082 0.06518,-0.1616 0.08216,-0.2465 0.02601,-0.1301 -0.03075,-0.37 0,-0.493 0.01485,-0.059 0.0628,-0.1062 0.08216,-0.1643 0.01884,-0.056 -0.02424,-0.198 0,-0.2465 0.01732,-0.035 0.06484,-0.048 0.08216,-0.082 0.0125,-0.025 0,-0.2095 0,-0.2465 0,-0.1917 0,-0.3834 0,-0.5751 0,-0.2739 0,-0.5478 0,-0.8217 0,-0.1095 0,-0.219 0,-0.3286 0,-0.027 0.01225,-0.058 0,-0.082 -0.104366,-0.2087 -0.0982,0.084 -0.164321,-0.2464 -0.01611,-0.081 0.03674,-0.173 0,-0.2465 -0.273868,-0.5478 -0.08216,0.4108 -0.246481,-0.2465 -0.02657,-0.1063 0.04899,-0.2307 0,-0.3286 -0.0493,-0.099 -0.197185,-0.1479 -0.246481,-0.2465 -0.01225,-0.024 0.01225,-0.058 0,-0.082 -0.01732,-0.035 -0.05477,-0.055 -0.08216,-0.082 -0.02739,-0.027 -0.04752,-0.065 -0.08216,-0.082 -0.04899,-0.024 -0.12559,0.039 -0.164321,0 -0.01937,-0.019 0.02449,-0.07 0,-0.082 -0.03492,-0.017 -0.341952,0 -0.410802,0 -0.02739,0 -0.0628,0.019 -0.08216,0 -0.01937,-0.019 0.01937,-0.063 0,-0.082 -0.01937,-0.019 -0.05477,0 -0.08216,0 -0.02739,0 -0.05477,0 -0.08216,0 -0.191707,0 -0.383415,0 -0.575123,0 -0.465576,0 -0.931152,0 -1.396727,0 z"
       id="path4177"
       inkscape:connector-curvature="0" />
    <path
       style="fill:#ffffff;fill-opacity:1;stroke:#010000;stroke-width:0.08213256;stroke-opacity:1"
       d="m 32.476963,59.031007 c -0.17981,-0.06582 -0.549406,-0.11501 -0.821325,-0.109321 -0.40624,0.0085 -0.60424,-0.04091 -1.110393,-0.277099 -0.338797,-0.158095 -0.994816,-0.372444 -1.457819,-0.476331 -0.704943,-0.158174 -0.885589,-0.173062 -1.110973,-0.09156 -0.285104,0.103095 -0.695271,0.05694 -1.661035,-0.186912 -0.705154,-0.178049 -2.417446,-0.370185 -3.299031,-0.370185 -0.671842,0 -0.779205,-0.0211 -0.986094,-0.193777 -0.392348,-0.32747 -0.739282,-0.463284 -1.183451,-0.463284 -0.289973,0 -0.51516,-0.05536 -0.706713,-0.17375 -0.154623,-0.09556 -0.491623,-0.204705 -0.748887,-0.242541 -0.704296,-0.103579 -1.183811,-0.206538 -1.412279,-0.303239 -0.485983,-0.205695 -1.142524,-0.353163 -1.345504,-0.302219 -0.119432,0.02998 -0.262868,0.01719 -0.318748,-0.02842 -0.177334,-0.144738 -0.979499,-0.346082 -1.378808,-0.346082 -0.442032,0 -2.115484,-0.64977 -2.868985,-1.113973 C 11.601409,54.065527 9.5290406,53.099575 9.0160818,52.930283 8.8580864,52.87814 8.58502,52.688216 8.4092675,52.508229 8.233515,52.328242 8.0510188,52.180746 8.0037204,52.180461 7.9564221,52.180214 7.8561569,52.071725 7.7809089,51.93946 7.705661,51.807195 7.4986197,51.607144 7.3208171,51.494903 6.9717976,51.274576 6.6344506,50.877539 6.2986996,50.291931 6.1821527,50.088653 5.9378311,49.802652 5.7557627,49.656374 5.4796661,49.434552 5.4089988,49.314641 5.3299408,48.933821 5.2609157,48.601329 5.1601649,48.40224 4.959259,48.201334 L 4.6833657,47.92544 4.6676728,41.93678 c -0.011333,-4.324756 0.010115,-6.036883 0.077193,-6.16222 0.051087,-0.09546 0.092886,-0.362748 0.092886,-0.593979 0,-0.313114 0.052408,-0.497545 0.2053314,-0.722592 0.1891677,-0.278385 0.2053314,-0.37545 0.2053314,-1.233031 0,-0.521764 0.039835,-1.005291 0.090642,-1.100224 0.1221358,-0.228213 0.2343805,-0.921775 0.3097925,-1.914215 0.0424,-0.557988 0.1180525,-0.939828 0.2359546,-1.190922 0.09545,-0.203279 0.2323763,-0.720714 0.3042815,-1.149856 0.071905,-0.429143 0.2006797,-0.909619 0.2861657,-1.067724 C 6.646659,26.485 6.890262,25.61492 6.8924853,25.311776 c 7.802e-4,-0.106412 0.09318,-0.280515 0.2053314,-0.386895 0.2054405,-0.194869 0.2419377,-0.333467 0.210814,-0.800564 -0.028847,-0.432929 0.2926525,-1.537322 0.4877032,-1.675326 0.541059,-0.382812 0.734898,-0.602365 0.7850586,-0.889199 0.069791,-0.399085 0.2537341,-1.026341 0.4502277,-1.535299 0.087537,-0.226738 0.1591579,-0.523257 0.1591579,-0.658934 0,-0.443948 0.8652639,-2.460792 1.1190229,-2.60833 0.176277,-0.10249 0.37308,-0.541973 0.319,-0.712363 -0.03681,-0.115983 0.11797,-0.317093 0.628962,-0.817221 0.372784,-0.364859 0.705776,-0.66338 0.739981,-0.66338 0.135529,0 0.939135,-0.781247 1.082634,-1.052511 0.173178,-0.327368 1.017809,-1.194776 1.449017,-1.488092 0.518108,-0.352427 0.914933,-0.775344 1.35381,-1.442826 0.553844,-0.8423349 0.968045,-1.232882 1.438697,-1.3565353 0.524274,-0.1377414 0.792141,-0.3022011 1.368612,-0.8402731 0.4135,-0.3859564 0.558074,-0.4725002 0.789331,-0.4725002 0.162171,0 0.405288,-0.082911 0.569119,-0.1940897 0.187362,-0.1271475 0.447174,-0.2074549 0.753289,-0.2328403 0.384827,-0.031913 0.51461,-0.084622 0.735488,-0.2987058 0.230827,-0.2237256 0.327367,-0.259955 0.692705,-0.259955 0.233475,0 0.545872,-0.051887 0.694217,-0.1153051 0.148344,-0.063418 0.417556,-0.1520871 0.598248,-0.1970429 0.180691,-0.044956 0.494848,-0.1293578 0.698126,-0.1875601 0.263466,-0.075435 1.26755,-0.1139826 3.496681,-0.1342403 l 3.127085,-0.028418 0.413416,0.4134159 0.413416,0.4134158 1.141055,0.00261 c 0.87299,0.002 1.17851,0.030941 1.300486,0.1231989 0.132551,0.1002563 0.610281,0.1207122 2.833574,0.1213308 2.552232,7.064e-4 2.715263,0.010071 3.576103,0.2053314 0.900901,0.2043475 0.907159,0.2045876 5.330692,0.2045876 l 4.428732,0 0.418588,0.1978797 c 0.230223,0.1088338 0.566052,0.2254893 0.746287,0.2592346 0.180235,0.033745 0.475913,0.1286859 0.657061,0.2109794 0.181148,0.082293 0.490344,0.1504361 0.6871,0.1514282 0.259981,0.00131 0.424425,0.057915 0.601763,0.2071352 0.167304,0.1407763 0.342887,0.2053314 0.558481,0.2053314 0.365884,0 0.937061,0.4185307 1.16473,0.8534583 0.07513,0.1435285 0.322634,0.3879066 0.550005,0.5430636 0.227371,0.155157 0.434389,0.365722 0.46004,0.467922 0.04037,0.160842 0.946883,0.84593 1.119342,0.84593 0.111154,0 0.177044,0.635465 0.211529,2.040058 0.03425,1.395098 0.03071,1.432598 -0.174088,1.843577 -0.114979,0.23073 -0.209052,0.519361 -0.209052,0.641399 0,0.309199 -0.305899,0.814256 -0.715927,1.182037 -0.351435,0.315226 -0.570557,0.76732 -0.482777,0.99607 0.07562,0.19707 -0.09213,0.427172 -0.441265,0.60529 -0.371952,0.189756 -0.57761,0.448767 -0.57761,0.72746 0,0.10821 -0.110879,0.323031 -0.246398,0.477378 -0.135518,0.154348 -0.246397,0.3079 -0.246397,0.341229 0,0.03333 -0.123492,0.127102 -0.274427,0.208387 -0.161626,0.08704 -0.430176,0.382969 -0.653338,0.719942 -0.306798,0.463264 -0.389736,0.667846 -0.435796,1.074964 -0.04545,0.401692 -0.10929,0.562104 -0.317462,0.797654 -0.553623,0.626429 -0.700768,0.878714 -0.703433,1.206054 -0.0014,0.176428 -0.05688,0.392522 -0.123199,0.480208 -0.101369,0.134021 -0.120352,0.677237 -0.119114,3.408501 0.0015,3.238144 0.09497,4.651427 0.322825,4.879278 0.05058,0.05058 0.08637,0.485369 0.08637,1.049227 0,0.896866 0.01353,0.97894 0.197368,1.197422 0.108552,0.129007 0.2892,0.283705 0.401438,0.343773 0.172618,0.09238 0.209251,0.180846 0.237688,0.573983 0.02234,0.308849 0.127394,0.657156 0.31315,1.038248 0.257206,0.527676 0.283138,0.652203 0.32467,1.559072 0.03828,0.835794 0.07227,1.023631 0.223679,1.23588 0.140031,0.196304 0.18989,0.417744 0.231158,1.026657 0.06607,0.974779 0.06796,4.311104 0.0034,5.991786 -0.04389,1.142506 -0.06968,1.312095 -0.251531,1.653766 -0.111443,0.209391 -0.202626,0.472835 -0.202626,0.58543 0,0.112596 -0.05544,0.337405 -0.123199,0.499576 -0.06776,0.162171 -0.123199,0.412915 -0.123199,0.557209 0,0.144295 -0.0923,0.419843 -0.2051,0.612329 -0.112805,0.192488 -0.232924,0.536293 -0.266931,0.764012 -0.06777,0.45377 0.03676,0.358966 -1.6781,1.522029 -0.332585,0.225568 -0.77748,0.646131 -1.130042,1.068239 -0.319821,0.38291 -0.71977,0.808164 -0.888773,0.945011 -0.70685,0.572356 -1.703394,1.260219 -1.941141,1.339871 -0.140353,0.04702 -0.423887,0.204589 -0.630077,0.350145 -0.261847,0.184849 -0.544432,0.294175 -0.93715,0.362563 -0.597493,0.104049 -0.859771,0.214338 -1.418221,0.596369 -0.23156,0.158407 -0.603445,0.293637 -1.10879,0.403192 -0.418205,0.09066 -1.048718,0.255407 -1.401139,0.366095 l -0.640768,0.201253 -4.163988,-0.0058 c -3.431641,-0.0048 -4.221486,-0.02683 -4.490915,-0.125453 l 0,3e-6 z m 7.598011,-5.711251 c 0.201985,-0.164199 0.488035,-0.324361 0.635668,-0.355916 0.194979,-0.04168 0.318046,-0.143597 0.449788,-0.372503 0.119269,-0.207233 0.25721,-0.330298 0.402887,-0.359433 0.289163,-0.05783 0.516768,-0.309366 0.623983,-0.689583 0.182748,-0.648078 0.293167,-1.142805 0.343236,-1.537854 0.02863,-0.225865 0.07867,-0.453343 0.111204,-0.505509 0.03253,-0.05217 0.05741,-1.863188 0.05529,-4.024496 -0.0021,-2.161306 -9.11e-4,-4.082919 0.0027,-4.270248 0.0079,-0.408432 -0.204566,-0.976766 -0.422076,-1.129116 -0.151675,-0.106238 -0.157043,-0.267259 -0.152572,-4.576683 0.0039,-3.749373 0.02442,-4.523708 0.127872,-4.822409 0.08217,-0.237275 0.105699,-0.488044 0.0706,-0.752616 -0.03953,-0.298007 -0.01957,-0.443987 0.0802,-0.586427 0.07306,-0.104308 0.132837,-0.331696 0.132837,-0.505306 0,-0.17361 0.04151,-0.39322 0.09225,-0.488021 0.05074,-0.0948 0.08701,-0.427026 0.08061,-0.738277 -0.008,-0.388997 0.02736,-0.621573 0.113085,-0.743967 0.06859,-0.09793 0.124716,-0.281873 0.124716,-0.408758 0,-0.131084 0.05414,-0.251476 0.125379,-0.278813 0.149331,-0.0573 0.462308,-0.708319 0.653098,-1.358494 0.07541,-0.256982 0.189819,-0.510985 0.254243,-0.564452 0.06442,-0.05347 0.117135,-0.133012 0.117135,-0.176766 0,-0.04375 0.129359,-0.230679 0.287464,-0.41539 0.158106,-0.18471 0.287464,-0.370064 0.287464,-0.411898 0,-0.04183 0.0889,-0.145992 0.197559,-0.231462 0.108657,-0.08547 0.256357,-0.327962 0.328221,-0.538873 0.136817,-0.401535 0.340592,-0.684485 0.493074,-0.684655 0.08636,-8.2e-5 0.375885,-0.220617 0.76753,-0.584592 0.101639,-0.09446 0.184798,-0.234358 0.184798,-0.310887 0,-0.08489 0.113904,-0.180334 0.292133,-0.244783 0.205217,-0.07421 0.333507,-0.194433 0.431196,-0.404094 0.07648,-0.164152 0.202891,-0.363426 0.280902,-0.442831 0.07801,-0.07941 0.196244,-0.274584 0.262739,-0.433731 0.08008,-0.191663 0.175311,-0.289357 0.282057,-0.289357 0.205307,0 0.555929,-0.413395 0.627674,-0.74005 0.03034,-0.138155 0.163064,-0.330958 0.294933,-0.428454 0.140131,-0.103603 0.410879,-0.510392 0.65155,-0.97893 0.226484,-0.440916 0.448011,-0.824053 0.492285,-0.851415 0.04427,-0.02736 0.0805,-0.190882 0.0805,-0.363376 0,-0.178582 0.05305,-0.357653 0.123199,-0.415873 0.14456,-0.119974 0.162612,-0.626072 0.03423,-0.959711 -0.04893,-0.127166 -0.114475,-0.378117 -0.145651,-0.557669 -0.04249,-0.244706 -0.115656,-0.357829 -0.292174,-0.451729 -0.129519,-0.0689 -0.328658,-0.208956 -0.44253,-0.311237 l -0.20704,-0.185966 -5.304831,0.03278 c -2.917659,0.01803 -5.508111,0.05915 -5.756562,0.09138 -0.480625,0.06235 -0.685034,0.19226 -0.872295,0.554383 -0.06792,0.13134 -0.209606,0.244914 -0.340655,0.273062 -0.123403,0.02651 -0.587867,0.140395 -1.032141,0.253085 l -0.807769,0.20489 -5.364692,-0.008 c -4.46704,-0.0067 -5.417567,0.01163 -5.680702,0.109529 -0.173806,0.06466 -0.497713,0.164729 -0.719794,0.22237 -0.22208,0.05764 -0.517757,0.204557 -0.657061,0.32648 -0.139302,0.121922 -0.443036,0.288872 -0.674962,0.371 -0.415686,0.147197 -0.423102,0.155814 -0.521361,0.605684 -0.140069,0.641295 -0.375528,1.147795 -0.689418,1.483019 -0.324073,0.346099 -0.954712,1.392629 -0.954712,1.58432 0,0.07575 -0.137843,0.207478 -0.307997,0.294321 -0.509602,0.260088 -0.62391,0.437875 -0.559157,0.869676 0.04968,0.331278 0.0183,0.44809 -0.280951,1.045981 -0.185281,0.370181 -0.464286,0.828544 -0.62001,1.018585 -0.162671,0.198518 -0.332335,0.53442 -0.398773,0.789493 -0.0636,0.24418 -0.193424,0.589096 -0.288497,0.76648 -0.09507,0.177383 -0.172857,0.401697 -0.172857,0.498474 0,0.09678 -0.05875,0.224719 -0.130565,0.284316 -0.20873,0.173231 -0.928337,1.674669 -0.98861,2.062706 -0.03025,0.194751 -0.162755,0.55737 -0.294455,0.805821 -0.1317,0.248451 -0.331485,0.691967 -0.443966,0.985591 -0.11248,0.293624 -0.242313,0.602557 -0.288516,0.686517 -0.0462,0.08396 -0.156315,0.379638 -0.244693,0.657061 -0.243308,0.763749 -0.326499,0.916042 -0.579798,1.061416 -0.127942,0.07343 -0.264843,0.218378 -0.304223,0.322109 -0.198039,0.521651 -0.256875,0.821087 -0.256875,1.307331 0,0.316199 -0.04166,0.573798 -0.102665,0.634802 -0.0776,0.0776 -0.102666,0.708257 -0.102666,2.583069 l 0,2.480404 0.307997,0.642525 c 0.197771,0.412579 0.307997,0.760311 0.307997,0.971645 0,0.260442 0.06207,0.400585 0.297446,0.671596 0.199159,0.229308 0.304449,0.437466 0.318636,0.62994 0.02062,0.279788 0.781551,1.652699 0.948364,1.711095 0.04301,0.01506 0.07821,0.132995 0.07821,0.262084 0,0.129088 0.03277,0.254958 0.07282,0.279712 0.04005,0.02475 0.09613,0.16923 0.124609,0.321058 0.02848,0.151829 0.152793,0.368959 0.276242,0.482513 0.356906,0.328294 0.467263,0.493063 0.577601,0.862396 0.05687,0.190351 0.166992,0.393629 0.244721,0.45173 0.07773,0.0581 0.212295,0.245109 0.299035,0.415575 0.169208,0.332531 0.575783,0.634586 0.854174,0.634586 0.123321,0 0.254748,0.143496 0.470157,0.513329 0.395655,0.679298 0.582931,0.869964 0.915838,0.932418 0.189668,0.03558 0.314291,0.123683 0.394578,0.278939 0.124875,0.241481 0.574111,0.657159 0.710214,0.657159 0.04486,0 0.236064,0.105171 0.424894,0.233714 0.188831,0.128544 0.657486,0.395985 1.041455,0.594316 0.38397,0.19833 0.929942,0.535811 1.213271,0.749957 0.625124,0.472483 0.778078,0.557459 1.003408,0.557459 0.09579,0 0.413789,0.144526 0.706665,0.321167 0.292877,0.176642 0.854487,0.450612 1.248023,0.608821 0.393537,0.15821 0.8264,0.346094 0.961919,0.41752 0.135519,0.07143 0.322165,0.130094 0.414769,0.130373 0.0926,2.46e-4 0.208412,0.04054 0.257349,0.08948 0.04894,0.04894 0.268771,0.08898 0.48852,0.08898 0.219749,0 0.440517,0.03401 0.490598,0.07557 0.173662,0.144128 0.899423,0.263391 1.798331,0.295517 0.563131,0.02013 1.002706,0.07832 1.166928,0.154498 0.199677,0.09262 0.419442,0.109202 0.907676,0.06849 0.560398,-0.04673 0.66387,-0.03406 0.795339,0.09741 0.268247,0.268247 1.155652,0.350468 3.620882,0.335486 l 2.302064,-0.01399 0.367244,-0.298544 z"
       id="path4179"
       inkscape:connector-curvature="0"
       transform="translate(0,988.36216)" />
    <path
       style="fill:#ff0000;fill-opacity:1;stroke:#010000;stroke-width:0.08213256;stroke-opacity:1"
       d="m 32.352161,60.04605 c -0.112932,-0.05026 -0.482528,-0.0979 -0.821325,-0.105864 -0.52108,-0.01225 -0.713213,-0.06064 -1.246946,-0.313991 -0.845647,-0.401416 -1.874825,-0.648043 -2.212735,-0.530247 -0.297901,0.103849 -0.870429,0.04633 -1.731943,-0.174013 -0.864943,-0.221215 -1.767758,-0.336126 -3.26803,-0.415956 -1.386068,-0.07375 -1.726884,-0.15362 -1.849671,-0.433453 -0.06664,-0.151869 -0.150925,-0.185291 -0.491108,-0.194744 -0.225864,-0.0063 -0.491918,-0.01552 -0.591229,-0.02053 -0.09931,-0.005 -0.278728,-0.100095 -0.398703,-0.211284 -0.164229,-0.152202 -0.304004,-0.200438 -0.565604,-0.195187 -0.191108,0.0038 -0.425057,-0.03455 -0.519889,-0.0853 -0.09483,-0.05075 -0.27649,-0.09359 -0.403685,-0.09519 -0.127196,-0.0016 -0.323663,-0.05573 -0.436596,-0.120288 -0.112932,-0.06456 -0.323268,-0.118688 -0.467414,-0.120288 -0.144146,-0.0016 -0.284926,-0.03987 -0.312845,-0.08504 -0.02792,-0.04517 -0.221238,-0.08213 -0.429599,-0.08213 -0.216443,0 -0.607849,-0.09162 -0.913079,-0.21373 -0.379215,-0.15171 -0.618259,-0.200096 -0.823779,-0.166744 -0.229889,0.03731 -0.545351,-0.05419 -1.531264,-0.444151 C 12.653768,55.767786 11.912779,55.429904 11.690075,55.287062 11.210257,54.979308 9.1446041,54.020656 8.6125331,53.8588 8.4074306,53.796408 8.1302332,53.630176 7.9965388,53.489396 7.8628445,53.348616 7.6177258,53.178562 7.4518305,53.111499 7.2275131,53.020819 7.117361,52.907487 7.0220698,52.669331 6.9337912,52.448701 6.8287435,52.332733 6.6843385,52.296489 6.4865172,52.246839 5.5769452,51.197947 5.5769452,51.019476 c 0,-0.04234 -0.2390073,-0.331468 -0.5311274,-0.642501 C 4.6537174,49.959488 4.4903778,49.714906 4.4218087,49.442593 4.351082,49.161712 4.2822177,49.062004 4.1331044,49.024579 3.6836012,48.91176 3.6920973,49.040935 3.6753602,42.065024 c -0.011474,-4.782128 0.00924,-6.47981 0.080682,-6.613155 0.052865,-0.09867 0.096308,-0.357387 0.09654,-0.574928 2.94e-4,-0.276139 0.061499,-0.494695 0.2027681,-0.724059 0.183813,-0.298438 0.2025821,-0.415253 0.2049106,-1.275313 0.0018,-0.666608 0.035991,-0.994724 0.1155244,-1.108789 0.1304545,-0.187096 0.191275,-0.561242 0.286687,-1.763593 0.0473,-0.596064 0.123512,-0.981393 0.2467798,-1.24773 0.09809,-0.211935 0.2530544,-0.800238 0.3443657,-1.307338 0.1504731,-0.835656 0.3608511,-1.424559 0.4821294,-1.349605 0.025591,0.01582 0.051274,-0.05087 0.057074,-0.148198 0.041793,-0.701392 0.1821353,-1.302757 0.3443167,-1.475391 0.1211992,-0.129011 0.1790678,-0.294915 0.1792081,-0.513775 2.546e-4,-0.402111 0.3620824,-1.774641 0.539014,-2.044673 0.072219,-0.11022 0.2483952,-0.270135 0.3915037,-0.355367 0.2646111,-0.157598 0.3182678,-0.268919 0.6276647,-1.302203 0.083063,-0.277402 0.1914412,-0.57989 0.2408412,-0.672195 0.0494,-0.0923 0.089818,-0.282529 0.089818,-0.42272 0,-0.272809 0.4194258,-1.425679 0.7713106,-2.120091 0.1178541,-0.232574 0.2142802,-0.476694 0.2142802,-0.542488 0,-0.0658 0.092399,-0.229439 0.2053314,-0.363651 0.1129323,-0.134212 0.2053314,-0.305202 0.2053314,-0.379977 0,-0.214575 0.20733,-0.559466 0.4845378,-0.806023 0.14006,-0.124575 0.254655,-0.277169 0.254655,-0.3391 0,-0.06193 0.109077,-0.157782 0.242394,-0.213004 0.133316,-0.05522 0.300176,-0.188588 0.370798,-0.296372 0.07062,-0.107782 0.275161,-0.270839 0.454531,-0.362347 0.179371,-0.09151 0.388837,-0.267541 0.465482,-0.391186 0.307592,-0.496214 1.700491,-1.90936 2.285959,-2.319188 0.27123,-0.189861 0.555036,-0.507757 0.835874,-0.936276 0.538944,-0.8223532 1.366955,-1.6671829 1.704649,-1.7392734 0.138591,-0.029587 0.288944,-0.080291 0.334117,-0.1126768 0.04517,-0.032386 0.211491,-0.1088467 0.369597,-0.1699131 0.158105,-0.061067 0.516126,-0.3225289 0.795602,-0.5810275 0.285239,-0.2638288 0.62007,-0.4945818 0.763305,-0.5260414 0.140341,-0.030824 0.344275,-0.1451527 0.453186,-0.2540635 0.172414,-0.1724135 0.274099,-0.1980195 0.786371,-0.1980195 0.534746,0 0.613561,-0.022135 0.865047,-0.2429416 0.30549,-0.2682241 0.853371,-0.451386 1.108237,-0.3704947 0.094,0.029835 0.249108,-0.00347 0.362669,-0.077879 0.109131,-0.071505 0.28288,-0.1305479 0.386108,-0.1312053 0.103228,-6.57e-4 0.347221,-0.056761 0.542207,-0.1246742 0.194985,-0.067913 0.387397,-0.1031594 0.427581,-0.078324 0.04018,0.024835 0.208561,-0.011461 0.374171,-0.080657 0.253795,-0.1060424 0.829511,-0.1258117 3.663847,-0.1258117 l 3.362737,0 0.399998,0.4106628 0.399998,0.4106629 1.095847,0 c 0.861139,0 1.135131,0.027515 1.279263,0.1284697 0.157993,0.1106626 0.533363,0.1262686 2.708117,0.1125904 2.548899,-0.016031 2.944323,0.016564 4.04361,0.3333238 0.176759,0.050933 2.005763,0.082852 4.763689,0.083135 4.47277,4.6e-4 4.9616,0.027465 5.258353,0.2905169 0.06849,0.060711 0.30326,0.1504389 0.521714,0.1993954 0.218454,0.048957 0.502458,0.1434491 0.631122,0.2099836 0.128663,0.066534 0.449303,0.1209717 0.712532,0.1209717 0.299599,0 0.546658,0.04767 0.660569,0.1274563 0.100083,0.070101 0.359056,0.1800455 0.575496,0.2443211 0.454282,0.1349072 1.55037,1.0087116 1.624156,1.294782 0.02574,0.099783 0.233543,0.3090314 0.46179,0.4649968 0.228248,0.1559654 0.453075,0.3671453 0.499614,0.4692893 0.0777,0.170536 0.292912,0.340673 0.90674,0.716832 0.290995,0.178325 0.54432,0.58941 0.490363,0.795741 -0.02278,0.08709 0.0047,0.213965 0.06116,0.281939 0.07503,0.0904 0.100939,0.569971 0.0965,1.785946 -0.0064,1.747928 -0.04519,2.132657 -0.230642,2.286565 -0.06232,0.05172 -0.113858,0.191145 -0.114538,0.309839 -0.0016,0.282053 -0.17934,0.786081 -0.342746,0.972032 -0.07116,0.08098 -0.152847,0.224476 -0.181525,0.318882 -0.02868,0.09441 -0.143929,0.220771 -0.256113,0.28081 -0.112184,0.06004 -0.20397,0.158355 -0.20397,0.218481 0,0.06013 -0.05124,0.109321 -0.113874,0.109321 -0.07171,0 -0.134057,0.134603 -0.168394,0.363579 -0.06776,0.45187 -0.328154,0.849014 -0.726494,1.108034 -0.208181,0.13537 -0.305359,0.259449 -0.305359,0.389893 0,0.105234 -0.120119,0.330039 -0.266931,0.499568 -0.146812,0.169528 -0.307601,0.381651 -0.35731,0.471382 -0.04971,0.08973 -0.245016,0.27453 -0.434017,0.410663 -0.442641,0.318825 -0.712821,0.729367 -0.784878,1.192633 -0.100266,0.644628 -0.213746,0.893782 -0.626919,1.376455 -0.334095,0.390292 -0.403698,0.527191 -0.406467,0.799464 -0.0018,0.180692 -0.05761,0.400274 -0.123929,0.48796 -0.100949,0.133467 -0.120486,0.648427 -0.119966,3.162104 6.57e-4,3.008743 0.04923,3.715788 0.308045,4.48106 0.09735,0.287852 0.134904,0.644848 0.125566,1.193745 l -0.01332,0.783083 0.361856,0.228927 c 0.382782,0.242166 0.394248,0.270166 0.481156,1.174847 0.02455,0.255517 0.156757,0.654259 0.332921,1.004074 0.277589,0.551217 0.292206,0.621975 0.292206,1.414458 0,0.720341 0.02508,0.874778 0.18372,1.131374 0.219451,0.354953 0.278127,0.963013 0.38532,3.993123 0.05958,1.684035 0.05208,2.112399 -0.04167,2.381844 -0.07566,0.217447 -0.114716,0.706244 -0.115508,1.445621 -0.0011,1.032589 -0.01673,1.146302 -0.206526,1.503265 -0.112932,0.212396 -0.205559,0.485859 -0.205837,0.607694 -2.47e-4,0.121835 -0.05572,0.327382 -0.123199,0.456772 -0.06748,0.129389 -0.122693,0.326978 -0.122693,0.439088 0,0.27828 -0.242146,1.104445 -0.368063,1.255774 -0.05638,0.06776 -0.124301,0.265707 -0.150934,0.439883 -0.06931,0.453253 -0.232346,0.659022 -0.858043,1.082909 -1.486868,1.007301 -1.692795,1.176956 -2.262101,1.863661 -0.406815,0.490705 -0.85327,0.906835 -1.41394,1.317902 -1.208978,0.886386 -1.574307,1.127057 -1.71083,1.127057 -0.06745,0 -0.300685,0.135903 -0.518293,0.302006 -0.323151,0.246667 -0.512779,0.320761 -1.03487,0.404357 -0.515792,0.08259 -0.748688,0.172386 -1.206133,0.465056 -0.428715,0.274287 -0.733576,0.397665 -1.250599,0.506117 -0.376028,0.07888 -1.050502,0.251134 -1.49883,0.382794 l -0.815143,0.239382 -4.359208,-0.0052 c -3.011709,-0.0036 -4.42268,-0.03345 -4.564541,-0.09658 z m 9.390119,-1.005229 c 0.386342,-0.111958 1.041428,-0.277545 1.455745,-0.367971 0.582158,-0.127057 0.882732,-0.247218 1.322984,-0.528887 0.437985,-0.28022 0.706413,-0.387917 1.161151,-0.465871 0.371173,-0.06363 0.691402,-0.175156 0.85977,-0.299434 0.147565,-0.108922 0.443243,-0.274271 0.657061,-0.367443 0.213819,-0.09317 0.702918,-0.399865 1.086888,-0.68154 0.38397,-0.281676 0.79935,-0.576668 0.923068,-0.65554 0.123718,-0.07887 0.503892,-0.478768 0.844834,-0.888658 0.481912,-0.579373 0.834038,-0.896392 1.581975,-1.42425 0.529145,-0.373446 1.045242,-0.738061 1.146881,-0.810256 0.136376,-0.09687 0.184798,-0.213313 0.184798,-0.444397 0,-0.190563 0.09645,-0.493873 0.246398,-0.774873 0.135519,-0.253956 0.246625,-0.582555 0.246903,-0.730221 2.47e-4,-0.147666 0.04785,-0.360882 0.105717,-0.473814 0.05787,-0.112933 0.114293,-0.333698 0.125394,-0.49059 0.0111,-0.156893 0.102128,-0.415611 0.202281,-0.574928 0.158908,-0.252783 0.190522,-0.45701 0.248259,-1.603791 0.08804,-1.748655 0.08885,-5.13686 0.0015,-6.159942 -0.05339,-0.625059 -0.113934,-0.890019 -0.25338,-1.10879 -0.158555,-0.248751 -0.183272,-0.399686 -0.183538,-1.120798 -3.28e-4,-0.790592 -0.01589,-0.866153 -0.304173,-1.473189 -0.209011,-0.440119 -0.314714,-0.78983 -0.338617,-1.120308 -0.03316,-0.458427 -0.05078,-0.491485 -0.38438,-0.721005 -0.192295,-0.132302 -0.372553,-0.300295 -0.400575,-0.373319 -0.02802,-0.07302 -0.05094,-0.520252 -0.05094,-0.993843 0,-0.508498 -0.03989,-0.934531 -0.09741,-1.040473 -0.235815,-0.434287 -0.309709,-1.588041 -0.311477,-4.863213 -0.0014,-2.636367 0.02031,-3.319651 0.109692,-3.449568 0.0613,-0.0891 0.114207,-0.279814 0.117558,-0.4238 0.0076,-0.32635 0.09092,-0.482822 0.57082,-1.072016 0.321271,-0.394434 0.393069,-0.54808 0.449733,-0.962421 0.07871,-0.575562 0.451588,-1.25399 0.88587,-1.611798 0.576059,-0.474618 0.985591,-0.981954 0.985591,-1.220967 0,-0.292339 0.148541,-0.485793 0.516075,-0.672116 0.417033,-0.211417 0.466633,-0.27856 0.468258,-0.633883 0.0018,-0.392665 0.205899,-0.770819 0.559668,-1.036924 0.328496,-0.247096 0.673578,-0.861834 0.673578,-1.199927 0,-0.114008 0.09407,-0.396067 0.209052,-0.626797 0.204476,-0.410331 0.208337,-0.450682 0.176459,-1.843577 -0.04364,-1.906946 -0.05505,-1.945322 -0.708564,-2.383724 -0.290611,-0.194953 -0.586288,-0.455135 -0.65706,-0.578182 C 56.105311,10.64473 55.887912,10.43023 55.692975,10.291111 55.498037,10.151991 55.265057,9.9136171 55.175241,9.7613906 55.085425,9.609164 54.850623,9.3524282 54.653458,9.1908666 54.370878,8.9593128 54.223207,8.8971182 53.956003,8.8971182 c -0.252062,0 -0.39162,-0.052646 -0.544305,-0.2053315 C 53.251658,8.5317469 53.121136,8.4860575 52.81997,8.4846515 52.607452,8.4836594 52.285361,8.4155168 52.104213,8.3332233 51.923065,8.2509299 51.627387,8.1562565 51.447152,8.1228382 51.266917,8.0894199 50.940858,7.9727643 50.722575,7.8636036 L 50.325697,7.6651297 45.835687,7.6641599 C 41.494193,7.6632223 41.323944,7.657323 40.688617,7.4858076 40.093209,7.3250692 39.756414,7.3039669 37.099258,7.2609128 34.916111,7.2255391 34.140772,7.1871712 34.064459,7.1107349 33.992244,7.0384029 33.623291,7.0080692 32.815723,7.0080692 l -1.146236,0 -0.380154,-0.4135034 -0.380154,-0.4135034 -3.159272,0.030626 c -2.681066,0.02599 -3.240082,0.05234 -3.693135,0.174082 -0.293624,0.078901 -0.64474,0.1638701 -0.780259,0.1888202 -0.135519,0.02495 -0.319301,0.09573 -0.408405,0.1572888 -0.08974,0.061998 -0.368001,0.1119249 -0.623798,0.1119249 -0.364979,0 -0.494551,0.0362 -0.618058,0.1726738 -0.228976,0.2530155 -0.547886,0.3959333 -0.950646,0.4260275 -0.195726,0.014625 -0.485224,0.1075194 -0.643329,0.2064329 -0.163327,0.1021798 -0.421264,0.1799752 -0.597303,0.1801496 -0.266861,2.628e-4 -0.369393,0.061783 -0.739193,0.4435088 -0.449723,0.4642265 -1.062386,0.8358559 -1.519294,0.9215722 -0.365294,0.06853 -0.870718,0.5773933 -1.462755,1.4727129 -0.329135,0.49774 -0.617861,0.828147 -0.893723,1.022743 -0.608092,0.428955 -1.600444,1.397477 -1.769294,1.726806 -0.154658,0.301649 -0.916179,1.065702 -1.062171,1.065702 -0.04615,0 -0.400478,0.304917 -0.787396,0.677593 -0.578158,0.55688 -0.69517,0.710817 -0.656813,0.864078 0.05074,0.202724 -0.07876,0.513289 -0.258181,0.619186 -0.26059,0.153804 -1.1775085,2.273852 -1.1775085,2.722569 0,0.135677 -0.069278,0.432196 -0.1539517,0.658934 -0.2645802,0.70849 -0.4209762,1.24799 -0.4209762,1.452189 0,0.274524 -0.1935415,0.521429 -0.5781974,0.737618 -0.2864603,0.161 -0.3506083,0.253679 -0.5004319,0.723011 -0.096689,0.302885 -0.1786534,0.798361 -0.1874019,1.132855 -0.01367,0.522672 -0.042329,0.62247 -0.2371511,0.82582 -0.1405286,0.14668 -0.2216016,0.321861 -0.2216016,0.478832 0,0.320217 -0.2212884,1.071127 -0.4084847,1.386133 -0.080534,0.135519 -0.2048415,0.600128 -0.2762398,1.032465 -0.071398,0.432337 -0.2122712,0.968252 -0.313051,1.190923 -0.1266728,0.27988 -0.2023154,0.65839 -0.2450434,1.22618 -0.0779,1.035173 -0.1988616,1.761997 -0.3120822,1.875218 -0.05258,0.05258 -0.08775,0.48625 -0.08775,1.082024 0,0.920221 -0.014664,1.01415 -0.196891,1.261145 -0.149562,0.202719 -0.1981994,0.376416 -0.2023343,0.72259 -0.00299,0.250645 -0.047227,0.506065 -0.098297,0.5676 -0.067434,0.08125 -0.089778,1.778041 -0.081619,6.198093 l 0.011234,6.086213 0.276161,0.242474 c 0.1998148,0.175439 0.3040179,0.361218 0.3769251,0.672001 0.078494,0.334598 0.2027441,0.540555 0.562187,0.931882 0.2537825,0.276294 0.5907816,0.715621 0.7488868,0.976281 0.1935628,0.319116 0.4156361,0.5535 0.6798434,0.71753 0.2158086,0.133983 0.4477556,0.350691 0.5154377,0.481574 0.067682,0.130882 0.175807,0.237968 0.2402776,0.237968 0.064471,0 0.2335552,0.144765 0.3757434,0.321699 0.1421882,0.176934 0.3564478,0.346088 0.4761326,0.375898 0.3847422,0.09583 2.5795831,1.103281 3.1358581,1.439387 0.823675,0.497671 2.497599,1.148319 2.954286,1.148319 0.380206,0 1.211264,0.202567 1.342189,0.327153 0.03806,0.03621 0.210203,0.04693 0.382549,0.02381 0.200118,-0.02684 0.409698,0.006 0.579954,0.09097 0.146628,0.07315 0.337268,0.132997 0.423644,0.132997 0.08638,0 0.237775,0.04377 0.336444,0.09727 0.187981,0.101922 0.592984,0.191382 1.401302,0.309528 0.265491,0.03881 0.587391,0.147949 0.715335,0.242541 0.170725,0.126222 0.35458,0.171987 0.690951,0.171987 0.491639,0 1.038549,0.217508 1.179298,0.469012 0.06738,0.1204 0.268153,0.149944 1.339059,0.197044 1.395884,0.06139 2.261802,0.171385 3.19661,0.40605 0.673598,0.169094 1.194582,0.206645 1.615086,0.116411 0.357112,-0.07663 1.610651,0.231398 2.393743,0.588209 0.483981,0.220522 0.71706,0.277854 1.149855,0.282836 0.298556,0.0034 0.672187,0.05607 0.830293,0.116951 0.226519,0.08723 1.160504,0.112026 4.405437,0.11695 l 4.117974,0.0063 0.702442,-0.20356 0,-1e-6 z"
       id="path4181"
       inkscape:connector-curvature="0"
       transform="translate(0,988.36216)" />
    <path
       style="fill:#ff0000;fill-opacity:1;stroke:#010000;stroke-width:0.08213256;stroke-opacity:1"
       d="m 34.772891,53.495782 c -0.322627,-0.03512 -0.721017,-0.140178 -0.903459,-0.238247 -0.281052,-0.151076 -0.407745,-0.168104 -0.912796,-0.122682 -0.457373,0.04113 -0.645441,0.02331 -0.854478,-0.08097 -0.170485,-0.08505 -0.480144,-0.134357 -0.850872,-0.135485 -0.735739,-0.0022 -1.997229,-0.188838 -2.122323,-0.313932 -0.05223,-0.05223 -0.288662,-0.09496 -0.525412,-0.09496 -0.236751,0 -0.453298,-0.03696 -0.481217,-0.08213 -0.02792,-0.04517 -0.124787,-0.08213 -0.215264,-0.08213 -0.09048,0 -0.356254,-0.08906 -0.590615,-0.197919 -0.23436,-0.108855 -0.703956,-0.312006 -1.043547,-0.451447 -0.339592,-0.13944 -0.814053,-0.383013 -1.05436,-0.541274 -0.240306,-0.15826 -0.539491,-0.287746 -0.664855,-0.287746 -0.147496,0 -0.442059,-0.158652 -0.834689,-0.449567 -0.333716,-0.247261 -0.828514,-0.565765 -1.099552,-0.707785 -1.330971,-0.697415 -2.203548,-1.270585 -2.394286,-1.572732 -0.107222,-0.169852 -0.248187,-0.308821 -0.313254,-0.308821 -0.297795,0 -0.566498,-0.237102 -0.945843,-0.834605 -0.343724,-0.541396 -0.443678,-0.643781 -0.628501,-0.643781 -0.22989,0 -0.851401,-0.561652 -0.851401,-0.769401 0,-0.05798 -0.09183,-0.191696 -0.204074,-0.297142 -0.112241,-0.105444 -0.226118,-0.309224 -0.253062,-0.452844 -0.02778,-0.148085 -0.207994,-0.431865 -0.416295,-0.655533 -0.202019,-0.216923 -0.388592,-0.50083 -0.414607,-0.630904 -0.02602,-0.130075 -0.07949,-0.256391 -0.118824,-0.280704 -0.03934,-0.02431 -0.07152,-0.129438 -0.07152,-0.233612 0,-0.104175 -0.069,-0.277552 -0.153333,-0.385282 -0.288951,-0.369119 -0.91439,-1.605532 -0.91439,-1.807633 0,-0.118054 -0.119465,-0.328657 -0.287464,-0.506768 -0.23392,-0.247998 -0.287464,-0.368608 -0.287464,-0.647512 0,-0.230708 -0.10068,-0.546107 -0.307997,-0.964868 l -0.307998,-0.62212 8.55e-4,-2.481258 c 6.41e-4,-1.863437 0.0262,-2.506608 0.102665,-2.583069 0.05931,-0.05931 0.101812,-0.316458 0.101812,-0.615994 0,-0.742185 0.224956,-1.416172 0.533862,-1.599496 0.258235,-0.153254 0.325966,-0.277941 0.608569,-1.120331 0.0951,-0.283482 0.20643,-0.579159 0.247397,-0.65706 0.04097,-0.0779 0.155664,-0.344917 0.254884,-0.593368 0.09922,-0.248451 0.299634,-0.691967 0.445366,-0.985591 0.145732,-0.293624 0.287167,-0.672549 0.314301,-0.842056 0.05513,-0.344393 0.701694,-1.759266 0.891313,-1.950451 0.0672,-0.06776 0.181781,-0.289518 0.254615,-0.492796 0.07283,-0.203278 0.239311,-0.669632 0.369946,-1.036341 0.130636,-0.366709 0.355858,-0.81616 0.500494,-0.998777 0.144637,-0.182619 0.412598,-0.630971 0.595471,-0.996338 0.2924,-0.584198 0.325897,-0.708299 0.277784,-1.02914 -0.04769,-0.318004 -0.02922,-0.389182 0.143858,-0.554497 0.109212,-0.104314 0.316359,-0.252622 0.460325,-0.329574 0.143967,-0.07695 0.261757,-0.200739 0.261757,-0.275084 0,-0.172471 0.515808,-1.034758 0.906324,-1.515119 0.342078,-0.42078 0.523599,-0.752823 0.606153,-1.10879 0.198501,-0.855924 0.181247,-0.830748 0.703093,-1.025905 0.269358,-0.100733 0.537081,-0.240368 0.594939,-0.310299 0.14369,-0.173673 0.715945,-0.425639 0.971696,-0.427842 0.115191,-9.92e-4 0.25561,-0.048 0.312041,-0.10447 0.07925,-0.0793 1.386971,-0.112315 5.745173,-0.145059 l 5.64257,-0.04239 0.918463,-0.235247 c 0.846032,-0.216695 0.926369,-0.254335 1.018724,-0.477297 0.193092,-0.466169 0.278115,-0.483462 2.761199,-0.561621 1.255585,-0.03952 3.818978,-0.07332 5.696429,-0.07511 l 3.413548,-0.0033 0.197333,0.184798 c 0.108534,0.101639 0.268954,0.221758 0.356489,0.266931 0.191607,0.09888 0.244415,0.196951 0.414162,0.769158 0.164791,0.555503 0.167849,1.027891 0.0075,1.160957 -0.07015,0.05822 -0.123199,0.237291 -0.123199,0.415873 0,0.172494 -0.03587,0.335798 -0.07972,0.362896 -0.04385,0.0271 -0.237094,0.352677 -0.429439,0.723507 -0.192345,0.370831 -0.484286,0.822076 -0.648759,1.002767 -0.164472,0.180692 -0.327189,0.42093 -0.361596,0.533862 -0.106986,0.351171 -0.361596,0.642265 -0.609363,0.696684 -0.16858,0.03703 -0.253517,0.116381 -0.292432,0.273211 -0.03016,0.121565 -0.128754,0.300235 -0.219088,0.397044 -0.09033,0.09681 -0.226193,0.300088 -0.301909,0.451729 -0.08119,0.162598 -0.264025,0.337456 -0.445662,0.426209 -0.188377,0.09205 -0.307997,0.208696 -0.307997,0.300349 0,0.148883 -0.726403,0.822209 -0.887023,0.822209 -0.139536,0 -0.491662,0.472229 -0.549923,0.737492 -0.03004,0.136748 -0.154751,0.350151 -0.277147,0.47423 -0.122397,0.124079 -0.307246,0.364197 -0.410777,0.533595 -0.103532,0.169399 -0.219693,0.307997 -0.258138,0.307997 -0.03844,0 -0.09575,0.08144 -0.127336,0.180968 -0.03159,0.09953 -0.104192,0.227722 -0.161336,0.284867 -0.05714,0.05714 -0.178165,0.336065 -0.268933,0.619825 -0.251062,0.784859 -0.412755,1.121743 -0.592185,1.233799 -0.105042,0.0656 -0.163167,0.191413 -0.163167,0.35318 0,0.138205 -0.0462,0.297364 -0.102666,0.353687 -0.05647,0.05632 -0.129084,0.424072 -0.161375,0.817219 -0.09284,1.130416 -0.157274,1.517108 -0.28535,1.712576 -0.0842,0.12851 -0.103372,0.288938 -0.06506,0.544447 0.03374,0.224963 0.01328,0.48384 -0.05396,0.683075 -0.08226,0.243723 -0.118584,1.421479 -0.151134,4.900729 -0.04121,4.404573 -0.03703,4.58175 0.109105,4.6281 0.08357,0.02651 0.220383,0.202894 0.30402,0.391969 0.141364,0.319577 0.152469,0.643419 0.15778,4.601183 0.0033,2.437113 -0.02728,4.367305 -0.07146,4.514438 -0.07202,0.23986 -0.211829,0.91992 -0.306128,1.489016 -0.08268,0.498995 -0.383734,0.980193 -0.671408,1.073177 -0.156801,0.05068 -0.336953,0.196079 -0.427564,0.345077 -0.08612,0.141619 -0.264615,0.313351 -0.396647,0.381628 -0.222203,0.114906 -0.25091,0.112148 -0.385959,-0.03708 -0.08025,-0.08867 -0.186371,-0.159988 -0.235836,-0.158485 -0.04946,0.0015 -0.01153,0.06826 0.0843,0.148347 l 0.174239,0.145615 -0.336743,0.282848 -0.336743,0.282849 -2.178274,0.01122 c -1.198052,0.0062 -2.437974,-0.01705 -2.755384,-0.0516 z m -0.912464,-0.983769 c -0.05526,-0.05526 -0.191944,0.179324 -0.189976,0.326027 9.61e-4,0.07142 0.04938,0.03696 0.11522,-0.08201 0.06246,-0.112864 0.0961,-0.222673 0.07476,-0.244019 z m 5.821716,-0.162836 c 0.192177,-0.141455 0.42942,-0.277342 0.527207,-0.301972 0.09779,-0.02463 0.221825,-0.151082 0.27564,-0.281005 0.05382,-0.129923 0.207631,-0.283786 0.341811,-0.341917 0.223643,-0.09689 0.36732,-0.319563 0.598156,-0.927021 0.176317,-0.463987 0.234759,-1.559135 0.262846,-4.925527 0.02625,-3.146368 0.01252,-3.739266 -0.09269,-4.002209 -0.08742,-0.218476 -0.100985,-0.367908 -0.04643,-0.511393 0.06384,-0.16791 0.04935,-0.211522 -0.0844,-0.253971 -0.362776,-0.115141 -0.368603,-0.215731 -0.309212,-5.337159 0.05731,-4.942114 0.11787,-6.333923 0.284458,-6.53785 0.101853,-0.124681 0.166931,-0.54097 0.258102,-1.651026 0.03229,-0.393147 0.104909,-0.760895 0.161375,-0.817219 0.05647,-0.05632 0.102665,-0.278538 0.102665,-0.493811 0,-0.320861 0.0428,-0.435191 0.237484,-0.634348 0.234737,-0.240131 0.692987,-1.116093 0.793613,-1.517018 0.02857,-0.113834 0.212101,-0.376522 0.407846,-0.583749 0.195744,-0.207227 0.379013,-0.482013 0.407264,-0.610635 0.02825,-0.128623 0.145442,-0.32166 0.260427,-0.428972 0.114986,-0.107312 0.277209,-0.327971 0.360497,-0.490353 0.152397,-0.297118 0.673577,-0.813549 0.82103,-0.813549 0.0436,0 0.07928,-0.05295 0.07928,-0.117664 0,-0.06472 0.07392,-0.141126 0.164265,-0.1698 0.09035,-0.02867 0.164265,-0.0865 0.164265,-0.128497 0,-0.126632 0.585575,-0.733895 0.707684,-0.733895 0.0625,0 0.113642,-0.03567 0.113642,-0.07928 0,-0.0436 0.105319,-0.20068 0.234042,-0.349063 0.128723,-0.148384 0.259577,-0.374578 0.290785,-0.502654 0.06676,-0.27399 0.402374,-0.609246 0.645918,-0.645237 0.106786,-0.01578 0.201571,-0.1184 0.251011,-0.271754 0.04369,-0.135519 0.250023,-0.431196 0.458519,-0.657061 0.208496,-0.225864 0.466207,-0.61394 0.572691,-0.862391 0.106484,-0.248451 0.244922,-0.573102 0.30764,-0.721447 0.06272,-0.148344 0.114033,-0.334159 0.114033,-0.412921 0,-0.07876 0.05485,-0.221516 0.121894,-0.317231 0.09627,-0.137443 0.103213,-0.227616 0.03303,-0.428938 -0.04887,-0.140201 -0.138004,-0.25491 -0.198065,-0.25491 -0.06006,0 -0.182339,-0.09298 -0.271727,-0.206615 L 48.876216,13.8225 44.002159,13.85468 c -2.680733,0.0177 -5.048865,0.05889 -5.262518,0.09155 -0.319689,0.04887 -0.417966,0.10712 -0.555122,0.329042 -0.205603,0.332673 -0.31088,0.374307 -1.875953,0.741876 l -1.259016,0.29569 -5.215147,-0.01489 c -3.769352,-0.01077 -5.240745,0.0107 -5.307483,0.07744 -0.05078,0.05078 -0.198288,0.09234 -0.327786,0.09234 -0.129498,0 -0.353104,0.08628 -0.496902,0.191738 -0.143798,0.105456 -0.445428,0.268782 -0.670289,0.362947 -0.367909,0.15407 -0.417995,0.206819 -0.500314,0.526922 -0.127798,0.496942 -0.416199,1.043768 -0.729076,1.38237 -0.353185,0.382226 -0.725108,1.045987 -0.747812,1.334604 -0.0125,0.158865 -0.151552,0.360455 -0.438251,0.635339 -0.359922,0.34509 -0.420159,0.447324 -0.42144,0.715268 -10e-4,0.20966 -0.08225,0.4318 -0.246668,0.674454 -0.134846,0.199005 -0.282277,0.499616 -0.327626,0.668026 -0.04535,0.16841 -0.142675,0.356182 -0.216282,0.41727 -0.07361,0.06109 -0.202234,0.259432 -0.285838,0.440764 -0.0836,0.181331 -0.184974,0.385133 -0.225265,0.452892 -0.129603,0.217962 -0.491975,1.098685 -0.591382,1.43732 -0.05304,0.180692 -0.180474,0.420929 -0.283181,0.533862 -0.29038,0.319287 -0.695434,1.193872 -0.7901,1.705968 -0.07338,0.396923 -0.229596,0.772368 -0.554631,1.332936 -0.121762,0.209997 -0.337763,0.740386 -0.337763,0.829375 0,0.04654 -0.0924,0.286615 -0.205331,0.533509 -0.112932,0.246896 -0.205332,0.545619 -0.205332,0.66383 0,0.200159 -0.478612,1.025103 -0.659655,1.136994 -0.206299,0.1275 -0.408068,0.746161 -0.408068,1.251211 0,0.288109 -0.03776,0.594382 -0.0839,0.680606 -0.111024,0.207452 -0.120706,4.325345 -0.01048,4.458158 0.217265,0.261787 0.588109,1.21445 0.542888,1.394626 -0.04786,0.190704 0.133722,0.589507 0.470621,1.033589 0.08173,0.107731 0.148598,0.305307 0.148598,0.439057 0,0.237593 0.168367,0.61645 0.402463,0.90562 0.06425,0.07936 0.157056,0.211695 0.20624,0.29407 0.04918,0.08237 0.172445,0.276158 0.273915,0.43063 0.101471,0.154472 0.18463,0.344226 0.184799,0.421676 4.35e-4,0.20113 0.38715,0.873495 0.710394,1.235139 0.151527,0.169529 0.275504,0.396001 0.275504,0.503272 0,0.107271 0.05757,0.242821 0.127944,0.301222 0.07037,0.0584 0.179362,0.229245 0.242206,0.379653 0.08477,0.202888 0.165481,0.27347 0.312709,0.27347 0.282124,0 0.604966,0.282303 0.971663,0.849654 0.221678,0.342979 0.411259,0.533144 0.628444,0.630381 0.290575,0.130095 0.755938,0.583187 0.755938,0.736005 0,0.0374 0.194039,0.182407 0.431196,0.322248 0.237158,0.139842 0.486636,0.289026 0.554395,0.331521 0.06776,0.0425 0.499668,0.283476 0.959796,0.535513 0.460128,0.252037 1.022676,0.605336 1.250106,0.785109 0.256712,0.202919 0.499799,0.32686 0.641077,0.32686 0.126597,0 0.416131,0.129867 0.652543,0.29269 0.609179,0.419557 2.286946,1.103563 2.70688,1.103563 0.202105,0 0.381574,0.04999 0.442336,0.123199 0.05623,0.06776 0.217839,0.124107 0.35912,0.125219 0.141281,0.0011 0.478632,0.08214 0.74967,0.180054 0.34507,0.124666 0.800556,0.196649 1.519452,0.24013 1.944383,0.117602 2.662004,0.204003 2.953597,0.355613 0.412996,0.21473 0.882165,0.250359 3.10333,0.23567 l 1.991364,-0.01317 0.349414,-0.257191 z"
       id="path4183"
       inkscape:connector-curvature="0"
       transform="translate(0,988.36216)" />
    <path
       style="fill:#ff0000;fill-opacity:1;stroke:#010000;stroke-width:0.08213256;stroke-opacity:1"
       d="m 28.787533,44.482357 c -0.01057,-0.01058 -0.351557,-0.03885 -0.757751,-0.06284 -0.751828,-0.0444 -1.202655,-0.1355 -1.373908,-0.277628 -0.125353,-0.104033 -0.794568,-0.335708 -0.974126,-0.337232 -0.07748,-6.57e-4 -0.262279,-0.105437 -0.410662,-0.232845 -0.148384,-0.127408 -0.551395,-0.424361 -0.895579,-0.659895 -0.640082,-0.438027 -1.714988,-1.476446 -1.714988,-1.656774 0,-0.05517 -0.131737,-0.392083 -0.292749,-0.748689 -0.175745,-0.389235 -0.360125,-1.000654 -0.461324,-1.52979 -0.09272,-0.484778 -0.242087,-1.026207 -0.331935,-1.203174 -0.104988,-0.206787 -0.174729,-0.539429 -0.195177,-0.930928 -0.0175,-0.335042 -0.0534,-0.64409 -0.07978,-0.686771 -0.02638,-0.04268 -0.04856,-1.13911 -0.04929,-2.436508 l -0.0013,-2.358904 0.295127,-0.588442 c 0.162319,-0.323644 0.295126,-0.621646 0.295126,-0.662228 0,-0.04058 0.110879,-0.180014 0.246398,-0.309849 0.135519,-0.129835 0.246536,-0.312308 0.246704,-0.405496 4.52e-4,-0.250668 0.292482,-0.690802 0.769331,-1.159511 0.232299,-0.228334 0.540074,-0.63489 0.683945,-0.903459 0.268155,-0.500574 0.413091,-0.710606 0.753305,-1.091639 0.413249,-0.462831 0.577557,-0.728103 0.745491,-1.203584 0.256555,-0.726395 0.476978,-1.510874 0.542324,-1.930115 0.03168,-0.203278 0.07317,-0.461996 0.09219,-0.574928 0.01902,-0.112932 0.05009,-0.519489 0.06905,-0.903458 0.03073,-0.622513 0.05701,-0.717716 0.242575,-0.878986 0.114459,-0.09947 0.208107,-0.25309 0.208107,-0.341374 0,-0.119188 0.0416,-0.149637 0.161574,-0.118263 0.08887,0.02324 0.204271,0.0937 0.256455,0.156576 0.118203,0.142426 2.72436,0.160005 3.23687,0.02183 0.180691,-0.04871 0.476056,-0.108005 0.656364,-0.131758 0.180309,-0.02375 0.456846,-0.130852 0.614527,-0.237999 0.157681,-0.107147 0.356312,-0.194813 0.441402,-0.194813 0.08509,0 0.344468,-0.05944 0.576396,-0.132089 0.231926,-0.07265 0.606484,-0.189416 0.832348,-0.259483 0.225865,-0.07007 0.483566,-0.176946 0.57267,-0.237508 0.0891,-0.06056 0.211479,-0.110113 0.271945,-0.110113 0.06047,0 0.431078,-0.155207 0.823583,-0.344904 0.662795,-0.320328 0.771851,-0.347248 1.530471,-0.377794 0.460395,-0.01854 0.948249,0.0065 1.118007,0.05735 0.165764,0.04966 0.530971,0.302617 0.812252,0.562592 l 0.51107,0.472355 0.08928,1.466347 c 0.07744,1.271979 0.07265,1.500604 -0.03613,1.724784 -0.06897,0.14214 -0.185943,0.387796 -0.259935,0.545901 -0.12795,0.273401 -1.035558,1.79067 -1.428944,2.388797 -0.101471,0.154281 -0.18463,0.380722 -0.184798,0.503203 -1.65e-4,0.133735 -0.176467,0.481398 -0.441304,0.870337 -0.28665,0.420972 -0.50457,0.86046 -0.622636,1.255694 -0.0999,0.334428 -0.188101,0.62653 -0.196001,0.649116 -0.0079,0.02259 -0.123224,0.244344 -0.256278,0.492795 -0.31046,0.579721 -0.537403,1.20713 -0.537403,1.48571 0,0.120429 -0.05162,0.261805 -0.11472,0.31417 -0.0631,0.05236 -0.0967,0.164102 -0.07468,0.248305 0.02202,0.0842 -0.03724,0.32778 -0.131678,0.541283 -0.166497,0.376393 -0.171531,0.504516 -0.165717,4.217443 0.0033,2.106091 0.04208,4.032535 0.08619,4.280986 0.141319,0.796102 0.177335,1.652564 0.08251,1.96214 -0.04995,0.163078 -0.257531,0.476428 -0.461286,0.696334 -0.203756,0.219906 -0.370465,0.428808 -0.370465,0.464228 0,0.03542 -0.101639,0.105926 -0.225865,0.156682 -0.124226,0.05076 -0.41024,0.22069 -0.635588,0.377631 -0.225348,0.156942 -0.484065,0.286508 -0.574928,0.287927 -1.443186,0.02253 -3.591899,0.034 -3.606634,0.01926 z m 3.687827,-1.080124 c 0.180692,-0.08317 0.563875,-0.397843 0.851517,-0.699272 l 0.522987,-0.548053 -0.0486,-0.469313 c -0.02673,-0.258122 -0.0844,-0.70955 -0.128148,-1.003174 -0.04375,-0.293624 -0.08454,-2.326405 -0.09064,-4.517291 -0.01076,-3.863945 -0.006,-3.995336 0.159554,-4.380369 0.09386,-0.218316 0.170652,-0.505255 0.170652,-0.637641 0,-0.132387 0.03412,-0.304881 0.07583,-0.383321 0.0417,-0.07844 0.137807,-0.382855 0.213563,-0.676479 0.07576,-0.293624 0.242654,-0.693864 0.370882,-0.889423 0.221721,-0.338142 0.488885,-1.05398 0.61138,-1.638121 0.03101,-0.147894 0.139209,-0.369652 0.240437,-0.492795 0.390187,-0.474663 0.674967,-0.979354 0.77516,-1.373753 0.05738,-0.225865 0.187564,-0.503062 0.289299,-0.615995 0.101735,-0.112932 0.229834,-0.29773 0.284664,-0.410662 0.05483,-0.112933 0.246915,-0.44557 0.426856,-0.739193 0.17994,-0.293624 0.405145,-0.700181 0.500455,-0.903459 0.09531,-0.203278 0.226235,-0.482399 0.290944,-0.62027 0.08872,-0.189026 0.105634,-0.44151 0.06878,-1.026657 -0.09029,-1.433721 -0.08248,-1.408238 -0.534988,-1.746063 -0.377844,-0.282086 -0.445686,-0.302975 -0.983999,-0.302975 -0.317996,0 -0.642353,0.03241 -0.720793,0.07202 -0.288646,0.145753 -1.385544,0.659009 -1.744203,0.81614 -0.499108,0.218662 -1.386171,0.474323 -1.966821,0.56686 -0.155708,0.02482 -0.344429,0.120851 -0.419382,0.213414 -0.09098,0.11236 -0.283519,0.188169 -0.579288,0.228089 -0.243656,0.03289 -0.590849,0.09922 -0.77154,0.147401 -0.180692,0.04818 -1.021524,0.08849 -1.868516,0.08957 l -1.539986,0.002 0,0.33333 c 0,0.647448 -0.403006,2.876713 -0.581913,3.218903 -0.181184,0.346546 -0.224504,0.445287 -0.297277,0.677594 -0.04245,0.135518 -0.123467,0.236242 -0.180031,0.223829 -0.05656,-0.01241 -0.08007,0.01428 -0.05224,0.05931 0.02783,0.04503 -0.181939,0.381935 -0.466157,0.748671 -0.284219,0.366736 -0.568127,0.746603 -0.630907,0.844148 -0.678514,1.054247 -1.02866,1.53227 -1.150754,1.571021 -0.162234,0.05149 -0.296577,0.286529 -0.377043,0.659649 -0.02923,0.135519 -0.161649,0.35923 -0.294273,0.497138 -0.132624,0.137907 -0.30763,0.439558 -0.388901,0.670335 -0.08127,0.230777 -0.194944,0.476442 -0.252607,0.545922 -0.08189,0.09868 -0.09565,0.644074 -0.06284,2.491768 0.04456,2.509269 0.105095,3.200564 0.31502,3.597431 0.07168,0.135518 0.210916,0.671433 0.309405,1.190922 0.104113,0.54915 0.258101,1.082046 0.367866,1.273055 0.103838,0.180691 0.232105,0.462582 0.28504,0.626422 0.05961,0.184499 0.291806,0.481508 0.609995,0.780259 0.540192,0.507193 1.808906,1.426048 1.971838,1.428087 0.184434,0.0023 0.836186,0.259251 0.975006,0.38438 0.195661,0.176365 1.086749,0.246762 3.268206,0.258194 1.634086,0.0086 1.88601,-0.0078 2.176513,-0.141536 z"
       id="path4185"
       inkscape:connector-curvature="0"
       transform="translate(0,988.36216)" />
    <path
       style="fill:#01f9fe;fill-opacity:1;stroke:#010000;stroke-width:0.08213256;stroke-opacity:1"
       d="m 27.857241,36.626051 c -0.356532,-0.09377 -0.509755,-0.199192 -0.812215,-0.558813 -0.216091,-0.256929 -0.770674,-1.196486 -0.770674,-1.305652 0,-0.04434 -0.06033,-0.172693 -0.134061,-0.285224 -0.194172,-0.296344 -0.129376,-3.116665 0.07891,-3.434545 0.07551,-0.115239 0.137286,-0.281708 0.137286,-0.369931 0,-0.218724 0.364169,-0.927693 0.574111,-1.117688 0.09407,-0.08514 0.240145,-0.311008 0.324603,-0.501938 0.08446,-0.19093 0.230954,-0.388566 0.325549,-0.439192 0.0946,-0.05063 0.171991,-0.158008 0.171991,-0.238629 0,-0.08062 0.110879,-0.270775 0.246397,-0.422566 0.165255,-0.185097 0.246398,-0.362782 0.246398,-0.539555 0,-0.144965 0.06468,-0.336889 0.143732,-0.426499 0.176928,-0.200556 0.84908,-0.467783 0.916364,-0.364319 0.02678,0.04118 0.510689,0.09693 1.075351,0.123885 1.169358,0.05582 1.39574,0.103131 1.397511,0.292076 9.77e-4,0.104191 0.01668,0.109832 0.0703,0.02526 0.142631,-0.224972 0.678871,0.63731 0.961568,1.546216 0.140325,0.451163 0.153757,1.974119 0.0248,2.811516 -0.110385,0.716776 -0.604147,2.194255 -0.858622,2.569245 -0.100569,0.148195 -0.207945,0.348508 -0.238614,0.445139 -0.03067,0.09663 -0.260071,0.384957 -0.50978,0.640724 -0.249709,0.255768 -0.508787,0.548623 -0.575729,0.650789 -0.06694,0.102166 -0.460315,0.350737 -0.874164,0.552379 -0.826088,0.402503 -1.350627,0.497342 -1.921003,0.347325 z m 1.096922,-0.997361 c 0.174915,-0.06918 0.428906,-0.184596 0.564425,-0.256484 0.329635,-0.174861 1.191445,-1.056033 1.396253,-1.427623 0.537067,-0.974413 0.920143,-1.951568 0.932597,-2.378877 0.0046,-0.158105 0.04614,-0.416579 0.09229,-0.574386 0.04615,-0.157807 0.08391,-0.622778 0.08391,-1.03327 0,-0.63309 -0.03111,-0.807664 -0.204988,-1.150398 -0.112743,-0.222227 -0.205142,-0.480766 -0.205331,-0.574531 -1.89e-4,-0.09377 -0.09361,-0.258096 -0.207592,-0.365181 -0.188793,-0.177362 -0.293015,-0.197492 -1.170389,-0.22605 L 29.272197,27.61054 29.0258,28.040236 c -0.135519,0.236332 -0.301838,0.531046 -0.369597,0.654919 -0.06776,0.123874 -0.224838,0.347073 -0.349063,0.495998 -0.124226,0.148925 -0.225865,0.330653 -0.225865,0.403839 0,0.07319 -0.113186,0.241504 -0.251524,0.37404 -0.260093,0.249185 -0.511913,0.735473 -0.608439,1.17495 -0.0305,0.138857 -0.1544,0.330527 -0.275337,0.425933 -0.120938,0.09541 -0.164058,0.156526 -0.09582,0.13582 0.107631,-0.03266 0.12001,0.119191 0.09345,1.146367 l -0.03062,1.184013 0.391233,0.674378 c 0.585993,1.010091 0.931471,1.202349 1.649951,0.918197 z"
       id="path4187"
       inkscape:connector-curvature="0"
       transform="translate(0,988.36216)" />
    <path
       style="fill:#01f31e;fill-opacity:1;stroke:#010000;stroke-width:0.08213256;stroke-opacity:1"
       d="m 27.452997,44.291721 c -0.277789,-0.03621 -0.647386,-0.138285 -0.821325,-0.226833 -0.17394,-0.08855 -0.482573,-0.20892 -0.685851,-0.267494 -0.461543,-0.13299 -1.850608,-1.128446 -2.59924,-1.862711 -0.487227,-0.477878 -0.602572,-0.650208 -0.838163,-1.252262 -0.150253,-0.38397 -0.398505,-1.178603 -0.551672,-1.76585 -0.153166,-0.587248 -0.339763,-1.271002 -0.414659,-1.519453 -0.111543,-0.370022 -0.142754,-0.956829 -0.172555,-3.244236 l -0.03638,-2.792507 0.331655,-0.702765 c 0.18241,-0.386521 0.407305,-0.771227 0.499765,-0.854902 0.09246,-0.08367 0.204457,-0.287122 0.248882,-0.452104 0.04537,-0.16848 0.309922,-0.567782 0.603543,-0.910948 0.287524,-0.33604 0.69497,-0.879994 0.905435,-1.208786 0.210466,-0.328792 0.554392,-0.808638 0.76428,-1.066324 0.726058,-0.891404 1.177141,-2.295362 1.342113,-4.177219 0.08523,-0.972292 0.101747,-1.020116 0.547216,-1.584929 0.0149,-0.01889 0.125092,0.01807 0.244874,0.08213 0.1647,0.08809 0.570073,0.116086 1.663061,0.114868 1.545583,-0.0017 2.155065,-0.08842 2.841528,-0.404182 0.225865,-0.103896 0.702695,-0.269488 1.059624,-0.367984 0.707419,-0.195214 1.734796,-0.583152 2.636342,-0.995482 0.482766,-0.220798 0.703362,-0.269696 1.376133,-0.305036 0.974944,-0.05121 1.298575,0.05313 1.944514,0.626927 l 0.446008,0.396197 0.07919,1.47011 0.07919,1.47011 -0.306162,0.606965 c -0.16839,0.333831 -0.598468,1.083869 -0.955729,1.666751 -0.35726,0.582882 -0.672465,1.159819 -0.700454,1.282083 -0.02799,0.122264 -0.253882,0.582519 -0.501984,1.02279 -0.248102,0.44027 -0.518211,1.013144 -0.600242,1.273054 -0.08203,0.259911 -0.297924,0.787828 -0.479759,1.173151 -0.181835,0.385323 -0.374542,0.884278 -0.428237,1.108789 -0.05369,0.224512 -0.124726,0.482123 -0.157848,0.572469 -0.09027,0.246221 -0.24788,0.856195 -0.328951,1.273054 -0.03953,0.203278 -0.07188,1.663185 -0.07187,3.244237 7e-6,2.616992 0.04902,4.040479 0.204108,5.928575 0.04943,0.60176 0.03638,0.703995 -0.124665,0.976952 -0.357549,0.606002 -0.772098,1.020282 -1.387285,1.386391 l -0.626883,0.373067 -2.261241,-0.01041 c -1.243683,-0.0057 -2.488523,-0.04004 -2.766313,-0.07625 z m 5.001031,-0.800224 c 0.123786,-0.05172 0.508401,-0.36568 0.854699,-0.697699 l 0.629635,-0.603669 -0.107719,-0.733321 c -0.07333,-0.499182 -0.11904,-2.067647 -0.143175,-4.91242 -0.0346,-4.077604 -0.03116,-4.195292 0.141611,-4.845821 0.346492,-1.304664 0.60244,-2.07024 0.868177,-2.596838 0.148172,-0.293624 0.352689,-0.810625 0.454484,-1.148892 0.106624,-0.354313 0.332145,-0.829838 0.532005,-1.121763 0.190808,-0.278704 0.426606,-0.722654 0.523997,-0.986555 0.09739,-0.263902 0.27953,-0.62766 0.404754,-0.808352 0.266369,-0.384358 0.858908,-1.416815 1.249126,-2.176513 0.266256,-0.518361 0.273713,-0.559855 0.256866,-1.429111 -0.02072,-1.068884 -0.11246,-1.457171 -0.409335,-1.732448 -0.688652,-0.638555 -1.379716,-0.610876 -2.957754,0.118464 -0.606533,0.280329 -1.482251,0.607462 -1.971182,0.736356 -0.483882,0.127563 -1.009144,0.30741 -1.167249,0.39966 -0.46684,0.272389 -1.665473,0.428693 -3.287477,0.428693 l -1.451614,0 -0.0541,0.71866 c -0.107359,1.426281 -0.582978,3.268592 -0.969787,3.75647 -0.03629,0.04578 -0.230908,0.323465 -0.43248,0.617089 -1.275215,1.857568 -1.590461,2.291051 -1.865911,2.565751 -0.169369,0.168907 -0.344571,0.439757 -0.389337,0.601888 -0.04477,0.162131 -0.177041,0.420183 -0.293942,0.573449 -0.116902,0.153265 -0.326086,0.52921 -0.464854,0.835431 -0.324161,0.71533 -0.358121,1.246599 -0.250839,3.924201 0.0686,1.712188 0.110362,2.135185 0.251371,2.54611 0.09301,0.271037 0.265385,0.90688 0.383064,1.412984 0.264984,1.139625 0.709412,2.079107 1.198761,2.534077 0.724831,0.673908 1.903286,1.514704 2.123162,1.514819 0.06836,3.6e-5 0.364533,0.115285 0.658157,0.256109 0.442892,0.212414 0.680812,0.266972 1.396254,0.320174 1.227354,0.09127 4.016039,0.04773 4.290627,-0.06698 z"
       id="path4189"
       inkscape:connector-curvature="0"
       transform="translate(0,988.36216)" />
    <path
       style="fill:#01f31e;fill-opacity:1;stroke:#010000;stroke-width:0.08213256;stroke-opacity:1"
       d=""
       id="path4191"
       inkscape:connector-curvature="0"
       transform="translate(0,988.36216)" />
    <path
       style="fill:#faf31e;fill-opacity:1;stroke:#010000;stroke-width:0.08213256;stroke-opacity:1"
       d="m 34.898271,53.412126 c -0.338797,-0.033 -0.763833,-0.123227 -0.944525,-0.200507 -0.218754,-0.09356 -0.53436,-0.13851 -0.944524,-0.134526 -0.338797,0.0033 -0.797427,-0.04915 -1.019177,-0.116536 -0.221751,-0.06738 -0.609827,-0.122657 -0.862392,-0.12283 -0.559339,-4.1e-4 -1.816018,-0.197216 -2.046448,-0.320539 -0.0923,-0.0494 -0.334379,-0.08981 -0.537961,-0.08981 -0.203582,0 -0.392991,-0.03696 -0.42091,-0.08213 -0.02792,-0.04517 -0.121277,-0.08213 -0.207465,-0.08213 -0.189755,0 -1.967304,-0.775793 -2.708241,-1.181985 -0.293624,-0.160968 -0.597113,-0.29351 -0.674421,-0.294536 -0.07731,-10e-4 -0.445789,-0.209704 -0.81885,-0.463729 -0.37306,-0.254025 -1.012042,-0.647036 -1.419959,-0.873357 -1.134598,-0.629496 -1.615957,-0.954539 -1.956701,-1.321283 -0.171365,-0.184441 -0.428264,-0.373654 -0.570886,-0.420474 -0.1844,-0.06053 -0.384825,-0.263079 -0.693782,-0.70112 -0.289858,-0.410962 -0.523573,-0.65243 -0.702169,-0.725462 -0.302305,-0.123618 -0.80156,-0.570774 -0.80156,-0.717912 0,-0.05337 -0.06145,-0.147756 -0.136547,-0.209754 -0.0751,-0.062 -0.209121,-0.276428 -0.297822,-0.476512 -0.0887,-0.200085 -0.322909,-0.569682 -0.520462,-0.821326 -0.197553,-0.251644 -0.35921,-0.520033 -0.359239,-0.59642 -2.8e-5,-0.07639 -0.03224,-0.158777 -0.07157,-0.183089 -0.03934,-0.02431 -0.09228,-0.147954 -0.117636,-0.274759 -0.02536,-0.126805 -0.19092,-0.469451 -0.367909,-0.761435 -0.345924,-0.57068 -0.67492,-1.269195 -0.67492,-1.432969 0,-0.05552 -0.123432,-0.263341 -0.274293,-0.461822 -0.181351,-0.238593 -0.292071,-0.49257 -0.326758,-0.749534 -0.02886,-0.213763 -0.18262,-0.647116 -0.341701,-0.963007 l -0.289236,-0.574347 0.0077,-1.788435 c 0.0042,-0.983638 0.03838,-2.12107 0.07586,-2.527626 0.202007,-2.191137 0.304591,-2.625286 0.678161,-2.870058 0.215699,-0.141332 0.259685,-0.231346 0.845067,-1.729366 0.211827,-0.542075 0.48612,-1.188868 0.60954,-1.437319 0.123419,-0.248452 0.306865,-0.710447 0.407656,-1.026658 0.219298,-0.688001 0.673905,-1.692618 0.890602,-1.968103 0.08585,-0.109147 0.29512,-0.588645 0.465032,-1.06555 0.169913,-0.476904 0.453009,-1.098219 0.629103,-1.3807 0.669429,-1.073859 0.914634,-1.633093 0.925222,-2.110126 0.0097,-0.437426 0.021,-0.458274 0.405666,-0.748979 0.268181,-0.202673 0.459887,-0.437612 0.594937,-0.729103 0.109591,-0.236541 0.426749,-0.745199 0.704795,-1.130353 0.371784,-0.515 0.557671,-0.870577 0.702577,-1.34394 0.195829,-0.639712 0.199659,-0.644867 0.624308,-0.840397 0.234999,-0.108206 0.569587,-0.293927 0.743529,-0.412715 0.173942,-0.118788 0.451139,-0.2403 0.615994,-0.270027 0.164855,-0.02973 0.373464,-0.09229 0.463576,-0.139022 0.104753,-0.05433 2.222583,-0.107303 5.872478,-0.146892 l 5.708639,-0.06192 0.818259,-0.232732 c 0.72978,-0.207567 0.839174,-0.263784 1.011665,-0.519891 0.106372,-0.157937 0.27407,-0.317557 0.372662,-0.35471 0.283393,-0.106793 4.218362,-0.214145 7.959799,-0.217155 l 3.427515,-0.0028 0.367859,0.266931 c 0.30939,0.224504 0.394486,0.349897 0.535381,0.788911 0.195328,0.608617 0.207775,0.957942 0.04432,1.24387 -0.06456,0.112932 -0.118688,0.310505 -0.120288,0.439051 -0.0016,0.128545 -0.07027,0.331823 -0.152601,0.451729 -0.08233,0.119905 -0.271595,0.439768 -0.42059,0.710805 -0.148995,0.271038 -0.397065,0.648409 -0.551267,0.838603 -0.154202,0.190193 -0.334204,0.474657 -0.400006,0.632142 -0.0658,0.157485 -0.216674,0.352988 -0.335274,0.434452 -0.340122,0.233626 -0.519681,0.439219 -0.865751,0.99128 -0.177434,0.283047 -0.450393,0.597204 -0.606575,0.698126 -0.156183,0.100922 -0.304017,0.244766 -0.328521,0.319652 -0.04568,0.139614 -0.589863,0.650829 -0.974837,0.915786 -0.118659,0.08167 -0.323083,0.358863 -0.454277,0.615994 -0.131193,0.257131 -0.425588,0.697781 -0.654209,0.979223 -0.466434,0.574199 -0.708523,1.01762 -1.035489,1.896648 -0.123044,0.330794 -0.311854,0.696547 -0.41958,0.812785 -0.107726,0.116238 -0.195865,0.300774 -0.195865,0.410079 0,0.109306 -0.03884,0.271318 -0.08632,0.360028 -0.04747,0.08871 -0.140724,0.626211 -0.207217,1.194447 -0.06649,0.568236 -0.16337,1.112299 -0.215281,1.209031 -0.05191,0.09673 -0.103709,0.397632 -0.115108,0.668669 -0.0114,0.271038 -0.0578,1.195029 -0.103115,2.053315 -0.04531,0.858285 -0.08506,3.008349 -0.08834,4.777919 l -0.0059,3.217402 0.217395,0.258359 c 0.119567,0.142098 0.247316,0.41289 0.283887,0.601763 0.03657,0.188872 0.0681,2.144946 0.07007,4.346829 0.0035,3.973909 0.002,4.011454 -0.208228,5.092219 -0.25001,1.285196 -0.370467,1.572374 -0.765916,1.825994 -0.162434,0.104178 -0.422704,0.322802 -0.578377,0.485833 -0.314201,0.32905 -0.452989,0.361904 -0.676051,0.160035 -0.18572,-0.168075 -0.301726,-0.07653 -0.170103,0.13423 0.08283,0.132626 0.05567,0.190554 -0.190765,0.406927 l -0.287339,0.252288 -2.07099,-0.01149 c -1.139044,-0.0063 -2.348186,-0.03849 -2.686983,-0.07149 z m -1.08415,-0.590512 c 0.117852,-0.117852 0.131393,-0.394236 0.01932,-0.394236 -0.08638,0 -0.249287,0.264831 -0.249287,0.405263 0,0.116212 0.107906,0.111037 0.229971,-0.01103 z m 5.99493,-0.45883 c 0.678597,-0.438599 1.377789,-1.148081 1.578428,-1.601658 0.248572,-0.561938 0.309983,-1.374703 0.370564,-4.904354 0.03885,-2.263342 0.02657,-3.360532 -0.04319,-3.86023 -0.05361,-0.38397 -0.09295,-0.815448 -0.08743,-0.95884 0.0073,-0.190283 -0.03253,-0.274221 -0.147519,-0.310717 -0.08665,-0.0275 -0.179517,-0.131939 -0.206364,-0.232083 -0.07427,-0.27703 -0.05482,-6.375467 0.02849,-8.9343 0.05548,-1.70388 0.105026,-2.343739 0.200352,-2.587176 0.06965,-0.177885 0.180028,-0.791512 0.24527,-1.363617 0.06524,-0.572105 0.158568,-1.11483 0.207391,-1.206056 0.04882,-0.09122 0.08877,-0.299821 0.08877,-0.463544 0,-0.206625 0.07426,-0.390418 0.242758,-0.600861 0.133518,-0.16675 0.397599,-0.635818 0.586848,-1.042374 0.18925,-0.406556 0.449378,-0.860339 0.578063,-1.008407 0.128686,-0.148069 0.306985,-0.412328 0.39622,-0.587244 0.192589,-0.377506 1.064603,-1.566453 1.14889,-1.566453 0.09171,0 0.682212,-0.583074 0.930144,-0.918439 0.122978,-0.166345 0.291873,-0.324115 0.375323,-0.350601 0.156514,-0.04968 0.75184,-0.849299 0.75184,-1.009848 0,-0.158613 0.403161,-0.576061 0.605355,-0.626808 0.109416,-0.02746 0.237344,-0.150787 0.291141,-0.280666 0.05278,-0.127424 0.261806,-0.432811 0.464499,-0.678638 0.202695,-0.245828 0.472999,-0.668717 0.600679,-0.939755 C 49.273007,15.783612 49.6,14.812598 49.6,14.594612 c 0,-0.07735 -0.172308,-0.305738 -0.382909,-0.507528 l -0.382907,-0.36689 -4.770911,0.05495 c -2.624,0.03022 -4.971069,0.07732 -5.215709,0.104668 -0.381484,0.04264 -0.486952,0.09537 -0.740927,0.370422 -0.282436,0.305876 -0.356808,0.335675 -1.608515,0.644485 l -1.312387,0.32378 -5.107656,0.0014 c -5.730907,0.0016 -5.713756,1.23e-4 -6.788849,0.580018 -0.717669,0.387106 -0.728181,0.398197 -0.912299,0.962559 -0.07758,0.237805 -0.267795,0.607402 -0.422696,0.821325 -0.575475,0.794757 -0.832924,1.218989 -0.93384,1.538808 -0.05701,0.180692 -0.242911,0.476369 -0.4131,0.657061 -0.359723,0.381921 -0.492886,0.616186 -0.492886,0.867106 0,0.09888 -0.110225,0.387745 -0.244945,0.641926 -0.134719,0.254183 -0.30207,0.591508 -0.37189,0.749614 -0.06982,0.158105 -0.255765,0.489933 -0.413212,0.737396 -0.157448,0.247462 -0.436444,0.838816 -0.619991,1.314121 -0.183548,0.475303 -0.4435,1.020475 -0.577671,1.211494 -0.315136,0.448652 -0.540292,0.962928 -0.741601,1.693883 -0.08892,0.322879 -0.266983,0.774622 -0.395688,1.003872 -0.253553,0.451628 -0.905895,2.123421 -0.905895,2.321587 0,0.159976 -0.376938,0.806574 -0.662932,1.137191 -0.397686,0.459736 -0.601623,2.167586 -0.557197,4.66619 0.02877,1.617894 0.03271,1.649298 0.261405,2.083616 0.127708,0.24253 0.280294,0.67084 0.339079,0.951801 0.111089,0.530949 0.226199,0.808249 0.434918,1.047718 0.06748,0.07743 0.155506,0.316395 0.195606,0.531044 0.04786,0.256165 0.241962,0.646644 0.564878,1.136358 0.270581,0.410348 0.491966,0.791681 0.491966,0.847407 0,0.151924 0.374439,0.860883 0.597521,1.131342 0.107777,0.130665 0.340591,0.528907 0.517365,0.884983 0.222093,0.447362 0.385013,0.672586 0.527252,0.728886 0.478648,0.189456 0.575281,0.268218 0.942221,0.767966 0.217487,0.296202 0.572888,0.649333 0.815738,0.810528 0.236688,0.157104 0.48076,0.379852 0.542383,0.494996 0.117946,0.220384 0.600241,0.545378 1.888932,1.272854 0.429143,0.242255 1.016418,0.600663 1.305056,0.796464 0.288637,0.195801 0.621274,0.379025 0.739193,0.407163 0.117918,0.02814 0.547034,0.228247 0.95359,0.444682 0.870513,0.463429 1.855214,0.8639 2.306544,0.938055 0.176934,0.02907 0.451057,0.101289 0.609162,0.160486 0.724275,0.271176 1.824783,0.467429 3.260627,0.581469 1.717432,0.136403 1.845134,0.155565 2.488653,0.373447 0.395888,0.134039 0.728048,0.153285 2.68707,0.155697 l 2.235341,0.0028 0.481164,-0.310992 z"
       id="path4193"
       inkscape:connector-curvature="0"
       transform="translate(0,988.36216)" />
  </g>
</svg>
