<?xml version="1.0" encoding="UTF-8" standalone="no"?>
<svg
   xmlns:dc="http://purl.org/dc/elements/1.1/"
   xmlns:cc="http://creativecommons.org/ns#"
   xmlns:rdf="http://www.w3.org/1999/02/22-rdf-syntax-ns#"
   xmlns:svg="http://www.w3.org/2000/svg"
   xmlns="http://www.w3.org/2000/svg"
   xmlns:xlink="http://www.w3.org/1999/xlink"
   xmlns:sodipodi="http://sodipodi.sourceforge.net/DTD/sodipodi-0.dtd"
   xmlns:inkscape="http://www.inkscape.org/namespaces/inkscape"
   contentScriptType="text/ecmascript"
   zoomAndPan="magnify"
   contentStyleType="text/css"
   version="1.1"
   width="64"
   preserveAspectRatio="xMidYMid meet"
   viewBox="0 0 64 64"
   height="64"
   x="0px"
   y="0px"
   id="svg23898"
   inkscape:version="0.48.4 r9939"
   sodipodi:docname="style.svg">
  <metadata
     id="metadata24015">
    <rdf:RDF>
      <cc:Work
         rdf:about="">
        <dc:format>image/svg+xml</dc:format>
        <dc:type
           rdf:resource="http://purl.org/dc/dcmitype/StillImage" />
        <dc:title></dc:title>
      </cc:Work>
    </rdf:RDF>
  </metadata>
  <defs
     id="defs24013">
    <linearGradient
       inkscape:collect="always"
       xlink:href="#linearGradient2265"
       id="linearGradient2271"
       x1="14.017542"
       y1="36.942543"
       x2="15.415793"
       y2="38.268368"
       gradientUnits="userSpaceOnUse"
       gradientTransform="matrix(0.878099,-0.0173237,0.0173237,0.878099,31.526698,34.691768)" />
    <linearGradient
       inkscape:collect="always"
       id="linearGradient2265">
      <stop
         style="stop-color:#000000;stop-opacity:1;"
         offset="0"
         id="stop2267" />
      <stop
         style="stop-color:#000000;stop-opacity:0;"
         offset="1"
         id="stop2269" />
    </linearGradient>
    <linearGradient
       inkscape:collect="always"
       xlink:href="#linearGradient2257"
       id="linearGradient2263"
       x1="12.004697"
       y1="35.688461"
       x2="10.650805"
       y2="33.194965"
       gradientUnits="userSpaceOnUse"
       gradientTransform="matrix(1.007254,-0.02636526,0.02636526,1.007254,30.956422,30.70306)" />
    <linearGradient
       inkscape:collect="always"
       id="linearGradient2257">
      <stop
         style="stop-color:#ffffff;stop-opacity:1;"
         offset="0"
         id="stop2259" />
      <stop
         style="stop-color:#ffffff;stop-opacity:0;"
         offset="1"
         id="stop2261" />
    </linearGradient>
    <linearGradient
       inkscape:collect="always"
       xlink:href="#linearGradient3087"
       id="linearGradient3093"
       x1="9.7503242"
       y1="32.28376"
       x2="16.915297"
       y2="39.443218"
       gradientUnits="userSpaceOnUse"
       gradientTransform="matrix(0.87827,0,0,0.87827,31.899999,35.59155)" />
    <linearGradient
       id="linearGradient3087">
      <stop
         style="stop-color:#3465a4;stop-opacity:1;"
         offset="0"
         id="stop3089" />
      <stop
         id="stop3095"
         offset="0"
         style="stop-color:#9fbce1;stop-opacity:1;" />
      <stop
         style="stop-color:#6b95ca;stop-opacity:1;"
         offset="0"
         id="stop2242" />
      <stop
         id="stop2244"
         offset="0.75"
         style="stop-color:#3d6aa5;stop-opacity:1;" />
      <stop
         style="stop-color:#386eb4;stop-opacity:1;"
         offset="1"
         id="stop3091" />
    </linearGradient>
    <linearGradient
       gradientTransform="translate(29.363011,30.623869)"
       inkscape:collect="always"
       xlink:href="#linearGradient2250"
       id="linearGradient2256"
       x1="31.177404"
       y1="19.821514"
       x2="40.859177"
       y2="9.6568537"
       gradientUnits="userSpaceOnUse" />
    <linearGradient
       inkscape:collect="always"
       id="linearGradient2250">
      <stop
         style="stop-color:#ffffff;stop-opacity:1;"
         offset="0"
         id="stop2252" />
      <stop
         style="stop-color:#ffffff;stop-opacity:0;"
         offset="1"
         id="stop2254" />
    </linearGradient>
    <linearGradient
       inkscape:collect="always"
       xlink:href="#linearGradient3077"
       id="linearGradient3083"
       x1="38.227654"
       y1="13.602527"
       x2="37.53537"
       y2="6.6285896"
       gradientUnits="userSpaceOnUse"
       gradientTransform="matrix(0.87827,0,0,0.87827,32.210514,36.212581)" />
    <linearGradient
       id="linearGradient3077">
      <stop
         style="stop-color:#98a0a9;stop-opacity:1;"
         offset="0"
         id="stop3079" />
      <stop
         style="stop-color:#c3d0dd;stop-opacity:1;"
         offset="1"
         id="stop3081" />
    </linearGradient>
    <linearGradient
       inkscape:collect="always"
       xlink:href="#linearGradient3061"
       id="linearGradient3067"
       x1="50.152931"
       y1="-3.6324477"
       x2="25.291086"
       y2="-4.3002653"
       gradientUnits="userSpaceOnUse"
       gradientTransform="matrix(0.87826988,0,0,0.87826988,47.753394,1.995249)" />
    <linearGradient
       id="linearGradient3061">
      <stop
         style="stop-color:#ffffff;stop-opacity:1;"
         offset="0"
         id="stop3063" />
      <stop
         style="stop-color:#000000;stop-opacity:1;"
         offset="1"
         id="stop3065" />
    </linearGradient>
    <linearGradient
       inkscape:collect="always"
       xlink:href="#linearGradient3049"
       id="linearGradient3055"
       x1="19.648342"
       y1="42.253601"
       x2="20.631224"
       y2="6.7758031"
       gradientUnits="userSpaceOnUse"
       gradientTransform="matrix(0.87827,0,0,0.87827,31.899999,35.59155)" />
    <linearGradient
       id="linearGradient3049">
      <stop
         style="stop-color:#b6b6b6;stop-opacity:1;"
         offset="0"
         id="stop3051" />
      <stop
         id="stop2262"
         offset="0.5"
         style="stop-color:#f2f2f2;stop-opacity:1;" />
      <stop
         style="stop-color:#fafafa;stop-opacity:1;"
         offset="0.67612958"
         id="stop2264" />
      <stop
         id="stop2268"
         offset="0.84051722"
         style="stop-color:#d8d8d8;stop-opacity:1;" />
      <stop
         id="stop2266"
         offset="0.875"
         style="stop-color:#f2f2f2;stop-opacity:1;" />
      <stop
         style="stop-color:#dbdbdb;stop-opacity:1;"
         offset="1"
         id="stop3053" />
    </linearGradient>
    <radialGradient
       inkscape:collect="always"
       xlink:href="#linearGradient3041"
       id="radialGradient3047"
       cx="24.8125"
       cy="39.125"
       fx="24.8125"
       fy="39.125"
       r="17.6875"
       gradientTransform="matrix(1,0,0,0.374558,0,24.47041)"
       gradientUnits="userSpaceOnUse" />
    <linearGradient
       inkscape:collect="always"
       id="linearGradient3041">
      <stop
         style="stop-color:#000000;stop-opacity:1;"
         offset="0"
         id="stop3043" />
      <stop
         style="stop-color:#000000;stop-opacity:0;"
         offset="1"
         id="stop3045" />
    </linearGradient>
    <radialGradient
       inkscape:collect="always"
       xlink:href="#linearGradient3041"
       id="radialGradient2260"
       gradientUnits="userSpaceOnUse"
       gradientTransform="matrix(1,0,0,0.374558,0,24.47041)"
       cx="24.8125"
       cy="39.125"
       fx="24.8125"
       fy="39.125"
       r="17.6875" />
    <radialGradient
       r="17.6875"
       fy="39.125"
       fx="24.8125"
       cy="39.125"
       cx="24.8125"
       gradientTransform="matrix(1,0,0,0.374558,0,24.47041)"
       gradientUnits="userSpaceOnUse"
       id="radialGradient52926"
       xlink:href="#linearGradient3041"
       inkscape:collect="always" />
    <radialGradient
       inkscape:collect="always"
       xlink:href="#linearGradient3041"
       id="radialGradient53062"
       gradientUnits="userSpaceOnUse"
       gradientTransform="matrix(1,0,0,0.374558,0,24.47041)"
       cx="24.8125"
       cy="39.125"
       fx="24.8125"
       fy="39.125"
       r="17.6875" />
    <radialGradient
       inkscape:collect="always"
       xlink:href="#linearGradient3041"
       id="radialGradient53064"
       gradientUnits="userSpaceOnUse"
       gradientTransform="matrix(1,0,0,0.374558,0,24.47041)"
       cx="24.8125"
       cy="39.125"
       fx="24.8125"
       fy="39.125"
       r="17.6875" />
    <linearGradient
       inkscape:collect="always"
       xlink:href="#linearGradient3049"
       id="linearGradient53066"
       gradientUnits="userSpaceOnUse"
       gradientTransform="matrix(0.87827,0,0,0.87827,31.899999,35.59155)"
       x1="19.648342"
       y1="42.253601"
       x2="20.631224"
       y2="6.7758031" />
    <linearGradient
       inkscape:collect="always"
       xlink:href="#linearGradient3061"
       id="linearGradient53068"
       gradientUnits="userSpaceOnUse"
       gradientTransform="matrix(0.87826988,0,0,0.87826988,47.753394,1.995249)"
       x1="50.152931"
       y1="-3.6324477"
       x2="25.291086"
       y2="-4.3002653" />
    <linearGradient
       inkscape:collect="always"
       xlink:href="#linearGradient3077"
       id="linearGradient53070"
       gradientUnits="userSpaceOnUse"
       gradientTransform="matrix(0.87827,0,0,0.87827,32.210514,36.212581)"
       x1="38.227654"
       y1="13.602527"
       x2="37.53537"
       y2="6.6285896" />
    <linearGradient
       inkscape:collect="always"
       xlink:href="#linearGradient2250"
       id="linearGradient53072"
       gradientUnits="userSpaceOnUse"
       gradientTransform="translate(29.363011,30.623869)"
       x1="31.177404"
       y1="19.821514"
       x2="40.859177"
       y2="9.6568537" />
    <linearGradient
       inkscape:collect="always"
       xlink:href="#linearGradient3087"
       id="linearGradient53074"
       gradientUnits="userSpaceOnUse"
       gradientTransform="matrix(0.87827,0,0,0.87827,31.899999,35.59155)"
       x1="9.7503242"
       y1="32.28376"
       x2="16.915297"
       y2="39.443218" />
    <linearGradient
       inkscape:collect="always"
       xlink:href="#linearGradient2257"
       id="linearGradient53076"
       gradientUnits="userSpaceOnUse"
       gradientTransform="matrix(1.007254,-0.02636526,0.02636526,1.007254,30.956422,30.70306)"
       x1="12.004697"
       y1="35.688461"
       x2="10.650805"
       y2="33.194965" />
    <linearGradient
       inkscape:collect="always"
       xlink:href="#linearGradient2265"
       id="linearGradient53078"
       gradientUnits="userSpaceOnUse"
       gradientTransform="matrix(0.878099,-0.0173237,0.0173237,0.878099,31.526698,34.691768)"
       x1="14.017542"
       y1="36.942543"
       x2="15.415793"
       y2="38.268368" />
  </defs>
  <sodipodi:namedview
     pagecolor="#ffffff"
     bordercolor="#666666"
     borderopacity="1"
     objecttolerance="10"
     gridtolerance="10"
     guidetolerance="10"
     inkscape:pageopacity="0"
     inkscape:pageshadow="2"
     inkscape:window-width="1920"
     inkscape:window-height="1178"
     id="namedview24011"
     showgrid="false"
     inkscape:zoom="0.40728949"
     inkscape:cx="-212.12155"
     inkscape:cy="165.19418"
     inkscape:window-x="-8"
     inkscape:window-y="-8"
     inkscape:window-maximized="1"
     inkscape:current-layer="svg23898" />
  <rect
     width="44"
     height="44"
     id="rect23900"
     x="0"
     y="20"
     style="fill:none" />
  <g
     id="g23902"
     transform="matrix(1.5200779,0,0,1.5200779,-6.3985018,-9.3201627)">
    <g
       id="g23904">
      <g
         id="g23906">
        <path
           d="M 21.921,36.945 21.91,26.896 C 21.912,26.867 21.912,26.83 21.912,26.782999 21.908,26.453 21.878,25.678 21.379002,24.875 c -0.49,-0.816 -1.57,-1.516 -3.079001,-1.49 l -9.897001,0 c -0.025,-0.002 -0.053001,-0.002 -0.08,-0.002 -1.461,0 -2.5150004,0.686 -2.994,1.488 -0.498,0.803 -0.529,1.576 -0.535,1.91 0,0.059 0.002,0.098 0.002,0.121 L 4.807,37 c 0,-0.035 -0.002,0.021 -0.002,0.104 0.006,0.338 0.037,1.111 0.539,1.912 0.488,0.813998 1.5700002,1.506 3.0739997,1.481997 l 9.8950003,0 c 1.501,0.023 2.583,-0.669997 3.072,-1.484001 0.504,-0.803001 0.535,-1.576 0.541,-1.91 C 21.927,37.039 21.924,36.982 21.921,36.945 z"
           id="path23908"
           inkscape:connector-curvature="0"
           style="fill-opacity:0.2" />
        <path
           d="m 5.744,36.998 c 0,0 -0.199,2.563 2.672,2.563 l 9.896,0 c 2.868,0 2.674,-2.563 2.674,-2.563"
           id="path23910"
           inkscape:connector-curvature="0"
           style="fill-opacity:0.4" />
        <linearGradient
           x1="181.35741"
           gradientTransform="matrix(1,0,0,-1,-168,-850)"
           y1="-873.25677"
           x2="181.35741"
           gradientUnits="userSpaceOnUse"
           y2="-888.49799"
           xlink:type="simple"
           xlink:actuate="onLoad"
           id="SVGID_1_"
           xlink:show="other">
          <stop
             stop-color="#ff0000"
             offset="0"
             id="stop23913" />
          <stop
             stop-color="#8300ba"
             offset="1"
             id="stop23915" />
        </linearGradient>
        <path
           d="m 5.729,25.82 0.015,10.114998 c 0,0 -0.199,2.562999 2.672,2.562999 l 9.896,0 c 2.868,0 2.674,-2.562999 2.674,-2.562999 L 20.973,25.82 c 0,0 0.191999,-2.563 -2.673,-2.563 l -9.895,0 c -2.87,0 -2.676,2.563 -2.676,2.563 z"
           id="path23917"
           inkscape:connector-curvature="0"
           style="fill:url(#SVGID_1_)" />
        <path
           d="m 20.526,31.041 -0.012,-4.895 c 0,0 0.184,-2.365 -2.498,-2.365 l -9.244,0 c -2.6809994,0 -2.4969994,2.365 -2.4969994,2.365 l 0.011,4.895 14.2399994,0 z"
           id="path23919"
           inkscape:connector-curvature="0"
           style="fill:#ffffff;fill-opacity:0.3" />
      </g>
      <g
         id="g23921">
        <path
           d="m 5.744,20.254 c 0,0 -0.199,2.563 2.672,2.563 l 9.896,0 c 2.868,0 2.674,-2.563 2.674,-2.563"
           id="path23923"
           inkscape:connector-curvature="0"
           style="fill-opacity:0.4" />
        <path
           d="M 21.921,20.203 21.91,10.152999 c 0.002,-0.03 0.002,-0.066 0.002,-0.113 -0.004,-0.332 -0.034,-1.107 -0.532998,-1.91 -0.49,-0.816 -1.57,-1.513 -3.079001,-1.4889997 l -9.897001,0 C 8.378,6.639 8.35,6.639 8.323,6.634 6.862,6.634 5.8079996,7.3149996 5.329,8.121 4.83,8.924 4.8,9.698 4.792,10.03 c 0,0.058 0.002,0.1 0.002,0.121 l 0.012,10.100999 c 0,-0.036 -0.002,0.022 -0.002,0.104 0.006,0.340001 0.037,1.108999 0.539,1.914 0.488,0.809999 1.57,1.500999 3.074,1.478001 l 9.895,0 c 1.501,0.025 2.583,-0.665002 3.072,-1.478001 0.504,-0.808001 0.535,-1.576001 0.541001,-1.912001 C 21.927,20.294 21.924,20.239 21.921,20.203 z"
           id="path23925"
           inkscape:connector-curvature="0"
           style="fill-opacity:0.2" />
        <linearGradient
           x1="181.35741"
           gradientTransform="matrix(1,0,0,-1,-168,-850)"
           y1="-871.75293"
           x2="181.35741"
           gradientUnits="userSpaceOnUse"
           y2="-856.51221"
           xlink:type="simple"
           xlink:actuate="onLoad"
           id="SVGID_2_"
           xlink:show="other">
          <stop
             stop-color="#e50d16"
             offset="0"
             id="stop23928" />
          <stop
             stop-color="#ffe800"
             offset="0.9011"
             id="stop23930" />
          <stop
             stop-color="#ffe800"
             offset="1"
             id="stop23932" />
        </linearGradient>
        <path
           d="M 5.729,9.075 5.744,19.19 c 0,0 -0.199,2.563 2.672,2.563 l 9.896,0 c 2.868,0 2.674,-2.563 2.674,-2.563 L 20.973,9.075 c 0,0 0.191999,-2.563 -2.673,-2.563 l -9.895,0 C 5.535,6.513 5.729,9.075 5.729,9.075 z"
           id="path23934"
           inkscape:connector-curvature="0"
           style="fill:url(#SVGID_2_)" />
        <path
           d="M 20.526,14.292 20.514,9.396 c 0,0 0.184,-2.3660003 -2.498,-2.3660003 l -9.244,0 C 6.0910006,7.0299997 6.2750006,9.396 6.2750006,9.396 l 0.011,4.896 14.2399994,0 z"
           id="path23936"
           inkscape:connector-curvature="0"
           style="fill:#ffffff;fill-opacity:0.3" />
      </g>
      <g
         id="g23938">
        <path
           d="m 38.791,20.203 -0.01,-10.050001 c 0.002,-0.03 0.002,-0.066 0.002,-0.113 -0.004,-0.332 -0.035,-1.107 -0.533,-1.91 -0.49,-0.816 -1.57,-1.513 -3.078,-1.4889997 l -9.895999,0 c -0.026,-0.002 -0.055,-0.002 -0.08,-0.007 -1.462999,0 -2.514,0.6810003 -2.995001,1.4869997 -0.497999,0.803001 -0.528,1.577 -0.536,1.909001 0,0.058 0.002,0.1 0.004,0.121 l 0.01,10.100999 c 0,-0.036 -0.002,0.022 -0.002,0.104 0.005,0.340001 0.037,1.108999 0.539,1.914 0.49,0.809999 1.572,1.500999 3.073999,1.478001 l 9.895998,0 c 1.501999,0.025 2.584,-0.665002 3.072998,-1.478001 0.505001,-0.808001 0.534,-1.576001 0.541,-1.912001 C 38.799,20.294 38.795,20.239 38.791,20.203 z m -16.189,-10.064 0,0 0,0 0,0 z"
           id="path23940"
           inkscape:connector-curvature="0"
           style="fill-opacity:0.2" />
        <linearGradient
           x1="-248.873"
           gradientTransform="matrix(-1,0,0,1,-218.6426,1597.4863)"
           y1="-1590.9922"
           x2="-248.873"
           gradientUnits="userSpaceOnUse"
           y2="-1568.6118"
           xlink:type="simple"
           xlink:actuate="onLoad"
           id="SVGID_3_"
           xlink:show="other">
          <stop
             stop-color="#baff12"
             offset="0"
             id="stop23943" />
          <stop
             stop-color="#53c280"
             offset="0.3626"
             id="stop23945" />
          <stop
             stop-color="#0d99cb"
             offset="0.533"
             id="stop23947" />
          <stop
             stop-color="#0091d9"
             offset="1"
             id="stop23949" />
        </linearGradient>
        <path
           d="m 22.602,9.075 0.015,10.114999 c 0,0 -0.198999,2.562999 2.671999,2.562999 l 9.896,0 c 2.870998,0 2.675998,-2.562999 2.675998,-2.562999 L 37.844,9.075 c 0,0 0.193003,-2.563 -2.672,-2.563 l -9.895999,0 C 22.406,6.513 22.602,9.075 22.602,9.075 z"
           id="path23951"
           inkscape:connector-curvature="0"
           style="fill:url(#SVGID_3_)" />
        <path
           d="M 37.357,14.292 37.345,9.396 c 0,0 0.183999,-2.3660003 -2.498001,-2.3660003 l -9.242,0 c -2.681,0 -2.496001,2.3660003 -2.496001,2.3660003 l 0.012,4.896 14.236005,0 z"
           id="path23953"
           inkscape:connector-curvature="0"
           style="fill:#ffffff;fill-opacity:0.3" />
      </g>
    </g>
  </g>
  <g
     id="g53047"
     transform="matrix(1.3321284,0,0,1.3321284,-37.624777,-38.176413)">
    <path
       sodipodi:type="arc"
       style="opacity:0.19886367;color:#000000;fill:url(#radialGradient53062);fill-opacity:1;fill-rule:nonzero;stroke:none;stroke-width:1;marker:none;visibility:visible;display:inline;overflow:visible"
       id="path2258"
       sodipodi:cx="24.8125"
       sodipodi:cy="39.125"
       sodipodi:rx="17.6875"
       sodipodi:ry="6.625"
       d="m 42.5,39.125 c 0,3.658886 -7.918963,6.625 -17.6875,6.625 -9.768537,0 -17.6875,-2.966114 -17.6875,-6.625 0,-3.658886 7.918963,-6.625 17.6875,-6.625 9.768537,0 17.6875,2.966114 17.6875,6.625 z"
       transform="matrix(0.751118,0,0,0.578703,46.403881,49.987278)" />
    <path
       transform="matrix(0.836071,0,0,0.685436,21.403404,46.341678)"
       d="m 42.5,39.125 c 0,3.658886 -7.918963,6.625 -17.6875,6.625 -9.768537,0 -17.6875,-2.966114 -17.6875,-6.625 0,-3.658886 7.918963,-6.625 17.6875,-6.625 9.768537,0 17.6875,2.966114 17.6875,6.625 z"
       sodipodi:ry="6.625"
       sodipodi:rx="17.6875"
       sodipodi:cy="39.125"
       sodipodi:cx="24.8125"
       id="path3039"
       style="opacity:0.3125;color:#000000;fill:url(#radialGradient53064);fill-opacity:1;fill-rule:nonzero;stroke:none;stroke-width:1;marker:none;visibility:visible;display:inline;overflow:visible"
       sodipodi:type="arc" />
    <path
       sodipodi:nodetypes="cczcccccccccsc"
       id="path2140"
       d="m 47.269724,51.839544 18.992589,19.431724 c 0.768486,0.87827 3.20351,1.557061 4.830485,0 1.571126,-1.503613 1.207621,-3.622864 -0.329351,-5.159837 L 52.539344,46.569924 c 2.25,-6.249999 -2.303889,-11.499567 -8.178889,-10.374567 l -1.262514,1.152729 3.952215,3.732648 0.219568,3.293516 -2.950842,2.693602 -3.526399,-0.388144 -3.622863,-3.403295 c 0,0 -1.270121,1.254904 -1.270121,1.254904 -0.590764,5.641316 5.307725,10.683227 11.370225,7.308227 z"
       style="color:#000000;fill:url(#linearGradient53066);fill-opacity:1;fill-rule:nonzero;stroke:#888a85;stroke-width:0.9999997;stroke-linecap:butt;stroke-linejoin:miter;stroke-miterlimit:4;stroke-opacity:1;stroke-dasharray:none;stroke-dashoffset:0;marker:none;visibility:visible;display:inline;overflow:visible"
       inkscape:connector-curvature="0" />
    <path
       style="opacity:0.42613639;color:#000000;fill:none;stroke:#ffffff;stroke-width:0.99999917;stroke-linecap:butt;stroke-linejoin:miter;stroke-miterlimit:4;stroke-opacity:1;stroke-dasharray:none;stroke-dashoffset:0;marker:none;visibility:visible;display:inline;overflow:visible"
       d="M 47.480396,50.563968 66.683278,70.59158 c 0.594907,0.679893 2.479927,1.205365 3.739414,0 1.216253,-1.163989 0.934853,-2.80456 -0.25496,-3.994374 L 51.6762,46.976051 c 1.5,-6.499999 -1.858788,-10.004637 -6.858788,-9.879637 l -0.270131,0.273377 3.602923,3.236267 0.130166,4.181794 -3.613917,3.298482 -4.242306,-0.458209 -3.176582,-2.99148 -0.352637,0.430059 c -0.3125,5.968749 6.491718,8.684764 10.585468,5.497264 z"
       id="path3057"
       sodipodi:nodetypes="cczccccccccccc"
       inkscape:connector-curvature="0" />
    <rect
       transform="matrix(0.69793809,0.7161581,-0.7161581,0.69793809,0,0)"
       ry="0.88388062"
       rx="0.88388062"
       y="-2.2734425"
       x="70.610428"
       height="2.055491"
       width="23.268272"
       id="rect3059"
       style="opacity:0.17045456;color:#000000;fill:none;stroke:url(#linearGradient53068);stroke-width:0.99999708;stroke-linecap:butt;stroke-linejoin:miter;stroke-miterlimit:4;stroke-opacity:1;stroke-dasharray:none;stroke-dashoffset:0;marker:none;visibility:visible;display:inline;overflow:visible" />
    <path
       sodipodi:nodetypes="ccccccccc"
       id="path2144"
       d="M 51.861805,60.749248 C 52.695346,60.034785 65.145639,47.300739 65.145639,47.300739 l 3.073945,-0.219568 4.830485,-6.696812 -4.024327,-3.585191 -6.257674,5.379406 0,3.073946 -12.734915,13.228941 c -0.60381,0.60381 1.060166,2.926489 1.828652,2.267787 z"
       style="color:#000000;fill:url(#linearGradient53070);fill-opacity:1;fill-rule:nonzero;stroke:#878f9d;stroke-width:0.9999997;stroke-linecap:butt;stroke-linejoin:miter;stroke-miterlimit:4;stroke-opacity:1;stroke-dasharray:none;stroke-dashoffset:0;marker:none;visibility:visible;display:inline;overflow:visible"
       inkscape:connector-curvature="0" />
    <path
       style="opacity:0.53977272;color:#000000;fill:none;stroke:url(#linearGradient53072);stroke-width:1.00000024;stroke-linecap:butt;stroke-linejoin:miter;stroke-miterlimit:4;stroke-opacity:1;stroke-dasharray:none;stroke-dashoffset:0;marker:none;visibility:visible;display:inline;overflow:visible"
       d="M 51.764998,59.709323 C 52.411771,59.154946 64.789399,46.479516 64.789399,46.479516 l 2.928583,-0.247999 4.213916,-5.662064 -2.889731,-2.54899 -5.476578,4.717473 0.155258,2.850954 -12.676105,13.292323 c -0.468518,0.468518 0.123961,1.33922 0.720256,0.82811 z"
       id="path3085"
       sodipodi:nodetypes="ccccccccc"
       inkscape:connector-curvature="0" />
    <path
       sodipodi:nodetypes="ccccccscc"
       id="path2142"
       d="m 37.828322,74.235429 c 1.316588,1.465229 4.973685,2.128165 6.595444,-0.709914 0.707107,-1.237436 2.093943,-4.702802 8.281128,-10.271268 1.039146,-0.934171 2.139909,-3.071138 1.206747,-4.223867 l -2.415243,-2.415243 c -0.988053,-1.097837 -3.734414,-0.585749 -4.861175,0.950876 -3.358757,4.596194 -8.846073,8.25488 -10.083509,8.696822 -2.36792,0.845685 -2.101411,4.336149 -0.534824,5.996487 l 1.811432,1.976107 z"
       style="color:#000000;fill:url(#linearGradient53074);fill-opacity:1;fill-rule:nonzero;stroke:#204a87;stroke-width:0.9999997;stroke-linecap:butt;stroke-linejoin:miter;stroke-miterlimit:4;stroke-opacity:1;stroke-dashoffset:0;marker:none;visibility:visible;display:inline;overflow:visible"
       inkscape:connector-curvature="0" />
    <path
       transform="matrix(0.87827,0,0,0.87827,31.790215,35.701333)"
       d="m 43.25,37.5 c 0,0.759392 -0.615608,1.375 -1.375,1.375 -0.759392,0 -1.375,-0.615608 -1.375,-1.375 0,-0.759392 0.615608,-1.375 1.375,-1.375 0.759392,0 1.375,0.615608 1.375,1.375 z"
       sodipodi:ry="1.375"
       sodipodi:rx="1.375"
       sodipodi:cy="37.5"
       sodipodi:cx="41.875"
       id="path2146"
       style="color:#000000;fill:#ffffff;fill-opacity:1;fill-rule:nonzero;stroke:#a1a1a1;stroke-width:1.13860166;stroke-linecap:butt;stroke-linejoin:miter;stroke-miterlimit:4;stroke-opacity:1;stroke-dasharray:none;stroke-dashoffset:0;marker:none;visibility:visible;display:inline;overflow:visible"
       sodipodi:type="arc" />
    <path
       transform="matrix(0.570876,0,0,0.570876,38.517859,41.874979)"
       d="m 20.771261,28.20101 c 0,0.97631 -0.791456,1.767767 -1.767767,1.767767 -0.97631,0 -1.767767,-0.791457 -1.767767,-1.767767 0,-0.976311 0.791457,-1.767767 1.767767,-1.767767 0.976311,0 1.767767,0.791456 1.767767,1.767767 z"
       sodipodi:ry="1.767767"
       sodipodi:rx="1.767767"
       sodipodi:cy="28.20101"
       sodipodi:cx="19.003494"
       id="path3101"
       style="opacity:0.60227272;color:#000000;fill:#ffffff;fill-opacity:1;fill-rule:nonzero;stroke:none;stroke-width:1;marker:none;visibility:visible;display:inline;overflow:visible"
       sodipodi:type="arc" />
    <path
       sodipodi:nodetypes="cc"
       id="path3103"
       d="m 48.041916,60.248675 c 0,0 -7.169891,7.299613 -10.528648,8.53705"
       style="color:#000000;fill:none;stroke:url(#linearGradient53076);stroke-width:2.29450917;stroke-linecap:round;stroke-linejoin:round;stroke-miterlimit:4;stroke-opacity:1;stroke-dasharray:none;stroke-dashoffset:0;marker:none;visibility:visible;display:inline;overflow:visible"
       inkscape:connector-curvature="0" />
    <path
       style="opacity:0.19886367;color:#000000;fill:none;stroke:#ffffff;stroke-width:0.99999946;stroke-linecap:butt;stroke-linejoin:miter;stroke-miterlimit:4;stroke-opacity:1;stroke-dasharray:none;stroke-dashoffset:0;marker:none;visibility:visible;display:inline;overflow:visible"
       d="m 38.169012,73.110558 c 1.441266,1.745617 4.599534,2.161229 5.59116,-0.370589 0.681307,-1.739512 3.333622,-5.665787 8.197584,-10.043353 0.816909,-0.734385 1.682258,-2.414329 0.948666,-3.32053 l -1.898707,-1.898707 c -0.776743,-0.863048 -2.935753,-0.460478 -3.82154,0.747517 -2.640436,3.613229 -8.483344,8.339554 -9.895749,8.805626 -2.186795,0.72161 -1.776993,3.221299 -0.545443,4.526549 l 1.424029,1.553487 z"
       id="path2270"
       sodipodi:nodetypes="csccccscc"
       inkscape:connector-curvature="0" />
    <path
       sodipodi:nodetypes="cc"
       id="path2247"
       d="m 50.187613,61.884892 c 0,0 -7.322763,6.617405 -8.913753,10.860045"
       style="opacity:0.27840911;color:#000000;fill:none;stroke:url(#linearGradient53078);stroke-width:2.29450917;stroke-linecap:round;stroke-linejoin:round;stroke-miterlimit:4;stroke-opacity:1;stroke-dashoffset:0;marker:none;visibility:visible;display:inline;overflow:visible"
       inkscape:connector-curvature="0" />
  </g>
</svg>
