<?xml version="1.0" encoding="UTF-8" standalone="no"?>
<svg
   xmlns:dc="http://purl.org/dc/elements/1.1/"
   xmlns:cc="http://creativecommons.org/ns#"
   xmlns:rdf="http://www.w3.org/1999/02/22-rdf-syntax-ns#"
   xmlns:svg="http://www.w3.org/2000/svg"
   xmlns="http://www.w3.org/2000/svg"
   xmlns:sodipodi="http://sodipodi.sourceforge.net/DTD/sodipodi-0.dtd"
   xmlns:inkscape="http://www.inkscape.org/namespaces/inkscape"
   width="1440"
   height="1440"
   viewBox="43 -188 937 937"
   id="svg2"
   sodipodi:version="0.32"
   inkscape:version="0.48.2 r9819"
   sodipodi:docname="lang-lua.svg"
   inkscape:output_extension="org.inkscape.output.svg.inkscape"
   version="1.0">
  <metadata
     id="metadata31">
    <rdf:RDF>
      <cc:Work
         rdf:about="">
        <dc:format>image/svg+xml</dc:format>
        <dc:type
           rdf:resource="http://purl.org/dc/dcmitype/StillImage" />
        <dc:title>generated by pstoedit</dc:title>
      </cc:Work>
    </rdf:RDF>
  </metadata>
  <defs
     id="defs29" />
  <sodipodi:namedview
     inkscape:window-height="682"
     inkscape:window-width="1024"
     inkscape:pageshadow="2"
     inkscape:pageopacity="0.0"
     guidetolerance="10.0"
     gridtolerance="10.0"
     objecttolerance="10.0"
     borderopacity="1.0"
     bordercolor="#666666"
     pagecolor="#ffffff"
     id="base"
     showgrid="false"
     inkscape:zoom="0.45117188"
     inkscape:cx="729.21212"
     inkscape:cy="711.20107"
     inkscape:window-x="-4"
     inkscape:window-y="-4"
     inkscape:current-layer="svg2"
     inkscape:window-maximized="0" />
  <title
     id="title4">generated by pstoedit</title>
  <!-- generated by pstoedit version:3.50 -->
  <g
     xml:space="preserve"
     id="g6"
     transform="matrix(0.975633,0,0,0.975633,16.980554,12.32734)"
     inkscape:export-filename="C:\Users\gribeiro\Documents\terralib5\trunk\icons\tango\16x16\terralib\lang-lua.png"
     inkscape:export-xdpi="1.01"
     inkscape:export-ydpi="1.01">
<g
   stroke-miterlimit="10"
   id="g8"
   style="fill:#000080;fill-rule:nonzero;stroke-width:0;stroke-linecap:butt;stroke-linejoin:miter;stroke-miterlimit:10">
	<path
   d="M 874.035,280 C 874.035,80.055 711.945,-82.035 512,-82.035 C 312.055,-82.035 149.965,80.055 149.965,280 C 149.965,479.945 312.055,642.035 512,642.035 C 711.945,642.035 874.035,479.945 874.035,280"
   id="path10" />
</g>
<g
   stroke-miterlimit="10"
   id="g12"
   style="fill:#ffffff;fill-rule:nonzero;stroke-width:0;stroke-linecap:butt;stroke-linejoin:miter;stroke-miterlimit:10">
	<path
   d="M 767.996,130.039 C 767.996,71.477 720.523,24.004 661.961,24.004 C 603.398,24.004 555.922,71.477 555.922,130.039 C 555.922,188.602 603.398,236.078 661.961,236.078 C 720.523,236.078 767.996,188.602 767.996,130.039"
   id="path14" />
</g>
<g
   stroke-miterlimit="10"
   id="g16"
   style="fill:#000080;fill-rule:nonzero;stroke-width:0;stroke-linecap:butt;stroke-linejoin:miter;stroke-miterlimit:10">
	<path
   d="M 980.074,-82.035 C 980.074,-140.598 932.598,-188.074 874.035,-188.074 C 815.473,-188.074 767.996,-140.598 767.996,-82.035 C 767.996,-23.473 815.473,24.004 874.035,24.004 C 932.598,24.004 980.074,-23.473 980.074,-82.035"
   id="path18" />
</g>
<g
   style="font-size:325.83499146px;fill:#ffffff;stroke:none;font-family:'Helvetica, Arial'"
   id="g20">
	<text
   transform="translate(240.258,461.012)"
   id="text22">Lua</text>



</g>
<g
   stroke-miterlimit="10"
   id="g24"
   style="fill:none;stroke:#808080;stroke-width:10.86120033;stroke-linecap:butt;stroke-linejoin:miter;stroke-miterlimit:10;stroke-dasharray:40.8475;stroke-dashoffset:0">
	<path
   d="M 929.059,67.5 C 962.59,133.312 980.074,206.133 980.074,280 C 980.074,538.512 770.512,748.074 512,748.074 C 253.488,748.074 43.9258,538.512 43.9258,280 C 43.9258,21.488 253.488,-188.074 512,-188.074 C 602.488,-188.074 691.039,-161.844 766.93,-112.563"
   id="path26" />
</g>
</g></svg>
